<svg xmlns="http://www.w3.org/2000/svg" viewBox="0 0 600 599.61"><defs><style>.cls-1{fill:#001957;}.cls-2{fill:none;}.cls-3{fill:#0a54cc;}.cls-4{fill:#145acc;}.cls-5{fill:#1d60cc;}.cls-6{fill:#2766cc;}.cls-7{fill:#316ccc;}.cls-8{fill:#3b72cc;}.cls-9{fill:#4578cc;}.cls-10{fill:#4e7ecc;}.cls-11{fill:#5884cc;}.cls-12{fill:#628acc;}.cls-13{fill:#004ecc;}</style></defs><title>icons - Over Under - Light</title><g id="Over_Under" data-name="Over Under"><g id="Building_Light_copy_5" data-name="Building Light copy 5"><path class="cls-1" d="M485.66,191.63a1.5,1.5,0,0,0-1.33-.23l-15.64,4.71a1.6,1.6,0,0,0-.39.11L316,242.09a1.5,1.5,0,0,0-1.06,1.44V472.37a1.49,1.49,0,0,0,.6,1.2,1.48,1.48,0,0,0,.9.3,1.29,1.29,0,0,0,.43-.07L485.2,423a1.51,1.51,0,0,0,1.07-1.44V192.83A1.5,1.5,0,0,0,485.66,191.63ZM318,244.64l149.48-45V415.81l-18,5.43L318,381.8Zm0,138.2L447.7,421.77,318,461Zm0,87.51v-6.24l151.41-45.76.07,0,.15-.07.12-.06.12-.09.12-.09.09-.1a.52.52,0,0,0,.1-.11v0l11.12,3.26Zm165.32-49.9-.26.08-12.58-3.69V198.72l12.84-3.87Z"/><path class="cls-1" d="M522.81,463.14a.43.43,0,0,0,0-.05,1.23,1.23,0,0,0,0-.2.3.3,0,0,0,0-.1,1.21,1.21,0,0,0,0-.18l-.05-.1a.8.8,0,0,0-.08-.16l-.06-.09-.11-.13-.08-.09-.13-.1-.11-.07-.14-.08-.13-.06s-.05,0-.08,0l-12-3.6v-9.22h0v-9.12s0,0,0-.05a.88.88,0,0,0,0-.16.78.78,0,0,0,0-.14l0-.13s0-.1-.05-.14a1.27,1.27,0,0,0-.07-.12.57.57,0,0,0-.08-.13.48.48,0,0,0-.09-.11l-.09-.11-.11-.09-.13-.09-.11-.06-.15-.07-.05,0-6.63-2.28V168.32l7.24-7.44a1.53,1.53,0,0,0,.43-1V144.44a4.32,4.32,0,0,0-1-8.35l-.12-.06L301,73.74l-.17,0-.12,0h-.36l-.22,0-32.85,9.87,5.22,1.57,27.57-8.29v7l-15.92,4.78,1.74.52,14.68-4.41,189.13,56.74L300.61,198.24l-189-56.67,26.21-7.88v-1l-27.95,8.4-11.65-3.5,39.56-11.89,0-3.12L92.84,136h-.08a4.33,4.33,0,0,0-1.32,8.39v15.39a1.52,1.52,0,0,0,.42,1l7.25,7.44v267.8L92.37,439a1.49,1.49,0,0,0-.91,1.38v22.1a1.5,1.5,0,0,0,1.06,1.44l207.65,62.33h.05a1.58,1.58,0,0,0,.38,0h0a1.58,1.58,0,0,0,.38,0H301l135.14-40.55,27.76,8.41a1.64,1.64,0,0,0,.88,0l56.92-17.18.07,0,.16-.07a.6.6,0,0,0,.11-.06l.13-.08.11-.09.1-.11.09-.11a.83.83,0,0,0,.08-.12.75.75,0,0,0,.07-.12l.06-.14s0-.09,0-.14l0-.13a.92.92,0,0,0,0-.16s0-.05,0-.08Zm-223.7,59.65L94.46,461.35v-20h0l204.63,61.38Zm0-21.1-203.19-61,5.27-2.23.26-.14.11-.09a.52.52,0,0,0,.11-.1,1.09,1.09,0,0,0,.1-.11l0-.06,197.3,59.19Zm0-5.54-197-59.1V168.68l197,59Zm0-269.49-197-59a1.63,1.63,0,0,0-.09-.45,0,0,0,0,1,0,0,1.52,1.52,0,0,0-.31-.48,0,0,0,0,0,0,0L98,162.92l201.08,60.3Zm0-6.58L94.44,158.71V144.19l204.67,61.37Zm0-15.56L94.43,143.14a1.5,1.5,0,0,0-1.49-1.42,1.33,1.33,0,0,1-.12-2.66l206.29,61.86ZM451.83,466.43l54.93-16.57v9.29l-54.93,16.58Zm-.51-.89L438,462l56.12-16.83,12.43,3.72Zm55.44-17.63-10.93-3.27,10.93-3.28Zm-205.65-364v-7l202,60.61L491.48,141Zm1,117,206.28-61.86a1.33,1.33,0,0,1-.11,2.66,1.51,1.51,0,0,0-1.5,1.42L302.11,204.52Zm0,4.64,204.67-61.37v14.52L302.11,220.08Zm0,17.66,201.07-60.3-3.65,3.75a0,0,0,0,1,0,0,1.5,1.5,0,0,0-.3.48l0,0a1.63,1.63,0,0,0-.09.45l-197,59Zm0,4.48,197-59V437.05l-197,59.1Zm133.52,255-.2.08-133.32,40V502.73l133.52-40Zm-133.52,19v-4.5L499.4,438a.39.39,0,0,0,.08.1l.1.1a.48.48,0,0,0,.11.09.54.54,0,0,0,.12.09,1.05,1.05,0,0,0,.11.07l.16.07h0l5.86,2Zm134.52-19v-20l14.2,3.78v9.95a.55.55,0,0,0,.09.28l0,0a.53.53,0,0,0,.23.16h0l12.69,3.81v10.25Zm27.75-2.89-11.32-3.4,54-16.29,0,0,.07.08.12.13.09.07.15.1.1.05.17.07.06,0,10,3Zm.5,11.14V480.69l54.7-16.5.23.07v10.11Z"/></g><g id="Wave-4" data-name="Wave"><path class="cls-2" d="M326.63,344.12c1.4-.74,2.85-1.5,4.32-2.16,2.12-.95,4.33-1.7,6.47-2.43A50.24,50.24,0,0,0,346,336a48.78,48.78,0,0,0,5.29-3.61,53.25,53.25,0,0,1,8.34-5.43,54.88,54.88,0,0,1,6.53-2.5,36.17,36.17,0,0,0,8.57-3.7,19.11,19.11,0,0,0,2.43-1.94,49.81,49.81,0,0,0,4.71-5.39c1.21-1.51,2.45-3.08,3.81-4.5a60.77,60.77,0,0,1,6.34-5.5,59.22,59.22,0,0,0,6-5.16,74.4,74.4,0,0,0,5.52-6.66,80.63,80.63,0,0,1,5.61-6.78c1.22-1.25,2.53-2.45,3.81-3.62s2.68-2.44,3.91-3.73a26,26,0,0,0,4.09-5.41,43.11,43.11,0,0,0,3.25-8.76,52.88,52.88,0,0,1,2.74-7.88,29.75,29.75,0,0,1,1.8-3.25c1.06-1.69,2.29-3.32,3.47-4.9a51.81,51.81,0,0,0,4.53-6.73c2.06-3.91,3-8.2,3.93-12.74l.07-.31c.25-1.17.5-2.35.79-3.51.51-2.06,1.16-4.12,1.79-6.12a59.65,59.65,0,0,0,2.64-10.67c0-.38.08-.77.11-1.15l-19.1,5.76-.33.88a52.91,52.91,0,0,0-2,5.88c-.21.85-.41,1.78-.63,3l-.33,2c-.59,3.5-1.2,7.12-2.84,10.38a38.08,38.08,0,0,1-4.53,6.51c-1,1.26-2,2.56-2.94,3.87a19.85,19.85,0,0,0-1.5,2.61,36.87,36.87,0,0,0-2.18,6.78,33.16,33.16,0,0,1-2.89,8.27,22.19,22.19,0,0,1-4.16,5.17c-1,.94-2,1.83-3,2.7a50,50,0,0,0-3.95,3.65,45.82,45.82,0,0,0-4.4,5.91,46.78,46.78,0,0,1-4.91,6.5,40.17,40.17,0,0,1-6,4.79,39.71,39.71,0,0,0-5.5,4.37,41.22,41.22,0,0,0-3.56,4.41,41.12,41.12,0,0,1-3.89,4.77,16.69,16.69,0,0,1-2.44,2.06,29.41,29.41,0,0,1-8.07,3.37,36.35,36.35,0,0,0-5.88,2.16,34.53,34.53,0,0,0-6.31,4.5l-.58.48a33.6,33.6,0,0,1-5,3.57,35,35,0,0,1-7.93,2.85,32.29,32.29,0,0,0-10.4,4.31l-.65.38c-.75.43-1.51.86-2.28,1.28v18.69a36.92,36.92,0,0,0,7.15-3Z"/><path class="cls-2" d="M337.17,383.14c1.65-.71,3.3-1.49,4.9-2.25l2.22-1.05c1.77-.82,3.56-1.61,5.35-2.4a126.58,126.58,0,0,0,12.25-5.93c1.71-1,3.41-2.08,5.05-3.14l1.58-1a85.47,85.47,0,0,1,10.37-5.77c2.16-1,4.43-1.85,6.63-2.69a60.54,60.54,0,0,0,11.31-5.2,30.31,30.31,0,0,0,3.07-2.27,69.49,69.49,0,0,0,7.55-7.79c1-1.18,2.1-2.4,3.19-3.57,2.53-2.73,5.29-5.31,7.95-7.8,2-1.9,4.14-3.87,6.1-5.87,2.21-2.25,4.4-4.6,6.51-6.87,2.67-2.88,5.43-5.85,8.3-8.67l2.3-2.23a95.07,95.07,0,0,0,6.78-7,40.42,40.42,0,0,0,4.79-7,77.39,77.39,0,0,0,4.48-11,96,96,0,0,1,3.5-9.11c.6-1.3,1.3-2.63,2-3.94,1.24-2.15,2.64-4.26,4-6.31V203.23c0,.07,0,.14,0,.21l-.05,1.29c-.09,2.18-.17,4.44-.42,6.66a95.7,95.7,0,0,1-3,14.05c-.45,1.7-.91,3.38-1.32,5.08-.2.79-.38,1.59-.57,2.39l-.34,1.45a60,60,0,0,1-5.24,14.91,75.12,75.12,0,0,1-4.84,7.43c-1.33,1.87-2.7,3.8-3.87,5.75a37.12,37.12,0,0,0-1.83,3.42,71,71,0,0,0-3,8.27,60.15,60.15,0,0,1-4,10.22,34.64,34.64,0,0,1-4.72,6.56c-1.66,1.87-3.5,3.61-5.28,5.29-1.06,1-2.16,2-3.18,3.07-2.33,2.34-4.52,4.9-6.63,7.38s-4.1,4.81-6.33,7.09c-2,2.05-4.2,4-6.33,5.8-2.32,2-4.72,4.1-6.83,6.34-1.23,1.31-2.42,2.72-3.57,4.09a59.85,59.85,0,0,1-6.19,6.66,26.81,26.81,0,0,1-3,2.28,48.26,48.26,0,0,1-10.28,4.62c-2.17.78-4.42,1.6-6.49,2.56a66.18,66.18,0,0,0-9.07,5.44l-.55.38c-1.78,1.23-3.62,2.49-5.56,3.6a79.17,79.17,0,0,1-10.24,4.61c-2.06.82-4.19,1.66-6.22,2.59-1.17.54-2.34,1.11-3.51,1.69q-1.47.73-3,1.44a39.81,39.81,0,0,1-10.45,3.51,33.38,33.38,0,0,1-3.62.39v17.34a61.9,61.9,0,0,0,8.23-.61A46.77,46.77,0,0,0,337.17,383.14Z"/><path class="cls-2" d="M331.08,405.57a55.49,55.49,0,0,0,12.14-3.33c2.59-1,5.15-2.24,7.64-3.41l.88-.41c6-2.84,12.27-5.77,18.12-9.18,1.41-.82,2.81-1.68,4.2-2.53,1-.63,2.05-1.26,3.08-1.87a106.24,106.24,0,0,1,11.39-6c2.08-.92,4.24-1.78,6.33-2.6a78,78,0,0,0,13-6.12,35.42,35.42,0,0,0,3.4-2.44,83.44,83.44,0,0,0,9.54-9.54c.76-.85,1.53-1.71,2.31-2.55,3.33-3.64,6.88-7.17,10.31-10.58q2.32-2.3,4.61-4.61l1.32-1.33c5-5,10.11-10.23,15.31-15.25l.86-.82a103.58,103.58,0,0,0,8.93-9.33,49.89,49.89,0,0,0,2.95-4.06V267.56c-.86,1.31-1.7,2.63-2.47,4s-1.39,2.55-2,3.81a93.62,93.62,0,0,0-3.43,8.94A78.08,78.08,0,0,1,455,295.54a42.55,42.55,0,0,1-5,7.28,96.84,96.84,0,0,1-6.91,7.11c-.77.74-1.54,1.47-2.29,2.22-2.84,2.79-5.59,5.74-8.24,8.6-2.12,2.29-4.31,4.64-6.54,6.91-2,2-4.11,4-6.16,5.92-2.64,2.48-5.37,5-7.86,7.72-1.07,1.15-2.13,2.36-3.15,3.53a72,72,0,0,1-7.75,8,31.43,31.43,0,0,1-3.26,2.41,62.36,62.36,0,0,1-11.64,5.37c-2.18.82-4.42,1.68-6.53,2.64a83.68,83.68,0,0,0-10.15,5.65l-1.57,1c-1.66,1.07-3.37,2.17-5.12,3.18a128.82,128.82,0,0,1-12.42,6c-1.78.78-3.56,1.57-5.32,2.39l-2.21,1c-1.61.77-3.28,1.56-5,2.28a48.46,48.46,0,0,1-11.46,3.47,65.35,65.35,0,0,1-8.52.63v17.58l2.07-.08A102.64,102.64,0,0,0,331.08,405.57Z"/><path class="cls-2" d="M331.12,364c1-.46,2-.94,2.94-1.42,1.18-.59,2.37-1.17,3.56-1.72,2.08-.95,4.23-1.8,6.32-2.63a77.51,77.51,0,0,0,10-4.49c1.86-1.06,3.67-2.31,5.42-3.51l.55-.38a67.62,67.62,0,0,1,9.35-5.6c2.15-1,4.45-1.83,6.67-2.63a47.92,47.92,0,0,0,9.85-4.41,24,24,0,0,0,2.75-2.11,60.11,60.11,0,0,0,6-6.45c1.17-1.39,2.37-2.82,3.64-4.17a94.45,94.45,0,0,1,7-6.48c2.1-1.82,4.27-3.7,6.21-5.69,2.18-2.23,4.24-4.65,6.24-7,2.14-2.5,4.35-5.09,6.73-7.49,1.05-1.06,2.15-2.1,3.22-3.11,1.75-1.66,3.56-3.37,5.17-5.17a32.68,32.68,0,0,0,4.45-6.19,58.43,58.43,0,0,0,3.85-9.87,71.21,71.21,0,0,1,3.13-8.51c.55-1.17,1.2-2.38,1.92-3.6,1.21-2,2.61-4,4-5.88a75.3,75.3,0,0,0,4.72-7.23,58.68,58.68,0,0,0,5-14.42l.34-1.44c.19-.8.38-1.61.58-2.41.41-1.71.87-3.41,1.33-5.12A93.43,93.43,0,0,0,465,211.16c.24-2.14.33-4.36.41-6.51l.05-1.3c.05-1,.1-2.07.18-3.18l-17.32,5.23q-.06,1-.18,2.1a61,61,0,0,1-2.74,11.07c-.61,2-1.25,4-1.75,6-.28,1.14-.53,2.29-.77,3.44l-.06.3c-1,4.49-1.95,9.14-4.15,13.32a53.09,53.09,0,0,1-4.71,7c-1.16,1.55-2.35,3.14-3.37,4.75a28.12,28.12,0,0,0-1.67,3,51,51,0,0,0-2.62,7.55,45.24,45.24,0,0,1-3.43,9.22A28.06,28.06,0,0,1,418.4,279c-1.28,1.34-2.67,2.61-4,3.84s-2.54,2.32-3.7,3.52a75.89,75.89,0,0,0-5.45,6.59,75.93,75.93,0,0,1-5.69,6.85,61.53,61.53,0,0,1-6.2,5.36,58.24,58.24,0,0,0-6.11,5.29c-1.29,1.34-2.5,2.87-3.67,4.35a50.55,50.55,0,0,1-4.94,5.62,20.45,20.45,0,0,1-2.71,2.17,38.55,38.55,0,0,1-9.09,4,53.41,53.41,0,0,0-6.27,2.39,50.61,50.61,0,0,0-7.94,5.19A52.34,52.34,0,0,1,347,338a51.75,51.75,0,0,1-8.9,3.65c-2.09.71-4.26,1.45-6.28,2.35-1.4.63-2.82,1.38-4.19,2.11l-1.6.84a36.75,36.75,0,0,1-8.16,3.29v17.55c1.11-.08,2.22-.18,3.29-.36A38,38,0,0,0,331.12,364Z"/><path class="cls-2" d="M320.92,257.89a13.7,13.7,0,0,1,5.14-1.55,6.57,6.57,0,0,0,6.76-5.12,10.32,10.32,0,0,1,7.66-7,10.2,10.2,0,0,0,4-2.09,10.05,10.05,0,0,0,1.71-4.17c.17-.64.33-1.28.53-1.91l-28.82,8.7v16.15A11.31,11.31,0,0,1,320.92,257.89Z"/><path class="cls-2" d="M325.24,280.16c.28-.3.55-.61.82-.91a19.13,19.13,0,0,1,4.55-4.1,19.8,19.8,0,0,1,5.54-1.82,14.54,14.54,0,0,0,5.31-1.87,7.48,7.48,0,0,0,1.4-1.37,25,25,0,0,0,2.05-3.19,14.75,14.75,0,0,1,8.33-7.78,15.85,15.85,0,0,0,4.62-2.93,16.55,16.55,0,0,0,2.71-4.92,20.39,20.39,0,0,1,2.88-5.33,21.18,21.18,0,0,1,4.28-3.61c.52-.36,1-.73,1.54-1.1a11.25,11.25,0,0,0,3-3,15.53,15.53,0,0,0,1.49-5.53,22.71,22.71,0,0,1,1.19-5.14l-24.37,7.36a12.19,12.19,0,0,0-1.44,3.82,9.32,9.32,0,0,1-7.59,8.32,11.64,11.64,0,0,0-3.77,1.86,11.38,11.38,0,0,0-2.19,3.58,9.35,9.35,0,0,1-9,6.8,11.26,11.26,0,0,0-4.05,1.14,11.47,11.47,0,0,0-2.8,3.11,27,27,0,0,1-1.8,2.31v18a11.9,11.9,0,0,0,4.19-1A12.43,12.43,0,0,0,325.24,280.16Z"/><path class="cls-2" d="M330,300.57a19.12,19.12,0,0,0,3.89-3l.78-.74a26.37,26.37,0,0,1,5.57-4.39,27.92,27.92,0,0,1,5.92-2.08,20.07,20.07,0,0,0,6.35-2.45,10.73,10.73,0,0,0,1.74-1.57,32.74,32.74,0,0,0,2.79-3.8,28.87,28.87,0,0,1,3.58-4.68,27.85,27.85,0,0,1,5.42-3.89,23.76,23.76,0,0,0,5.15-3.74,26.65,26.65,0,0,0,3.7-5.58,30.64,30.64,0,0,1,3.74-5.73,32.84,32.84,0,0,1,4.27-3.81c.72-.58,1.45-1.16,2.15-1.76a14.72,14.72,0,0,0,3.35-3.81,22.18,22.18,0,0,0,2.07-6.61,28.38,28.38,0,0,1,1.92-6.56,16.68,16.68,0,0,1,1.58-2.59c.83-1.14,1.78-2.23,2.7-3.28a23.85,23.85,0,0,0,3.9-5.31,18.22,18.22,0,0,0,1.43-5.81l-23.25,7a9.31,9.31,0,0,0-1.07,1.64,17.67,17.67,0,0,0-1.24,5.09,17.69,17.69,0,0,1-1.86,6.54,13.65,13.65,0,0,1-3.67,3.8c-.52.4-1.07.78-1.61,1.16a19.37,19.37,0,0,0-3.74,3.11,18.18,18.18,0,0,0-2.44,4.62,18.87,18.87,0,0,1-3.26,5.75,17.71,17.71,0,0,1-5.43,3.53,17.25,17.25,0,0,0-4.35,2.67,17.48,17.48,0,0,0-2.78,4,27.35,27.35,0,0,1-2.3,3.56,9.71,9.71,0,0,1-1.94,1.87,16.76,16.76,0,0,1-6.34,2.35,17.24,17.24,0,0,0-4.77,1.52,16.33,16.33,0,0,0-3.84,3.53l-.85.93a14.36,14.36,0,0,1-3.92,3.26,15.16,15.16,0,0,1-5.48,1.38V304a31,31,0,0,1,5.76-1.51A22.4,22.4,0,0,0,330,300.57Z"/><path class="cls-2" d="M319.62,325.5a46.15,46.15,0,0,1,4.66-2.49A44.79,44.79,0,0,1,330.6,321a33.07,33.07,0,0,0,7.4-2.64,30.75,30.75,0,0,0,4.6-3.32l.58-.48a37.24,37.24,0,0,1,6.76-4.8,39.46,39.46,0,0,1,6.26-2.31,27.25,27.25,0,0,0,7.42-3,14.26,14.26,0,0,0,2.09-1.77,39,39,0,0,0,3.66-4.51,43,43,0,0,1,3.78-4.66,40.87,40.87,0,0,1,5.83-4.65,38,38,0,0,0,5.62-4.49,43.44,43.44,0,0,0,4.64-6.17,48.06,48.06,0,0,1,4.65-6.21,49.92,49.92,0,0,1,4.13-3.84c1-.84,2-1.72,2.92-2.61a19.94,19.94,0,0,0,3.73-4.62,30.9,30.9,0,0,0,2.65-7.68,39.78,39.78,0,0,1,2.34-7.22,21.69,21.69,0,0,1,1.68-2.92c.94-1.4,2-2.74,3.06-4a34.68,34.68,0,0,0,4.25-6.08c1.49-2.94,2-6.22,2.62-9.69.11-.66.22-1.32.34-2,.23-1.3.43-2.28.66-3.19a50.39,50.39,0,0,1,1.75-5.29l-19.28,5.82A23.2,23.2,0,0,1,403,226.3a26.81,26.81,0,0,1-4.29,5.91c-.93,1-1.8,2-2.56,3.09a13.23,13.23,0,0,0-1.33,2.19,25.62,25.62,0,0,0-1.72,6,25,25,0,0,1-2.36,7.38,17.83,17.83,0,0,1-3.91,4.48c-.72.62-1.48,1.22-2.23,1.82a30.92,30.92,0,0,0-3.94,3.5,28.24,28.24,0,0,0-3.41,5.27,29,29,0,0,1-4.1,6.11,26.07,26.07,0,0,1-5.69,4.18,25.55,25.55,0,0,0-4.93,3.5,27,27,0,0,0-3.25,4.28,33.27,33.27,0,0,1-3,4.1,12.61,12.61,0,0,1-2.19,2,22.1,22.1,0,0,1-7.15,2.83,26.15,26.15,0,0,0-5.38,1.86,24.33,24.33,0,0,0-5,4l-.79.75a22.21,22.21,0,0,1-4.44,3.4,24.28,24.28,0,0,1-7.12,2.14,27.11,27.11,0,0,0-5.51,1.46c-.25.1-.5.23-.74.35v19.68l1.07-.61Z"/><path class="cls-2" d="M445.42,416.63c8-5.83,14.65-13.6,21.07-21.11l.94-1.08v-26.8c-.6.58-1.21,1.16-1.79,1.74-4.38,4.39-8.61,9.16-12.71,13.77-1.3,1.46-2.59,2.92-3.9,4.38-4.26,4.75-8.88,9.72-14.26,13.75-1.3,1-2.69,1.92-4.12,2.81-5.68,3.54-12,6.19-18.21,8.74-1.39.58-2.79,1.16-4.17,1.75-5.28,2.24-9.52,4.24-13.35,6.28-2.8,1.5-5.51,3.1-8.52,4.88l-1.27.76c-6.56,3.88-13.33,7.91-20.3,11.25a86.29,86.29,0,0,1-9.16,3.83,75.62,75.62,0,0,1-14.55,3.35c-4.29.58-8.73.88-13,1.17-3.36.23-6.81.47-10.2.83V461l98.36-29.72,2.64-1.11C428,426.36,437.44,422.43,445.42,416.63Z"/><path class="cls-2" d="M467.25,396.17c-6.46,7.56-13.13,15.36-21.24,21.27-6.29,4.57-13.43,8-20.62,11.07l42-12.7V396Z"/><path class="cls-2" d="M341,443.74a73.19,73.19,0,0,0,14.33-3.3,82.89,82.89,0,0,0,9-3.77c6.92-3.32,13.67-7.33,20.21-11.21l1.27-.76c3-1.78,5.74-3.39,8.56-4.9,3.86-2.06,8.13-4.07,13.45-6.32l4.18-1.75c6.11-2.54,12.44-5.17,18-8.66,1.4-.87,2.75-1.79,4-2.75,5.29-4,9.86-8.89,14.09-13.6l3.9-4.36c4.1-4.63,8.35-9.41,12.75-13.83.86-.86,1.75-1.72,2.64-2.57V341.1l-1.89,1.78c-4.36,4.09-8.87,8.31-13.12,12.59-5.06,5.11-10.36,10.71-15.74,16.65l-.8.88c-3.83,4.22-7.78,8.59-12.35,12.13-1.22.94-2.51,1.84-3.83,2.67a99.24,99.24,0,0,1-15.4,7.34c-1.87.76-3.74,1.52-5.58,2.32a133.52,133.52,0,0,0-12.28,6.08c-1.79,1-3.6,2.08-5.35,3.12-.85.51-1.7,1-2.56,1.52-6.81,4-13.64,7.65-20.3,10.81-2.45,1.17-5.38,2.51-8.5,3.66A65.3,65.3,0,0,1,336.21,426c-4,.57-8.13.79-12.14,1-2,.11-4.1.23-6.17.39v18.3c3.37-.36,6.79-.6,10.12-.83C332.29,444.62,336.71,444.32,341,443.74Z"/><path class="cls-2" d="M336,424.65a64.73,64.73,0,0,0,13.23-3.31c3.07-1.13,6-2.46,8.38-3.61C364.25,414.58,371,411,377.82,407l2.55-1.51c1.76-1,3.58-2.13,5.38-3.14a133.78,133.78,0,0,1,12.41-6.14c1.86-.8,3.73-1.57,5.61-2.33A99.33,99.33,0,0,0,419,386.62c1.27-.81,2.52-1.68,3.71-2.6a96.83,96.83,0,0,0,12.17-12l.8-.88c5.4-6,10.71-11.57,15.78-16.69,4.28-4.3,8.79-8.54,13.16-12.63l2.85-2.68V312.47c-.55.76-1.11,1.51-1.71,2.24a103,103,0,0,1-9.06,9.48l-.85.82c-5.2,5-10.33,10.2-15.3,15.23l-1.31,1.33q-2.29,2.31-4.62,4.62c-3.42,3.39-7,6.91-10.26,10.52-.78.84-1.54,1.69-2.3,2.54a84.26,84.26,0,0,1-9.73,9.72,38.38,38.38,0,0,1-3.54,2.54,78.81,78.81,0,0,1-13.31,6.25c-2.07.83-4.21,1.68-6.27,2.58A105.73,105.73,0,0,0,378,386.21c-1,.61-2,1.24-3.07,1.86-1.4.86-2.8,1.72-4.23,2.55-5.9,3.45-12.18,6.4-18.24,9.25l-.88.41c-2.51,1.18-5.1,2.4-7.74,3.44a55.64,55.64,0,0,1-12.49,3.43A103.82,103.82,0,0,1,320,408l-2.12.08V426c2-.15,4.09-.27,6.1-.37C328,425.43,332.09,425.21,336,424.65Z"/><path class="cls-3" d="M327.3,282.05l.85-.93a16.33,16.33,0,0,1,3.84-3.53,17.24,17.24,0,0,1,4.77-1.52,16.76,16.76,0,0,0,6.34-2.35,9.71,9.71,0,0,0,1.94-1.87,27.35,27.35,0,0,0,2.3-3.56,17.48,17.48,0,0,1,2.78-4,17.25,17.25,0,0,1,4.35-2.67,17.71,17.71,0,0,0,5.43-3.53,18.87,18.87,0,0,0,3.26-5.75,18.18,18.18,0,0,1,2.44-4.62,19.37,19.37,0,0,1,3.74-3.11c.54-.38,1.09-.76,1.61-1.16a13.65,13.65,0,0,0,3.67-3.8,17.69,17.69,0,0,0,1.86-6.54,17.67,17.67,0,0,1,1.24-5.09,9.31,9.31,0,0,1,1.07-1.64l-3.89,1.17a22.71,22.71,0,0,0-1.19,5.14,15.53,15.53,0,0,1-1.49,5.53,11.25,11.25,0,0,1-3,3c-.5.37-1,.74-1.54,1.1a21.18,21.18,0,0,0-4.28,3.61,20.39,20.39,0,0,0-2.88,5.33,16.55,16.55,0,0,1-2.71,4.92,15.85,15.85,0,0,1-4.62,2.93,14.75,14.75,0,0,0-8.33,7.78,25,25,0,0,1-2.05,3.19,7.48,7.48,0,0,1-1.4,1.37,14.54,14.54,0,0,1-5.31,1.87,19.8,19.8,0,0,0-5.54,1.82,19.13,19.13,0,0,0-4.55,4.1c-.27.3-.54.61-.82.91a12.43,12.43,0,0,1-3.15,2.67,11.9,11.9,0,0,1-4.19,1v2.82a15.16,15.16,0,0,0,5.48-1.38A14.36,14.36,0,0,0,327.3,282.05Z"/><path class="cls-4" d="M324.15,305a24.28,24.28,0,0,0,7.12-2.14,22.21,22.21,0,0,0,4.44-3.4l.79-.75a24.33,24.33,0,0,1,5-4,26.15,26.15,0,0,1,5.38-1.86A22.1,22.1,0,0,0,354,290a12.61,12.61,0,0,0,2.19-2,33.27,33.27,0,0,0,3-4.1,27,27,0,0,1,3.25-4.28,25.55,25.55,0,0,1,4.93-3.5,26.07,26.07,0,0,0,5.69-4.18,29,29,0,0,0,4.1-6.11,28.24,28.24,0,0,1,3.41-5.27,30.92,30.92,0,0,1,3.94-3.5c.75-.6,1.51-1.2,2.23-1.82a17.83,17.83,0,0,0,3.91-4.48,25,25,0,0,0,2.36-7.38,25.62,25.62,0,0,1,1.72-6,13.23,13.23,0,0,1,1.33-2.19c.76-1.05,1.63-2,2.56-3.09A26.81,26.81,0,0,0,403,226.3a23.2,23.2,0,0,0,1.78-7.75l-2.7.82a18.22,18.22,0,0,1-1.43,5.81,23.85,23.85,0,0,1-3.9,5.31c-.92,1-1.87,2.14-2.7,3.28a16.68,16.68,0,0,0-1.58,2.59,28.38,28.38,0,0,0-1.92,6.56,22.18,22.18,0,0,1-2.07,6.61,14.72,14.72,0,0,1-3.35,3.81c-.7.6-1.43,1.18-2.15,1.76a32.84,32.84,0,0,0-4.27,3.81,30.64,30.64,0,0,0-3.74,5.73,26.65,26.65,0,0,1-3.7,5.58,23.76,23.76,0,0,1-5.15,3.74,27.85,27.85,0,0,0-5.42,3.89,28.87,28.87,0,0,0-3.58,4.68,32.74,32.74,0,0,1-2.79,3.8,10.73,10.73,0,0,1-1.74,1.57,20.07,20.07,0,0,1-6.35,2.45,27.92,27.92,0,0,0-5.92,2.08,26.37,26.37,0,0,0-5.57,4.39l-.78.74a19.12,19.12,0,0,1-3.89,3,22.4,22.4,0,0,1-6.38,1.88A31,31,0,0,0,317.9,304v2.85c.24-.12.49-.25.74-.35A27.11,27.11,0,0,1,324.15,305Z"/><path class="cls-5" d="M320.83,327.57a32.29,32.29,0,0,1,10.4-4.31,35,35,0,0,0,7.93-2.85,33.6,33.6,0,0,0,5-3.57l.58-.48a34.53,34.53,0,0,1,6.31-4.5,36.35,36.35,0,0,1,5.88-2.16,29.41,29.41,0,0,0,8.07-3.37,16.69,16.69,0,0,0,2.44-2.06,41.12,41.12,0,0,0,3.89-4.77,41.22,41.22,0,0,1,3.56-4.41,39.71,39.71,0,0,1,5.5-4.37,40.17,40.17,0,0,0,6-4.79,46.78,46.78,0,0,0,4.91-6.5,45.82,45.82,0,0,1,4.4-5.91,50,50,0,0,1,3.95-3.65c1-.87,2-1.76,3-2.7a22.19,22.19,0,0,0,4.16-5.17,33.16,33.16,0,0,0,2.89-8.27,36.87,36.87,0,0,1,2.18-6.78,19.85,19.85,0,0,1,1.5-2.61c.89-1.31,1.93-2.61,2.94-3.87A38.08,38.08,0,0,0,420.8,234c1.64-3.26,2.25-6.88,2.84-10.38l.33-2c.22-1.24.42-2.17.63-3a52.91,52.91,0,0,1,2-5.88l.33-.88-2.9.88a50.39,50.39,0,0,0-1.75,5.29c-.23.91-.43,1.89-.66,3.19-.12.66-.23,1.32-.34,2-.58,3.47-1.13,6.75-2.62,9.69A34.68,34.68,0,0,1,414.4,239c-1,1.3-2.12,2.64-3.06,4a21.69,21.69,0,0,0-1.68,2.92,39.78,39.78,0,0,0-2.34,7.22,30.9,30.9,0,0,1-2.65,7.68,19.94,19.94,0,0,1-3.73,4.62c-.93.89-1.94,1.77-2.92,2.61a49.92,49.92,0,0,0-4.13,3.84,48.06,48.06,0,0,0-4.65,6.21,43.44,43.44,0,0,1-4.64,6.17,38,38,0,0,1-5.62,4.49,40.87,40.87,0,0,0-5.83,4.65,43,43,0,0,0-3.78,4.66,39,39,0,0,1-3.66,4.51,14.26,14.26,0,0,1-2.09,1.77,27.25,27.25,0,0,1-7.42,3,39.46,39.46,0,0,0-6.26,2.31,37.24,37.24,0,0,0-6.76,4.8l-.58.48a30.75,30.75,0,0,1-4.6,3.32,33.07,33.07,0,0,1-7.4,2.64,44.79,44.79,0,0,0-6.32,2.06,46.15,46.15,0,0,0-4.66,2.49l-.65.38-1.07.61v2.74c.77-.42,1.53-.85,2.28-1.28Z"/><path class="cls-6" d="M327.66,346.07c1.37-.73,2.79-1.48,4.19-2.11,2-.9,4.19-1.64,6.28-2.35A51.75,51.75,0,0,0,347,338a52.34,52.34,0,0,0,5.58-3.79,50.61,50.61,0,0,1,7.94-5.19,53.41,53.41,0,0,1,6.27-2.39,38.55,38.55,0,0,0,9.09-4,20.45,20.45,0,0,0,2.71-2.17,50.55,50.55,0,0,0,4.94-5.62c1.17-1.48,2.38-3,3.67-4.35a58.24,58.24,0,0,1,6.11-5.29,61.53,61.53,0,0,0,6.2-5.36,75.93,75.93,0,0,0,5.69-6.85,75.89,75.89,0,0,1,5.45-6.59c1.16-1.2,2.45-2.38,3.7-3.52s2.74-2.5,4-3.84a28.06,28.06,0,0,0,4.43-5.86,45.24,45.24,0,0,0,3.43-9.22,51,51,0,0,1,2.62-7.55,28.12,28.12,0,0,1,1.67-3c1-1.61,2.21-3.2,3.37-4.75a53.09,53.09,0,0,0,4.71-7c2.2-4.18,3.19-8.83,4.15-13.32l.06-.3c.24-1.15.49-2.3.77-3.44.5-2,1.14-4,1.75-6a61,61,0,0,0,2.74-11.07q.12-1,.18-2.1l-2.26.69c0,.38-.06.77-.11,1.15a59.65,59.65,0,0,1-2.64,10.67c-.63,2-1.28,4.06-1.79,6.12-.29,1.16-.54,2.34-.79,3.51l-.07.31c-1,4.54-1.87,8.83-3.93,12.74a51.81,51.81,0,0,1-4.53,6.73c-1.18,1.58-2.41,3.21-3.47,4.9a29.75,29.75,0,0,0-1.8,3.25,52.88,52.88,0,0,0-2.74,7.88,43.11,43.11,0,0,1-3.25,8.76,26,26,0,0,1-4.09,5.41c-1.23,1.29-2.59,2.53-3.91,3.73s-2.59,2.37-3.81,3.62a80.63,80.63,0,0,0-5.61,6.78,74.4,74.4,0,0,1-5.52,6.66,59.22,59.22,0,0,1-6,5.16,60.77,60.77,0,0,0-6.34,5.5c-1.36,1.42-2.6,3-3.81,4.5a49.81,49.81,0,0,1-4.71,5.39,19.11,19.11,0,0,1-2.43,1.94,36.17,36.17,0,0,1-8.57,3.7,54.88,54.88,0,0,0-6.53,2.5,53.25,53.25,0,0,0-8.34,5.43A48.78,48.78,0,0,1,346,336a50.24,50.24,0,0,1-8.54,3.49c-2.14.73-4.35,1.48-6.47,2.43-1.47.66-2.92,1.42-4.32,2.16l-1.58.84a36.92,36.92,0,0,1-7.15,3v2.28a36.75,36.75,0,0,0,8.16-3.29Z"/><path class="cls-7" d="M332,365.85q1.5-.71,3-1.44c1.17-.58,2.34-1.15,3.51-1.69,2-.93,4.16-1.77,6.22-2.59a79.17,79.17,0,0,0,10.24-4.61c1.94-1.11,3.78-2.37,5.56-3.6l.55-.38a66.18,66.18,0,0,1,9.07-5.44c2.07-1,4.32-1.78,6.49-2.56a48.26,48.26,0,0,0,10.28-4.62,26.81,26.81,0,0,0,3-2.28A59.85,59.85,0,0,0,396,330c1.15-1.37,2.34-2.78,3.57-4.09,2.11-2.24,4.51-4.32,6.83-6.34,2.13-1.84,4.33-3.75,6.33-5.8,2.23-2.28,4.31-4.73,6.33-7.09s4.3-5,6.63-7.38c1-1,2.12-2.07,3.18-3.07,1.78-1.68,3.62-3.42,5.28-5.29a34.64,34.64,0,0,0,4.72-6.56,60.15,60.15,0,0,0,4-10.22,71,71,0,0,1,3-8.27,37.12,37.12,0,0,1,1.83-3.42c1.17-1.95,2.54-3.88,3.87-5.75a75.12,75.12,0,0,0,4.84-7.43,60,60,0,0,0,5.24-14.91l.34-1.45c.19-.8.37-1.6.57-2.39.41-1.7.87-3.38,1.32-5.08a95.7,95.7,0,0,0,3-14.05c.25-2.22.33-4.48.42-6.66l.05-1.29c0-.07,0-.14,0-.21v-3.61l-1.83.55c-.08,1.11-.13,2.17-.18,3.18l-.05,1.3c-.08,2.15-.17,4.37-.41,6.51A93.43,93.43,0,0,1,462,224.92c-.46,1.71-.92,3.41-1.33,5.12-.2.8-.39,1.61-.58,2.41l-.34,1.44a58.68,58.68,0,0,1-5,14.42,75.3,75.3,0,0,1-4.72,7.23c-1.35,1.9-2.75,3.87-4,5.88-.72,1.22-1.37,2.43-1.92,3.6a71.21,71.21,0,0,0-3.13,8.51,58.43,58.43,0,0,1-3.85,9.87,32.68,32.68,0,0,1-4.45,6.19c-1.61,1.8-3.42,3.51-5.17,5.17-1.07,1-2.17,2.05-3.22,3.11-2.38,2.4-4.59,5-6.73,7.49-2,2.34-4.06,4.76-6.24,7-1.94,2-4.11,3.87-6.21,5.69a94.45,94.45,0,0,0-7,6.48c-1.27,1.35-2.47,2.78-3.64,4.17a60.11,60.11,0,0,1-6,6.45,24,24,0,0,1-2.75,2.11,47.92,47.92,0,0,1-9.85,4.41c-2.22.8-4.52,1.63-6.67,2.63a67.62,67.62,0,0,0-9.35,5.6l-.55.38c-1.75,1.2-3.56,2.45-5.42,3.51a77.51,77.51,0,0,1-10,4.49c-2.09.83-4.24,1.68-6.32,2.63-1.19.55-2.38,1.13-3.56,1.72-1,.48-2,1-2.94,1.42a38,38,0,0,1-9.93,3.35c-1.07.18-2.18.28-3.29.36v2a33.38,33.38,0,0,0,3.62-.39A39.81,39.81,0,0,0,332,365.85Z"/><path class="cls-8" d="M337.88,384.79c1.68-.72,3.35-1.51,5-2.28l2.21-1c1.76-.82,3.54-1.61,5.32-2.39a128.82,128.82,0,0,0,12.42-6c1.75-1,3.46-2.11,5.12-3.18l1.57-1a83.68,83.68,0,0,1,10.15-5.65c2.11-1,4.35-1.82,6.53-2.64a62.36,62.36,0,0,0,11.64-5.37,31.43,31.43,0,0,0,3.26-2.41,72,72,0,0,0,7.75-8c1-1.17,2.08-2.38,3.15-3.53,2.49-2.69,5.22-5.24,7.86-7.72,2.05-1.91,4.17-3.89,6.16-5.92,2.23-2.27,4.42-4.62,6.54-6.91,2.65-2.86,5.4-5.81,8.24-8.6.75-.75,1.52-1.48,2.29-2.22a96.84,96.84,0,0,0,6.91-7.11,42.55,42.55,0,0,0,5-7.28,78.08,78.08,0,0,0,4.59-11.27,93.62,93.62,0,0,1,3.43-8.94c.59-1.26,1.25-2.54,2-3.81s1.61-2.65,2.47-4v-3.24c-1.39,2.05-2.79,4.16-4,6.31-.75,1.31-1.45,2.64-2,3.94a96,96,0,0,0-3.5,9.11,77.39,77.39,0,0,1-4.48,11,40.42,40.42,0,0,1-4.79,7,95.07,95.07,0,0,1-6.78,7l-2.3,2.23c-2.87,2.82-5.63,5.79-8.3,8.67-2.11,2.27-4.3,4.62-6.51,6.87-2,2-4.06,4-6.1,5.87-2.66,2.49-5.42,5.07-7.95,7.8-1.09,1.17-2.15,2.39-3.19,3.57a69.49,69.49,0,0,1-7.55,7.79,30.31,30.31,0,0,1-3.07,2.27,60.54,60.54,0,0,1-11.31,5.2c-2.2.84-4.47,1.7-6.63,2.69a85.47,85.47,0,0,0-10.37,5.77l-1.58,1c-1.64,1.06-3.34,2.15-5.05,3.14a126.58,126.58,0,0,1-12.25,5.93c-1.79.79-3.58,1.58-5.35,2.4l-2.22,1.05c-1.6.76-3.25,1.54-4.9,2.25a46.77,46.77,0,0,1-11,3.34,61.9,61.9,0,0,1-8.23.61v1.8a65.35,65.35,0,0,0,8.52-.63A48.46,48.46,0,0,0,337.88,384.79Z"/><path class="cls-9" d="M331.31,407.15a55.64,55.64,0,0,0,12.49-3.43c2.64-1,5.23-2.26,7.74-3.44l.88-.41c6.06-2.85,12.34-5.8,18.24-9.25,1.43-.83,2.83-1.69,4.23-2.55,1-.62,2-1.25,3.07-1.86a105.73,105.73,0,0,1,11.21-5.87c2.06-.9,4.2-1.75,6.27-2.58a78.81,78.81,0,0,0,13.31-6.25,38.38,38.38,0,0,0,3.54-2.54,84.26,84.26,0,0,0,9.73-9.72c.76-.85,1.52-1.7,2.3-2.54,3.3-3.61,6.84-7.13,10.26-10.52q2.32-2.31,4.62-4.62l1.31-1.33c5-5,10.1-10.22,15.3-15.23l.85-.82a103,103,0,0,0,9.06-9.48c.6-.73,1.16-1.48,1.71-2.24v-2.82a49.89,49.89,0,0,1-2.95,4.06,103.58,103.58,0,0,1-8.93,9.33l-.86.82c-5.2,5-10.34,10.22-15.31,15.25l-1.32,1.33q-2.28,2.31-4.61,4.61c-3.43,3.41-7,6.94-10.31,10.58-.78.84-1.55,1.7-2.31,2.55a83.44,83.44,0,0,1-9.54,9.54,35.42,35.42,0,0,1-3.4,2.44,78,78,0,0,1-13,6.12c-2.09.82-4.25,1.68-6.33,2.6a106.24,106.24,0,0,0-11.39,6c-1,.61-2.06,1.24-3.08,1.87-1.39.85-2.79,1.71-4.2,2.53-5.85,3.41-12.09,6.34-18.12,9.18l-.88.41c-2.49,1.17-5.05,2.38-7.64,3.41a55.49,55.49,0,0,1-12.14,3.33,102.64,102.64,0,0,1-11.11.82l-2.07.08v1.6L320,408A103.82,103.82,0,0,0,331.31,407.15Z"/><path class="cls-10" d="M336.21,426a65.3,65.3,0,0,0,13.52-3.39c3.12-1.15,6-2.49,8.5-3.66,6.66-3.16,13.49-6.8,20.3-10.81.86-.5,1.71-1,2.56-1.52,1.75-1,3.56-2.11,5.35-3.12a133.52,133.52,0,0,1,12.28-6.08c1.84-.8,3.71-1.56,5.58-2.32a99.24,99.24,0,0,0,15.4-7.34c1.32-.83,2.61-1.73,3.83-2.67,4.57-3.54,8.52-7.91,12.35-12.13l.8-.88c5.38-5.94,10.68-11.54,15.74-16.65,4.25-4.28,8.76-8.5,13.12-12.59l1.89-1.78v-1.92l-2.85,2.68c-4.37,4.09-8.88,8.33-13.16,12.63-5.07,5.12-10.38,10.73-15.78,16.69l-.8.88a96.83,96.83,0,0,1-12.17,12c-1.19.92-2.44,1.79-3.71,2.6a99.33,99.33,0,0,1-15.19,7.23c-1.88.76-3.75,1.53-5.61,2.33a133.78,133.78,0,0,0-12.41,6.14c-1.8,1-3.62,2.1-5.38,3.14L377.82,407c-6.78,4-13.57,7.61-20.19,10.76-2.42,1.15-5.31,2.48-8.38,3.61A64.73,64.73,0,0,1,336,424.65c-3.93.56-8,.78-12,1-2,.1-4.06.22-6.1.37v1.41c2.07-.16,4.14-.28,6.17-.39C328.08,426.83,332.23,426.61,336.21,426Z"/><path class="cls-11" d="M341.12,444.93a75.62,75.62,0,0,0,14.55-3.35,86.29,86.29,0,0,0,9.16-3.83c7-3.34,13.74-7.37,20.3-11.25l1.27-.76c3-1.78,5.72-3.38,8.52-4.88,3.83-2,8.07-4,13.35-6.28,1.38-.59,2.78-1.17,4.17-1.75,6.16-2.55,12.53-5.2,18.21-8.74,1.43-.89,2.82-1.83,4.12-2.81,5.38-4,10-9,14.26-13.75,1.31-1.46,2.6-2.92,3.9-4.38,4.1-4.61,8.33-9.38,12.71-13.77.58-.58,1.19-1.16,1.79-1.74V366c-.89.85-1.78,1.71-2.64,2.57-4.4,4.42-8.65,9.2-12.75,13.83l-3.9,4.36c-4.23,4.71-8.8,9.64-14.09,13.6-1.28,1-2.63,1.88-4,2.75-5.6,3.49-11.93,6.12-18,8.66l-4.18,1.75c-5.32,2.25-9.59,4.26-13.45,6.32-2.82,1.51-5.54,3.12-8.56,4.9l-1.27.76c-6.54,3.88-13.29,7.89-20.21,11.21a82.89,82.89,0,0,1-9,3.77,73.19,73.19,0,0,1-14.33,3.3c-4.24.58-8.66.88-12.93,1.16-3.33.23-6.75.47-10.12.83v1.2c3.39-.36,6.84-.6,10.2-.83C332.39,445.81,336.83,445.51,341.12,444.93Z"/><path class="cls-12" d="M467.25,396.17l.18-.2v-1.53l-.94,1.08c-6.42,7.51-13.06,15.28-21.07,21.11s-17.4,9.73-26.52,13.53l-2.64,1.11,9.13-2.76c7.19-3.09,14.33-6.5,20.62-11.07C454.12,411.53,460.79,403.73,467.25,396.17Z"/><path class="cls-13" d="M346.72,236.07c-.2.63-.36,1.27-.53,1.91a10.05,10.05,0,0,1-1.71,4.17,10.2,10.2,0,0,1-4,2.09,10.32,10.32,0,0,0-7.66,7,6.57,6.57,0,0,1-6.76,5.12,13.7,13.7,0,0,0-5.14,1.55,11.31,11.31,0,0,0-3,3v4.94a27,27,0,0,0,1.8-2.31,11.47,11.47,0,0,1,2.8-3.11,11.26,11.26,0,0,1,4.05-1.14,9.35,9.35,0,0,0,9-6.8,11.38,11.38,0,0,1,2.19-3.58,11.64,11.64,0,0,1,3.77-1.86,9.32,9.32,0,0,0,7.59-8.32,12.19,12.19,0,0,1,1.44-3.82Z"/></g><g id="Unit"><path class="cls-13" d="M300.78,96.78l-76.53-23L144.39,97.68l76.72,23ZM186,98.16c-.2-3.38,3.39-6.49,10.37-9,6.32-2.26,14.8-3.79,23.85-4.31,17.34-1,35.11,1.84,35.54,9.24s-16.9,12.29-34.23,13.29c-2.23.13-4.48.2-6.69.2C199.94,107.6,186.41,104.6,186,98.16Z"/><path class="cls-13" d="M221.48,96.7l-2,7.8,1.89-.09a98.48,98.48,0,0,0,17.39-2.47Z"/><path class="cls-13" d="M199,103.17a84.18,84.18,0,0,0,19.48,1.37l2-7.86Z"/><path class="cls-13" d="M189,97.86a.57.57,0,0,0,0,.13c.1,1.63,2.94,3.42,8,4.72l19.74-6Z"/><polygon class="cls-13" points="281.67 147.59 222.57 165.31 222.57 170.68 281.67 152.96 281.67 147.59"/><path class="cls-13" d="M158.75,152.44V105.12L140.67,99.7l.24,47.39Zm-9.17-41.69a2.5,2.5,0,1,1-2.5,2.5A2.49,2.49,0,0,1,149.58,110.75Z"/><polygon class="cls-13" points="281.67 141.12 222.58 158.81 222.58 164.27 281.67 146.55 281.67 141.12"/><path class="cls-13" d="M201.66,90.71c-1.5.4-2.93.83-4.25,1.3-4.79,1.71-7.18,3.49-8,4.83l28.75-1.15Z"/><rect class="cls-13" x="219.59" y="193.53" width="3" height="8" rx="1.5" ry="1.5"/><polygon class="cls-13" points="281.67 116.28 222.6 133.87 222.6 138.28 281.67 120.66 281.67 116.28"/><polygon class="cls-13" points="281.67 128.18 222.59 145.82 222.59 151.27 281.67 133.61 281.67 128.18"/><polygon class="cls-13" points="281.67 134.65 222.59 152.32 222.58 157.77 281.67 140.08 281.67 134.65"/><polygon class="cls-13" points="281.67 121.71 222.6 139.33 222.59 144.78 281.67 127.13 281.67 121.71"/><polygon class="cls-13" points="188.07 142.54 207.48 148.36 207.44 142.9 188.07 137.09 188.07 142.54"/><path class="cls-13" d="M222.71,87.76l-2.27.1a98.62,98.62,0,0,0-16.89,2.37l17.22,5.21Z"/><polygon class="cls-13" points="188.07 125.15 188.07 129.55 207.39 135.35 207.36 130.93 188.07 125.15"/><path class="cls-13" d="M304.5,146.12V98.79l-81.89,24.58v7.37l60.13-17.91.06,0,.14,0,.17,0h.12l.18,0,.12,0,.16,0,.12,0,.14.08.1.07a.63.63,0,0,1,.12.1l.1.09.1.12.07.12a.54.54,0,0,1,.07.13.35.35,0,0,1,.06.14s0,0,0,.08a.13.13,0,0,1,0,.06.4.4,0,0,1,0,.15.77.77,0,0,1,0,.15s0,0,0,.06v37.81Z"/><polygon class="cls-13" points="188.07 136.05 207.43 141.85 207.4 136.39 188.07 130.6 188.07 136.05"/><polygon class="cls-13" points="188.07 155.53 207.56 161.37 207.53 155.91 188.07 150.08 188.07 155.53"/><polygon class="cls-13" points="188.07 149.03 207.52 154.87 207.48 149.41 188.07 143.58 188.07 149.03"/><path class="cls-13" d="M242.37,89A79.05,79.05,0,0,0,227,87.66c-1.07,0-2.16,0-3.29.06l-1.89,7.49Z"/><path class="cls-13" d="M252.8,94.3v0c-.09-1.68-3.11-3.52-8.44-4.83l-19.78,6Z"/><path class="cls-13" d="M240.64,101.45c6.69-1.84,10.85-4.18,11.9-6.14l-28.43,1.14Z"/><polygon class="cls-13" points="188.07 161.23 207.6 167.09 207.57 162.42 188.07 156.57 188.07 161.23"/><path class="cls-13" d="M159.75,105.42v47.32l25.32,7.59v-37.2s0,0,0-.06,0-.1,0-.15l0-.16a.13.13,0,0,0,0-.06l0-.06a.77.77,0,0,1,.07-.16l.06-.12.09-.13.08-.1.12-.11.09-.08.15-.1.08,0,.18-.08.09,0,.19,0h.42l.16,0H187l22.32,6.69a1.49,1.49,0,0,1,1,1.72l.25,37.88,9,2.69,0-47.31Z"/><path class="cls-13" d="M205,211.3l-4.79-1.44a1.5,1.5,0,1,0-.87,2.87l4.79,1.44a1.68,1.68,0,0,0,.44.07,1.5,1.5,0,0,0,.43-2.94Z"/><path class="cls-13" d="M216.51,214.75l-4.79-1.44a1.52,1.52,0,0,0-1.87,1,1.5,1.5,0,0,0,1,1.87l4.78,1.44a1.67,1.67,0,0,0,.44.06,1.5,1.5,0,0,0,.43-2.94Z"/><path class="cls-13" d="M238.56,210.68l-4.77,1.49a1.5,1.5,0,0,0,.44,2.93,1.41,1.41,0,0,0,.45-.07l4.77-1.48a1.5,1.5,0,0,0-.89-2.87Z"/><path class="cls-13" d="M261.48,203.56l-4.77,1.49a1.5,1.5,0,0,0,.44,2.93,1.41,1.41,0,0,0,.45-.07l4.77-1.48a1.5,1.5,0,1,0-.89-2.87Z"/><path class="cls-13" d="M272.94,200l-4.77,1.49a1.5,1.5,0,0,0,.44,2.93,1.41,1.41,0,0,0,.45-.07l4.77-1.48a1.5,1.5,0,1,0-.89-2.87Z"/><path class="cls-13" d="M227.1,214.24l-4.77,1.49a1.5,1.5,0,0,0,.44,2.93,1.41,1.41,0,0,0,.45-.07l4.77-1.48a1.5,1.5,0,0,0-.89-2.87Z"/><rect class="cls-13" x="219.58" y="205.53" width="3" height="8" rx="1.5" ry="1.5"/><path class="cls-13" d="M250,207.12l-4.77,1.49a1.5,1.5,0,0,0,.44,2.93,1.41,1.41,0,0,0,.45-.07l4.77-1.48a1.5,1.5,0,1,0-.89-2.87Z"/><path class="cls-13" d="M303,161.75a1.5,1.5,0,0,0-1.5,1.5v5a1.5,1.5,0,0,0,3,0v-5A1.5,1.5,0,0,0,303,161.75Z"/><path class="cls-13" d="M303,149.75l-.23,0-.39.12a1.49,1.49,0,0,0-.88,1.36v5a1.5,1.5,0,0,0,3,0v-5A1.5,1.5,0,0,0,303,149.75Z"/><path class="cls-13" d="M284.4,196.44l-4.77,1.49a1.5,1.5,0,0,0,.44,2.93,1.41,1.41,0,0,0,.45-.07l4.77-1.48a1.5,1.5,0,1,0-.89-2.87Z"/><path class="cls-13" d="M303,173.75a1.5,1.5,0,0,0-1.5,1.5v5a1.5,1.5,0,0,0,3,0v-5A1.5,1.5,0,0,0,303,173.75Z"/><path class="cls-13" d="M303,185.75a1.5,1.5,0,0,0-1.5,1.5v4.85a1.62,1.62,0,0,0,.05.53,1.5,1.5,0,0,0,1.45,1.11,1.39,1.39,0,0,0,.4-.06,1.49,1.49,0,0,0,1.1-1.44v-5A1.5,1.5,0,0,0,303,185.75Z"/><path class="cls-13" d="M295.86,192.88l-4.77,1.49a1.5,1.5,0,0,0,.44,2.93,1.41,1.41,0,0,0,.45-.07l4.77-1.48a1.5,1.5,0,1,0-.89-2.87Z"/><path class="cls-13" d="M222.61,173.79l-1.11.34h0a1.32,1.32,0,0,1-.39.06h0a1.23,1.23,0,0,1-.39-.06h0l-1-.31V176a1.5,1.5,0,0,0,1.5,1.5h0a1.5,1.5,0,0,0,1.5-1.5Z"/><path class="cls-13" d="M147.56,194l-4.42-1.32a1.43,1.43,0,0,0-.74-.19,1.52,1.52,0,0,0-.43,3l4.72,1.42a1.67,1.67,0,0,0,.44.06,1.5,1.5,0,0,0,.43-2.94Z"/><path class="cls-13" d="M142.36,188.48h0a1.5,1.5,0,0,0,1.49-1.51l0-5a1.49,1.49,0,0,0-1.5-1.49h0a1.5,1.5,0,0,0-1.49,1.5l0,5A1.5,1.5,0,0,0,142.36,188.48Z"/><path class="cls-13" d="M142.29,176.48h0a1.5,1.5,0,0,0,1.49-1.51l0-5a1.5,1.5,0,0,0-1.5-1.49h0a1.49,1.49,0,0,0-1.49,1.5l0,5A1.51,1.51,0,0,0,142.29,176.48Z"/><path class="cls-13" d="M142.16,152.48h0a1.5,1.5,0,0,0,1.49-1.44l-3-.9V151A1.51,1.51,0,0,0,142.16,152.48Z"/><path class="cls-13" d="M142.23,164.48h0a1.51,1.51,0,0,0,1.49-1.51l0-5a1.49,1.49,0,0,0-1.5-1.49h0a1.5,1.5,0,0,0-1.49,1.5l0,5A1.5,1.5,0,0,0,142.23,164.48Z"/><path class="cls-13" d="M159.05,197.48,154.26,196a1.5,1.5,0,1,0-.86,2.87l4.79,1.44a1.54,1.54,0,0,0,.43.06,1.5,1.5,0,0,0,.43-2.93Z"/><path class="cls-13" d="M182,204.39,177.24,203a1.5,1.5,0,0,0-.86,2.87l4.79,1.44a1.59,1.59,0,0,0,.43.06,1.5,1.5,0,0,0,.43-2.93Z"/><path class="cls-13" d="M170.54,200.93l-4.79-1.44a1.5,1.5,0,1,0-.86,2.88l4.79,1.44a1.59,1.59,0,0,0,.43.06,1.5,1.5,0,0,0,.43-2.94Z"/><rect class="cls-13" x="219.6" y="181.53" width="3" height="8" rx="1.5" ry="1.5"/><path class="cls-13" d="M193.52,207.84l-4.78-1.44a1.5,1.5,0,0,0-.87,2.88l4.79,1.44a1.59,1.59,0,0,0,.43.06,1.5,1.5,0,0,0,.43-2.94Z"/></g></g></svg>