<svg xmlns="http://www.w3.org/2000/svg" viewBox="0 0 600 599.61"><defs><style>.cls-1{fill:#a1c5fc;}.cls-2{fill:none;}.cls-3{fill:#004ecc;}.cls-4{fill:#0654d0;}.cls-5{fill:#0c59d5;}.cls-6{fill:#135fd9;}.cls-7{fill:#1964dd;}.cls-8{fill:#1f6ae1;}.cls-9{fill:#256fe6;}.cls-10{fill:#2b74ea;}.cls-11{fill:#317aee;}.cls-12{fill:#377ff2;}.cls-13{fill:#3e85f6;}.cls-14{fill:#448afb;}.cls-15{fill:#4a90ff;}.cls-16{fill:#00ffd5;}</style></defs><title>icons - Pad Mount - Dark</title><g id="Pad_Mount" data-name="Pad Mount"><path class="cls-1" d="M314.94,473.57a1.51,1.51,0,0,0,.89.3,1.68,1.68,0,0,0,.44-.07L484.59,423a1.5,1.5,0,0,0,1.06-1.44V192.83a1.49,1.49,0,0,0-.6-1.2,1.48,1.48,0,0,0-1.33-.23l-15.64,4.71a1.42,1.42,0,0,0-.4.12L315.4,242.09a1.51,1.51,0,0,0-1.07,1.44V472.37A1.5,1.5,0,0,0,314.94,473.57Zm2.39-9.46,151.42-45.76.06,0a.69.69,0,0,0,.15-.07l.13-.06.12-.08.11-.1a.47.47,0,0,0,.1-.1l.09-.11h0l11.12,3.25-163.31,49.3Zm165.32-43.66-.26.08-12.58-3.69V198.72l12.84-3.87ZM466.81,199.62V415.81L317.33,461V244.64Z"/><path class="cls-1" d="M521.81,476.48l.09-.11.08-.12.06-.12a.84.84,0,0,0,.06-.14.57.57,0,0,0,0-.14.32.32,0,0,0,0-.14.78.78,0,0,0,0-.16s0,0,0-.07v-12.4a1.23,1.23,0,0,0,0-.19s0-.07,0-.11a1.15,1.15,0,0,0-.06-.17.76.76,0,0,0,0-.11c0-.05,0-.1-.08-.14a.36.36,0,0,0-.07-.1.69.69,0,0,0-.11-.13l-.08-.09-.13-.1-.1-.07-.14-.08-.14-.06-.07,0-12-3.6v-9.22h0V439.7c0-.05,0-.11,0-.16s0-.09,0-.14a1.21,1.21,0,0,0-.05-.14.69.69,0,0,0-.05-.13l-.06-.12-.08-.13-.09-.11-.1-.11-.11-.09-.12-.09-.11-.06-.16-.07,0,0-6.64-2.28V168.32l7.25-7.44a1.52,1.52,0,0,0,.42-1V144.44a4.32,4.32,0,0,0-1-8.35l-.13-.05L300.42,73.74l-.14,0-.14,0h-.3a1.13,1.13,0,0,0-.18,0l-.1,0L92.22,136h-.09a4.33,4.33,0,0,0-1.31,8.39v15.39a1.48,1.48,0,0,0,.43,1l7.24,7.44v267.8L91.76,439a1.48,1.48,0,0,0-.92,1.38v22.1a1.51,1.51,0,0,0,1.07,1.44l207.65,62.33h0a1.74,1.74,0,0,0,.39,0h0a1.6,1.6,0,0,0,.39,0h0l135.15-40.55,27.76,8.41a1.67,1.67,0,0,0,.44.06h0a1.59,1.59,0,0,0,.43-.06l56.93-17.18.06,0,.16-.07.12-.06.12-.08.11-.09ZM301.49,522.79V502.73l133.53-40v20a1,1,0,0,0-.21.08ZM91,140.38a1.33,1.33,0,0,1,1.22-1.32l206.29,61.86v3.6L93.81,143.14a1.49,1.49,0,0,0-1.49-1.42A1.34,1.34,0,0,1,91,140.38ZM463.77,479.8l-11.32-3.4,54-16.29v0l.07.08a.74.74,0,0,0,.13.12l.09.08.14.1.1.05.17.07.06,0,10,3Zm42.37-31.89-10.92-3.27,10.92-3.28Zm-12.66-2.75,12.43,3.72L450.7,465.54,437.35,462Zm-42.27,21.27,54.93-16.57v9.29l-54.93,16.58ZM301.49,501.69v-4.5L498.78,438a.39.39,0,0,1,.08.1l.1.1.11.09.12.09.12.06.15.08h0l5.86,2ZM101.49,437V168.68l197,59V496.14Zm197-231.48v14.52L93.82,158.71V144.19ZM300,84.78l189.13,56.74L300,198.24,111,141.57Zm1.5,135.3V205.56l204.67-61.37v14.52Zm197,217-197,59.1V227.7l197-59Zm.44-270.39h0v0h0a1.42,1.42,0,0,0-.31.48v0a1.63,1.63,0,0,0-.09.45l-197,59v-3.44l201.08-60.3Zm7.24-23.51L301.49,204.52v-3.6l206.29-61.86a1.33,1.33,0,0,1-.12,2.66A1.49,1.49,0,0,0,506.17,143.14ZM490.86,141,300.49,83.89v-7l202,60.61ZM299.49,76.89v7L109.28,141.05l-11.66-3.5Zm-1,146.33v3.44l-197-59a1,1,0,0,0-.09-.44.09.09,0,0,0,0,0,1.48,1.48,0,0,0-.31-.47h0l0,0h0l-3.63-3.73ZM100.57,438.5h0l0,0,.24-.12.11-.1.11-.09.1-.12,0-.05,197.29,59.19v4.5l-203.18-61ZM436,482.69v-20l14.19,3.78v9.95a.45.45,0,0,0,.1.28l0,0a.53.53,0,0,0,.23.16h0l12.7,3.81v10.25Zm28.25,8.25V480.69L519,464.19l.23.07v10.11ZM93.84,441.36h0l204.62,61.38v20.06L93.84,461.35Z"/><path class="cls-2" d="M324.2,299.84a43.35,43.35,0,0,1,6.32,6.67,49.41,49.41,0,0,1,4.39,8.35c1.72,3.83,3.49,7.78,6.25,10.44s6.25,4,10,5.42a42.23,42.23,0,0,1,8.18,3.83,54.51,54.51,0,0,1,7.15,6.07c3,2.88,6.19,5.87,9.65,7.44,3.81,1.73,8,2.43,12.13,3.1,1.51.25,3.07.5,4.57.81,2.49.49,4.95,1.2,7.33,1.88a78.23,78.23,0,0,0,9.23,2.23,83.42,83.42,0,0,0,10,.72c2.74.08,5.56.17,8.35.47,1.8.18,3.62.47,5.39.74,4.43.68,8.61,1.33,12.7.7s7.95-2.54,11.64-4.39c1.44-.73,2.94-1.49,4.42-2.14,1.66-.73,3.35-1.36,5-2V334.56l-.16.07c-2.3.95-4.46,1.85-6.61,3-1.06.56-2.1,1.15-3.21,1.79-3.33,1.91-6.77,3.88-10.78,4.6a22.17,22.17,0,0,1-3.73.3,54.67,54.67,0,0,1-8.26-.84c-1.37-.22-2.79-.43-4.18-.59-2.57-.29-5.21-.4-7.77-.5-2.84-.11-5.52-.22-8.13-.55s-5-.86-7.36-1.36-4.57-1-6.87-1.27c-1.07-.14-2.16-.25-3.25-.36-3.84-.4-7.82-.81-11.6-2.36-3.45-1.42-6.44-4.22-9.33-6.93a41.19,41.19,0,0,0-6.33-5.24,31.22,31.22,0,0,0-7.22-2.84c-3.49-1.05-7.1-2.14-9.91-4.72s-4.47-6.37-6.06-10a36.76,36.76,0,0,0-3.78-7.3,33,33,0,0,0-5.71-5.51c-2.94-2.42-6-4.93-7.64-8.46s-1.66-7.5-1.7-11.42a36.36,36.36,0,0,0-.68-8.24,34.29,34.29,0,0,0-3.17-7.36c-1.81-3.48-3.69-7.08-3.91-11a24.2,24.2,0,0,1,.08-3.41l-2.35.71v47.47C319,295,321.53,297.38,324.2,299.84Z"/><path class="cls-2" d="M321.91,247.24c.19,3.45,1.95,6.82,3.65,10.09a36.39,36.39,0,0,1,3.37,7.87,38.92,38.92,0,0,1,.75,8.79c0,3.82.06,7.44,1.47,10.44s4.14,5.29,7,7.65a34.66,34.66,0,0,1,6.11,5.93,39.51,39.51,0,0,1,4,7.75c1.49,3.44,3,7,5.49,9.25s5.63,3.19,9,4.21a33.68,33.68,0,0,1,7.75,3.08,43.16,43.16,0,0,1,6.72,5.53c2.73,2.57,5.56,5.22,8.62,6.47,3.47,1.42,7.27,1.82,10.95,2.2,1.12.11,2.22.23,3.3.37,2.4.3,4.78.81,7.07,1.3s4.69,1,7.17,1.32,5.14.43,7.93.54c2.6.1,5.28.21,7.94.51,1.43.16,2.87.38,4.27.6,3.94.61,7.66,1.18,11.22.55s6.87-2.51,10-4.32c1.08-.62,2.19-1.26,3.3-1.84,2.23-1.16,4.54-2.12,6.78-3l1.06-.45V315.9c-.95.51-1.9,1-2.83,1.48-2.27,1.18-4.42,2.28-6.53,3.64-.71.45-1.41.93-2.13,1.42-2.8,1.92-5.7,3.91-9.26,4.67a16.91,16.91,0,0,1-3.62.36,46.31,46.31,0,0,1-7-.73c-1-.16-2.05-.32-3.07-.44-2.63-.33-5.31-.45-7.91-.58-1.89-.09-3.67-.17-5.4-.32-1.5-.14-2.94-.31-4.36-.48-2.54-.3-4.94-.59-7.42-.65l-2,0c-3.48-.05-7.07-.1-10.58-1.34-3.15-1.11-5.86-3.62-8.47-6a31.39,31.39,0,0,0-5.77-4.62,24,24,0,0,0-6.63-2c-3.22-.67-6.55-1.35-9.16-3.58s-4-5.69-5.42-9A28.74,28.74,0,0,0,356,291a24.75,24.75,0,0,0-5.38-4.65c-2.79-2-5.67-4.09-7.21-7.24s-1.4-6.74-1.3-10.27a27.81,27.81,0,0,0-.41-7.41,26.63,26.63,0,0,0-3.06-6.51c-1.77-3.07-3.6-6.25-3.78-9.8a23.17,23.17,0,0,1,.58-5.95l-13.39,4A22.48,22.48,0,0,0,321.91,247.24Z"/><path class="cls-2" d="M336.81,359a80.88,80.88,0,0,1,8,7.07c3.68,3.55,7.48,7.23,11.75,9.46,4.53,2.36,9.63,3.59,14.57,4.77,2.32.56,4.71,1.13,7,1.82,2.86.85,5.69,1.94,8.43,3a77.89,77.89,0,0,0,12.82,4.09,81.62,81.62,0,0,0,13.78,1c3.16.06,6.43.13,9.63.43,2.53.23,5.1.63,7.59,1,5.17.8,10.51,1.64,15.64,1s10.05-2.65,14.77-4.61c2-.84,4.1-1.7,6.17-2.44V370.16c-.5.18-1,.35-1.49.54-1.81.71-3.59,1.51-5.47,2.37-4.34,2-8.83,4-13.78,4.65a28.13,28.13,0,0,1-3.89.25,71.52,71.52,0,0,1-10.85-1.12c-2.1-.32-4.27-.66-6.39-.87-2.91-.28-5.9-.36-8.8-.44a82.6,82.6,0,0,1-12.24-.91,78.3,78.3,0,0,1-11.36-3.23c-2.62-.9-5.1-1.74-7.68-2.4-1.87-.48-3.83-.88-5.72-1.28-4.63-1-9.42-2-13.81-4.11-4.14-2-7.73-5.47-11.19-8.79a64.62,64.62,0,0,0-7.33-6.38,51.81,51.81,0,0,0-8.27-4.37c-4.08-1.85-8.3-3.77-11.58-7.08s-5.38-7.84-7.4-12.22c-.76-1.65-1.54-3.32-2.38-4.93v27.4c3.07,2.7,6.71,4.59,10.54,6.56A66.05,66.05,0,0,1,336.81,359Z"/><path class="cls-2" d="M328.5,335.58c3,3.05,6.89,4.81,11,6.67a52.39,52.39,0,0,1,8.59,4.55,67.18,67.18,0,0,1,7.57,6.57c3.36,3.22,6.83,6.55,10.69,8.45,4.16,2,8.83,3,13.33,3.95,1.92.39,3.9.81,5.81,1.29,2.66.68,5.29,1.58,7.84,2.45a75.23,75.23,0,0,0,11.07,3.15,79.82,79.82,0,0,0,11.93.89c2.93.07,6,.15,8.95.44,2.17.22,4.37.56,6.49.88,4.7.73,9.56,1.48,14.17.87s9-2.59,13.22-4.5c1.82-.82,3.71-1.68,5.58-2.4.73-.28,1.47-.55,2.21-.8V352.52c-1.39.51-2.79,1-4.14,1.64s-2.84,1.34-4.33,2.09c-3.84,1.93-7.81,3.93-12.29,4.61a25.5,25.5,0,0,1-3.81.27,63.48,63.48,0,0,1-9.54-1c-1.74-.27-3.54-.55-5.28-.73-2.71-.28-5.5-.37-8.2-.46a84.73,84.73,0,0,1-10.28-.74,78.38,78.38,0,0,1-9.49-2.29c-2.45-.7-4.76-1.36-7.16-1.84-1.47-.3-3-.55-4.51-.79-4.22-.7-8.6-1.41-12.67-3.27-3.79-1.72-7.07-4.83-10.24-7.84a51.59,51.59,0,0,0-6.85-5.83,40.78,40.78,0,0,0-7.77-3.62c-3.77-1.45-7.68-2.94-10.72-5.88s-4.92-7.1-6.71-11.11a48.09,48.09,0,0,0-4.18-8,42,42,0,0,0-6-6.34,51.56,51.56,0,0,1-5.44-5.52v19.94a68.58,68.58,0,0,1,4.2,8.08C323.44,328.15,325.45,332.51,328.5,335.58Z"/><path class="cls-2" d="M333.88,378.81c4,3.91,8.14,7.95,12.83,10.51,4.9,2.67,10.45,4.15,15.83,5.58,2.7.72,5.49,1.46,8.16,2.35,3.09,1,6.14,2.3,9.1,3.54a79.62,79.62,0,0,0,14.52,5c5,1,10.13,1.11,15.58,1.2,3.4.05,6.92.1,10.37.41,2.89.26,5.83.72,8.68,1.17,5.63.88,11.45,1.79,17.11,1.19s11.08-2.71,16.31-4.74c1.5-.58,3-1.17,4.56-1.73V387.68c-1.8.66-3.59,1.39-5.46,2.17-4.84,2-9.84,4.1-15.26,4.74a32.69,32.69,0,0,1-3.95.22,80.09,80.09,0,0,1-12.19-1.26c-2.46-.38-5-.78-7.48-1-3.14-.29-6.37-.36-9.49-.42a83.56,83.56,0,0,1-14.1-1.07,78.5,78.5,0,0,1-13.12-4.18c-2.71-1.05-5.51-2.13-8.31-3-2.25-.66-4.62-1.24-6.91-1.79-5-1.21-10.26-2.46-15-4.92-4.51-2.35-8.41-6.13-12.18-9.78a80.27,80.27,0,0,0-7.78-6.9,64.35,64.35,0,0,0-8.73-5.09,59.86,59.86,0,0,1-9.7-5.81V366a73.29,73.29,0,0,1,8.25,5.27A95,95,0,0,1,333.88,378.81Z"/><path class="cls-2" d="M466.93,204.35v-4.81l-2.36.72a12.37,12.37,0,0,0,2,3.73Z"/><path class="cls-2" d="M354.2,235.77a21.52,21.52,0,0,0-1.34,7c.1,2.45,1.63,4.79,3.25,7.28a22.63,22.63,0,0,1,3.27,6.39,23.74,23.74,0,0,1,.22,7.4c-.22,2.92-.43,5.69.63,7.77s3.38,3.51,5.82,5a21.29,21.29,0,0,1,5.69,4.35,24,24,0,0,1,3.34,6.54c1.09,2.8,2.13,5.45,4,6.9s4.35,1.65,7.05,1.9a20.32,20.32,0,0,1,6.9,1.46,25.84,25.84,0,0,1,5.8,4.4c2.12,1.95,4.32,4,6.59,4.59h0c2.74.76,5.69.39,8.53,0l.71-.09a53.63,53.63,0,0,1,7-.43c.85,0,1.74,0,2.67.05a103.08,103.08,0,0,1,11,.77l2,.31c3,.47,5.78.92,8.23.26s4.6-2.52,6.62-4.3l1.15-1a65,65,0,0,1,8.11-5.76c1.68-1,3.56-2.16,5.52-3.25V277.76c-.62.28-1.26.54-1.89.8l-.53.22a36.27,36.27,0,0,0-7,3.69,25.1,25.1,0,0,0-4.9,5.15l-.29.38c-1.54,2-3.29,4.34-6,5.33s-5.39.45-8.14,0l-.82-.14a35.05,35.05,0,0,0-7.94-.61,23.22,23.22,0,0,0-6.72,1.78,18.64,18.64,0,0,1-6.53,1.57,9.32,9.32,0,0,1-1.57-.13h0c-2.68-.46-4.88-2.45-7-4.37a16.35,16.35,0,0,0-4.44-3.28,14.09,14.09,0,0,0-5.32-.39c-2.72.12-5.54.24-7.8-1.32s-3.28-4.38-4.26-7.1a15.85,15.85,0,0,0-2.43-5,14.53,14.53,0,0,0-4.6-2.85c-2.54-1.19-5.17-2.43-6.49-4.9s-.91-5.33-.53-8.15a15.48,15.48,0,0,0,.13-5.6,15,15,0,0,0-2.76-4.65c-1.73-2.29-3.52-4.66-3.59-7.51a16.14,16.14,0,0,1,1.72-6.7l0-.11c.18-.43.36-.86.53-1.3.48-1.17,1-2.38,1.56-3.58l-14.47,4.37c-.08.31-.16.62-.25.94C354.5,234.77,354.35,235.27,354.2,235.77Z"/><path class="cls-2" d="M452.22,210.81a11.18,11.18,0,0,0,4.13,1.91c2.44.79,5,1.61,6.22,3.77s.68,4.7.16,7.19a11.33,11.33,0,0,0-.41,4.62,11.05,11.05,0,0,0,2.57,3.63,27,27,0,0,1,2,2.45V207.84a10.3,10.3,0,0,1-2.47-2,15.18,15.18,0,0,1-2.61-4.79l-12.2,3.68c.23.63.45,1.27.65,1.92C450.82,208.29,451.36,210,452.22,210.81Z"/><path class="cls-2" d="M370.43,233.62l-.54,1.32-.05.11a13.91,13.91,0,0,0-1.5,5.54c.05,1.94,1.49,3.85,3,5.88a17.24,17.24,0,0,1,3.24,5.63,17.79,17.79,0,0,1-.06,6.7c-.34,2.48-.65,4.82.22,6.43s3,2.63,5.2,3.68a16.63,16.63,0,0,1,5.5,3.52,18,18,0,0,1,3,5.93c.87,2.4,1.69,4.67,3.22,5.73s3.7.93,6.06.82a16.26,16.26,0,0,1,6.46.58,18.63,18.63,0,0,1,5.33,3.82c1.82,1.65,3.7,3.36,5.56,3.67h0c2.06.35,4.22-.38,6.62-1.29a25.7,25.7,0,0,1,7.53-1.95,37.73,37.73,0,0,1,8.6.63l.84.14c2.49.43,4.85.83,6.68.16s3.25-2.49,4.68-4.38l.3-.39a27.48,27.48,0,0,1,5.47-5.71,38.87,38.87,0,0,1,7.63-4l.54-.22c1-.43,2.05-.85,3-1.32v-32.2a25.72,25.72,0,0,1-2,2.45,11.15,11.15,0,0,0-2.57,3.63,11.32,11.32,0,0,0,.41,4.62c.52,2.49,1.07,5.06-.16,7.19s-3.78,3-6.22,3.77a6.61,6.61,0,0,0-6.05,6.05c-.79,2.44-1.6,5-3.76,6.22s-4.71.68-7.2.15c-1.68-.35-3.41-.72-4.61-.4a10.9,10.9,0,0,0-3.63,2.57c-1.84,1.66-3.92,3.54-6.48,3.54s-4.63-1.88-6.47-3.54a10.9,10.9,0,0,0-3.63-2.57,11.42,11.42,0,0,0-4.61.4c-2.49.53-5.07,1.08-7.2-.15s-3-3.78-3.76-6.22c-.53-1.62-1.06-3.28-1.92-4.14a11.18,11.18,0,0,0-4.13-1.91c-2.44-.79-5-1.61-6.22-3.77s-.69-4.7-.16-7.19c.36-1.68.73-3.41.4-4.62s-1.45-2.39-2.56-3.63c-1.66-1.83-3.55-3.91-3.55-6.47s1.89-4.64,3.55-6.47c1.11-1.24,2.27-2.51,2.56-3.63a10.9,10.9,0,0,0-.38-4.51l-13.28,4c-.31.53-.63,1.05-.92,1.59A39,39,0,0,0,370.43,233.62Z"/><path class="cls-2" d="M389.82,229.07c-.48,1.82-1.88,3.37-3.24,4.87s-2.77,3.06-2.77,4.46,1.41,3,2.77,4.46,2.76,3,3.24,4.87.07,4-.36,6-.84,3.94-.18,5.07,2.64,1.8,4.54,2.41,4,1.29,5.33,2.65,2,3.38,2.65,5.33,1.25,3.88,2.42,4.55,3.13.23,5.06-.18a20.75,20.75,0,0,1,4.16-.59,7.28,7.28,0,0,1,1.86.22c1.82.49,3.37,1.89,4.86,3.25s3.06,2.76,4.46,2.76,3-1.4,4.47-2.76,3-2.76,4.86-3.25,4-.06,6,.37,3.94.83,5.07.18,1.8-2.64,2.42-4.55,1.28-4,2.64-5.33,3.39-2,5.34-2.64,3.87-1.26,4.54-2.42.23-3.13-.18-5.07-.87-4.11-.36-6,1.88-3.37,3.24-4.87,2.76-3.06,2.76-4.46-1.4-3-2.76-4.46-2.76-3.05-3.24-4.87-.07-4,.36-6,.84-3.94.18-5.07-2.64-1.8-4.54-2.41-4-1.28-5.33-2.65-2-3.38-2.65-5.33c-.22-.67-.44-1.35-.68-2l-57.34,17.29,0,.14C389.89,225.08,390.33,227.18,389.82,229.07Z"/><path class="cls-2" d="M337.39,245c.14,3,1.75,5.74,3.45,8.68a29.07,29.07,0,0,1,3.31,7.15,29.84,29.84,0,0,1,.49,8.09c-.1,3.38-.19,6.57,1.05,9.11s3.77,4.39,6.42,6.3a27.48,27.48,0,0,1,5.9,5.15,31,31,0,0,1,3.69,7.15c1.33,3.21,2.58,6.23,4.74,8.07s5,2.41,8,3A25.71,25.71,0,0,1,381.8,310a33.69,33.69,0,0,1,6.27,5c2.43,2.25,4.94,4.58,7.6,5.52,3.12,1.09,6.51,1.14,9.79,1.19l2,0c2.59.07,5.05.36,7.66.67,1.39.16,2.81.33,4.28.47,1.68.14,3.44.23,5.3.32,2.64.12,5.38.25,8.09.59,1.06.13,2.1.29,3.15.45,3.46.53,6.73,1,9.74.4s5.77-2.51,8.37-4.29c.74-.5,1.46-1,2.19-1.47,2.21-1.41,4.51-2.6,6.74-3.75,1.3-.67,2.64-1.36,4-2.1V296.4c-1.45.83-2.84,1.67-4.12,2.46a61.9,61.9,0,0,0-7.77,5.51l-1.13,1c-2.25,2-4.58,4-7.69,4.87a13.11,13.11,0,0,1-3.48.42,37.6,37.6,0,0,1-5.86-.62l-2-.3a99.17,99.17,0,0,0-10.67-.75,57.69,57.69,0,0,0-9.28.36l-.7.09c-3.11.39-6.32.8-9.58-.1-2.89-.8-5.33-3-7.68-5.19a23,23,0,0,0-5.15-4,17.76,17.76,0,0,0-6-1.21c-3-.28-6-.57-8.45-2.46s-3.65-5-4.83-8a21.38,21.38,0,0,0-2.91-5.82,19.42,19.42,0,0,0-5-3.76c-2.65-1.6-5.4-3.25-6.82-6s-1.15-6-.91-9.18a21.35,21.35,0,0,0-.15-6.54,20.25,20.25,0,0,0-2.92-5.6c-1.74-2.67-3.54-5.44-3.67-8.62a23.85,23.85,0,0,1,1.44-7.92l.23-.74-13.65,4.11A23.74,23.74,0,0,0,337.39,245Z"/><path class="cls-2" d="M335.58,455.5l23.15-7c-3.49-1.72-7.08-3.48-10.69-4.93s-7.64-2.74-11.44-3.94c-6.56-2.09-13.32-4.25-19.32-7.74v17.22c3.67,1.46,7.45,2.72,11.17,3.94C330.8,453.85,333.2,454.65,335.58,455.5Z"/><path class="cls-2" d="M348.48,442.51c3.79,1.52,7.56,3.38,11.2,5.18l.69.34,24.84-7.49c-.42-.08-.84-.15-1.25-.25-6.41-1.46-12.38-4.29-18.16-7-3.38-1.61-6.88-3.27-10.38-4.6s-6.91-2.36-10.34-3.4c-6.34-1.93-12.9-3.92-18.69-7.31h0a55.9,55.9,0,0,1-9.11-6.91v19.52c6,3.63,13,5.83,19.67,8C340.77,439.75,344.72,441,348.48,442.51Z"/><path class="cls-2" d="M345.47,424c3.45,1.05,7,2.14,10.42,3.43,3.55,1.36,7.07,3,10.48,4.64,5.71,2.71,11.62,5.51,17.88,6.93,1.26.29,2.53.51,3.82.69l41.21-12.42-2-.3c-3.18-.5-6.47-1-9.67-1.3-3.64-.31-7.38-.36-11-.4-5.89-.06-12-.13-17.67-1.38s-11.26-3.72-16.51-6.08c-3.15-1.42-6.41-2.88-9.67-4.05-3-1.08-6.15-2-9.2-2.86-5.91-1.69-12-3.44-17.44-6.52s-9.84-7.48-14.24-11.8c-1.51-1.49-3.05-3-4.62-4.45v21.13a57.71,57.71,0,0,0,9.79,7.56C332.72,420.12,339.2,422.09,345.47,424Z"/><path class="cls-2" d="M328.13,454c-3.6-1.19-7.27-2.4-10.85-3.81V461L334,456C332,455.31,330.06,454.66,328.13,454Z"/><path class="cls-2" d="M336.89,403.06c5.27,3,11.29,4.72,17.11,6.39,3.08.88,6.26,1.8,9.3,2.89,3.31,1.18,6.6,2.66,9.78,4.09,5.18,2.33,10.54,4.74,16.21,6s11.29,1.28,17.36,1.35c3.65,0,7.42.09,11.12.41,3.25.28,6.57.8,9.78,1.31,1.69.26,3.4.53,5.12.76l34.26-10.32V405.1c-1.33.49-2.65,1-4,1.52-5.33,2.07-10.84,4.21-16.74,4.84a38.26,38.26,0,0,1-4,.2,88.66,88.66,0,0,1-13.54-1.4c-2.82-.45-5.74-.9-8.57-1.16-3.39-.3-6.87-.35-10.24-.41-5.29-.08-10.77-.16-15.9-1.23a80.87,80.87,0,0,1-14.83-5.13c-2.93-1.23-5.95-2.5-9-3.5-2.63-.87-5.39-1.61-8.07-2.32-5.47-1.45-11.12-3-16.2-5.73C341,388.11,336.8,384,332.71,380a95.71,95.71,0,0,0-8.18-7.4,67.68,67.68,0,0,0-7.24-4.67v18.16c1.94,1.75,3.83,3.59,5.67,5.41C327.29,395.75,331.77,400.16,336.89,403.06Z"/><path class="cls-3" d="M334,456l1.61-.48c-2.38-.85-4.78-1.65-7.13-2.43-3.72-1.22-7.5-2.48-11.17-3.94v1.08c3.58,1.41,7.25,2.62,10.85,3.81C330.06,454.66,332,455.31,334,456Z"/><path class="cls-4" d="M348,443.59c3.61,1.45,7.2,3.21,10.69,4.93l1.64-.49-.69-.34c-3.64-1.8-7.41-3.66-11.2-5.18s-7.71-2.76-11.53-4c-6.71-2.13-13.64-4.33-19.67-8v1.34c6,3.49,12.76,5.65,19.32,7.74C340.4,440.85,344.33,442.1,348,443.59Z"/><path class="cls-5" d="M326.39,418c5.79,3.39,12.35,5.38,18.69,7.31,3.43,1,7,2.12,10.34,3.4s7,3,10.38,4.6c5.78,2.73,11.75,5.56,18.16,7,.41.1.83.17,1.25.25l2.86-.86c-1.29-.18-2.56-.4-3.82-.69-6.26-1.42-12.17-4.22-17.88-6.93-3.41-1.61-6.93-3.28-10.48-4.64-3.4-1.29-7-2.38-10.42-3.43-6.27-1.9-12.75-3.87-18.4-7.18a57.71,57.71,0,0,1-9.79-7.56v1.8a55.9,55.9,0,0,0,9.11,6.91Z"/><path class="cls-6" d="M336.15,404.37c5.43,3.08,11.53,4.83,17.44,6.52,3.05.88,6.21,1.78,9.2,2.86,3.26,1.17,6.52,2.63,9.67,4.05,5.25,2.36,10.68,4.8,16.51,6.08s11.78,1.32,17.67,1.38c3.62,0,7.36.09,11,.4,3.2.28,6.49.8,9.67,1.3l2,.3,3.39-1c-1.72-.23-3.43-.5-5.12-.76-3.21-.51-6.53-1-9.78-1.31-3.7-.32-7.47-.37-11.12-.41-6.07-.07-11.81-.13-17.36-1.35s-11-3.65-16.21-6c-3.18-1.43-6.47-2.91-9.78-4.09-3-1.09-6.22-2-9.3-2.89-5.82-1.67-11.84-3.39-17.11-6.39-5.12-2.9-9.6-7.31-13.93-11.56-1.84-1.82-3.73-3.66-5.67-5.41v2c1.57,1.45,3.11,3,4.62,4.45C326.31,396.89,330.86,401.37,336.15,404.37Z"/><path class="cls-7" d="M332.71,380c4.09,4,8.31,8.11,13.2,10.78,5.08,2.77,10.73,4.28,16.2,5.73,2.68.71,5.44,1.45,8.07,2.32,3,1,6,2.27,9,3.5A80.87,80.87,0,0,0,394,407.46c5.13,1.07,10.61,1.15,15.9,1.23,3.37.06,6.85.11,10.24.41,2.83.26,5.75.71,8.57,1.16a88.66,88.66,0,0,0,13.54,1.4,38.26,38.26,0,0,0,4-.2c5.9-.63,11.41-2.77,16.74-4.84,1.31-.51,2.63-1,4-1.52v-1.77c-1.53.56-3.06,1.15-4.56,1.73-5.23,2-10.64,4.14-16.31,4.74s-11.48-.31-17.11-1.19c-2.85-.45-5.79-.91-8.68-1.17-3.45-.31-7-.36-10.37-.41-5.45-.09-10.6-.17-15.58-1.2a79.62,79.62,0,0,1-14.52-5c-3-1.24-6-2.52-9.1-3.54-2.67-.89-5.46-1.63-8.16-2.35-5.38-1.43-10.93-2.91-15.83-5.58-4.69-2.56-8.83-6.6-12.83-10.51a95,95,0,0,0-8.34-7.53,73.29,73.29,0,0,0-8.25-5.27v1.92a67.68,67.68,0,0,1,7.24,4.67A95.71,95.71,0,0,1,332.71,380Z"/><path class="cls-8" d="M335.72,360.52a80.27,80.27,0,0,1,7.78,6.9c3.77,3.65,7.67,7.43,12.18,9.78,4.72,2.46,9.94,3.71,15,4.92,2.29.55,4.66,1.13,6.91,1.79,2.8.83,5.6,1.91,8.31,3A78.5,78.5,0,0,0,399,391.05a83.56,83.56,0,0,0,14.1,1.07c3.12.06,6.35.13,9.49.42,2.48.23,5,.63,7.48,1a80.09,80.09,0,0,0,12.19,1.26,32.69,32.69,0,0,0,3.95-.22c5.42-.64,10.42-2.72,15.26-4.74,1.87-.78,3.66-1.51,5.46-2.17v-2c-2.07.74-4.15,1.6-6.17,2.44-4.72,2-9.6,4-14.77,4.61s-10.47-.23-15.64-1c-2.49-.39-5.06-.79-7.59-1-3.2-.3-6.47-.37-9.63-.43a81.62,81.62,0,0,1-13.78-1,77.89,77.89,0,0,1-12.82-4.09c-2.74-1.06-5.57-2.15-8.43-3-2.3-.69-4.69-1.26-7-1.82-4.94-1.18-10-2.41-14.57-4.77-4.27-2.23-8.07-5.91-11.75-9.46a80.88,80.88,0,0,0-8-7.07,66.05,66.05,0,0,0-9-5.24c-3.83-2-7.47-3.86-10.54-6.56v2.38a59.86,59.86,0,0,0,9.7,5.81A64.35,64.35,0,0,1,335.72,360.52Z"/><path class="cls-9" d="M327.08,337c3.28,3.31,7.5,5.23,11.58,7.08a51.81,51.81,0,0,1,8.27,4.37,64.62,64.62,0,0,1,7.33,6.38c3.46,3.32,7.05,6.76,11.19,8.79,4.39,2.16,9.18,3.15,13.81,4.11,1.89.4,3.85.8,5.72,1.28,2.58.66,5.06,1.5,7.68,2.4A78.3,78.3,0,0,0,404,374.63a82.6,82.6,0,0,0,12.24.91c2.9.08,5.89.16,8.8.44,2.12.21,4.29.55,6.39.87A71.52,71.52,0,0,0,442.3,378a28.13,28.13,0,0,0,3.89-.25c4.95-.65,9.44-2.69,13.78-4.65,1.88-.86,3.66-1.66,5.47-2.37.49-.19,1-.36,1.49-.54V368c-.74.25-1.48.52-2.21.8-1.87.72-3.76,1.58-5.58,2.4-4.21,1.91-8.56,3.88-13.22,4.5s-9.47-.14-14.17-.87c-2.12-.32-4.32-.66-6.49-.88-3-.29-6-.37-8.95-.44a79.82,79.82,0,0,1-11.93-.89,75.23,75.23,0,0,1-11.07-3.15c-2.55-.87-5.18-1.77-7.84-2.45-1.91-.48-3.89-.9-5.81-1.29-4.5-.94-9.17-1.91-13.33-3.95-3.86-1.9-7.33-5.23-10.69-8.45a67.18,67.18,0,0,0-7.57-6.57,52.39,52.39,0,0,0-8.59-4.55c-4.09-1.86-8-3.62-11-6.67s-5.06-7.43-7-11.65a68.58,68.58,0,0,0-4.2-8.08v4c.84,1.61,1.62,3.28,2.38,4.93C321.7,329.15,323.78,333.67,327.08,337Z"/><path class="cls-10" d="M322.74,301.43a42,42,0,0,1,6,6.34,48.09,48.09,0,0,1,4.18,8c1.79,4,3.65,8.16,6.71,11.11s7,4.43,10.72,5.88a40.78,40.78,0,0,1,7.77,3.62,51.59,51.59,0,0,1,6.85,5.83c3.17,3,6.45,6.12,10.24,7.84,4.07,1.86,8.45,2.57,12.67,3.27,1.5.24,3,.49,4.51.79,2.4.48,4.71,1.14,7.16,1.84a78.38,78.38,0,0,0,9.49,2.29,84.73,84.73,0,0,0,10.28.74c2.7.09,5.49.18,8.2.46,1.74.18,3.54.46,5.28.73a63.48,63.48,0,0,0,9.54,1,25.5,25.5,0,0,0,3.81-.27c4.48-.68,8.45-2.68,12.29-4.61,1.49-.75,2.9-1.46,4.33-2.09s2.75-1.13,4.14-1.64v-2.3c-1.67.6-3.36,1.23-5,2-1.48.65-3,1.41-4.42,2.14-3.69,1.85-7.5,3.77-11.64,4.39s-8.27,0-12.7-.7c-1.77-.27-3.59-.56-5.39-.74-2.79-.3-5.61-.39-8.35-.47a83.42,83.42,0,0,1-10-.72,78.23,78.23,0,0,1-9.23-2.23c-2.38-.68-4.84-1.39-7.33-1.88-1.5-.31-3.06-.56-4.57-.81-4.09-.67-8.32-1.37-12.13-3.1-3.46-1.57-6.61-4.56-9.65-7.44a54.51,54.51,0,0,0-7.15-6.07,42.23,42.23,0,0,0-8.18-3.83c-3.74-1.43-7.27-2.79-10-5.42s-4.53-6.61-6.25-10.44a49.41,49.41,0,0,0-4.39-8.35,43.35,43.35,0,0,0-6.32-6.67c-2.67-2.46-5.22-4.81-6.9-7.7v3.77A51.56,51.56,0,0,0,322.74,301.43Z"/><path class="cls-11" d="M319.58,247.37c.22,3.95,2.1,7.55,3.91,11a34.29,34.29,0,0,1,3.17,7.36,36.36,36.36,0,0,1,.68,8.24c0,3.92.07,8,1.7,11.42s4.7,6,7.64,8.46a33,33,0,0,1,5.71,5.51,36.76,36.76,0,0,1,3.78,7.3c1.59,3.67,3.23,7.46,6.06,10s6.42,3.67,9.91,4.72a31.22,31.22,0,0,1,7.22,2.84,41.19,41.19,0,0,1,6.33,5.24c2.89,2.71,5.88,5.51,9.33,6.93,3.78,1.55,7.76,2,11.6,2.36,1.09.11,2.18.22,3.25.36,2.3.3,4.52.77,6.87,1.27s4.78,1,7.36,1.36,5.29.44,8.13.55c2.56.1,5.2.21,7.77.5,1.39.16,2.81.37,4.18.59a54.67,54.67,0,0,0,8.26.84,22.17,22.17,0,0,0,3.73-.3c4-.72,7.45-2.69,10.78-4.6,1.11-.64,2.15-1.23,3.21-1.79,2.15-1.12,4.31-2,6.61-3l.16-.07V332l-1.06.45c-2.24.93-4.55,1.89-6.78,3-1.11.58-2.22,1.22-3.3,1.84-3.16,1.81-6.42,3.68-10,4.32s-7.28.06-11.22-.55c-1.4-.22-2.84-.44-4.27-.6-2.66-.3-5.34-.41-7.94-.51-2.79-.11-5.42-.22-7.93-.54s-4.86-.83-7.17-1.32-4.67-1-7.07-1.3c-1.08-.14-2.18-.26-3.3-.37-3.68-.38-7.48-.78-10.95-2.2-3.06-1.25-5.89-3.9-8.62-6.47a43.16,43.16,0,0,0-6.72-5.53,33.68,33.68,0,0,0-7.75-3.08c-3.39-1-6.59-2-9-4.21s-4-5.81-5.49-9.25a39.51,39.51,0,0,0-4-7.75,34.66,34.66,0,0,0-6.11-5.93c-2.87-2.36-5.57-4.6-7-7.65s-1.44-6.62-1.47-10.44a38.92,38.92,0,0,0-.75-8.79,36.39,36.39,0,0,0-3.37-7.87c-1.7-3.27-3.46-6.64-3.65-10.09a22.48,22.48,0,0,1,.17-4l-2.42.73A24.2,24.2,0,0,0,319.58,247.37Z"/><path class="cls-12" d="M334.89,245.14c.18,3.55,2,6.73,3.78,9.8a26.63,26.63,0,0,1,3.06,6.51,27.81,27.81,0,0,1,.41,7.41c-.1,3.53-.2,7.18,1.3,10.27s4.42,5.23,7.21,7.24A24.75,24.75,0,0,1,356,291a28.74,28.74,0,0,1,3.36,6.58c1.38,3.33,2.81,6.78,5.42,9s5.94,2.91,9.16,3.58a24,24,0,0,1,6.63,2,31.39,31.39,0,0,1,5.77,4.62c2.61,2.42,5.32,4.93,8.47,6,3.51,1.24,7.1,1.29,10.58,1.34l2,0c2.48.06,4.88.35,7.42.65,1.42.17,2.86.34,4.36.48,1.73.15,3.51.23,5.4.32,2.6.13,5.28.25,7.91.58,1,.12,2,.28,3.07.44a46.31,46.31,0,0,0,7,.73,16.91,16.91,0,0,0,3.62-.36c3.56-.76,6.46-2.75,9.26-4.67.72-.49,1.42-1,2.13-1.42,2.11-1.36,4.26-2.46,6.53-3.64.93-.48,1.88-1,2.83-1.48v-2.84c-1.33.74-2.67,1.43-4,2.1-2.23,1.15-4.53,2.34-6.74,3.75-.73.47-1.45,1-2.19,1.47-2.6,1.78-5.3,3.63-8.37,4.29s-6.28.13-9.74-.4c-1.05-.16-2.09-.32-3.15-.45-2.71-.34-5.45-.47-8.09-.59-1.86-.09-3.62-.18-5.3-.32-1.47-.14-2.89-.31-4.28-.47-2.61-.31-5.07-.6-7.66-.67l-2,0c-3.28-.05-6.67-.1-9.79-1.19-2.66-.94-5.17-3.27-7.6-5.52a33.69,33.69,0,0,0-6.27-5,25.71,25.71,0,0,0-7.33-2.29c-3-.63-5.91-1.22-8-3s-3.41-4.86-4.74-8.07a31,31,0,0,0-3.69-7.15,27.48,27.48,0,0,0-5.9-5.15c-2.65-1.91-5.16-3.72-6.42-6.3s-1.15-5.73-1.05-9.11a29.84,29.84,0,0,0-.49-8.09,29.07,29.07,0,0,0-3.31-7.15c-1.7-2.94-3.31-5.72-3.45-8.68a23.74,23.74,0,0,1,.83-6.65l-2.75.83A23.17,23.17,0,0,0,334.89,245.14Z"/><path class="cls-13" d="M350.2,242.91c.13,3.18,1.93,6,3.67,8.62a20.25,20.25,0,0,1,2.92,5.6,21.35,21.35,0,0,1,.15,6.54c-.24,3.16-.49,6.43.91,9.18s4.17,4.45,6.82,6a19.42,19.42,0,0,1,5,3.76,21.38,21.38,0,0,1,2.91,5.82c1.18,3,2.4,6.13,4.83,8s5.48,2.18,8.45,2.46a17.76,17.76,0,0,1,6,1.21,23,23,0,0,1,5.15,4c2.35,2.16,4.79,4.39,7.68,5.19,3.26.9,6.47.49,9.58.1l.7-.09a57.69,57.69,0,0,1,9.28-.36,99.17,99.17,0,0,1,10.67.75l2,.3a37.6,37.6,0,0,0,5.86.62,13.11,13.11,0,0,0,3.48-.42c3.11-.84,5.44-2.89,7.69-4.87l1.13-1a61.9,61.9,0,0,1,7.77-5.51c1.28-.79,2.67-1.63,4.12-2.46v-3.06c-2,1.09-3.84,2.21-5.52,3.25a65,65,0,0,0-8.11,5.76l-1.15,1c-2,1.78-4.11,3.62-6.62,4.3s-5.26.21-8.23-.26l-2-.31a103.08,103.08,0,0,0-11-.77c-.93,0-1.82-.05-2.67-.05a53.63,53.63,0,0,0-7,.43l-.71.09c-2.84.36-5.79.73-8.53,0h0c-2.27-.63-4.47-2.64-6.59-4.59a25.84,25.84,0,0,0-5.8-4.4,20.32,20.32,0,0,0-6.9-1.46c-2.7-.25-5.25-.49-7.05-1.9s-2.89-4.1-4-6.9a24,24,0,0,0-3.34-6.54,21.29,21.29,0,0,0-5.69-4.35c-2.44-1.47-4.75-2.86-5.82-5s-.85-4.85-.63-7.77a23.74,23.74,0,0,0-.22-7.4,22.63,22.63,0,0,0-3.27-6.39c-1.62-2.49-3.15-4.83-3.25-7.28a21.52,21.52,0,0,1,1.34-7c.15-.5.3-1,.44-1.49.09-.32.17-.63.25-.94l-3,.91-.23.74A23.85,23.85,0,0,0,350.2,242.91Z"/><path class="cls-14" d="M466.93,207.84v-3.49l-.36-.36a12.37,12.37,0,0,1-2-3.73l-2.72.82a15.18,15.18,0,0,0,2.61,4.79A10.3,10.3,0,0,0,466.93,207.84Z"/><path class="cls-14" d="M367.27,233.85l0,.11a16.14,16.14,0,0,0-1.72,6.7c.07,2.85,1.86,5.22,3.59,7.51a15,15,0,0,1,2.76,4.65,15.48,15.48,0,0,1-.13,5.6c-.38,2.82-.77,5.73.53,8.15s3.95,3.71,6.49,4.9a14.53,14.53,0,0,1,4.6,2.85,15.85,15.85,0,0,1,2.43,5c1,2.72,2,5.53,4.26,7.1s5.08,1.44,7.8,1.32a14.09,14.09,0,0,1,5.32.39,16.35,16.35,0,0,1,4.44,3.28c2.12,1.92,4.32,3.91,7,4.37h0a9.32,9.32,0,0,0,1.57.13,18.64,18.64,0,0,0,6.53-1.57,23.22,23.22,0,0,1,6.72-1.78,35.05,35.05,0,0,1,7.94.61l.82.14c2.75.47,5.6.95,8.14,0s4.42-3.29,6-5.33l.29-.38a25.1,25.1,0,0,1,4.9-5.15,36.27,36.27,0,0,1,7-3.69l.53-.22c.63-.26,1.27-.52,1.89-.8v-3.14c-.92.47-1.93.89-3,1.32l-.54.22a38.87,38.87,0,0,0-7.63,4,27.48,27.48,0,0,0-5.47,5.71l-.3.39c-1.43,1.89-2.79,3.68-4.68,4.38s-4.19.27-6.68-.16l-.84-.14a37.73,37.73,0,0,0-8.6-.63,25.7,25.7,0,0,0-7.53,1.95c-2.4.91-4.56,1.64-6.62,1.29h0c-1.86-.31-3.74-2-5.56-3.67a18.63,18.63,0,0,0-5.33-3.82,16.26,16.26,0,0,0-6.46-.58c-2.36.11-4.59.2-6.06-.82s-2.35-3.33-3.22-5.73a18,18,0,0,0-3-5.93,16.63,16.63,0,0,0-5.5-3.52c-2.22-1.05-4.32-2-5.2-3.68s-.56-4-.22-6.43a17.79,17.79,0,0,0,.06-6.7,17.24,17.24,0,0,0-3.24-5.63c-1.53-2-3-3.94-3-5.88a13.91,13.91,0,0,1,1.5-5.54l.05-.11.54-1.32a39,39,0,0,1,1.91-4.24c.29-.54.61-1.06.92-1.59l-3.9,1.18c-.59,1.2-1.08,2.41-1.56,3.58C367.63,233,367.45,233.42,367.27,233.85Z"/><path class="cls-15" d="M386.92,228.3c-.29,1.12-1.45,2.39-2.56,3.63-1.66,1.83-3.55,3.91-3.55,6.47s1.89,4.64,3.55,6.47c1.11,1.24,2.27,2.51,2.56,3.63s0,2.94-.4,4.62c-.53,2.49-1.07,5.06.16,7.19s3.78,3,6.22,3.77A11.18,11.18,0,0,1,397,266c.86.86,1.39,2.52,1.92,4.14.79,2.44,1.6,5,3.76,6.22s4.71.68,7.2.15a11.42,11.42,0,0,1,4.61-.4,10.9,10.9,0,0,1,3.63,2.57c1.84,1.66,3.92,3.54,6.47,3.54s4.64-1.88,6.48-3.54a10.9,10.9,0,0,1,3.63-2.57c1.2-.32,2.93,0,4.61.4,2.49.53,5.07,1.08,7.2-.15s3-3.78,3.76-6.22a6.61,6.61,0,0,1,6.05-6.05c2.44-.79,5-1.61,6.22-3.77s.68-4.7.16-7.19a11.32,11.32,0,0,1-.41-4.62,11.15,11.15,0,0,1,2.57-3.63,25.72,25.72,0,0,0,2-2.45v-8a27,27,0,0,0-2-2.45,11.05,11.05,0,0,1-2.57-3.63,11.33,11.33,0,0,1,.41-4.62c.52-2.49,1.07-5.06-.16-7.19s-3.78-3-6.22-3.77a11.18,11.18,0,0,1-4.13-1.91c-.86-.85-1.4-2.52-1.92-4.13-.2-.65-.42-1.29-.65-1.92l-2.88.87c.24.62.46,1.3.68,2,.63,2,1.28,4,2.65,5.33s3.38,2,5.33,2.65,3.87,1.25,4.54,2.41.23,3.14-.18,5.07-.87,4.12-.36,6,1.88,3.37,3.24,4.87,2.76,3.06,2.76,4.46-1.4,3-2.76,4.46-2.76,3-3.24,4.87-.07,4,.36,6,.84,3.94.18,5.07-2.64,1.8-4.54,2.42-4,1.28-5.34,2.64-2,3.38-2.64,5.33-1.25,3.88-2.42,4.55-3.13.23-5.07-.18-4.11-.87-6-.37-3.37,1.89-4.86,3.25-3.06,2.76-4.47,2.76-2.95-1.4-4.46-2.76-3-2.76-4.86-3.25a7.28,7.28,0,0,0-1.86-.22,20.75,20.75,0,0,0-4.16.59c-1.93.41-3.93.83-5.06.18s-1.8-2.64-2.42-4.55-1.28-4-2.65-5.33-3.38-2-5.33-2.65-3.87-1.25-4.54-2.41-.23-3.13.18-5.07.87-4.11.36-6-1.88-3.37-3.24-4.87-2.77-3.06-2.77-4.46,1.41-3,2.77-4.46,2.76-3.05,3.24-4.87.07-4-.36-6l0-.14-2.89.87A10.9,10.9,0,0,1,386.92,228.3Z"/><path class="cls-3" d="M451.54,257.54V236.42a1.37,1.37,0,0,0-1-1.31l-41.09-12.29L397.18,227v21.12a1.36,1.36,0,0,0,1,1.31l41.08,12.29Z"/><g id="Unit-2" data-name="Unit"><g id="Fill"><path class="cls-3" d="M187.07,439.81,97.23,412.86a29.76,29.76,0,0,0-17,0L18,431.31a3.47,3.47,0,0,0-2.43,3.44v98.37a3.34,3.34,0,0,0,2.4,3.26l86,25.65a42.47,42.47,0,0,0,24.69,0l58.47-17.67a3.32,3.32,0,0,0,2.4-3.22v-98.1A3.31,3.31,0,0,0,187.07,439.81Z"/></g><path class="cls-16" d="M255.19,468.12,251,466.91a1.5,1.5,0,0,0-.84,2.88l4.15,1.21a1.52,1.52,0,0,0,.42.06,1.5,1.5,0,0,0,.42-2.94Z"/><path class="cls-16" d="M265.16,471,261,469.82a1.5,1.5,0,1,0-.85,2.88l4.15,1.22a1.65,1.65,0,0,0,.43.06,1.5,1.5,0,0,0,.42-2.94Z"/><path class="cls-16" d="M245.23,465.21,241.08,464a1.5,1.5,0,1,0-.85,2.88l4.15,1.22a1.65,1.65,0,0,0,.43.06,1.5,1.5,0,0,0,.42-2.94Z"/><path class="cls-16" d="M233.94,391.12a1.5,1.5,0,0,0-3,0v4.82a1.5,1.5,0,0,0,3,0Z"/><path class="cls-16" d="M233.94,402.69a1.5,1.5,0,0,0-3,0v4.82a1.5,1.5,0,0,0,3,0Z"/><path class="cls-16" d="M233.94,425.82a1.5,1.5,0,0,0-3,0v4.82a1.5,1.5,0,0,0,3,0Z"/><path class="cls-16" d="M232.44,455.28a1.5,1.5,0,0,0,1.5-1.5V449a1.5,1.5,0,0,0-3,0v4.82A1.5,1.5,0,0,0,232.44,455.28Z"/><path class="cls-16" d="M233.94,437.39a1.5,1.5,0,0,0-3,0v4.82a1.5,1.5,0,0,0,3,0Z"/><path class="cls-16" d="M233.94,414.25a1.5,1.5,0,0,0-3,0v4.83a1.5,1.5,0,0,0,3,0Z"/><path class="cls-16" d="M259.8,391.65l4.09,1.23a1.33,1.33,0,0,0,.43.07,1.5,1.5,0,0,0,.43-2.94l-4.09-1.23a1.5,1.5,0,1,0-.86,2.87Z"/><path class="cls-16" d="M250,388.7l4.09,1.23a1.68,1.68,0,0,0,.43.07,1.5,1.5,0,0,0,.44-2.94l-4.1-1.23a1.5,1.5,0,1,0-.86,2.87Z"/><path class="cls-16" d="M245.1,384.1l-4.1-1.23a1.52,1.52,0,0,0-1.87,1,1.5,1.5,0,0,0,1,1.87l4.09,1.23a1.67,1.67,0,0,0,.44.06,1.5,1.5,0,0,0,.43-2.94Z"/><path class="cls-16" d="M269.63,394.61l1.33.4v1.39a1.49,1.49,0,0,0,1.5,1.49h0a1.5,1.5,0,0,0,1.49-1.51V395l1.32-.39a1.5,1.5,0,0,0-.87-2.87l-2,.58-2-.59a1.52,1.52,0,0,0-1.87,1A1.5,1.5,0,0,0,269.63,394.61Z"/><path class="cls-16" d="M272.68,432.52h0a1.5,1.5,0,0,0,1.49-1.51l0-4.81a1.5,1.5,0,0,0-1.5-1.49h0a1.49,1.49,0,0,0-1.49,1.51l0,4.81A1.5,1.5,0,0,0,272.68,432.52Z"/><path class="cls-16" d="M272.55,409.43a1.5,1.5,0,0,0,1.49-1.51l0-4.8a1.51,1.51,0,0,0-1.5-1.5h0a1.5,1.5,0,0,0-1.49,1.51l0,4.81a1.49,1.49,0,0,0,1.5,1.49Z"/><path class="cls-16" d="M272.75,444.06h0a1.5,1.5,0,0,0,1.49-1.51l0-4.81a1.51,1.51,0,0,0-1.5-1.49h0a1.5,1.5,0,0,0-1.49,1.51l0,4.81A1.5,1.5,0,0,0,272.75,444.06Z"/><path class="cls-16" d="M272.61,421h0a1.5,1.5,0,0,0,1.49-1.51l0-4.81a1.5,1.5,0,0,0-1.5-1.49h0a1.49,1.49,0,0,0-1.49,1.51l0,4.81A1.5,1.5,0,0,0,272.61,421Z"/><path class="cls-16" d="M272.89,467.15h0a1.5,1.5,0,0,0,1.49-1.51l0-4.81a1.49,1.49,0,0,0-1.5-1.49h0a1.5,1.5,0,0,0-1.49,1.51l0,4.81A1.51,1.51,0,0,0,272.89,467.15Z"/><path class="cls-16" d="M272.82,455.6h0a1.49,1.49,0,0,0,1.49-1.51l0-4.8a1.5,1.5,0,1,0-3,0l0,4.81A1.5,1.5,0,0,0,272.82,455.6Z"/><path class="cls-16" d="M274.91,472.73l-.47.14v-.5a1.5,1.5,0,0,0-1.5-1.49h0a1.51,1.51,0,0,0-1.49,1.51v.48l-.47-.13a1.5,1.5,0,0,0-.84,2.88l2.4.7a1.4,1.4,0,0,0,.41.06h0a1.59,1.59,0,0,0,.43-.06l2.39-.72a1.5,1.5,0,1,0-.86-2.87Z"/><path class="cls-16" d="M285.86,467a1.5,1.5,0,0,0-1.5,1.5v1.38l-1.33.4a1.5,1.5,0,0,0,.44,2.94,1.33,1.33,0,0,0,.43-.07l2.39-.72a1.49,1.49,0,0,0,1.07-1.43v-2.5A1.5,1.5,0,0,0,285.86,467Z"/><path class="cls-16" d="M285.86,443.88a1.5,1.5,0,0,0-1.5,1.5v4.82a1.5,1.5,0,0,0,3,0v-4.82A1.5,1.5,0,0,0,285.86,443.88Z"/><path class="cls-16" d="M285.86,455.44a1.5,1.5,0,0,0-1.5,1.5v4.82a1.5,1.5,0,0,0,3,0v-4.82A1.5,1.5,0,0,0,285.86,455.44Z"/><path class="cls-16" d="M285.86,409.18a1.5,1.5,0,0,0-1.5,1.5v4.82a1.5,1.5,0,0,0,3,0v-4.82A1.5,1.5,0,0,0,285.86,409.18Z"/><path class="cls-16" d="M285.86,420.75a1.5,1.5,0,0,0-1.5,1.5v4.82a1.5,1.5,0,1,0,3,0v-4.82A1.5,1.5,0,0,0,285.86,420.75Z"/><path class="cls-16" d="M285.86,432.31a1.5,1.5,0,0,0-1.5,1.5v4.82a1.5,1.5,0,0,0,3,0v-4.82A1.5,1.5,0,0,0,285.86,432.31Z"/><path class="cls-16" d="M285.86,397.62a1.5,1.5,0,0,0-1.5,1.5v4.81a1.5,1.5,0,0,0,3,0v-4.81A1.5,1.5,0,0,0,285.86,397.62Z"/><path class="cls-16" d="M234.41,379.84l-.47.13v-.6a1.5,1.5,0,0,0-3,0v5a1.5,1.5,0,0,0,3,0v-.48l.46.13a1.5,1.5,0,0,0,1.87-1,6.65,6.65,0,0,1,0-2.18A1.49,1.49,0,0,0,234.41,379.84Z"/><path class="cls-16" d="M267.09,382.72l-4.42-1.31a1.5,1.5,0,1,0-.86,2.87l4.43,1.32a1.52,1.52,0,0,0,.42.06,1.5,1.5,0,0,0,.43-2.94Z"/><path class="cls-16" d="M246.88,377.66a1.5,1.5,0,0,0-1.87-1L240.59,378a1.5,1.5,0,0,0,.43,2.94,1.29,1.29,0,0,0,.43-.07l4.42-1.32A1.5,1.5,0,0,0,246.88,377.66Z"/><path class="cls-16" d="M251.2,381.13l4.42,1.31a1.65,1.65,0,0,0,.43.06,1.5,1.5,0,0,0,.43-2.93l-4.42-1.32a1.5,1.5,0,0,0-.86,2.88Z"/><path class="cls-16" d="M277.7,385.88l-4.42-1.32a1.5,1.5,0,0,0-.85,2.88l4.42,1.31a1.23,1.23,0,0,0,.42.07,1.51,1.51,0,0,0,1.44-1.08A1.49,1.49,0,0,0,277.7,385.88Z"/><path class="cls-16" d="M287.33,389.59l0-.11a1.72,1.72,0,0,0-.07-.21.36.36,0,0,1,0-.09,1.27,1.27,0,0,0-.18-.27l0,0a1.71,1.71,0,0,0-.2-.18l0,0-.07,0a1.18,1.18,0,0,0-.19-.11l-.12,0-.09,0-2.4-.71a1.49,1.49,0,0,0-1.86,1,1.45,1.45,0,0,0,.12,1.14A1.48,1.48,0,0,0,282,391a1.5,1.5,0,0,0,1.87,1l.46-.13v.48a1.5,1.5,0,0,0,3,0v-2.5s0,0,0-.07A1.49,1.49,0,0,0,287.33,389.59Z"/><path class="cls-16" d="M302.72,94.58l-2.38-.72h-.08l-.23,0h-.29l-.16,0-.12,0-2.4.72a1.5,1.5,0,0,0,.44,2.93,1.65,1.65,0,0,0,.43-.06l2-.59,2,.59a1.67,1.67,0,0,0,.44.06,1.5,1.5,0,0,0,.43-2.93Z"/><path class="cls-16" d="M422.1,133.51l4.74,1.42a1.54,1.54,0,0,0,.43.06,1.5,1.5,0,0,0,.43-2.93L423,130.64a1.5,1.5,0,0,0-.86,2.87Z"/><path class="cls-16" d="M393.61,121.83l-4.73-1.42a1.5,1.5,0,1,0-.86,2.88l4.73,1.42a1.59,1.59,0,0,0,.43.06,1.5,1.5,0,0,0,.43-2.94Z"/><path class="cls-16" d="M410.74,130.1l4.73,1.42a1.67,1.67,0,0,0,.44.06,1.5,1.5,0,0,0,.43-2.93l-4.74-1.42a1.5,1.5,0,1,0-.86,2.87Z"/><path class="cls-16" d="M370.89,115l-4.74-1.42a1.5,1.5,0,0,0-.86,2.87l4.74,1.42a1.25,1.25,0,0,0,.43.07,1.5,1.5,0,0,0,.43-2.94Z"/><path class="cls-16" d="M382.25,118.43,377.52,117a1.5,1.5,0,1,0-.87,2.87l4.74,1.42a1.59,1.59,0,0,0,.43.06,1.5,1.5,0,0,0,.43-2.93Z"/><path class="cls-16" d="M348.16,108.2l-4.73-1.41a1.5,1.5,0,1,0-.86,2.87l4.73,1.42a1.65,1.65,0,0,0,.43.06,1.5,1.5,0,0,0,.43-2.94Z"/><path class="cls-16" d="M325.44,101.39,320.71,100a1.5,1.5,0,0,0-.87,2.87l4.74,1.42a1.29,1.29,0,0,0,.43.07,1.5,1.5,0,0,0,.43-2.94Z"/><path class="cls-16" d="M359.53,111.61l-4.74-1.42a1.5,1.5,0,1,0-.86,2.88l4.73,1.42a1.67,1.67,0,0,0,.44.06,1.5,1.5,0,0,0,.43-2.94Z"/><path class="cls-16" d="M336.8,104.8l-4.73-1.42a1.5,1.5,0,1,0-.86,2.87l4.73,1.42a1.59,1.59,0,0,0,.43.06,1.5,1.5,0,0,0,.43-2.93Z"/><path class="cls-16" d="M314.08,98l-4.74-1.42a1.5,1.5,0,0,0-.86,2.88l4.74,1.42a1.54,1.54,0,0,0,.43.06,1.5,1.5,0,0,0,.43-2.94Z"/><path class="cls-16" d="M399.38,126.69l4.73,1.42a1.33,1.33,0,0,0,.43.07,1.5,1.5,0,0,0,.43-2.94l-4.73-1.42a1.5,1.5,0,1,0-.86,2.87Z"/><path class="cls-16" d="M433.46,136.92l1.33.39v1.39a1.5,1.5,0,0,0,3,0v-2.5a1.5,1.5,0,0,0-1.07-1.44l-2.39-.72a1.5,1.5,0,0,0-.87,2.88Z"/><path class="cls-16" d="M437.79,170.42a1.5,1.5,0,0,0-3,0v5.12a1.5,1.5,0,1,0,3,0Z"/><path class="cls-16" d="M437.79,207.27a1.5,1.5,0,0,0-3,0v5.11a1.5,1.5,0,1,0,3,0Z"/><path class="cls-16" d="M437.79,195a1.5,1.5,0,1,0-3,0v5.11a1.5,1.5,0,0,0,3,0Z"/><path class="cls-16" d="M437.79,182.7a1.5,1.5,0,0,0-3,0v5.12a1.5,1.5,0,0,0,3,0Z"/><path class="cls-16" d="M436.29,218.05a1.5,1.5,0,0,0-1.5,1.5v5.11a1.5,1.5,0,1,0,3,0v-5.11A1.5,1.5,0,0,0,436.29,218.05Z"/><path class="cls-16" d="M437.79,145.86a1.5,1.5,0,0,0-3,0V151a1.5,1.5,0,0,0,3,0Z"/><path class="cls-16" d="M437.79,158.14a1.5,1.5,0,0,0-3,0v5.12a1.5,1.5,0,0,0,3,0Z"/><path class="cls-16" d="M136.47,145.85a1.35,1.35,0,0,0,.44-.07l4.79-1.43a1.5,1.5,0,0,0,1-1.87,1.49,1.49,0,0,0-1.86-1l-4.8,1.44a1.5,1.5,0,0,0,.43,2.94Z"/><path class="cls-16" d="M171,135.49a1.59,1.59,0,0,0,.43-.06L176.2,134a1.5,1.5,0,1,0-.86-2.87l-4.79,1.43a1.5,1.5,0,0,0,.43,2.94Z"/><path class="cls-16" d="M217,121.68a1.67,1.67,0,0,0,.44-.06l4.79-1.44a1.5,1.5,0,0,0-.86-2.87l-4.8,1.43a1.5,1.5,0,0,0,.43,2.94Z"/><path class="cls-16" d="M159.48,138.94a1.65,1.65,0,0,0,.43-.06l4.79-1.44a1.5,1.5,0,1,0-.86-2.87L159.05,136a1.49,1.49,0,0,0-1,1.86A1.51,1.51,0,0,0,159.48,138.94Z"/><path class="cls-16" d="M182.48,132a1.29,1.29,0,0,0,.43-.07l4.79-1.43a1.5,1.5,0,0,0-.86-2.88l-4.79,1.44a1.5,1.5,0,0,0,.43,2.94Z"/><path class="cls-16" d="M194,128.58a1.59,1.59,0,0,0,.43-.06l4.8-1.44a1.5,1.5,0,0,0-.87-2.87l-4.79,1.44a1.5,1.5,0,0,0,.43,2.93Z"/><path class="cls-16" d="M205.48,125.13a1.54,1.54,0,0,0,.43-.06l4.8-1.44a1.5,1.5,0,1,0-.87-2.87l-4.79,1.44a1.5,1.5,0,0,0,.43,2.93Z"/><path class="cls-16" d="M148,142.39a1.65,1.65,0,0,0,.43-.06l4.79-1.44a1.5,1.5,0,0,0-.86-2.87l-4.8,1.44a1.5,1.5,0,0,0,.44,2.93Z"/><path class="cls-16" d="M228.49,118.23a1.33,1.33,0,0,0,.43-.07l4.79-1.43a1.5,1.5,0,1,0-.86-2.88l-4.79,1.44a1.5,1.5,0,0,0,.43,2.94Z"/><path class="cls-16" d="M240,114.78a1.61,1.61,0,0,0,.43-.07l4.79-1.44a1.5,1.5,0,1,0-.86-2.87l-4.79,1.44a1.5,1.5,0,0,0,.43,2.94Z"/><path class="cls-16" d="M278.85,100l-4.79,1.44a1.5,1.5,0,0,0,.43,2.94,1.29,1.29,0,0,0,.43-.07l4.8-1.43a1.5,1.5,0,0,0-.87-2.88Z"/><path class="cls-16" d="M290.36,96.59,285.56,98A1.5,1.5,0,0,0,286,101a1.35,1.35,0,0,0,.44-.07l4.79-1.44a1.5,1.5,0,0,0-.86-2.87Z"/><path class="cls-16" d="M263,107.87a1.59,1.59,0,0,0,.43-.06l4.79-1.44a1.5,1.5,0,1,0-.86-2.87l-4.79,1.43a1.5,1.5,0,0,0,.43,2.94Z"/><path class="cls-16" d="M251.49,111.32a1.59,1.59,0,0,0,.43-.06l4.79-1.44a1.5,1.5,0,1,0-.86-2.87l-4.79,1.44a1.5,1.5,0,0,0,.43,2.93Z"/><path class="cls-16" d="M125,149.3a1.59,1.59,0,0,0,.43-.06l4.8-1.44a1.5,1.5,0,0,0-.87-2.88l-4.79,1.44a1.5,1.5,0,0,0,.43,2.94Z"/><path class="cls-16" d="M115.87,194.43a1.5,1.5,0,0,0,1.5-1.5v-5.54a1.5,1.5,0,0,0-3,0v5.54A1.5,1.5,0,0,0,115.87,194.43Z"/><path class="cls-16" d="M115.87,181.13a1.5,1.5,0,0,0,1.5-1.5v-5.54a1.5,1.5,0,0,0-3,0v5.54A1.5,1.5,0,0,0,115.87,181.13Z"/><path class="cls-16" d="M115.87,167.83a1.5,1.5,0,0,0,1.5-1.5v-5.54a1.5,1.5,0,1,0-3,0v5.54A1.5,1.5,0,0,0,115.87,167.83Z"/><path class="cls-16" d="M115.87,154.53a1.5,1.5,0,0,0,1.5-1.5v-1.38l1.32-.4a1.5,1.5,0,1,0-.86-2.87l-2.39.72-.07,0-.15.07-.12.06-.13.09a.44.44,0,0,0-.11.09l-.1.1-.09.11-.08.12a.75.75,0,0,0-.07.12l-.06.14s0,.09,0,.14l0,.14a.81.81,0,0,0,0,.16s0,0,0,.07V153A1.5,1.5,0,0,0,115.87,154.53Z"/><path class="cls-16" d="M215,234.48l1.32.4v1.38a1.5,1.5,0,0,0,3,0v-2.57c0-.06,0-.11,0-.16l0-.14s0-.09,0-.14l-.06-.13a.54.54,0,0,0-.07-.13.83.83,0,0,0-.08-.12l-.09-.11-.1-.1-.11-.09-.12-.09-.13-.06a.69.69,0,0,0-.15-.07l-.07,0-2.39-.72a1.5,1.5,0,1,0-.86,2.87Z"/><path class="cls-16" d="M203.69,231.09l4.71,1.41a1.67,1.67,0,0,0,.44.06,1.5,1.5,0,0,0,.43-2.93l-4.72-1.42a1.5,1.5,0,1,0-.86,2.88Z"/><path class="cls-16" d="M192.37,227.69l4.71,1.42a1.65,1.65,0,0,0,.43.06,1.5,1.5,0,0,0,.43-2.94l-4.71-1.41a1.5,1.5,0,1,0-.86,2.87Z"/><path class="cls-16" d="M169.72,220.9l4.72,1.42a1.59,1.59,0,0,0,.43.06,1.5,1.5,0,0,0,.43-2.94L170.58,218a1.5,1.5,0,0,0-.86,2.87Z"/><path class="cls-16" d="M181,224.3l4.72,1.41a1.65,1.65,0,0,0,.43.06,1.5,1.5,0,0,0,.43-2.93l-4.71-1.42a1.5,1.5,0,0,0-.87,2.88Z"/><path class="cls-16" d="M158.4,217.51l4.72,1.41a1.59,1.59,0,0,0,.43.06,1.5,1.5,0,0,0,.43-2.93l-4.72-1.42a1.5,1.5,0,0,0-.86,2.88Z"/><path class="cls-16" d="M135.76,210.72l4.72,1.41a1.54,1.54,0,0,0,.43.06,1.5,1.5,0,0,0,.43-2.93l-4.72-1.42a1.5,1.5,0,1,0-.86,2.88Z"/><path class="cls-16" d="M147.08,214.11l4.72,1.42a1.59,1.59,0,0,0,.43.06,1.5,1.5,0,0,0,.43-2.94l-4.72-1.41a1.5,1.5,0,1,0-.86,2.87Z"/><path class="cls-16" d="M124.44,207.32l4.71,1.42a1.67,1.67,0,0,0,.44.06,1.5,1.5,0,0,0,.43-2.94l-4.72-1.41a1.5,1.5,0,1,0-.86,2.87Z"/><path class="cls-16" d="M114.39,203.42l0,.14c0,.05,0,.09,0,.14l.06.13a.54.54,0,0,0,.07.13l.08.12.09.11.1.1.11.09.13.09.12.06a.94.94,0,0,0,.15.06l.07,0,2.39.72a1.65,1.65,0,0,0,.43.06,1.5,1.5,0,0,0,.43-2.93l-1.32-.4v-1.38a1.5,1.5,0,0,0-3,0v2.5s0,.05,0,.07A.81.81,0,0,0,114.39,203.42Z"/><path class="cls-16" d="M216.33,365.91a1.5,1.5,0,0,0,3,0V361a1.5,1.5,0,0,0-3,0Z"/><path class="cls-16" d="M216.33,401.27a1.5,1.5,0,0,0,3,0v-4.91a1.5,1.5,0,0,0-3,0Z"/><path class="cls-16" d="M216.33,354.13a1.5,1.5,0,0,0,3,0v-4.91a1.5,1.5,0,0,0-3,0Z"/><path class="cls-16" d="M218.45,449.87a1.57,1.57,0,0,0,.37-.05,1.51,1.51,0,0,0,1.09-1.82,19,19,0,0,1-.58-4.5,1.49,1.49,0,0,0-1.5-1.49h0a1.5,1.5,0,0,0-1.49,1.51,22.28,22.28,0,0,0,.67,5.21A1.5,1.5,0,0,0,218.45,449.87Z"/><path class="cls-16" d="M216.33,342.34a1.5,1.5,0,0,0,3,0v-4.91a1.5,1.5,0,0,0-3,0Z"/><path class="cls-16" d="M216.33,436.63a1.5,1.5,0,0,0,3,0v-4.91a1.5,1.5,0,0,0-3,0Z"/><path class="cls-16" d="M216.33,389.49a1.5,1.5,0,0,0,3,0v-4.91a1.5,1.5,0,0,0-3,0Z"/><path class="cls-16" d="M216.33,413.06a1.5,1.5,0,0,0,3,0v-4.91a1.5,1.5,0,0,0-3,0Z"/><path class="cls-16" d="M216.33,424.85a1.5,1.5,0,0,0,3,0v-4.92a1.5,1.5,0,0,0-3,0Z"/><path class="cls-16" d="M216.33,377.7a1.5,1.5,0,0,0,3,0v-4.91a1.5,1.5,0,0,0-3,0Z"/><path class="cls-16" d="M216.33,259.84a1.5,1.5,0,0,0,3,0v-4.92a1.5,1.5,0,0,0-3,0Z"/><path class="cls-16" d="M216.33,283.41a1.5,1.5,0,0,0,3,0V278.5a1.5,1.5,0,0,0-3,0Z"/><path class="cls-16" d="M217.83,249.55a1.5,1.5,0,0,0,1.5-1.5v-4.91a1.5,1.5,0,0,0-3,0v4.91A1.5,1.5,0,0,0,217.83,249.55Z"/><path class="cls-16" d="M216.33,271.62a1.5,1.5,0,0,0,3,0v-4.91a1.5,1.5,0,0,0-3,0Z"/><path class="cls-16" d="M216.33,330.55a1.5,1.5,0,0,0,3,0v-4.91a1.5,1.5,0,0,0-3,0Z"/><path class="cls-16" d="M222.46,453.81a1.5,1.5,0,1,0-2.5,1.65,22,22,0,0,0,3.39,4,1.48,1.48,0,0,0,1,.4,1.53,1.53,0,0,0,1.1-.47,1.5,1.5,0,0,0-.08-2.12A19.81,19.81,0,0,1,222.46,453.81Z"/><path class="cls-16" d="M216.33,295.2a1.5,1.5,0,0,0,3,0v-4.92a1.5,1.5,0,0,0-3,0Z"/><path class="cls-16" d="M216.33,318.77a1.5,1.5,0,0,0,3,0v-4.91a1.5,1.5,0,0,0-3,0Z"/><path class="cls-16" d="M216.33,307a1.5,1.5,0,0,0,3,0v-4.91a1.5,1.5,0,0,0-3,0Z"/><path class="cls-16" d="M302.24,109.79l-2.39-.72-.23,0h-.34l-.33.06-2.36.71a1.5,1.5,0,0,0,.43,2.94,1.35,1.35,0,0,0,.44-.07l2-.59,2,.59a1.65,1.65,0,0,0,.43.06,1.5,1.5,0,0,0,.43-2.93Z"/><path class="cls-16" d="M407.76,144.41l4.62,1.38a1.33,1.33,0,0,0,.43.07,1.5,1.5,0,0,0,.43-2.94l-4.62-1.38a1.5,1.5,0,1,0-.86,2.87Z"/><path class="cls-16" d="M368.84,129.66l-4.62-1.37a1.5,1.5,0,1,0-.86,2.87l4.62,1.38a1.65,1.65,0,0,0,.43.06,1.5,1.5,0,0,0,.43-2.94Z"/><path class="cls-16" d="M379.94,133l-4.62-1.38a1.5,1.5,0,1,0-.86,2.87l4.62,1.38a1.33,1.33,0,0,0,.43.07,1.5,1.5,0,0,0,.43-2.94Z"/><path class="cls-16" d="M324.44,116.41,319.82,115a1.5,1.5,0,1,0-.86,2.88l4.62,1.38a1.65,1.65,0,0,0,.43.06,1.5,1.5,0,0,0,.43-2.94Z"/><path class="cls-16" d="M357.74,126.35,353.12,125a1.5,1.5,0,1,0-.86,2.88l4.62,1.38a1.65,1.65,0,0,0,.43.06,1.5,1.5,0,0,0,.43-2.94Z"/><path class="cls-16" d="M346.64,123,342,121.66a1.5,1.5,0,1,0-.86,2.87l4.62,1.38a1.33,1.33,0,0,0,.43.07,1.5,1.5,0,0,0,.43-2.94Z"/><path class="cls-16" d="M335.54,119.73l-4.62-1.39a1.5,1.5,0,1,0-.86,2.88l4.62,1.38a1.65,1.65,0,0,0,.43.06,1.5,1.5,0,0,0,.43-2.93Z"/><path class="cls-16" d="M396.66,141.1l4.62,1.38a1.65,1.65,0,0,0,.43.06,1.5,1.5,0,0,0,.43-2.93l-4.62-1.39a1.5,1.5,0,0,0-.86,2.88Z"/><path class="cls-16" d="M391,136.29l-4.62-1.38a1.5,1.5,0,1,0-.86,2.88l4.62,1.38a1.65,1.65,0,0,0,.43.06,1.5,1.5,0,0,0,.43-2.94Z"/><path class="cls-16" d="M313.34,113.1l-4.62-1.38a1.5,1.5,0,1,0-.86,2.87l4.62,1.38a1.33,1.33,0,0,0,.43.07,1.5,1.5,0,0,0,.43-2.94Z"/><path class="cls-16" d="M418.86,147.73l1.32.39v1.38a1.5,1.5,0,1,0,3,0V147a1.48,1.48,0,0,0-1.07-1.43l-2.39-.72a1.5,1.5,0,1,0-.86,2.88Z"/><path class="cls-16" d="M421.68,214.25a1.5,1.5,0,0,0-1.5,1.5v4.94a1.5,1.5,0,0,0,3,0v-4.94A1.5,1.5,0,0,0,421.68,214.25Z"/><path class="cls-16" d="M423.18,203.88a1.5,1.5,0,1,0-3,0v5a1.5,1.5,0,0,0,3,0Z"/><path class="cls-16" d="M423.18,192a1.5,1.5,0,0,0-3,0V197a1.5,1.5,0,0,0,3,0Z"/><path class="cls-16" d="M423.18,180.15a1.5,1.5,0,0,0-3,0v4.95a1.5,1.5,0,0,0,3,0Z"/><path class="cls-16" d="M423.18,168.29a1.5,1.5,0,0,0-3,0v4.94a1.5,1.5,0,0,0,3,0Z"/><path class="cls-16" d="M423.18,156.42a1.5,1.5,0,0,0-3,0v5a1.5,1.5,0,0,0,3,0Z"/><path class="cls-16" d="M130.18,159.78l-.15.07-.12.06-.12.09a.31.31,0,0,0-.11.09l-.11.1-.09.11-.08.12-.06.12a.42.42,0,0,0-.06.14s0,.09-.05.14a.59.59,0,0,0,0,.14.77.77,0,0,0,0,.15s0,.06,0,.08v2.5a1.5,1.5,0,0,0,3,0v-1.38l1.33-.4a1.5,1.5,0,0,0-.86-2.87l-2.4.71Z"/><path class="cls-16" d="M290,111.76l-4.68,1.41a1.5,1.5,0,0,0,.43,2.93,1.59,1.59,0,0,0,.43-.06l4.69-1.41a1.5,1.5,0,0,0-.87-2.87Z"/><path class="cls-16" d="M269.42,119.52a1.51,1.51,0,0,0-1.87-1l-4.68,1.41a1.5,1.5,0,0,0,.43,2.94,1.29,1.29,0,0,0,.43-.07l4.68-1.4A1.5,1.5,0,0,0,269.42,119.52Z"/><path class="cls-16" d="M245.07,125.27l-4.69,1.41a1.5,1.5,0,0,0,.43,2.93,1.54,1.54,0,0,0,.43-.06l4.69-1.41a1.5,1.5,0,0,0-.86-2.87Z"/><path class="cls-16" d="M256.31,121.89l-4.69,1.41a1.5,1.5,0,0,0,.43,2.94,1.68,1.68,0,0,0,.44-.07l4.68-1.41a1.5,1.5,0,1,0-.86-2.87Z"/><path class="cls-16" d="M278.79,115.14l-4.68,1.4a1.5,1.5,0,0,0,.43,2.94,1.59,1.59,0,0,0,.43-.06l4.69-1.41a1.5,1.5,0,1,0-.87-2.87Z"/><path class="cls-16" d="M195.41,140.18a1.5,1.5,0,0,0,.43,2.94,1.67,1.67,0,0,0,.44-.06l4.68-1.41a1.5,1.5,0,1,0-.86-2.87Z"/><path class="cls-16" d="M233.82,128.65l-4.68,1.4a1.5,1.5,0,0,0,.43,2.94,1.29,1.29,0,0,0,.43-.07l4.69-1.4a1.5,1.5,0,1,0-.87-2.87Z"/><path class="cls-16" d="M183.17,145.43a1.49,1.49,0,0,0,1.43,1.07,1.29,1.29,0,0,0,.43-.07l4.69-1.4a1.5,1.5,0,0,0-.86-2.88l-4.69,1.41A1.5,1.5,0,0,0,183.17,145.43Z"/><path class="cls-16" d="M149.44,155.56a1.51,1.51,0,0,0,1.44,1.07,1.33,1.33,0,0,0,.43-.07l4.68-1.4a1.5,1.5,0,0,0-.86-2.88l-4.69,1.41A1.5,1.5,0,0,0,149.44,155.56Z"/><path class="cls-16" d="M171.92,148.8a1.51,1.51,0,0,0,1.44,1.07,1.59,1.59,0,0,0,.43-.06l4.69-1.41a1.5,1.5,0,0,0-.87-2.87l-4.68,1.41A1.5,1.5,0,0,0,171.92,148.8Z"/><path class="cls-16" d="M160.68,152.18a1.51,1.51,0,0,0,1.44,1.07,1.59,1.59,0,0,0,.43-.06l4.68-1.41a1.5,1.5,0,1,0-.86-2.87l-4.68,1.4A1.5,1.5,0,0,0,160.68,152.18Z"/><path class="cls-16" d="M211.34,135.4l-4.68,1.41a1.49,1.49,0,0,0-1,1.86,1.51,1.51,0,0,0,1.44,1.07,1.65,1.65,0,0,0,.43-.06l4.68-1.41a1.5,1.5,0,1,0-.86-2.87Z"/><path class="cls-16" d="M222.58,132l-4.68,1.41a1.5,1.5,0,0,0,.43,2.94,1.61,1.61,0,0,0,.43-.07l4.68-1.41a1.5,1.5,0,1,0-.86-2.87Z"/><path class="cls-16" d="M138.2,158.93a1.49,1.49,0,0,0,1.43,1.07,1.67,1.67,0,0,0,.44-.06l4.68-1.41a1.5,1.5,0,0,0-.86-2.87l-4.69,1.41A1.49,1.49,0,0,0,138.2,158.93Z"/><path class="cls-16" d="M129.18,192.44s0,.05,0,.07a1,1,0,0,0,0,.17.59.59,0,0,0,0,.13c0,.05,0,.1.05.14a.84.84,0,0,0,.06.14l.06.12.08.12a.52.52,0,0,0,.1.11.47.47,0,0,0,.1.1.52.52,0,0,0,.11.1l.12.08.12.07.15.06.07,0,2.4.71a1.59,1.59,0,0,0,.43.06,1.5,1.5,0,0,0,.43-2.94l-1.33-.39v-1.38a1.5,1.5,0,0,0-3,0Z"/><path class="cls-16" d="M129.18,184a1.5,1.5,0,0,0,3,0v-4.23a1.5,1.5,0,0,0-3,0Z"/><path class="cls-16" d="M130.68,175.35a1.5,1.5,0,0,0,1.5-1.5v-4.23a1.5,1.5,0,0,0-3,0v4.23A1.5,1.5,0,0,0,130.68,175.35Z"/><path class="cls-16" d="M201.29,211.91l-4.71-1.4a1.5,1.5,0,0,0-.85,2.88l4.7,1.4a1.65,1.65,0,0,0,.43.06,1.5,1.5,0,0,0,.43-2.94Z"/><path class="cls-16" d="M212.59,215.28l-4.71-1.4a1.5,1.5,0,1,0-.86,2.87l4.71,1.41a1.59,1.59,0,0,0,.43.06,1.5,1.5,0,0,0,.43-2.94Z"/><path class="cls-16" d="M178.7,205.18l-4.71-1.4a1.5,1.5,0,1,0-.86,2.87l4.71,1.41a1.59,1.59,0,0,0,.43.06,1.5,1.5,0,0,0,.43-2.94Z"/><path class="cls-16" d="M190,208.55l-4.7-1.41a1.51,1.51,0,0,0-1.87,1,1.5,1.5,0,0,0,1,1.87l4.71,1.4a1.52,1.52,0,0,0,.42.06,1.5,1.5,0,0,0,.43-2.93Z"/><path class="cls-16" d="M223.88,218.65l-4.7-1.41a1.5,1.5,0,1,0-.86,2.88l4.71,1.4a1.54,1.54,0,0,0,.43.06,1.5,1.5,0,0,0,.42-2.93Z"/><path class="cls-16" d="M144.8,195.08l-4.7-1.4a1.5,1.5,0,1,0-.86,2.87L144,198a1.54,1.54,0,0,0,.43.06,1.5,1.5,0,0,0,.42-2.94Z"/><path class="cls-16" d="M167.4,201.81l-4.71-1.4a1.5,1.5,0,0,0-.86,2.88l4.71,1.4a1.59,1.59,0,0,0,.43.06,1.5,1.5,0,0,0,.43-2.94Z"/><path class="cls-16" d="M156.1,198.45,151.39,197a1.5,1.5,0,0,0-.85,2.88l4.7,1.4a1.31,1.31,0,0,0,.43.06,1.5,1.5,0,0,0,.43-2.93Z"/><path class="cls-16" d="M233.94,281.39a1.5,1.5,0,0,0-3,0v5.11a1.5,1.5,0,0,0,3,0Z"/><path class="cls-16" d="M233.94,293.64a1.5,1.5,0,0,0-3,0v5.1a1.5,1.5,0,0,0,3,0Z"/><path class="cls-16" d="M233.94,318.13a1.5,1.5,0,0,0-3,0v5.11a1.5,1.5,0,0,0,3,0Z"/><path class="cls-16" d="M233.94,269.15a1.5,1.5,0,0,0-3,0v5.1a1.5,1.5,0,0,0,3,0Z"/><path class="cls-16" d="M233.94,305.89a1.5,1.5,0,0,0-3,0V311a1.5,1.5,0,0,0,3,0Z"/><path class="cls-16" d="M233.94,244.65a1.5,1.5,0,0,0-3,0v5.1a1.5,1.5,0,0,0,3,0Z"/><path class="cls-16" d="M233.94,256.9a1.5,1.5,0,0,0-3,0V262a1.5,1.5,0,0,0,3,0Z"/><path class="cls-16" d="M233.94,330.38a1.5,1.5,0,0,0-3,0v5.1a1.5,1.5,0,0,0,3,0Z"/><path class="cls-16" d="M232.44,365.62a1.5,1.5,0,0,0-1.5,1.5v5.1a1.5,1.5,0,0,0,3,0v-5.1A1.5,1.5,0,0,0,232.44,365.62Z"/><path class="cls-16" d="M233.94,232.41a1.5,1.5,0,0,0-3,0v5.1a1.5,1.5,0,0,0,3,0Z"/><path class="cls-16" d="M233.94,354.87a1.5,1.5,0,0,0-3,0V360a1.5,1.5,0,0,0,3,0Z"/><path class="cls-16" d="M233.94,342.63a1.5,1.5,0,0,0-3,0v5.1a1.5,1.5,0,0,0,3,0Z"/><path class="cls-16" d="M233.94,222.76a.17.17,0,0,0,0-.07,1,1,0,0,0,0-.17l0-.13s0-.1,0-.14l-.06-.14a.75.75,0,0,0-.07-.12.83.83,0,0,0-.08-.12l-.09-.11-.1-.1-.11-.1-.13-.08-.12-.07-.15-.06-.07,0-2.4-.71a1.5,1.5,0,1,0-.85,2.87l1.32.4v1.38a1.5,1.5,0,0,0,3,0Z"/><path class="cls-16" d="M451,233.67,409.9,221.38a1.52,1.52,0,0,0-.92,0l-12.29,4.22a1.5,1.5,0,0,0-1,1.42v21.12a2.88,2.88,0,0,0,2.05,2.75l41.08,12.29a1.65,1.65,0,0,0,.43.06,1.36,1.36,0,0,0,.49-.08L452,259a1.51,1.51,0,0,0,1-1.42V236.42A2.85,2.85,0,0,0,451,233.67Zm-41.49-9.28,10.68,3.2v2.52a1.5,1.5,0,0,0,3,0v-1.63L434.79,232v2.38a1.5,1.5,0,0,0,3,0v-1.48l10.84,3.24-9.39,3.08L400.45,227.5Zm-10.82,3.72.16-.05,39.9,12v20l-40.06-12ZM439.74,260v-20l10.3-3.37v19.79Z"/><path class="cls-16" d="M436.29,255.54l-35.87-10.73a.5.5,0,1,0-.29.95L436,256.5a.32.32,0,0,0,.14,0,.51.51,0,0,0,.48-.35A.5.5,0,0,0,436.29,255.54Z"/><path class="cls-16" d="M436.29,252.54l-35.87-10.73a.5.5,0,1,0-.29.95L436,253.5a.32.32,0,0,0,.14,0,.51.51,0,0,0,.48-.35A.5.5,0,0,0,436.29,252.54Z"/><path class="cls-16" d="M400.13,239.76,436,250.5a.32.32,0,0,0,.14,0,.51.51,0,0,0,.48-.35.5.5,0,0,0-.34-.63l-35.87-10.73a.5.5,0,1,0-.29.95Z"/><path class="cls-16" d="M83.12,445.75c.4,6.87,15.48,10.11,31.48,10.11,2.31,0,4.63-.07,6.94-.2,18.28-1.06,37.46-6.43,37-14.29-.21-3.6-4.43-6.46-12.2-8.25-7.09-1.64-16.4-2.22-26.21-1.65C101.85,432.53,82.67,437.9,83.12,445.75Zm16.66-8.17,18.29,5.53-31.63,1.27C87.66,442.21,92.32,439.61,99.78,437.58Zm-13.66,8c0-.06,0-.12,0-.18l30.54-1.23-21.85,6.61C89.32,449.34,86.22,447.38,86.12,445.58Zm10.64,5.66,23.63-7.15-2.2,8.72A90.09,90.09,0,0,1,96.76,451.24Zm24.6,1.42c-.72,0-1.43.08-2.13.11l2.19-8.64,19.1,5.77A103.82,103.82,0,0,1,121.36,452.66Zm21-3.25-18.31-5.53,31.24-1.26C154.2,444.78,149.67,447.37,142.36,449.41Zm13.19-7.86s0,0,0,.06l-31.07,1.25,21.94-6.64C153,437.86,155.46,440,155.55,441.55Zm-11.13-5.77-22.62,6.84,2.1-8.32c1.16,0,2.32-.05,3.46-.05A86.87,86.87,0,0,1,144.42,435.78Zm-21.57-1.43-2.15,8.52-19.06-5.77a105.23,105.23,0,0,1,18.66-2.64C121.16,434.41,122,434.38,122.85,434.35Z"/><path class="cls-16" d="M251.77,449.84a6,6,0,0,0-5.88,4.67L191,471V443.07h0a4.82,4.82,0,0,0-3.48-4.68L97.66,411.43a31.12,31.12,0,0,0-17.81,0L17.54,429.88h0a4.92,4.92,0,0,0-3.49,4.86h0v98.37a4.8,4.8,0,0,0,3.47,4.7l86,25.65a43.82,43.82,0,0,0,25.56,0l58.47-17.68a4.8,4.8,0,0,0,3.47-4.68V477.21l41.8-12.52,1.63.48a1.52,1.52,0,0,0,.42.06,1.49,1.49,0,0,0,1.44-1.08,1.53,1.53,0,0,0,.05-.52l11.28-3.38a6,6,0,1,0,4.16-10.41ZM188,443.05a1.82,1.82,0,0,1-1.34,1.8l-58.47,17.68a40.91,40.91,0,0,1-23.83,0l-73.76-22.1,77.06-22.85,79,23.69A1.84,1.84,0,0,1,188,443.05Zm-169.6-10.3h0L80.7,414.28a28.11,28.11,0,0,1,16.1,0l9.1,2.72L28.84,439.88l-10.46-3.13a2,2,0,0,1-1.33-2h0A2,2,0,0,1,18.39,432.75Zm151.2,90.77L128.47,536a41.83,41.83,0,0,1-24.4,0L17.05,510v-5.62l86.73,25.87a42.87,42.87,0,0,0,25,0l40.83-12.34Zm0-6.66-41.12,12.43a41.83,41.83,0,0,1-24.4,0l-87-25.95V497.7l86.73,25.87a42.87,42.87,0,0,0,25,0l40.83-12.34Zm0-6.66-41.12,12.44a41.91,41.91,0,0,1-24.4,0l-87-25.95V491l86.73,25.87a42.87,42.87,0,0,0,25,0l40.83-12.34Zm0-6.66L128.47,516a41.91,41.91,0,0,1-24.4,0l-87-26v-5.61l86.73,25.86a42.87,42.87,0,0,0,25,0l40.83-12.34Zm0-6.66-41.12,12.44a41.91,41.91,0,0,1-24.4,0l-87-26v-5.61l86.73,25.86a42.87,42.87,0,0,0,25,0l40.83-12.34Zm0-6.66-41.12,12.44a42,42,0,0,1-24.4,0l-87-26v-5.61l86.73,25.86a42.87,42.87,0,0,0,25,0l40.83-12.34Zm0-6.66L128.47,496a41.91,41.91,0,0,1-24.4,0l-87-26v-5.61l86.73,25.86a42.87,42.87,0,0,0,25,0L169.59,478ZM17.05,511l86.73,25.87a42.87,42.87,0,0,0,25,0l40.83-12.34v5.61l-41.12,12.43a41.83,41.83,0,0,1-24.4,0l-87-26ZM169.59,476.9l-41.12,12.44a42,42,0,0,1-24.4,0l-87-26v-5.61l86.73,25.86a42.87,42.87,0,0,0,25,0l40.83-12.34ZM17.05,517.68l86.73,25.87a42.87,42.87,0,0,0,25,0l40.83-12.35v4.58l-41.41,12.52a40.91,40.91,0,0,1-23.83,0l-87.3-26Zm152.54-47.44-41.12,12.44a42,42,0,0,1-24.4,0l-87-26v-4.57l86.44,25.78a43.9,43.9,0,0,0,25.56,0l40.54-12.26Zm17.06,72.7-58.47,17.68a40.91,40.91,0,0,1-23.83,0L18.38,535a1.82,1.82,0,0,1-1.33-1.82v-7.74l86.44,25.78a43.93,43.93,0,0,0,25.56,0l42.48-12.85a1.49,1.49,0,0,0,1.06-1.43V463.65a1.49,1.49,0,0,0-.6-1.2,1.48,1.48,0,0,0-1.33-.23l-42.48,12.84a40.91,40.91,0,0,1-23.83,0l-87.3-26v-9.57a3.71,3.71,0,0,0,.46.19l86,25.76a43.71,43.71,0,0,0,25.56,0l58.47-17.68a4.52,4.52,0,0,0,.47-.18V457l-7.23,2.14a.15.15,0,0,0-.07,0,.44.44,0,0,0-.16.06l-.12.06-.12.09a.48.48,0,0,0-.11.09l-.1.1a.31.31,0,0,0-.09.11l-.09.12-.06.12-.06.14a.74.74,0,0,0,0,.14.32.32,0,0,0,0,.14.78.78,0,0,0,0,.16s0,0,0,.07V533.8s0,0,0,.06,0,.1,0,.15l0,.16a.13.13,0,0,1,0,.06.05.05,0,0,1,0,0,1.76,1.76,0,0,0,.19.39l0,0a1.77,1.77,0,0,0,.27.28l.05,0a1.62,1.62,0,0,0,.37.19l.08,0a1.42,1.42,0,0,0,.42.07h0a1.52,1.52,0,0,0,.38,0h.05l6.38-1.89v7.79A1.82,1.82,0,0,1,186.65,542.94ZM188,530.23l-5.31,1.56V461.67L188,460.1v11.75l-3.09.92a3,3,0,0,0,.86,5.88,2.8,2.8,0,0,0,.86-.13l1.37-.41Z"/></g></g></svg>