<svg xmlns="http://www.w3.org/2000/svg" viewBox="0 0 600 599.61"><defs><style>.cls-1{fill:#001957;}.cls-2{fill:none;}.cls-3{fill:#004ecc;}.cls-4{fill:#0a54cc;}.cls-5{fill:#145acc;}.cls-6{fill:#1d60cc;}.cls-7{fill:#2766cc;}.cls-8{fill:#316ccc;}.cls-9{fill:#3b72cc;}.cls-10{fill:#4578cc;}.cls-11{fill:#4e7ecc;}.cls-12{fill:#5884cc;}.cls-13{fill:#628acc;}</style></defs><title>icons - Rooftop - Light</title><g id="Rooftop"><path class="cls-1" d="M485.05,191.63a1.48,1.48,0,0,0-1.33-.23l-15.65,4.71a1.66,1.66,0,0,0-.38.11L315.4,242.09a1.51,1.51,0,0,0-1.07,1.44V472.37a1.5,1.5,0,0,0,.61,1.2,1.45,1.45,0,0,0,.89.3,1.35,1.35,0,0,0,.44-.07L484.59,423a1.5,1.5,0,0,0,1.06-1.44V192.83A1.49,1.49,0,0,0,485.05,191.63Zm-167.72,53,149.48-45V415.81l-18,5.43L317.33,381.8Zm0,138.2,129.76,38.93L317.33,461Zm0,87.51v-6.24l151.42-45.76.06,0a.69.69,0,0,0,.15-.07l.13-.06.12-.08.11-.1a.47.47,0,0,0,.1-.1l.09-.11v0l11.12,3.26Zm165.32-49.9-.26.08-12.58-3.69V198.72l12.84-3.87Z"/><path class="cls-1" d="M522.19,463.14v-.06a1.23,1.23,0,0,0,0-.19s0-.07,0-.11a1.15,1.15,0,0,0-.06-.17.76.76,0,0,0,0-.11c0-.05,0-.1-.08-.14a.36.36,0,0,0-.07-.1.69.69,0,0,0-.11-.13l-.08-.09-.13-.1-.1-.07-.14-.08-.14-.06-.07,0-12-3.6v-9.22h0V439.7c0-.05,0-.11,0-.16s0-.09,0-.14a1.21,1.21,0,0,0-.05-.14.69.69,0,0,0-.05-.13l-.06-.12-.08-.13-.09-.11-.1-.11-.11-.09-.12-.09-.11-.06-.16-.07,0,0-6.64-2.28V168.32l7.25-7.44a1.52,1.52,0,0,0,.42-1V144.44a4.32,4.32,0,0,0-1-8.35l-.13-.06-97.64-29.29v3.13l92.09,27.63L490.86,141l-80.43-24.13v1l78.69,23.61L300,198.24,111,141.57l78.23-23.51v-1l-79.95,24-11.66-3.5L189.2,110V106.9L92.23,136h-.1a4.33,4.33,0,0,0-1.31,8.39v15.39a1.48,1.48,0,0,0,.43,1l7.24,7.44v267.8L91.76,439a1.48,1.48,0,0,0-.92,1.38v22.1a1.51,1.51,0,0,0,1.07,1.44l207.65,62.33h0a1.74,1.74,0,0,0,.39,0h0a1.6,1.6,0,0,0,.39,0h0l135.15-40.55,27.76,8.41a1.67,1.67,0,0,0,.44.06h0a1.59,1.59,0,0,0,.43-.06l56.93-17.18.06,0,.16-.07.12-.06.12-.08.11-.09.11-.11.09-.11.08-.12.06-.12a.84.84,0,0,0,.06-.14.57.57,0,0,0,0-.14.31.31,0,0,0,0-.13,1,1,0,0,0,0-.17s0,0,0-.07Zm-223.7,59.65L93.84,461.35v-20h0l204.62,61.38Zm0-21.1-203.18-61,5.26-2.23h0l.24-.13.11-.1.11-.09.1-.12,0-.05,197.29,59.19Zm0-5.54-197-59.1V168.68l197,59Zm0-269.49-197-59a1,1,0,0,0-.09-.44.09.09,0,0,0,0,0,1.48,1.48,0,0,0-.31-.47h0l0,0h0l-3.63-3.73,201.07,60.3Zm0-6.58L93.82,158.71V144.19l204.67,61.37Zm0-15.56L93.81,143.14a1.49,1.49,0,0,0-1.49-1.42,1.33,1.33,0,0,1-.12-2.66l206.29,61.86ZM451.21,466.43l54.93-16.57v9.29l-54.93,16.58Zm-.51-.89L437.35,462l56.13-16.83,12.43,3.72Zm55.44-17.63-10.92-3.27,10.92-3.28Zm-204.65-247,206.29-61.86a1.33,1.33,0,0,1-.12,2.66,1.49,1.49,0,0,0-1.49,1.42L301.49,204.52Zm0,4.64,204.67-61.37v14.52L301.49,220.08Zm0,17.66,201.08-60.3-3.64,3.73h0v0h0a1.42,1.42,0,0,0-.31.48v0a1.63,1.63,0,0,0-.09.45l-197,59Zm0,4.48,197-59V437.05l-197,59.1ZM435,482.7a1,1,0,0,0-.21.08l-133.32,40V502.73l133.53-40Zm-133.53,19v-4.5L498.78,438l.08.09.1.11.11.09a.94.94,0,0,0,.12.09.67.67,0,0,0,.12.06l.15.08h0l5.86,2Zm134.53-19v-20l14.19,3.78v9.95a.45.45,0,0,0,.1.28l0,0a.53.53,0,0,0,.23.16h0l12.7,3.81v10.25Zm27.75-2.89-11.32-3.4,54-16.29v0l.07.08a.74.74,0,0,0,.13.12l.09.08.14.1.1.05.17.07.06,0,10,3Zm.5,11.14V480.69L519,464.19l.23.07v10.11Z"/><path class="cls-2" d="M336.87,398.9c3.6-1,7.32-1.95,11-2.65,1.67-.32,3.35-.58,5-.78,4-.5,8-.69,12-.88,4.36-.21,8.87-.43,13.17-1a68.79,68.79,0,0,0,14.47-3.75c3.16-1.19,6.28-2.63,9.18-4,8.45-4,15.71-7.8,22.2-11.6l3.69-2.2c1.66-1,3.3-2,5-2.94A139.68,139.68,0,0,1,446,362.22c2.2-1,4.48-1.89,6.69-2.78A115.36,115.36,0,0,0,466.81,353V331.84q-1.62,1.59-3.36,3a43.06,43.06,0,0,1-3.91,2.84c-4.42,2.82-9.46,4.78-14.34,6.68-2.46,1-5,1.95-7.43,3a108.12,108.12,0,0,0-12.35,6.65l-2.61,1.62c-1.77,1.12-3.61,2.27-5.47,3.34-5.39,3.13-11.13,5.77-16.68,8.31l-4.52,2.09-1.43.68c-2.35,1.1-4.77,2.24-7.22,3.25a60,60,0,0,1-13.79,3.95,100.64,100.64,0,0,1-12.52.88c-3.7.11-7.51.22-11.18.69-1.47.19-3,.45-4.58.78-3,.64-6.08,1.52-9.06,2.37s-6.16,1.77-9.3,2.43a79,79,0,0,1-9.72,1.38v17a103.46,103.46,0,0,0,10.89-1.8C331.13,400.42,334,399.64,336.87,398.9Z"/><path class="cls-2" d="M335.92,380.5c3-.86,6.1-1.75,9.17-2.39,1.61-.34,3.19-.61,4.71-.81,3.74-.48,7.6-.59,11.33-.7a100.78,100.78,0,0,0,12.33-.86,58.47,58.47,0,0,0,13.42-3.86c2.41-1,4.82-2.12,7.15-3.21l1.44-.68L400,365.9c5.52-2.53,11.23-5.15,16.55-8.24,1.83-1.06,3.66-2.21,5.42-3.31l2.62-1.63A110.8,110.8,0,0,1,437.12,346c2.45-1.1,5-2.09,7.5-3.06,4.81-1.87,9.78-3.8,14.06-6.53a39.81,39.81,0,0,0,3.75-2.74,55.58,55.58,0,0,0,4.38-4V305c-.54.55-1.08,1.09-1.6,1.65-1.38,1.47-2.73,3.05-4,4.58a77,77,0,0,1-8.07,8.49,33.64,33.64,0,0,1-3.64,2.74c-3.9,2.53-8.42,4.2-12.78,5.82-2.58.95-5.25,1.94-7.73,3.09a86.56,86.56,0,0,0-11.31,6.55l-1.13.75c-2.06,1.37-4.18,2.78-6.38,4a114,114,0,0,1-13,6.09c-2.32,1-4.73,2-7,3.05-1.18.54-2.35,1.11-3.53,1.67-1.46.71-3,1.44-4.49,2.12a51.3,51.3,0,0,1-12.81,4.1,77,77,0,0,1-11.77.69,84.79,84.79,0,0,0-10.47.52,42.9,42.9,0,0,0-4.25.79c-2.55.59-5.16,1.41-7.68,2.2a95.58,95.58,0,0,1-9.46,2.61,58.49,58.49,0,0,1-8.23,1v16.73a76.88,76.88,0,0,0,9.39-1.33C329.81,382.26,332.92,381.37,335.92,380.5Z"/><path class="cls-2" d="M334.5,362.2c2.55-.8,5.19-1.62,7.81-2.24,1.55-.36,3-.63,4.42-.82a85.19,85.19,0,0,1,10.7-.52,76.68,76.68,0,0,0,11.49-.68,49.28,49.28,0,0,0,12.37-4c1.49-.67,3-1.4,4.44-2.1,1.19-.57,2.37-1.14,3.56-1.69,2.35-1.08,4.77-2.09,7.11-3.07a114.06,114.06,0,0,0,12.84-6c2.14-1.23,4.24-2.63,6.27-4l1.14-.76a89.17,89.17,0,0,1,11.55-6.68c2.54-1.17,5.24-2.17,7.85-3.14,4.28-1.58,8.7-3.22,12.43-5.64a31.17,31.17,0,0,0,3.45-2.6A75.3,75.3,0,0,0,459.8,310c1.33-1.54,2.69-3.14,4.1-4.64.94-1,1.92-2,2.91-2.94V280.61c-1.72,1.58-3.52,3.07-5.28,4.53a88.2,88.2,0,0,0-7.77,6.95c-1.54,1.62-3,3.42-4.42,5.16a66.34,66.34,0,0,1-6.57,7.27,27.59,27.59,0,0,1-3.38,2.65c-3.49,2.3-7.57,3.72-11.52,5.09a76.38,76.38,0,0,0-7.73,3,69,69,0,0,0-10.27,6.44l-.18.13a56.73,56.73,0,0,1-18.13,9.38c-2.53.92-5.15,1.88-7.63,3-1.59.72-3.19,1.55-4.75,2.34l-2.61,1.32a44.49,44.49,0,0,1-11.85,4.25,58.82,58.82,0,0,1-11,.51A64.34,64.34,0,0,0,344,343a32.9,32.9,0,0,0-3.92.8c-2.19.57-4.43,1.34-6.59,2.09a68.64,68.64,0,0,1-9.34,2.73,41.37,41.37,0,0,1-6.75.65v16.48a55.07,55.07,0,0,0,7.87-.95A93,93,0,0,0,334.5,362.2Z"/><path class="cls-2" d="M320.74,310.32a35.4,35.4,0,0,0,8.08-2.75c1.66-.71,3.37-1.45,5.1-2a21.15,21.15,0,0,1,3.62-.89,39.06,39.06,0,0,1,8.78,0,32,32,0,0,0,8.94-.11c3.15-.65,6-2.31,9.17-4.24l.44-.27a48.15,48.15,0,0,1,5.89-3.25,46.93,46.93,0,0,1,7.75-2.34,35.43,35.43,0,0,0,8.82-2.92,32.07,32.07,0,0,0,5.47-4.06l.88-.78a39.92,39.92,0,0,1,7.73-5.73,42.72,42.72,0,0,1,7.64-2.76c3.26-.94,6.34-1.84,8.84-3.55a16.77,16.77,0,0,0,2.5-2.17,46.54,46.54,0,0,0,4.13-5.3,45.77,45.77,0,0,1,4.63-5.85,43.46,43.46,0,0,1,7-5.38,39.11,39.11,0,0,0,6.89-5.29,44.38,44.38,0,0,0,5.37-7.51,49.35,49.35,0,0,1,5.3-7.49,52.28,52.28,0,0,1,5.27-4.82c1.08-.9,2.2-1.84,3.23-2.79a22.79,22.79,0,0,0,4.56-5.44h0v-23l-9.69,2.91c-.11.57-.23,1.15-.34,1.74-.58,3.08-1.19,6.28-2.77,9a19.94,19.94,0,0,1-4.82,5.35c-.83.7-1.7,1.37-2.57,2a34.17,34.17,0,0,0-5.07,4.43,31.52,31.52,0,0,0-4,6.58,31.61,31.61,0,0,1-4.84,7.6,29,29,0,0,1-7.11,5,29,29,0,0,0-6.17,4.22,29.81,29.81,0,0,0-4,5.45,38.81,38.81,0,0,1-3.54,5,14.71,14.71,0,0,1-2.63,2.42c-2.54,1.79-5.67,2.59-8.7,3.36a29.66,29.66,0,0,0-6.76,2.29,27.91,27.91,0,0,0-6,5L386.64,273a23.82,23.82,0,0,1-5.38,4.24,27.92,27.92,0,0,1-8.72,2.43,30.13,30.13,0,0,0-6.94,1.67,31.33,31.33,0,0,0-5.33,3.19l-.18.13c-2.72,1.89-5.52,3.84-8.81,4.59-2.89.66-6,.32-8.94,0a28.18,28.18,0,0,0-7.46-.21,15.79,15.79,0,0,0-2.88.8c-1.39.52-2.76,1.18-4.21,1.89a27.87,27.87,0,0,1-8.17,3,14.69,14.69,0,0,1-2.09.15h-.17v15.65A19.07,19.07,0,0,0,320.74,310.32Z"/><path class="cls-2" d="M322.23,328.47a48.94,48.94,0,0,0,8.65-2.72c1.9-.73,3.87-1.49,5.84-2.07a29,29,0,0,1,3.89-.86,50,50,0,0,1,9.4-.17,42.91,42.91,0,0,0,9.81-.3,36,36,0,0,0,10.24-4.16l1.3-.72c1.81-1,3.67-2,5.57-2.88a70.76,70.76,0,0,1,7.87-2.76,49.58,49.58,0,0,0,9.83-3.77,46.25,46.25,0,0,0,6.13-4.3l.45-.35a53.61,53.61,0,0,1,9.14-6.2,55.59,55.59,0,0,1,7.84-2.95c3.62-1.16,7-2.26,9.9-4.19a19.86,19.86,0,0,0,2.82-2.32,54.81,54.81,0,0,0,5.13-6.07,63.12,63.12,0,0,1,4.69-5.66,60.6,60.6,0,0,1,7.44-6.19,58.55,58.55,0,0,0,7.19-6,69.42,69.42,0,0,0,6.28-7.93c1.62-2.26,3.3-4.57,5.17-6.72V226.78a31.44,31.44,0,0,1-2.93,3c-1.08,1-2.22,1.94-3.32,2.86a50.13,50.13,0,0,0-5,4.6,48.11,48.11,0,0,0-5,7.13,45.77,45.77,0,0,1-5.68,7.9,40.56,40.56,0,0,1-7.3,5.64,40,40,0,0,0-6.65,5.07,40.76,40.76,0,0,0-4.38,5.55,48.58,48.58,0,0,1-4.36,5.57,18.35,18.35,0,0,1-2.87,2.48c-2.82,1.94-6.23,2.93-9.53,3.89a40.14,40.14,0,0,0-7.2,2.58,37.82,37.82,0,0,0-7.26,5.41l-.89.78a33.26,33.26,0,0,1-5.89,4.35,37.4,37.4,0,0,1-9.41,3.16,43.67,43.67,0,0,0-7.35,2.2,44.43,44.43,0,0,0-5.59,3.09l-.44.27c-3.35,2.06-6.41,3.82-9.94,4.55a34.72,34.72,0,0,1-9.61.16,37.24,37.24,0,0,0-8.24,0,19.71,19.71,0,0,0-3.23.8c-1.63.53-3.22,1.22-4.9,1.94a37.21,37.21,0,0,1-8.65,2.92,21.21,21.21,0,0,1-3.28.24h-.48v15.92A27.38,27.38,0,0,0,322.23,328.47Z"/><path class="cls-2" d="M332.79,344c2.19-.76,4.47-1.55,6.73-2.14a35.11,35.11,0,0,1,4.15-.84,66.19,66.19,0,0,1,10.05-.35,57,57,0,0,0,10.65-.48,42.67,42.67,0,0,0,11.31-4.07c.87-.43,1.73-.87,2.59-1.31,1.58-.81,3.21-1.64,4.84-2.38,2.54-1.15,5.2-2.12,7.77-3.06a72.8,72.8,0,0,0,11.05-4.74,71.3,71.3,0,0,0,6.6-4.39l.18-.13a70.54,70.54,0,0,1,10.56-6.61,79,79,0,0,1,7.94-3.09c3.83-1.33,7.8-2.71,11.08-4.87a24.59,24.59,0,0,0,3.13-2.46,65,65,0,0,0,6.37-7.06c1.44-1.77,2.93-3.59,4.52-5.27a88.33,88.33,0,0,1,7.94-7.11c2.22-1.83,4.5-3.73,6.56-5.75V252.63c-1.17,1.5-2.29,3-3.38,4.56a71.65,71.65,0,0,1-6.49,8.18,59.57,59.57,0,0,1-7.46,6.22,58.88,58.88,0,0,0-7.17,6,61.64,61.64,0,0,0-4.52,5.47,56.3,56.3,0,0,1-5.35,6.31,21.64,21.64,0,0,1-3.12,2.57c-3.13,2.1-6.86,3.3-10.46,4.45a54.72,54.72,0,0,0-7.54,2.83,52.19,52.19,0,0,0-8.75,6l-.45.35A48.19,48.19,0,0,1,395.7,310a51.87,51.87,0,0,1-10.26,3.95,67.92,67.92,0,0,0-7.61,2.67c-1.82.81-3.64,1.82-5.4,2.79l-1.31.73a38,38,0,0,1-10.89,4.39,44.94,44.94,0,0,1-10.31.33,49.92,49.92,0,0,0-9,.15,26.14,26.14,0,0,0-3.58.81c-1.89.55-3.81,1.29-5.68,2a49.51,49.51,0,0,1-9.05,2.83,29.73,29.73,0,0,1-5.15.41h-.11v16.2a41.15,41.15,0,0,0,6.37-.62A66.62,66.62,0,0,0,332.79,344Z"/><path class="cls-2" d="M353.41,432.55c6.2-1,12.58-1.48,18.75-2,10.55-.83,21.47-1.7,31.46-4.95,10.22-3.32,19.61-9.07,28.68-14.63,5.2-3.19,10.58-6.48,16-9.26s11.42-5.28,17.11-7.65l1.37-.58V374.79c-2.12.93-4.25,1.81-6.36,2.69q-2.52,1-5,2.1c-5.5,2.35-10.22,4.59-14.43,6.87-2.95,1.59-5.92,3.35-8.79,5.05l-.43.25c-8.24,4.88-15.68,9.22-23.42,12.92a97,97,0,0,1-9.91,4.17,79.75,79.75,0,0,1-15.74,3.69c-4.64.64-9.45,1-14.11,1.25-4.12.26-8.38.54-12.53,1-1.76.21-3.52.47-5.22.76-4.51.78-9.12,1.93-13.58,3-2.37.59-4.82,1.2-7.25,1.75-4.51,1-8.69,1.79-12.67,2.34v17.48c6.11-1,12.15-2.42,18.07-3.83S347.41,433.49,353.41,432.55Z"/><path class="cls-2" d="M324.4,271.29a40.12,40.12,0,0,1,3.86-2,14.11,14.11,0,0,1,3.13-1,23.85,23.85,0,0,1,7.57.38c2.59.41,5,.79,7.17.26s4.28-2.2,6.41-3.91l.59-.47a22,22,0,0,1,5.3-3.41,24.11,24.11,0,0,1,7.25-1.31c2.61-.2,5.07-.39,7.07-1.42a15,15,0,0,0,4.08-3.52l1.07-1.23a23.08,23.08,0,0,1,5.63-5.22,23.61,23.61,0,0,1,7-2.27c2.62-.56,5.09-1.09,6.91-2.41a9.51,9.51,0,0,0,1.83-1.82,32,32,0,0,0,2.58-4.13,24.29,24.29,0,0,1,4.11-5.92,23.89,23.89,0,0,1,6.45-3.9c2.34-1.09,4.55-2.13,6.05-3.75s2.46-4,3.42-6.43a30.46,30.46,0,0,1,2.61-5.54l-29.44,8.84a28.8,28.8,0,0,0-1.68,3.24c-1.11,2.36-2.26,4.81-4.34,6.39s-4.74,2-7.32,2.43a15.85,15.85,0,0,0-5.6,1.59,15.52,15.52,0,0,0-3.9,4.3c-1.53,2.12-3.11,4.32-5.45,5.49s-5,1.1-7.63,1a10.6,10.6,0,0,0-10.42,4c-1.9,1.81-3.86,3.69-6.39,4.41s-5.12.14-7.67-.39a10.58,10.58,0,0,0-11,2,18.12,18.12,0,0,1-6.34,3v15.31c.14,0,.28,0,.42,0C320,273.76,322.13,272.56,324.4,271.29Z"/><path class="cls-2" d="M328.31,250.18a18.11,18.11,0,0,1,7,.56c2.29.49,4.45.94,6.23.44s3.43-2.06,5.14-3.69a13.33,13.33,0,0,1,12.56-4.86c2.35.06,4.56.11,6.22-.72s3-2.65,4.35-4.56a13.31,13.31,0,0,1,11.46-7.1c2.32-.38,4.51-.74,6-1.87s2.43-3.14,3.43-5.27l.36-.75-73.68,22.11v11.19a18.25,18.25,0,0,0,4.7-2.47A17.81,17.81,0,0,1,328.31,250.18Z"/><path class="cls-2" d="M326.65,289.42c1.44-.71,2.93-1.43,4.44-2a17.53,17.53,0,0,1,3.38-.92,29.79,29.79,0,0,1,8.16.19c2.89.32,5.61.63,8.07.07,2.8-.64,5.28-2.36,7.9-4.19l.19-.13a32.31,32.31,0,0,1,5.8-3.45,32.77,32.77,0,0,1,7.53-1.85A25.37,25.37,0,0,0,380,275a21.15,21.15,0,0,0,4.78-3.8l1.05-1a30.43,30.43,0,0,1,6.6-5.43,31.78,31.78,0,0,1,7.37-2.53c2.93-.75,5.69-1.45,7.85-3a12.41,12.41,0,0,0,2.16-2,38.31,38.31,0,0,0,3.31-4.67,32.9,32.9,0,0,1,4.41-5.92,31.85,31.85,0,0,1,6.72-4.62,26.94,26.94,0,0,0,6.5-4.54,29.14,29.14,0,0,0,4.41-7,34.16,34.16,0,0,1,4.39-7.11,36,36,0,0,1,5.45-4.78c.84-.65,1.68-1.29,2.49-2a17.75,17.75,0,0,0,4.24-4.65c1.35-2.33,1.89-5.17,2.46-8.18,0-.13,0-.27.08-.41l-24.47,7.35a14,14,0,0,0-2.26,2.13,22.23,22.23,0,0,0-3.05,6c-1,2.58-2.06,5.25-4,7.32s-4.44,3.22-6.92,4.38a21.35,21.35,0,0,0-5.7,3.39,21.82,21.82,0,0,0-3.6,5.26,33.16,33.16,0,0,1-2.82,4.49,11.76,11.76,0,0,1-2.39,2.35c-2.29,1.68-5.18,2.29-8,2.88a21.64,21.64,0,0,0-6.22,2,20.57,20.57,0,0,0-4.91,4.62l-1.09,1.25a17.5,17.5,0,0,1-4.9,4.16c-2.49,1.29-5.36,1.51-8.13,1.72a21.86,21.86,0,0,0-6.42,1.11,19.48,19.48,0,0,0-4.6,3l-.58.47c-2.27,1.83-4.62,3.72-7.49,4.44-2.68.68-5.53.23-8.29-.2a21,21,0,0,0-6.65-.39,11.57,11.57,0,0,0-2.51.79,37.37,37.37,0,0,0-3.6,1.85c-2.4,1.35-4.89,2.74-7.65,3.07-.25,0-.5,0-.75,0v15.44a11.85,11.85,0,0,0,1.89-.11A25.63,25.63,0,0,0,326.65,289.42Z"/><path class="cls-2" d="M465.83,395c-5.68,2.36-11.54,4.81-17.05,7.62s-10.77,6.05-15.95,9.22c-9.13,5.59-18.57,11.38-28.9,14.73-10.11,3.28-21.08,4.16-31.69,5-6.15.49-12.52,1-18.68,2-5.95.93-12,2.39-17.93,3.79s-12.1,2.89-18.3,3.87V461l149.48-45.16V394.59Z"/><path class="cls-2" d="M337,417.45c4.47-1.11,9.1-2.26,13.66-3.05,1.72-.3,3.49-.56,5.28-.77,4.18-.51,8.46-.78,12.59-1.05,4.64-.3,9.43-.61,14-1.24a79,79,0,0,0,15.51-3.63,96.82,96.82,0,0,0,9.78-4.12c7.69-3.69,15.12-8,23.32-12.87l.44-.26c2.88-1.7,5.86-3.47,8.83-5.07,4.24-2.29,9-4.55,14.53-6.91,1.67-.72,3.36-1.41,5-2.11,2.26-.94,4.55-1.89,6.82-2.88V354.62a126.72,126.72,0,0,1-13.56,6.12c-2.19.89-4.46,1.81-6.65,2.76a139.2,139.2,0,0,0-13.4,6.77c-1.65.94-3.29,1.93-4.93,2.92l-3.71,2.21c-6.52,3.82-13.82,7.63-22.31,11.66-2.93,1.38-6.08,2.83-9.29,4a70.17,70.17,0,0,1-14.76,3.83c-4.36.63-8.91.85-13.3,1.06-3.91.18-8,.38-11.87.86-1.6.2-3.25.47-4.9.78-3.63.69-7.33,1.67-10.9,2.62-2.84.75-5.77,1.53-8.7,2.17a109.23,109.23,0,0,1-11.19,1.84v17.23c3.9-.53,8-1.29,12.4-2.29C332.16,418.65,334.61,418,337,417.45Z"/><path class="cls-3" d="M328.86,253.13a15.76,15.76,0,0,1,5.83.55c2.55.53,5.18,1.09,7.67.39s4.49-2.6,6.39-4.41a10.6,10.6,0,0,1,10.42-4c2.61.06,5.31.12,7.63-1s3.92-3.37,5.45-5.49a15.52,15.52,0,0,1,3.9-4.3,15.85,15.85,0,0,1,5.6-1.59c2.58-.43,5.24-.86,7.32-2.43s3.23-4,4.34-6.39a28.8,28.8,0,0,1,1.68-3.24l-4,1.21-.36.75c-1,2.13-1.94,4.15-3.43,5.27s-3.67,1.49-6,1.87a13.31,13.31,0,0,0-11.46,7.1c-1.37,1.91-2.67,3.72-4.35,4.56s-3.87.78-6.22.72a13.33,13.33,0,0,0-12.56,4.86c-1.71,1.63-3.33,3.17-5.14,3.69s-3.94,0-6.23-.44a18.11,18.11,0,0,0-7-.56,17.81,17.81,0,0,0-6.25,3,18.25,18.25,0,0,1-4.7,2.47v3.08a18.12,18.12,0,0,0,6.34-3A15.64,15.64,0,0,1,328.86,253.13Z"/><path class="cls-4" d="M325.76,273.73a37.37,37.37,0,0,1,3.6-1.85,11.57,11.57,0,0,1,2.51-.79,21,21,0,0,1,6.65.39c2.76.43,5.61.88,8.29.2,2.87-.72,5.22-2.61,7.49-4.44l.58-.47a19.48,19.48,0,0,1,4.6-3,21.86,21.86,0,0,1,6.42-1.11c2.77-.21,5.64-.43,8.13-1.72a17.5,17.5,0,0,0,4.9-4.16l1.09-1.25a20.57,20.57,0,0,1,4.91-4.62,21.64,21.64,0,0,1,6.22-2c2.79-.59,5.68-1.2,8-2.88a11.76,11.76,0,0,0,2.39-2.35,33.16,33.16,0,0,0,2.82-4.49,21.82,21.82,0,0,1,3.6-5.26,21.35,21.35,0,0,1,5.7-3.39c2.48-1.16,5.05-2.36,6.92-4.38s3-4.74,4-7.32a22.23,22.23,0,0,1,3.05-6,14,14,0,0,1,2.26-2.13l-5.31,1.59a30.46,30.46,0,0,0-2.61,5.54c-1,2.45-1.86,4.76-3.42,6.43s-3.71,2.66-6.05,3.75a23.89,23.89,0,0,0-6.45,3.9,24.29,24.29,0,0,0-4.11,5.92,32,32,0,0,1-2.58,4.13,9.51,9.51,0,0,1-1.83,1.82c-1.82,1.32-4.29,1.85-6.91,2.41a23.61,23.61,0,0,0-7,2.27,23.08,23.08,0,0,0-5.63,5.22l-1.07,1.23a15,15,0,0,1-4.08,3.52c-2,1-4.46,1.22-7.07,1.42a24.11,24.11,0,0,0-7.25,1.31,22,22,0,0,0-5.3,3.41l-.59.47c-2.13,1.71-4.14,3.33-6.41,3.91s-4.58.15-7.17-.26a23.85,23.85,0,0,0-7.57-.38,14.11,14.11,0,0,0-3.13,1,40.12,40.12,0,0,0-3.86,2c-2.27,1.27-4.41,2.47-6.62,2.73-.14,0-.28,0-.42,0v2.79c.25,0,.5,0,.75,0C320.87,276.47,323.36,275.08,325.76,273.73Z"/><path class="cls-5" d="M319.62,294.74a27.87,27.87,0,0,0,8.17-3c1.45-.71,2.82-1.37,4.21-1.89a15.79,15.79,0,0,1,2.88-.8,28.18,28.18,0,0,1,7.46.21c3,.34,6.05.68,8.94,0,3.29-.75,6.09-2.7,8.81-4.59l.18-.13a31.33,31.33,0,0,1,5.33-3.19,30.13,30.13,0,0,1,6.94-1.67,27.92,27.92,0,0,0,8.72-2.43,23.82,23.82,0,0,0,5.38-4.24l1.07-1.05a27.91,27.91,0,0,1,6-5,29.66,29.66,0,0,1,6.76-2.29c3-.77,6.16-1.57,8.7-3.36a14.71,14.71,0,0,0,2.63-2.42,38.81,38.81,0,0,0,3.54-5,29.81,29.81,0,0,1,4-5.45,29,29,0,0,1,6.17-4.22,29,29,0,0,0,7.11-5,31.61,31.61,0,0,0,4.84-7.6,31.52,31.52,0,0,1,4-6.58,34.17,34.17,0,0,1,5.07-4.43c.87-.66,1.74-1.33,2.57-2a19.94,19.94,0,0,0,4.82-5.35c1.58-2.71,2.19-5.91,2.77-9,.11-.59.23-1.17.34-1.74l-2.81.84c0,.14-.06.28-.08.41-.57,3-1.11,5.85-2.46,8.18a17.75,17.75,0,0,1-4.24,4.65c-.81.68-1.65,1.32-2.49,2a36,36,0,0,0-5.45,4.78,34.16,34.16,0,0,0-4.39,7.11,29.14,29.14,0,0,1-4.41,7,26.94,26.94,0,0,1-6.5,4.54,31.85,31.85,0,0,0-6.72,4.62,32.9,32.9,0,0,0-4.41,5.92,38.31,38.31,0,0,1-3.31,4.67,12.41,12.41,0,0,1-2.16,2c-2.16,1.52-4.92,2.22-7.85,3a31.78,31.78,0,0,0-7.37,2.53,30.43,30.43,0,0,0-6.6,5.43l-1.05,1A21.15,21.15,0,0,1,380,275a25.37,25.37,0,0,1-7.92,2.15,32.77,32.77,0,0,0-7.53,1.85,32.31,32.31,0,0,0-5.8,3.45l-.19.13c-2.62,1.83-5.1,3.55-7.9,4.19-2.46.56-5.18.25-8.07-.07a29.79,29.79,0,0,0-8.16-.19,17.53,17.53,0,0,0-3.38.92c-1.51.57-3,1.29-4.44,2a25.63,25.63,0,0,1-7.4,2.75,11.85,11.85,0,0,1-1.89.11v2.6h.17A14.69,14.69,0,0,0,319.62,294.74Z"/><path class="cls-6" d="M321.12,312.69a37.21,37.21,0,0,0,8.65-2.92c1.68-.72,3.27-1.41,4.9-1.94a19.71,19.71,0,0,1,3.23-.8,37.24,37.24,0,0,1,8.24,0,34.72,34.72,0,0,0,9.61-.16c3.53-.73,6.59-2.49,9.94-4.55l.44-.27a44.43,44.43,0,0,1,5.59-3.09,43.67,43.67,0,0,1,7.35-2.2,37.4,37.4,0,0,0,9.41-3.16,33.26,33.26,0,0,0,5.89-4.35l.89-.78a37.82,37.82,0,0,1,7.26-5.41,40.14,40.14,0,0,1,7.2-2.58c3.3-1,6.71-1.95,9.53-3.89a18.35,18.35,0,0,0,2.87-2.48,48.58,48.58,0,0,0,4.36-5.57,40.76,40.76,0,0,1,4.38-5.55,40,40,0,0,1,6.65-5.07,40.56,40.56,0,0,0,7.3-5.64,45.77,45.77,0,0,0,5.68-7.9,48.11,48.11,0,0,1,5-7.13,50.13,50.13,0,0,1,5-4.6c1.1-.92,2.24-1.87,3.32-2.86a31.44,31.44,0,0,0,2.93-3V222.6h0a22.79,22.79,0,0,1-4.56,5.44c-1,.95-2.15,1.89-3.23,2.79a52.28,52.28,0,0,0-5.27,4.82,49.35,49.35,0,0,0-5.3,7.49,44.38,44.38,0,0,1-5.37,7.51,39.11,39.11,0,0,1-6.89,5.29,43.46,43.46,0,0,0-7,5.38,45.77,45.77,0,0,0-4.63,5.85,46.54,46.54,0,0,1-4.13,5.3,16.77,16.77,0,0,1-2.5,2.17c-2.5,1.71-5.58,2.61-8.84,3.55a42.72,42.72,0,0,0-7.64,2.76,39.92,39.92,0,0,0-7.73,5.73l-.88.78a32.07,32.07,0,0,1-5.47,4.06,35.43,35.43,0,0,1-8.82,2.92,46.93,46.93,0,0,0-7.75,2.34,48.15,48.15,0,0,0-5.89,3.25l-.44.27c-3.15,1.93-6,3.59-9.17,4.24a32,32,0,0,1-8.94.11,39.06,39.06,0,0,0-8.78,0,21.15,21.15,0,0,0-3.62.89c-1.73.57-3.44,1.31-5.1,2a35.4,35.4,0,0,1-8.08,2.75,19.07,19.07,0,0,1-3.38.21v2.39h.48A21.21,21.21,0,0,0,321.12,312.69Z"/><path class="cls-7" d="M322.61,330.63a49.51,49.51,0,0,0,9.05-2.83c1.87-.71,3.79-1.45,5.68-2a26.14,26.14,0,0,1,3.58-.81,49.92,49.92,0,0,1,9-.15,44.94,44.94,0,0,0,10.31-.33,38,38,0,0,0,10.89-4.39l1.31-.73c1.76-1,3.58-2,5.4-2.79a67.92,67.92,0,0,1,7.61-2.67A51.87,51.87,0,0,0,395.7,310a48.19,48.19,0,0,0,6.42-4.49l.45-.35a52.19,52.19,0,0,1,8.75-6,54.72,54.72,0,0,1,7.54-2.83c3.6-1.15,7.33-2.35,10.46-4.45a21.64,21.64,0,0,0,3.12-2.57,56.3,56.3,0,0,0,5.35-6.31,61.64,61.64,0,0,1,4.52-5.47,58.88,58.88,0,0,1,7.17-6,59.57,59.57,0,0,0,7.46-6.22,71.65,71.65,0,0,0,6.49-8.18c1.09-1.52,2.21-3.06,3.38-4.56v-3.44c-1.87,2.15-3.55,4.46-5.17,6.72a69.42,69.42,0,0,1-6.28,7.93,58.55,58.55,0,0,1-7.19,6,60.6,60.6,0,0,0-7.44,6.19,63.12,63.12,0,0,0-4.69,5.66,54.81,54.81,0,0,1-5.13,6.07,19.86,19.86,0,0,1-2.82,2.32c-2.87,1.93-6.28,3-9.9,4.19a55.59,55.59,0,0,0-7.84,2.95,53.61,53.61,0,0,0-9.14,6.2l-.45.35a46.25,46.25,0,0,1-6.13,4.3,49.58,49.58,0,0,1-9.83,3.77,70.76,70.76,0,0,0-7.87,2.76c-1.9.85-3.76,1.88-5.57,2.88l-1.3.72a36,36,0,0,1-10.24,4.16,42.91,42.91,0,0,1-9.81.3,50,50,0,0,0-9.4.17,29,29,0,0,0-3.89.86c-2,.58-3.94,1.34-5.84,2.07a48.94,48.94,0,0,1-8.65,2.72,27.38,27.38,0,0,1-4.88.37V331h.11A29.73,29.73,0,0,0,322.61,330.63Z"/><path class="cls-8" d="M333.44,345.85c2.16-.75,4.4-1.52,6.59-2.09A32.9,32.9,0,0,1,344,343a64.34,64.34,0,0,1,9.74-.33,58.82,58.82,0,0,0,11-.51,44.49,44.49,0,0,0,11.85-4.25l2.61-1.32c1.56-.79,3.16-1.62,4.75-2.34,2.48-1.12,5.1-2.08,7.63-3a56.73,56.73,0,0,0,18.13-9.38l.18-.13a69,69,0,0,1,10.27-6.44,76.38,76.38,0,0,1,7.73-3c3.95-1.37,8-2.79,11.52-5.09a27.59,27.59,0,0,0,3.38-2.65,66.34,66.34,0,0,0,6.57-7.27c1.42-1.74,2.88-3.54,4.42-5.16a88.2,88.2,0,0,1,7.77-6.95c1.76-1.46,3.56-2.95,5.28-4.53v-2.76c-2.06,2-4.34,3.92-6.56,5.75a88.33,88.33,0,0,0-7.94,7.11c-1.59,1.68-3.08,3.5-4.52,5.27a65,65,0,0,1-6.37,7.06,24.59,24.59,0,0,1-3.13,2.46c-3.28,2.16-7.25,3.54-11.08,4.87a79,79,0,0,0-7.94,3.09,70.54,70.54,0,0,0-10.56,6.61l-.18.13a71.3,71.3,0,0,1-6.6,4.39,72.8,72.8,0,0,1-11.05,4.74c-2.57.94-5.23,1.91-7.77,3.06-1.63.74-3.26,1.57-4.84,2.38-.86.44-1.72.88-2.59,1.31a42.67,42.67,0,0,1-11.31,4.07,57,57,0,0,1-10.65.48,66.19,66.19,0,0,0-10.05.35,35.11,35.11,0,0,0-4.15.84c-2.26.59-4.54,1.38-6.73,2.14a66.62,66.62,0,0,1-9.07,2.66,41.15,41.15,0,0,1-6.37.62v2a41.37,41.37,0,0,0,6.75-.65A68.64,68.64,0,0,0,333.44,345.85Z"/><path class="cls-9" d="M335,363.92c2.52-.79,5.13-1.61,7.68-2.2a42.9,42.9,0,0,1,4.25-.79,84.79,84.79,0,0,1,10.47-.52,77,77,0,0,0,11.77-.69,51.3,51.3,0,0,0,12.81-4.1c1.52-.68,3-1.41,4.49-2.12,1.18-.56,2.35-1.13,3.53-1.67,2.32-1.07,4.73-2.08,7-3.05a114,114,0,0,0,13-6.09c2.2-1.26,4.32-2.67,6.38-4l1.13-.75A86.56,86.56,0,0,1,429,331.35c2.48-1.15,5.15-2.14,7.73-3.09,4.36-1.62,8.88-3.29,12.78-5.82a33.64,33.64,0,0,0,3.64-2.74,77,77,0,0,0,8.07-8.49c1.31-1.53,2.66-3.11,4-4.58.52-.56,1.06-1.1,1.6-1.65v-2.52c-1,1-2,1.93-2.91,2.94-1.41,1.5-2.77,3.1-4.1,4.64a75.3,75.3,0,0,1-7.87,8.29,31.17,31.17,0,0,1-3.45,2.6c-3.73,2.42-8.15,4.06-12.43,5.64-2.61,1-5.31,2-7.85,3.14a89.17,89.17,0,0,0-11.55,6.68l-1.14.76c-2,1.35-4.13,2.75-6.27,4a114.06,114.06,0,0,1-12.84,6c-2.34,1-4.76,2-7.11,3.07-1.19.55-2.37,1.12-3.56,1.69-1.45.7-3,1.43-4.44,2.1a49.28,49.28,0,0,1-12.37,4,76.68,76.68,0,0,1-11.49.68,85.19,85.19,0,0,0-10.7.52c-1.43.19-2.87.46-4.42.82-2.62.62-5.26,1.44-7.81,2.24a93,93,0,0,1-9.28,2.56,55.07,55.07,0,0,1-7.87.95v1.8a58.49,58.49,0,0,0,8.23-1A95.58,95.58,0,0,0,335,363.92Z"/><path class="cls-10" d="M336.36,382c3-.85,6.05-1.73,9.06-2.37,1.57-.33,3.11-.59,4.58-.78,3.67-.47,7.48-.58,11.18-.69a100.64,100.64,0,0,0,12.52-.88,60,60,0,0,0,13.79-3.95c2.45-1,4.87-2.15,7.22-3.25l1.43-.68,4.52-2.09c5.55-2.54,11.29-5.18,16.68-8.31,1.86-1.07,3.7-2.22,5.47-3.34l2.61-1.62a108.12,108.12,0,0,1,12.35-6.65c2.42-1.09,5-2.08,7.43-3,4.88-1.9,9.92-3.86,14.34-6.68a43.06,43.06,0,0,0,3.91-2.84q1.74-1.44,3.36-3v-2.25a55.58,55.58,0,0,1-4.38,4,39.81,39.81,0,0,1-3.75,2.74c-4.28,2.73-9.25,4.66-14.06,6.53-2.48,1-5.05,2-7.5,3.06a110.8,110.8,0,0,0-12.54,6.76L422,354.35c-1.76,1.1-3.59,2.25-5.42,3.31-5.32,3.09-11,5.71-16.55,8.24L395.47,368l-1.44.68c-2.33,1.09-4.74,2.22-7.15,3.21a58.47,58.47,0,0,1-13.42,3.86,100.78,100.78,0,0,1-12.33.86c-3.73.11-7.59.22-11.33.7-1.52.2-3.1.47-4.71.81-3.07.64-6.17,1.53-9.17,2.39s-6.11,1.76-9.19,2.41a76.88,76.88,0,0,1-9.39,1.33v1.61a79,79,0,0,0,9.72-1.38C330.2,383.81,333.33,382.91,336.36,382Z"/><path class="cls-11" d="M337.23,400.25c3.57-.95,7.27-1.93,10.9-2.62,1.65-.31,3.3-.58,4.9-.78,3.91-.48,8-.68,11.87-.86,4.39-.21,8.94-.43,13.3-1.06A70.17,70.17,0,0,0,393,391.1c3.21-1.21,6.36-2.66,9.29-4,8.49-4,15.79-7.84,22.31-11.66l3.71-2.21c1.64-1,3.28-2,4.93-2.92a139.2,139.2,0,0,1,13.4-6.77c2.19-.95,4.46-1.87,6.65-2.76a126.72,126.72,0,0,0,13.56-6.12V353a115.36,115.36,0,0,1-14.08,6.42c-2.21.89-4.49,1.82-6.69,2.78a139.68,139.68,0,0,0-13.54,6.83c-1.66,1-3.3,1.94-5,2.94l-3.69,2.2c-6.49,3.8-13.75,7.6-22.2,11.6-2.9,1.37-6,2.81-9.18,4A68.79,68.79,0,0,1,378,393.54c-4.3.62-8.81.84-13.17,1-3.94.19-8,.38-12,.88-1.64.2-3.32.46-5,.78-3.68.7-7.4,1.69-11,2.65-2.83.74-5.74,1.52-8.64,2.15a103.46,103.46,0,0,1-10.89,1.8v1.41a109.23,109.23,0,0,0,11.19-1.84C331.46,401.78,334.39,401,337.23,400.25Z"/><path class="cls-12" d="M337.26,418.62c4.46-1.11,9.07-2.26,13.58-3,1.7-.29,3.46-.55,5.22-.76,4.15-.5,8.41-.78,12.53-1,4.66-.3,9.47-.61,14.11-1.25a79.75,79.75,0,0,0,15.74-3.69,97,97,0,0,0,9.91-4.17c7.74-3.7,15.18-8,23.42-12.92l.43-.25c2.87-1.7,5.84-3.46,8.79-5.05,4.21-2.28,8.93-4.52,14.43-6.87q2.5-1.06,5-2.1c2.11-.88,4.24-1.76,6.36-2.69v-1.3c-2.27,1-4.56,1.94-6.82,2.88-1.68.7-3.37,1.39-5,2.11-5.53,2.36-10.29,4.62-14.53,6.91-3,1.6-5.95,3.37-8.83,5.07l-.44.26c-8.2,4.86-15.63,9.18-23.32,12.87a96.82,96.82,0,0,1-9.78,4.12,79,79,0,0,1-15.51,3.63c-4.6.63-9.39.94-14,1.24-4.13.27-8.41.54-12.59,1.05-1.79.21-3.56.47-5.28.77-4.56.79-9.19,1.94-13.66,3.05-2.37.59-4.82,1.2-7.24,1.75-4.41,1-8.5,1.76-12.4,2.29v1.22c4-.55,8.16-1.31,12.67-2.34C332.44,419.82,334.89,419.21,337.26,418.62Z"/><path class="cls-13" d="M353.56,433.54c6.16-1,12.53-1.48,18.68-2,10.61-.84,21.58-1.72,31.69-5,10.33-3.35,19.77-9.14,28.9-14.73,5.18-3.17,10.54-6.46,15.95-9.22s11.37-5.26,17.05-7.62l1-.41V393.5l-1.37.58c-5.69,2.37-11.57,4.82-17.11,7.65s-10.83,6.07-16,9.26c-9.07,5.56-18.46,11.31-28.68,14.63-10,3.25-20.91,4.12-31.46,4.95-6.17.5-12.55,1-18.75,2-6,.94-12.11,2.4-18,3.81s-12,2.85-18.07,3.83v1c6.2-1,12.31-2.44,18.3-3.87S347.61,434.47,353.56,433.54Z"/><path class="cls-3" d="M271,164l0-44.4L228,106.66V151Zm-37.47-52.08a2.5,2.5,0,1,1-2.5,2.5A2.5,2.5,0,0,1,233.55,111.91Z"/><polygon class="cls-3" points="270.08 98.9 322.12 82.99 322.12 74.22 321.89 74.15 270.08 90 270.08 98.9"/><polygon class="cls-3" points="211.65 120.21 211.65 114.76 192.2 108.93 192.22 114.38 211.65 120.21"/><polygon class="cls-3" points="211.65 102.82 192.15 96.97 192.17 101.38 211.65 107.22 211.65 102.82"/><polygon class="cls-3" points="211.65 133.19 211.65 127.74 192.25 121.93 192.27 127.39 211.65 133.19"/><path class="cls-3" d="M403.71,68.59l-76.54-23-45,13.48,16.47,4.94a1.21,1.21,0,0,1,.3-.25c5.24-3.23,15.4-5.64,26.53-6.28a79.07,79.07,0,0,1,21.56,1.36c6.49,1.5,10,3.92,10.2,7,.39,6.69-15.09,11.09-30.58,12l-.76,0-.8,0V84.1a1.51,1.51,0,0,1-1.07,1.44l-54,16.52a1.52,1.52,0,0,1-.42.06h0a1.52,1.52,0,0,1-.42-.06L212.72,85.14l-.07,0-.15-.06-.13-.07-.12-.08a.52.52,0,0,1-.11-.1l-.1-.09-.09-.12a.83.83,0,0,1-.08-.12.75.75,0,0,1-.07-.12l-.06-.13s0-.1,0-.15l0-.13c0-.06,0-.11,0-.17V80.21l-15.82,4.73,76.73,23Z"/><path class="cls-3" d="M324.11,71.69l.16.07.12.06.12.09.11.09,0,0,.94-3.76-6.4,1.94,4.85,1.46Z"/><polygon class="cls-3" points="211.65 139.69 211.65 134.24 192.28 128.43 192.3 133.89 211.65 139.69"/><polygon class="cls-3" points="211.65 145.14 211.65 140.73 192.3 134.93 192.32 139.34 211.65 145.14"/><polygon class="cls-3" points="211.65 126.7 211.65 121.25 192.22 115.43 192.25 120.88 211.65 126.7"/><polygon class="cls-3" points="407.43 99.04 325.54 123.56 325.54 128.98 407.43 104.49 407.43 99.04"/><path class="cls-3" d="M271.06,110.63,192.11,87l0,6.87,21.44,6.43.06,0,.16.06.12.07.12.08a.52.52,0,0,1,.11.1.47.47,0,0,1,.1.1.52.52,0,0,1,.1.11l.08.12.06.12.06.14a.57.57,0,0,1,0,.14.31.31,0,0,1,0,.13,1,1,0,0,1,0,.17s0,0,0,.07v45.45s0,0,0,.06a19.07,19.07,0,0,1,0,.31s0,0,0,.06a.05.05,0,0,1,0,0,1.18,1.18,0,0,1-.19.39l0,0a1.44,1.44,0,0,1-.27.28l0,0a1.85,1.85,0,0,1-.37.19l-.08,0a1.42,1.42,0,0,1-.42.07h0a1.23,1.23,0,0,1-.39-.06h0l-20.39-6.11,0,6.87L271,172.94V165L227.31,151.9a.51.51,0,0,1-.36-.48V106a.5.5,0,0,1,.64-.48l43.47,13Z"/><polygon class="cls-3" points="407.43 105.53 325.54 130.03 325.54 135.45 407.43 110.98 407.43 105.53"/><polygon class="cls-3" points="407.43 112.03 325.54 136.5 325.54 141.93 407.43 117.48 407.43 112.03"/><polygon class="cls-3" points="325.54 147.35 407.43 122.93 407.43 118.52 325.54 142.97 325.54 147.35"/><polygon class="cls-3" points="407.43 80.6 325.54 105.18 325.54 109.57 407.43 85.01 407.43 80.6"/><path class="cls-3" d="M407.43,70.6l-133.37,40v7.93l23.1-6.71h.07l.07,0h0l.1,0s.06,0,.08,0l.08,0,.07.06.06.08,0,.09,0,0v.07a.25.25,0,0,1,0,.07v45.43s0,0,0,0a.36.36,0,0,1,0,.1.32.32,0,0,1,0,.09.18.18,0,0,1-.05.07l-.06.08-.08.05a.26.26,0,0,1-.09,0h0L274,165.07v7.87l133.41-40v-6.87l-83,24.75h-.05a1.59,1.59,0,0,1-.38.06h0a1.55,1.55,0,0,1-.43-.07l-.08,0a1.22,1.22,0,0,1-.36-.18l-.05-.05a1.38,1.38,0,0,1-.27-.27l0-.05a1.5,1.5,0,0,1-.19-.38.05.05,0,0,0,0,0s0,0,0-.06l0-.16c0-.05,0-.1,0-.15V104.07a.22.22,0,0,1,0-.08.86.86,0,0,1,0-.16l0-.14s0-.09,0-.14l.06-.13a.75.75,0,0,1,.07-.12.57.57,0,0,1,.08-.13l.09-.11.1-.1.11-.09a.57.57,0,0,1,.13-.08l.12-.07.15-.06.07,0,83.82-25.16Z"/><polygon class="cls-3" points="407.43 86.05 325.54 110.61 325.54 116.04 407.43 91.5 407.43 86.05"/><polygon class="cls-3" points="407.43 92.55 325.54 117.08 325.54 122.51 407.43 98 407.43 92.55"/><polygon class="cls-3" points="211.65 113.72 211.65 108.27 192.17 102.42 192.19 107.88 211.65 113.72"/><path class="cls-3" d="M251.7,77.89A56,56,0,0,0,265.42,79l1.43-5.66Z"/><polygon class="cls-3" points="317.46 69.69 321.97 68.33 313.98 68.65 317.46 69.69"/><path class="cls-3" d="M266.46,78.93l1.29-.06A66.08,66.08,0,0,0,280.25,77l-12.36-3.74Z"/><path class="cls-3" d="M269.62,66.43l-1.37,5.41,14.49-4.38A56.82,56.82,0,0,0,269.62,66.43Z"/><path class="cls-3" d="M282,76.53c.54-.17,1.07-.34,1.57-.52,3.15-1.12,5.21-2.46,5.84-3.73L270.52,73Z"/><polygon class="cls-3" points="290.68 114.78 290.68 159.17 296.8 157.38 296.8 113 290.68 114.78"/><path class="cls-3" d="M267.71,57.91,216.63,73.22,269.58,89.1l50.59-15.47L276.55,60.55Zm17,9h0c3.81,1.08,5.88,2.6,6,4.44.12,2.05-2.21,4-6.73,5.6a60.12,60.12,0,0,1-16.15,2.92q-1,.06-2,.09h0c-.76,0-1.53,0-2.29,0a51.9,51.9,0,0,1-13.62-1.58h0s-.06,0-.09,0c-3.37-1-5.58-2.44-5.69-4.34s2.21-4,6.73-5.6a68,68,0,0,1,32.51-1.89C283.82,66.67,284.25,66.79,284.68,66.91Z"/><polygon class="cls-3" points="289.68 115.07 274.06 119.61 274.02 164.02 289.68 159.46 289.68 115.07"/><polygon class="cls-3" points="214.65 73.82 214.65 78.19 214.65 82.58 269.08 98.91 269.08 90 214.89 73.75 214.65 73.82"/><path class="cls-3" d="M289.64,71.27c-.19-1.25-2-2.45-5-3.34L271.13,72Z"/><path class="cls-3" d="M245.11,74.06c.13,1.25,1.83,2.44,4.76,3.34l13.45-4.07Z"/><path class="cls-3" d="M311.05,62.53,325.92,67l1.66-6.58c-.63,0-1.27,0-1.91.08A89.13,89.13,0,0,0,311.05,62.53Z"/><path class="cls-3" d="M328.63,60.39,327,66.81l17.67-5.35A76.44,76.44,0,0,0,328.63,60.39Z"/><path class="cls-3" d="M346.71,61.89,329.78,67l24.48-1C354.15,64.91,352.11,63.19,346.71,61.89Z"/><path class="cls-3" d="M268.58,66.46l-1.55.07a67.08,67.08,0,0,0-12.19,1.77L267.17,72Z"/><path class="cls-3" d="M326.51,74.9a86.57,86.57,0,0,0,15-2.12l-14.89-4.5-1.51,6V75l.59,0Z"/><path class="cls-3" d="M253,68.79c-.64.19-1.26.39-1.85.6-3.09,1.1-5.13,2.41-5.81,3.66l19.18-.77Z"/><path class="cls-3" d="M302.64,65.25l8.4,2.51,12.25-.49L309.15,63A39.61,39.61,0,0,0,302.64,65.25Z"/><path class="cls-3" d="M354,67l-24.71,1,14.13,4.27C349.21,70.71,352.93,68.7,354,67Z"/></g></svg>