<svg xmlns="http://www.w3.org/2000/svg" viewBox="0 0 600 599.61"><defs><style>.cls-1{fill:#a1c5fc;}.cls-2{fill:none;}.cls-3{fill:#0c59d5;}.cls-4{fill:#135fd9;}.cls-5{fill:#1964dd;}.cls-6{fill:#1f6ae1;}.cls-7{fill:#256fe6;}.cls-8{fill:#2b74ea;}.cls-9{fill:#317aee;}.cls-10{fill:#377ff2;}.cls-11{fill:#3e85f6;}.cls-12{fill:#448afb;}.cls-13{fill:#4a90ff;}.cls-14{fill:#004ecc;}.cls-15{fill:#00ffd5;}</style></defs><title>icons - Split System - Dark</title><g id="Splt_System" data-name="Splt System"><path class="cls-1" d="M314.94,473.57a1.45,1.45,0,0,0,.89.3,1.35,1.35,0,0,0,.44-.07L484.59,423a1.5,1.5,0,0,0,1.06-1.44V192.83a1.49,1.49,0,0,0-.6-1.2,1.48,1.48,0,0,0-1.33-.23l-15.65,4.71a1.66,1.66,0,0,0-.38.11L315.4,242.09a1.51,1.51,0,0,0-1.07,1.44V472.37A1.5,1.5,0,0,0,314.94,473.57Zm2.39-9.46,151.42-45.76.06,0a.69.69,0,0,0,.15-.07l.13-.06.12-.08.11-.1a.47.47,0,0,0,.1-.1l.09-.11v0l11.12,3.26-163.31,49.3Zm165.32-43.66-.26.08-12.58-3.69V198.72l12.84-3.87ZM466.81,199.62V415.81L317.33,461V244.64Z"/><path class="cls-1" d="M521.81,476.48l.09-.11.08-.12.06-.12a.84.84,0,0,0,.06-.14.57.57,0,0,0,0-.14.31.31,0,0,0,0-.13,1,1,0,0,0,0-.17s0,0,0-.07v-12.4a1.23,1.23,0,0,0,0-.19s0-.07,0-.11a1.15,1.15,0,0,0-.06-.17.76.76,0,0,0,0-.11c0-.05,0-.1-.08-.14a.36.36,0,0,0-.07-.1.69.69,0,0,0-.11-.13l-.08-.09-.13-.1-.1-.07-.14-.08-.14-.06-.07,0-12-3.6v-9.22h0V439.7c0-.05,0-.11,0-.16s0-.09,0-.14a1.21,1.21,0,0,0-.05-.14.69.69,0,0,0-.05-.13l-.06-.12-.08-.13-.09-.11-.1-.11-.11-.09-.12-.09-.11-.06-.16-.07,0,0-6.64-2.28V168.32l7.25-7.44a1.52,1.52,0,0,0,.42-1V144.44a4.32,4.32,0,0,0-1-8.35l-.13-.06L300.42,73.74a.86.86,0,0,0-.17,0l-.1,0h-.3a1.4,1.4,0,0,0-.28.06h0L92.22,136h-.08a4.33,4.33,0,0,0-1.32,8.39v15.39a1.48,1.48,0,0,0,.43,1l7.24,7.44v267.8L91.76,439a1.48,1.48,0,0,0-.92,1.38v22.1a1.51,1.51,0,0,0,1.07,1.44l207.65,62.33h0a1.74,1.74,0,0,0,.39,0h0a1.6,1.6,0,0,0,.39,0h0l135.15-40.55,27.76,8.41a1.67,1.67,0,0,0,.44.06h0a1.59,1.59,0,0,0,.43-.06l56.93-17.18.06,0,.16-.07.12-.06.12-.08.11-.09ZM301.49,522.79V502.73l133.53-40v20a1,1,0,0,0-.21.08ZM91,140.38a1.33,1.33,0,0,1,1.22-1.32l206.29,61.86v3.6L93.81,143.14a1.49,1.49,0,0,0-1.49-1.42A1.34,1.34,0,0,1,91,140.38ZM463.77,479.8l-11.32-3.4,54-16.29v0l.07.08a.74.74,0,0,0,.13.12l.09.08.14.1.1.05.17.07.06,0,10,3Zm42.37-31.89-10.92-3.27,10.92-3.28Zm-12.66-2.75,12.43,3.72L450.7,465.54,437.35,462Zm-42.27,21.27,54.93-16.57v9.29l-54.93,16.58ZM301.49,501.69v-4.5L498.78,438l.08.09.1.11.11.09a.94.94,0,0,0,.12.09.67.67,0,0,0,.12.06l.15.08h0l5.86,2Zm-200-64.64V168.68l197,59V496.15Zm197-231.49v14.52L93.82,158.71V144.19ZM300,84.78l189.13,56.74L300,198.24,111,141.57Zm1.5,135.3V205.56l204.67-61.37v14.52Zm197,217-197,59.1V227.7l197-59Zm.44-270.4h0v0h0a1.42,1.42,0,0,0-.31.48v0a1.63,1.63,0,0,0-.09.45l-197,59v-3.44l201.08-60.3Zm7.24-23.51L301.49,204.52v-3.6l206.29-61.86a1.33,1.33,0,0,1-.12,2.66A1.49,1.49,0,0,0,506.17,143.14ZM490.86,141,300.49,83.89v-7l202,60.61ZM299.49,76.89v7L109.28,141.05l-11.66-3.5Zm-1,146.33v3.44l-197-59a1,1,0,0,0-.09-.44.09.09,0,0,0,0,0,1.48,1.48,0,0,0-.31-.47h0l0,0h0l-3.63-3.73ZM100.57,438.5h0l.24-.13.11-.1.11-.09.1-.12,0-.05,197.29,59.19v4.5l-203.18-61ZM436,482.69v-20l14.19,3.78v9.95a.45.45,0,0,0,.1.28l0,0a.53.53,0,0,0,.23.16h0l12.7,3.81v10.25Zm28.25,8.25V480.69L519,464.19l.23.07v10.11ZM93.84,441.36h0l204.62,61.38v20.06L93.84,461.35Z"/><path class="cls-2" d="M342.49,243.16a44.2,44.2,0,0,1-1.43,4.64,41.86,41.86,0,0,1-2.08,4.32,34.9,34.9,0,0,0-2.33,5.06,30.69,30.69,0,0,0-1.17,6.19c-.15,1.19-.3,2.42-.52,3.64-.17.94-.38,1.89-.6,2.84a26.66,26.66,0,0,0-.93,7.11c.13,2.37,1.31,4.63,2.55,7a26.64,26.64,0,0,1,2.43,5.7A27.54,27.54,0,0,1,339,296c0,2.68.05,5.21,1,7.27s2.88,3.65,4.88,5.31a25,25,0,0,1,4.42,4.3,28.35,28.35,0,0,1,2.93,5.6c1.09,2.53,2.12,4.91,3.81,6.45s3.89,2.2,6.26,2.92a24.48,24.48,0,0,1,5.62,2.23,31.21,31.21,0,0,1,4.85,4c1.92,1.8,3.91,3.66,6,4.53a27.87,27.87,0,0,0,7.69,1.54q1.2.12,2.37.27c1.73.22,3.42.58,5.07.94s3.33.71,5.08.94,3.65.3,5.63.38,3.77.15,5.68.36c1,.12,2,.28,3.06.44a24.62,24.62,0,0,0,7.86.39,22.38,22.38,0,0,0,7-3c.79-.46,1.58-.9,2.37-1.31,1.6-.84,3.26-1.53,4.86-2.19s3.17-1.32,4.73-2.12,3.2-1.83,4.87-2.89,3.19-2,4.86-2.89c.89-.47,1.79-.91,2.69-1.35a18.57,18.57,0,0,0,10.81-9.92c.49-.85,1-1.69,1.48-2.49.61-1,1.28-1.89,1.93-2.78V273.42c-.11.48-.24.95-.36,1.41s-.29,1.1-.41,1.65c-.19.81-.34,1.63-.49,2.44a28.06,28.06,0,0,1-1.26,5,33.25,33.25,0,0,1-1.78,3.7,28.14,28.14,0,0,0-1.6,3.28,29.21,29.21,0,0,0-1,3.56,29.11,29.11,0,0,1-1.07,3.8,26.63,26.63,0,0,1-2.27,4.35c-.44.72-.86,1.4-1.24,2.11-.26.49-.5,1-.76,1.49a20.05,20.05,0,0,1-3.34,5.24,20.45,20.45,0,0,1-6.26,3.93l-1.64.79c-1.65.82-3.28,1.81-4.86,2.75-.91.55-1.8,1.09-2.68,1.59s-1.5.83-2.24,1.24a51.09,51.09,0,0,0-4.57,2.67c-.43.29-.85.6-1.29.91a17.58,17.58,0,0,1-6.28,3.29,11.6,11.6,0,0,1-2.56.27,30.7,30.7,0,0,1-4.69-.49c-.65-.1-1.29-.2-1.93-.28-1.83-.23-3.72-.32-5.54-.41-1.08-.05-2.14-.1-3.16-.18l-2.29-.21c-1.84-.17-3.59-.32-5.36-.34h-1.15a21.24,21.24,0,0,1-7.24-.77c-2.22-.75-4.06-2.45-5.85-4.11a20.05,20.05,0,0,0-3.76-3,15,15,0,0,0-4.32-1.22c-2.22-.41-4.52-.83-6.37-2.39s-2.82-3.92-3.75-6.2a18.2,18.2,0,0,0-2.17-4.28,16,16,0,0,0-3.53-3c-1.94-1.35-3.95-2.74-5-5s-1-4.66-.88-7.08a17.5,17.5,0,0,0-.23-4.82,17,17,0,0,0-2-4.19c-1.24-2.1-2.52-4.26-2.64-6.75a21,21,0,0,1,1-6.31c.14-.54.28-1.09.41-1.63.19-.81.34-1.63.49-2.44a28.13,28.13,0,0,1,1.25-5,33.29,33.29,0,0,1,1.79-3.7,29,29,0,0,0,1.6-3.28,27.82,27.82,0,0,0,1-3.55,30.33,30.33,0,0,1,1.08-3.8,25.5,25.5,0,0,1,2.27-4.35c.44-.72.85-1.41,1.23-2.12.24-.44.47-.9.71-1.35a23.1,23.1,0,0,1,3.37-5.35,8.5,8.5,0,0,1,.75-.72l-18.77,5.66a17.44,17.44,0,0,0-.91,1.71A33.16,33.16,0,0,0,342.49,243.16Z"/><path class="cls-2" d="M370.23,230.2c-2,.86-4,1.67-5.16,3a21.63,21.63,0,0,0-3,4.77l-.72,1.4c-.42.78-.87,1.52-1.31,2.24a23.62,23.62,0,0,0-2.06,3.91,29,29,0,0,0-1,3.47,31.48,31.48,0,0,1-1.1,3.89,32.29,32.29,0,0,1-1.74,3.6,30.26,30.26,0,0,0-1.65,3.39,26.67,26.67,0,0,0-1.12,4.54c-.15.86-.31,1.71-.51,2.57-.14.56-.28,1.13-.43,1.7a18.34,18.34,0,0,0-.88,5.5c.08,1.83,1.14,3.62,2.26,5.52a19.1,19.1,0,0,1,2.32,4.9,20,20,0,0,1,.31,5.57c-.09,2.18-.17,4.25.6,5.81s2.42,2.73,4.16,3.94a18.12,18.12,0,0,1,4.11,3.5,20.82,20.82,0,0,1,2.54,4.92c.85,2.08,1.65,4,3,5.17s3.17,1.44,5.14,1.8a17.39,17.39,0,0,1,5.09,1.49,22.2,22.2,0,0,1,4.32,3.4c1.58,1.46,3.22,3,4.89,3.53a19.33,19.33,0,0,0,6.36.64H396c1.88,0,3.66.17,5.54.35l2.24.2c1,.07,2,.12,3.08.18,1.87.09,3.81.18,5.74.42.67.09,1.34.19,2,.3a17.49,17.49,0,0,0,6.27.25,15.36,15.36,0,0,0,5.31-2.86l1.34-.95c1.57-1.06,3.21-2,4.8-2.81.72-.39,1.46-.79,2.2-1.21s1.73-1,2.62-1.55c1.62-1,3.29-2,5-2.86.56-.28,1.13-.55,1.69-.81a18.53,18.53,0,0,0,5.48-3.37,17.9,17.9,0,0,0,2.88-4.59c.26-.52.52-1,.79-1.54.42-.78.87-1.53,1.31-2.25a23.94,23.94,0,0,0,2.06-3.9,29.22,29.22,0,0,0,1-3.48,31.48,31.48,0,0,1,1.1-3.89,30.48,30.48,0,0,1,1.74-3.59A30.12,30.12,0,0,0,461.8,283a24.91,24.91,0,0,0,1.12-4.54c.16-.86.32-1.72.52-2.57.13-.57.28-1.14.43-1.71a18.29,18.29,0,0,0,.88-5.5c-.09-1.83-1.14-3.62-2.27-5.51a19.46,19.46,0,0,1-2.31-4.91,19.93,19.93,0,0,1-.31-5.57c.08-2.18.16-4.24-.61-5.81s-2.42-2.73-4.15-3.94a18.12,18.12,0,0,1-4.11-3.5,21.5,21.5,0,0,1-2.61-5c-.86-2.05-1.67-4-3-5.16a21.43,21.43,0,0,0-4.76-3l-1.4-.72c-.78-.42-1.53-.87-2.25-1.31a23.19,23.19,0,0,0-3.9-2.06,27.45,27.45,0,0,0-3.48-1,32.63,32.63,0,0,1-3.88-1.1,31.46,31.46,0,0,1-3.6-1.74,29.39,29.39,0,0,0-3.39-1.65,26.67,26.67,0,0,0-4.54-1.12l-.38-.07-38,11.47c-.2.18-.39.37-.6.54A21.86,21.86,0,0,1,370.23,230.2Zm11.25,7.91a10.81,10.81,0,0,0,2-3c.9-1.69,1.92-3.6,3.78-4.57s3.92-.73,5.94-.52a11.47,11.47,0,0,0,3.79,0,11,11,0,0,0,3.18-1.79c1.6-1.13,3.42-2.41,5.54-2.48a13.88,13.88,0,0,1,4.93,1.05l.48.17,1.31.43a25.91,25.91,0,0,1,3.41,1.28c.65.32,1.26.67,1.86,1a15.5,15.5,0,0,0,2.51,1.26,15.92,15.92,0,0,0,2.79.61c.66.11,1.31.21,1.94.36a22.94,22.94,0,0,1,3.19,1l1.32.49.21.07a14.54,14.54,0,0,1,4.63,2.24c1.56,1.25,2.31,3.2,3,5.08a12.53,12.53,0,0,0,1.71,3.44,10.89,10.89,0,0,0,3,2c1.69.9,3.61,1.92,4.58,3.78s.73,3.92.52,6a11.41,11.41,0,0,0,0,3.78,10.8,10.8,0,0,0,1.79,3.18c1.13,1.6,2.4,3.42,2.48,5.54a13.46,13.46,0,0,1-1.05,4.93l-.17.48c-.15.44-.3.88-.44,1.31a24.49,24.49,0,0,1-1.27,3.41c-.32.65-.67,1.26-1,1.86a15.67,15.67,0,0,0-1.27,2.52,17.83,17.83,0,0,0-.61,2.78c-.1.66-.21,1.31-.35,1.94a24.35,24.35,0,0,1-1,3.19c-.17.44-.33.88-.49,1.32l-.15.44a13.06,13.06,0,0,1-2.18,4.43,13.43,13.43,0,0,1-5.17,3.24l-.65.29a35.93,35.93,0,0,0-5.24,2.84,23.65,23.65,0,0,0-4,3.43l-.41.44a11.32,11.32,0,0,1-4.67,3.48,12.7,12.7,0,0,1-5.94-.05l-.87-.13a36.37,36.37,0,0,0-5.95-.44,21.59,21.59,0,0,0-5.06.75,18.39,18.39,0,0,1-4.38.7,8.1,8.1,0,0,1-1.82-.19h0c-1.95-.43-3.52-1.85-5-3.23a12.43,12.43,0,0,0-3-2.27,10.16,10.16,0,0,0-3.52-.46c-1.85,0-3.95-.08-5.61-1.3s-2.41-3.23-3.14-5.17a12,12,0,0,0-1.65-3.39,10.6,10.6,0,0,0-3-2c-1.69-.9-3.6-1.92-4.58-3.78s-.73-3.92-.51-5.95a11.41,11.41,0,0,0,0-3.78,11,11,0,0,0-1.79-3.18c-1.13-1.6-2.41-3.42-2.48-5.54a13.16,13.16,0,0,1,1.05-4.92l.17-.49c.15-.43.29-.87.43-1.31a25.91,25.91,0,0,1,1.28-3.41c.32-.65.67-1.26,1-1.86a15.58,15.58,0,0,0,1.26-2.52,15.8,15.8,0,0,0,.61-2.78c.11-.66.21-1.31.36-1.94a22.38,22.38,0,0,1,1-3.18c.17-.45.34-.89.49-1.34l.08-.22a14.77,14.77,0,0,1,2.24-4.61c1.25-1.56,3.2-2.31,5.08-3A12.53,12.53,0,0,0,381.48,238.11Z"/><path class="cls-2" d="M321.68,246.74c.7-1.35,1.37-2.64,1.95-4l-6.32,1.91V260.8a34.46,34.46,0,0,1,1.2-6.93A41.94,41.94,0,0,1,321.68,246.74Z"/><path class="cls-2" d="M322.63,294.81a36.1,36.1,0,0,1,.78,7.12c.14,3.18.27,6.19,1.43,8.73s3.32,4.58,5.58,6.7a33,33,0,0,1,4.74,5.07,37.67,37.67,0,0,1,3.32,6.29c1.34,3,2.6,5.77,4.61,7.73s4.61,3,7.37,4.06a32.51,32.51,0,0,1,6.16,2.95A42.52,42.52,0,0,1,362,348c2.26,2.15,4.59,4.37,7.13,5.54a35.65,35.65,0,0,0,9,2.36c1.17.2,2.37.41,3.54.65,1.87.4,3.71.94,5.49,1.47a57.12,57.12,0,0,0,7,1.74,60.17,60.17,0,0,0,7.57.54c2,.07,4.16.13,6.26.35,1.38.14,2.77.36,4.11.56,3.3.51,6.41,1,9.44.54a29.79,29.79,0,0,0,8.66-3.22c1.12-.55,2.28-1.12,3.42-1.62,1.83-.79,3.72-1.42,5.54-2a56.68,56.68,0,0,0,6.68-2.57,60.89,60.89,0,0,0,6.58-3.92c1.7-1.11,3.46-2.26,5.27-3.26,1.2-.67,2.45-1.28,3.65-1.88a54.42,54.42,0,0,0,5.48-3V317.36c-.42.69-.83,1.39-1.24,2.1a21,21,0,0,1-11.89,10.92c-.87.42-1.75.85-2.61,1.31-1.59.84-3.17,1.84-4.69,2.8s-3.35,2.11-5.07,3-3.3,1.54-4.91,2.21-3.16,1.31-4.67,2.09c-.76.4-1.51.83-2.28,1.27a24.27,24.27,0,0,1-7.82,3.32,15.56,15.56,0,0,1-2.73.23A39.61,39.61,0,0,1,413,346c-1-.16-2-.31-3-.42-1.82-.2-3.69-.28-5.5-.35s-4-.16-5.85-.4-3.6-.62-5.29-1-3.23-.69-4.86-.9c-.76-.1-1.53-.18-2.31-.26a29.52,29.52,0,0,1-8.37-1.72c-2.54-1-4.69-3.06-6.78-5a29.19,29.19,0,0,0-4.44-3.68,21.87,21.87,0,0,0-5-2c-2.53-.77-5.14-1.56-7.22-3.47s-3.27-4.64-4.42-7.29a26.38,26.38,0,0,0-2.64-5.12,23,23,0,0,0-4-3.85c-2.13-1.76-4.33-3.58-5.55-6.18s-1.23-5.47-1.25-8.31a25.3,25.3,0,0,0-.48-5.77,24.27,24.27,0,0,0-2.22-5.15c-1.31-2.52-2.67-5.13-2.83-8a28.08,28.08,0,0,1,1-7.81c.2-.92.41-1.83.57-2.74.21-1.15.36-2.34.5-3.49a32.8,32.8,0,0,1,1.28-6.68,36.24,36.24,0,0,1,2.49-5.43,42.93,42.93,0,0,0,2-4.07,44.53,44.53,0,0,0,1.35-4.38,39.22,39.22,0,0,1,1.68-5.19l-15.27,4.6c-.1.28-.2.55-.31.82a53.9,53.9,0,0,1-2.44,5.08,41.31,41.31,0,0,0-3,6.74,37.61,37.61,0,0,0-1.23,7.87c-.13,1.53-.27,3.11-.5,4.68-.2,1.31-.47,2.64-.74,3.93a53.32,53.32,0,0,0-1,5.9v3.31a26.34,26.34,0,0,0,2.78,8.07A34.57,34.57,0,0,1,322.63,294.81Z"/><path class="cls-2" d="M324.75,338.9c1.51,3.26,3.08,6.64,5.42,9s5.31,3.76,8.47,5.24a43.43,43.43,0,0,1,6.69,3.63,54.56,54.56,0,0,1,5.89,5.15c2.61,2.5,5.3,5.09,8.28,6.57a43.5,43.5,0,0,0,10.32,3.13c1.54.34,3.13.68,4.67,1.09,2.08.55,4.13,1.27,6.11,2a58.94,58.94,0,0,0,8.72,2.56,61.24,61.24,0,0,0,9.39.69c2.28.06,4.65.11,7,.34,1.73.17,3.48.44,5.17.7,3.82.59,7.42,1.15,11,.69s7-2,10.29-3.43c1.46-.65,3-1.32,4.47-1.89,2.1-.79,4.26-1.41,6.35-2a57.68,57.68,0,0,0,8.53-2.93,63.7,63.7,0,0,0,8.15-4.89c1.88-1.26,3.82-2.56,5.82-3.69.44-.26.9-.49,1.35-.73V343c-1.44.84-2.95,1.59-4.44,2.33-1.18.59-2.41,1.19-3.57,1.83-1.73,1-3.45,2.08-5.12,3.17a62.75,62.75,0,0,1-6.83,4.07,58.35,58.35,0,0,1-7,2.68c-1.78.6-3.62,1.22-5.36,2-1.09.47-2.17,1-3.31,1.56a31.9,31.9,0,0,1-9.36,3.44,19.82,19.82,0,0,1-2.88.2,47.51,47.51,0,0,1-7.25-.74c-1.32-.2-2.68-.41-4-.55-2-.21-4.08-.27-6.08-.34a62,62,0,0,1-7.87-.57,56.54,56.54,0,0,1-7.28-1.81c-1.81-.53-3.53-1-5.31-1.41-1.13-.24-2.26-.43-3.45-.64a37.94,37.94,0,0,1-9.58-2.54h0c-2.89-1.33-5.37-3.69-7.77-6a39.61,39.61,0,0,0-5.06-4.32,30.6,30.6,0,0,0-5.73-2.73c-2.85-1.13-5.81-2.29-8.13-4.56s-3.75-5.4-5.12-8.44a36.4,36.4,0,0,0-3.09-5.91,31.84,31.84,0,0,0-4.43-4.7c-2.33-2.18-4.74-4.43-6.12-7.45s-1.49-6.32-1.63-9.59a35.3,35.3,0,0,0-.71-6.67,33.2,33.2,0,0,0-2.4-6.05l-.67-1.44v39.59a35.61,35.61,0,0,1,3.75,4.48A49.67,49.67,0,0,1,324.75,338.9Z"/><path class="cls-2" d="M465.51,204.85l1.3.83v-6.06l-6.22,1.87c.56.43,1.12.86,1.68,1.25C463.31,203.46,464.43,204.17,465.51,204.85Z"/><path class="cls-2" d="M423.4,216.08a28,28,0,0,0,3.28,1.59,29.21,29.21,0,0,0,3.56,1,32.61,32.61,0,0,1,3.8,1.07,26.26,26.26,0,0,1,4.35,2.28c.72.44,1.4.85,2.11,1.23l1.36.7a23.93,23.93,0,0,1,5.35,3.38c1.73,1.58,2.7,3.88,3.63,6.1a19.67,19.67,0,0,0,2.25,4.35,16.26,16.26,0,0,0,3.53,3c1.94,1.34,3.94,2.73,5,4.95s1,4.67.88,7.09a17.42,17.42,0,0,0,.23,4.81,16.71,16.71,0,0,0,2,4.2,24.65,24.65,0,0,1,2,4V234.66a15,15,0,0,1-1.72-1.93,29.68,29.68,0,0,1-3-5.66c-1.1-2.49-2.14-4.83-3.77-6.42a29.36,29.36,0,0,0-5.84-4.08c-.82-.48-1.62-1-2.41-1.45-1-.66-2-1.38-3-2.08a29.73,29.73,0,0,0-5.13-3.23,28,28,0,0,0-4.23-1.43L419,214l.73.25A31.67,31.67,0,0,1,423.4,216.08Z"/><path class="cls-2" d="M448.57,211c1,.7,1.88,1.37,2.84,2,.76.48,1.54.94,2.33,1.4a31.64,31.64,0,0,1,6.33,4.45c2,1.93,3.15,4.61,4.3,7.19a31.13,31.13,0,0,0,2.44,4.76V208.47c-.84-.56-1.69-1.11-2.54-1.65-1.1-.69-2.25-1.41-3.33-2.17s-2.08-1.54-3.07-2.33L442,207.11c.35.13.69.27,1,.42A31.63,31.63,0,0,1,448.57,211Z"/><path class="cls-2" d="M385.74,274.32a8.71,8.71,0,0,1-.23,4.05c-.23,1.07-.48,2.28-.18,2.81s1.51.94,2.57,1.28a6.43,6.43,0,0,1,5.39,5.39c.34,1.06.73,2.25,1.28,2.57s1.74.05,2.81-.18a13.41,13.41,0,0,1,2.73-.39,4.88,4.88,0,0,1,1.32.17,8.41,8.41,0,0,1,3.3,2.17c.83.75,1.78,1.6,2.45,1.6s1.61-.85,2.45-1.6a8.41,8.41,0,0,1,3.3-2.17,8.71,8.71,0,0,1,4.05.22c1.07.23,2.28.49,2.81.18s.94-1.51,1.27-2.56a6.42,6.42,0,0,1,5.4-5.4c1.05-.34,2.24-.72,2.56-1.27s.05-1.75-.17-2.82a8.71,8.71,0,0,1-.23-4.05,8.41,8.41,0,0,1,2.17-3.3c.75-.83,1.61-1.78,1.61-2.45s-.86-1.61-1.61-2.44a8.55,8.55,0,0,1-2.17-3.3,8.75,8.75,0,0,1,.23-4.06c.22-1.07.48-2.28.17-2.81s-1.51-.93-2.56-1.27a6.4,6.4,0,0,1-5.39-5.4c-.34-1-.73-2.24-1.28-2.56s-1.74,0-2.81.18a8.71,8.71,0,0,1-4.05.22,8.41,8.41,0,0,1-3.3-2.17c-.84-.75-1.78-1.61-2.45-1.61s-1.62.86-2.45,1.61a8.41,8.41,0,0,1-3.3,2.17,8.84,8.84,0,0,1-4.05-.22c-1.07-.23-2.28-.49-2.81-.18s-.94,1.51-1.28,2.56a6.4,6.4,0,0,1-5.39,5.4c-1,.34-2.25.72-2.56,1.27s-.06,1.74.17,2.81a6.38,6.38,0,0,1-1.95,7.36c-.75.83-1.6,1.77-1.6,2.44s.85,1.62,1.6,2.45A8.54,8.54,0,0,1,385.74,274.32Z"/><path class="cls-2" d="M373.32,248.62c-.16.48-.34.94-.52,1.41a21,21,0,0,0-.92,2.81c-.13.57-.22,1.16-.32,1.76a18.4,18.4,0,0,1-.73,3.28,19.69,19.69,0,0,1-1.48,3c-.33.58-.65,1.13-.92,1.69a22.61,22.61,0,0,0-1.13,3c-.15.46-.29.92-.45,1.38l-.18.5a11.08,11.08,0,0,0-.89,3.89c.05,1.27,1,2.6,2,4a12.8,12.8,0,0,1,2.22,4.1,13.52,13.52,0,0,1,.06,4.79c-.18,1.69-.35,3.28.21,4.34s1.94,1.81,3.39,2.59a12.72,12.72,0,0,1,3.83,2.68,13.84,13.84,0,0,1,2.15,4.23c.61,1.63,1.19,3.17,2.17,3.89s2.42.72,4,.75a12.09,12.09,0,0,1,4.57.68,14.56,14.56,0,0,1,3.79,2.78c1.24,1.13,2.52,2.3,3.73,2.57h0a11,11,0,0,0,4.85-.49,24.64,24.64,0,0,1,5.75-.84,39,39,0,0,1,6.43.47l.9.14a10.76,10.76,0,0,0,4.62.14,8.94,8.94,0,0,0,3.46-2.71l.42-.46a26.61,26.61,0,0,1,4.46-3.83,38,38,0,0,1,5.67-3.08l.67-.29a11.53,11.53,0,0,0,4.14-2.48,10.78,10.78,0,0,0,1.66-3.51l.15-.45.52-1.41a21,21,0,0,0,.93-2.81c.13-.57.22-1.16.32-1.76a18.4,18.4,0,0,1,.73-3.28,19.69,19.69,0,0,1,1.48-3c.33-.58.64-1.13.92-1.69a24.06,24.06,0,0,0,1.13-3q.21-.69.45-1.38l.17-.49a10.91,10.91,0,0,0,.89-3.9c0-1.27-1-2.6-2-4a13,13,0,0,1-2.21-4.1,13.52,13.52,0,0,1-.06-4.79c.18-1.69.35-3.28-.21-4.34s-1.94-1.81-3.4-2.59a12.8,12.8,0,0,1-3.82-2.68,14.35,14.35,0,0,1-2.2-4.26c-.62-1.6-1.21-3.12-2.17-3.89a12.22,12.22,0,0,0-3.78-1.77l-.21-.08c-.48-.16-.94-.34-1.41-.51a19.67,19.67,0,0,0-2.81-.93c-.57-.13-1.16-.22-1.76-.32a18.4,18.4,0,0,1-3.28-.73,19.69,19.69,0,0,1-3-1.48c-.58-.33-1.13-.64-1.69-.92a23.68,23.68,0,0,0-3-1.13l-1.38-.45-.49-.17a10.93,10.93,0,0,0-3.9-.9c-1.27,0-2.6,1-4,2a13.08,13.08,0,0,1-4.1,2.21,13.75,13.75,0,0,1-4.79.06,22.23,22.23,0,0,0-2.34-.17,4.26,4.26,0,0,0-2,.38c-1.08.56-1.81,1.94-2.59,3.39a12.72,12.72,0,0,1-2.68,3.83,14.35,14.35,0,0,1-4.26,2.2c-1.6.62-3.12,1.21-3.89,2.17a12.16,12.16,0,0,0-1.77,3.77Zm8,15.5a3.69,3.69,0,0,0,1.24-4.73c-.34-1.59-.73-3.4.16-4.93s2.67-2.12,4.24-2.63a3.69,3.69,0,0,0,3.46-3.46c.5-1.57,1.08-3.34,2.63-4.24s3.33-.5,4.93-.16a6.92,6.92,0,0,0,2.66.26,6.76,6.76,0,0,0,2.06-1.5c1.23-1.11,2.63-2.38,4.46-2.38s3.22,1.27,4.46,2.38a6.64,6.64,0,0,0,2.06,1.5,6.93,6.93,0,0,0,2.66-.26c1.59-.34,3.4-.72,4.93.16s2.12,2.67,2.63,4.24a3.67,3.67,0,0,0,3.46,3.46c1.57.51,3.34,1.08,4.24,2.63s.5,3.34.16,4.93a6.93,6.93,0,0,0-.26,2.66,6.64,6.64,0,0,0,1.5,2.06c1.11,1.24,2.38,2.64,2.38,4.46S434.13,271.8,433,273a6.66,6.66,0,0,0-1.5,2.07,6.87,6.87,0,0,0,.26,2.65c.34,1.6.72,3.41-.16,4.94s-2.67,2.12-4.24,2.62a3.69,3.69,0,0,0-3.46,3.47c-.51,1.56-1.08,3.34-2.63,4.23s-3.33.5-4.93.17a3.65,3.65,0,0,0-4.72,1.23c-1.24,1.12-2.63,2.38-4.46,2.38s-3.23-1.26-4.46-2.38a6.93,6.93,0,0,0-2.06-1.5,6.74,6.74,0,0,0-2.66.27c-1.6.33-3.41.72-4.94-.17s-2.12-2.67-2.62-4.23a3.71,3.71,0,0,0-3.47-3.47c-1.56-.5-3.34-1.07-4.23-2.62s-.5-3.34-.16-4.94a3.68,3.68,0,0,0-1.24-4.72c-1.12-1.23-2.38-2.63-2.38-4.46S380.22,265.35,381.34,264.12Z"/><path class="cls-2" d="M334,370.12a67,67,0,0,1,6.4,5.69c2.95,2.87,6,5.82,9.42,7.62,3.61,1.91,7.71,2.92,11.67,3.89,1.91.47,3.87,1,5.76,1.53,2.31.71,4.6,1.61,6.81,2.48a61.27,61.27,0,0,0,10.39,3.38,64.62,64.62,0,0,0,11.16.85c2.55,0,5.18.09,7.77.33,2.07.2,4.18.52,6.21.84,4.15.65,8.44,1.32,12.55.84s8.07-2.09,11.88-3.65c1.81-.75,3.69-1.51,5.55-2.14,2.37-.81,4.83-1.42,7.2-2a61,61,0,0,0,10.33-3.26,66.07,66.07,0,0,0,9.68-5.82V362.57l-.28.15c-1.93,1.1-3.84,2.37-5.68,3.61a63.3,63.3,0,0,1-8.45,5.05,58.63,58.63,0,0,1-8.84,3.06c-2.05.58-4.17,1.19-6.18,1.95-1.45.54-2.86,1.17-4.36,1.84-3.43,1.52-7,3.09-10.89,3.6a23.7,23.7,0,0,1-3,.19,55.71,55.71,0,0,1-8.57-.89c-1.67-.25-3.38-.52-5-.68-2.25-.22-4.58-.28-6.82-.33a64.06,64.06,0,0,1-9.73-.73,60.2,60.2,0,0,1-9.05-2.65c-2-.71-3.95-1.39-5.95-1.92-1.48-.39-3.05-.73-4.56-1.06a45.18,45.18,0,0,1-10.84-3.31c-3.27-1.63-6.09-4.33-8.81-6.95a51.12,51.12,0,0,0-5.64-4.94,40.93,40.93,0,0,0-6.36-3.43c-3.19-1.5-6.5-3.05-9.1-5.69s-4.25-6.2-5.84-9.63a46.54,46.54,0,0,0-3.52-6.65,24.46,24.46,0,0,0-2-2.49v28.76c2.65,2.77,6,4.54,9.53,6.4A54.56,54.56,0,0,1,334,370.12Z"/><path class="cls-2" d="M330.53,413.27c4.44,2.52,9.51,4,14.42,5.39,2.61.74,5.3,1.52,7.88,2.44,2.81,1,5.59,2.26,8.28,3.47a70.86,70.86,0,0,0,13.67,5.05c4.68,1,9.53,1.08,14.65,1.14,3.09,0,6.28.07,9.42.34,2.75.24,5.56.68,8.28,1.11,1.2.19,2.41.38,3.63.55l56.05-16.95V403.62c-1.08.6-2.17,1.16-3.29,1.65A68,68,0,0,1,451,409c-2.61.59-5.3,1.2-7.88,2-2.14.67-4.23,1.47-6.45,2.33-4.45,1.71-9.05,3.49-14,4a30.63,30.63,0,0,1-3.32.17,72.86,72.86,0,0,1-11.26-1.17c-2.35-.37-4.77-.75-7.13-1-2.79-.25-5.66-.29-8.44-.33a69.73,69.73,0,0,1-13.26-1,67.07,67.07,0,0,1-12.38-4.32c-2.42-1-4.91-2.09-7.4-2.92-2.19-.74-4.49-1.36-6.72-2-4.54-1.22-9.24-2.48-13.45-4.8s-7.59-5.66-11-9a79.71,79.71,0,0,0-6.73-6.1,45.84,45.84,0,0,0-4.32-2.9V402l1.51,1.48C322.44,407.11,326.22,410.82,330.53,413.27Z"/><path class="cls-2" d="M336.67,434.31c3,.89,6,1.81,8.92,2.91,3.07,1.16,6.1,2.58,9,4a96.52,96.52,0,0,0,11.9,5L407,433.88l-.17,0c-2.69-.43-5.47-.87-8.17-1.1-3.07-.26-6.23-.3-9.28-.34-5-.05-10.15-.11-15-1.17a72.46,72.46,0,0,1-14-5.16c-2.66-1.2-5.42-2.44-8.16-3.42-2.53-.91-5.2-1.67-7.78-2.41-5-1.44-10.17-2.92-14.79-5.54s-8.35-6.35-12.08-10l-.34-.33v21.42a36,36,0,0,0,3.58,2.39C325.71,431,331.29,432.69,336.67,434.31Z"/><path class="cls-2" d="M337.86,454.58c-3.2-1.26-6.58-2.32-9.86-3.34-3.57-1.12-7.21-2.26-10.72-3.69V461l20.9-6.32Z"/><path class="cls-2" d="M338.35,453.34c.62.24,1.23.5,1.84.76l23.87-7.22c-3.47-1.25-6.81-2.81-10.07-4.34-2.91-1.37-5.92-2.78-8.93-3.92s-5.89-2-8.82-2.87c-5.47-1.65-11.13-3.35-16.14-6.27-1-.57-1.9-1.19-2.82-1.85v18.48c3.62,1.51,7.41,2.7,11.12,3.86C331.7,451,335.11,452.06,338.35,453.34Z"/><path class="cls-2" d="M329.62,389.67c3.3,3.23,6.71,6.56,10.57,8.68,4,2.21,8.61,3.45,13,4.64,2.26.61,4.59,1.24,6.83,2,2.56.85,5.09,1.93,7.54,3a65.16,65.16,0,0,0,12,4.21,67.59,67.59,0,0,0,12.91,1c2.82,0,5.73.08,8.59.34,2.41.21,4.87.6,7.24,1,4.65.73,9.46,1.48,14.11,1s9.18-2.22,13.52-3.89c2.15-.83,4.37-1.69,6.56-2.37,2.66-.82,5.39-1.43,8-2a66.32,66.32,0,0,0,12.19-3.58,39.43,39.43,0,0,0,4-2.08V383.1a61.05,61.05,0,0,1-8.85,5.23,62.89,62.89,0,0,1-10.68,3.37c-2.33.59-4.74,1.19-7,2-1.8.61-3.57,1.33-5.43,2.1-3.93,1.61-8,3.28-12.41,3.79a28.18,28.18,0,0,1-3.17.17,65.53,65.53,0,0,1-9.92-1c-2-.31-4.08-.64-6.09-.82-2.51-.24-5.11-.29-7.62-.33a66.78,66.78,0,0,1-11.51-.89,62.63,62.63,0,0,1-10.73-3.48c-2.18-.86-4.42-1.74-6.66-2.42-1.84-.56-3.78-1-5.65-1.5a53,53,0,0,1-12.14-4.07c-3.67-1.93-6.82-5-9.87-7.95a64.69,64.69,0,0,0-6.2-5.53,54.32,54.32,0,0,0-6.95-4.12,44.55,44.55,0,0,1-8.6-5.42v17.67a53.78,53.78,0,0,1,5.44,3.59A82.25,82.25,0,0,1,329.62,389.67Z"/><path class="cls-3" d="M337.86,454.58l.32.13,2-.61c-.61-.26-1.22-.52-1.84-.76-3.24-1.28-6.65-2.34-10-3.37-3.71-1.16-7.5-2.35-11.12-3.86v1.44c3.51,1.43,7.15,2.57,10.72,3.69C331.28,452.26,334.66,453.32,337.86,454.58Z"/><path class="cls-4" d="M336.24,435.75c2.93.88,6,1.79,8.82,2.87s6,2.55,8.93,3.92c3.26,1.53,6.6,3.09,10.07,4.34l2.47-.74a96.52,96.52,0,0,1-11.9-5c-2.94-1.38-6-2.8-9-4-2.91-1.1-6-2-8.92-2.91-5.38-1.62-11-3.29-15.81-6.13a36,36,0,0,1-3.58-2.39v1.84c.92.66,1.85,1.28,2.82,1.85C325.11,432.4,330.77,434.1,336.24,435.75Z"/><path class="cls-5" d="M329.7,414.72c4.62,2.62,9.79,4.1,14.79,5.54,2.58.74,5.25,1.5,7.78,2.41,2.74,1,5.5,2.22,8.16,3.42a72.46,72.46,0,0,0,14,5.16c4.84,1.06,10,1.12,15,1.17,3.05,0,6.21.08,9.28.34,2.7.23,5.48.67,8.17,1.1l.17,0,3.72-1.12c-1.22-.17-2.43-.36-3.63-.55-2.72-.43-5.53-.87-8.28-1.11-3.14-.27-6.33-.31-9.42-.34-5.12-.06-10-.12-14.65-1.14a70.86,70.86,0,0,1-13.67-5.05c-2.69-1.21-5.47-2.46-8.28-3.47-2.58-.92-5.27-1.7-7.88-2.44-4.91-1.41-10-2.87-14.42-5.39s-8.09-6.16-11.74-9.75L317.28,402v2.33l.34.33C321.35,408.37,325.2,412.16,329.7,414.72Z"/><path class="cls-6" d="M328.34,391c3.38,3.31,6.89,6.73,11,9s8.91,3.58,13.45,4.8c2.23.6,4.53,1.22,6.72,2,2.49.83,5,1.89,7.4,2.92A67.07,67.07,0,0,0,379.26,414a69.73,69.73,0,0,0,13.26,1c2.78,0,5.65.08,8.44.33,2.36.21,4.78.59,7.13,1a72.86,72.86,0,0,0,11.26,1.17,30.63,30.63,0,0,0,3.32-.17c4.94-.51,9.54-2.29,14-4,2.22-.86,4.31-1.66,6.45-2.33,2.58-.79,5.27-1.4,7.88-2a68,68,0,0,0,12.53-3.69c1.12-.49,2.21-1,3.29-1.65v-2.11a39.43,39.43,0,0,1-4,2.08,66.32,66.32,0,0,1-12.19,3.58c-2.64.6-5.37,1.21-8,2-2.19.68-4.41,1.54-6.56,2.37-4.34,1.67-8.83,3.4-13.52,3.89s-9.46-.26-14.11-1c-2.37-.37-4.83-.76-7.24-1-2.86-.26-5.77-.3-8.59-.34a67.59,67.59,0,0,1-12.91-1,65.16,65.16,0,0,1-12-4.21c-2.45-1-5-2.12-7.54-3-2.24-.75-4.57-1.38-6.83-2-4.43-1.19-9-2.43-13-4.64-3.86-2.12-7.27-5.45-10.57-8.68a82.25,82.25,0,0,0-6.89-6.23,53.78,53.78,0,0,0-5.44-3.59V382a45.84,45.84,0,0,1,4.32,2.9A79.71,79.71,0,0,1,328.34,391Z"/><path class="cls-7" d="M332.84,371.72a64.69,64.69,0,0,1,6.2,5.53c3,3,6.2,6,9.87,7.95a53,53,0,0,0,12.14,4.07c1.87.46,3.81.94,5.65,1.5,2.24.68,4.48,1.56,6.66,2.42a62.63,62.63,0,0,0,10.73,3.48,66.78,66.78,0,0,0,11.51.89c2.51,0,5.11.09,7.62.33,2,.18,4.09.51,6.09.82a65.53,65.53,0,0,0,9.92,1,28.18,28.18,0,0,0,3.17-.17c4.41-.51,8.48-2.18,12.41-3.79,1.86-.77,3.63-1.49,5.43-2.1,2.3-.78,4.71-1.38,7-2A62.89,62.89,0,0,0,458,388.33a61.05,61.05,0,0,0,8.85-5.23v-2.42a66.07,66.07,0,0,1-9.68,5.82,61,61,0,0,1-10.33,3.26c-2.37.6-4.83,1.21-7.2,2-1.86.63-3.74,1.39-5.55,2.14-3.81,1.56-7.74,3.17-11.88,3.65s-8.4-.19-12.55-.84c-2-.32-4.14-.64-6.21-.84-2.59-.24-5.22-.29-7.77-.33a64.62,64.62,0,0,1-11.16-.85,61.27,61.27,0,0,1-10.39-3.38c-2.21-.87-4.5-1.77-6.81-2.48-1.89-.57-3.85-1.06-5.76-1.53-4-1-8.06-2-11.67-3.89-3.42-1.8-6.47-4.75-9.42-7.62a67,67,0,0,0-6.4-5.69,54.56,54.56,0,0,0-7.21-4.29c-3.54-1.86-6.88-3.63-9.53-6.4v2.75a44.55,44.55,0,0,0,8.6,5.42A54.32,54.32,0,0,1,332.84,371.72Z"/><path class="cls-8" d="M322.78,339.81c1.59,3.43,3.24,7,5.84,9.63s5.91,4.19,9.1,5.69a40.93,40.93,0,0,1,6.36,3.43,51.12,51.12,0,0,1,5.64,4.94c2.72,2.62,5.54,5.32,8.81,6.95a45.18,45.18,0,0,0,10.84,3.31c1.51.33,3.08.67,4.56,1.06,2,.53,3.92,1.21,5.95,1.92a60.2,60.2,0,0,0,9.05,2.65,64.06,64.06,0,0,0,9.73.73c2.24.05,4.57.11,6.82.33,1.67.16,3.38.43,5,.68a55.71,55.71,0,0,0,8.57.89,23.7,23.7,0,0,0,3-.19c3.92-.51,7.46-2.08,10.89-3.6,1.5-.67,2.91-1.3,4.36-1.84,2-.76,4.13-1.37,6.18-1.95a58.63,58.63,0,0,0,8.84-3.06,63.3,63.3,0,0,0,8.45-5.05c1.84-1.24,3.75-2.51,5.68-3.61l.28-.15v-2.46c-.45.24-.91.47-1.35.73-2,1.13-3.94,2.43-5.82,3.69a63.7,63.7,0,0,1-8.15,4.89,57.68,57.68,0,0,1-8.53,2.93c-2.09.6-4.25,1.22-6.35,2-1.5.57-3,1.24-4.47,1.89-3.29,1.46-6.69,3-10.29,3.43s-7.17-.1-11-.69c-1.69-.26-3.44-.53-5.17-.7-2.33-.23-4.7-.28-7-.34a61.24,61.24,0,0,1-9.39-.69,58.94,58.94,0,0,1-8.72-2.56c-2-.7-4-1.42-6.11-2-1.54-.41-3.13-.75-4.67-1.09a43.5,43.5,0,0,1-10.32-3.13c-3-1.48-5.67-4.07-8.28-6.57a54.56,54.56,0,0,0-5.89-5.15,43.43,43.43,0,0,0-6.69-3.63c-3.16-1.48-6.15-2.88-8.47-5.24s-3.91-5.76-5.42-9a49.67,49.67,0,0,0-3.7-7,35.61,35.61,0,0,0-3.75-4.48v3.21a24.46,24.46,0,0,1,2,2.49A46.54,46.54,0,0,1,322.78,339.81Z"/><path class="cls-9" d="M320.37,295.36a35.3,35.3,0,0,1,.71,6.67c.14,3.27.29,6.64,1.63,9.59s3.79,5.27,6.12,7.45a31.84,31.84,0,0,1,4.43,4.7,36.4,36.4,0,0,1,3.09,5.91c1.37,3,2.78,6.18,5.12,8.44s5.28,3.43,8.13,4.56a30.6,30.6,0,0,1,5.73,2.73,39.61,39.61,0,0,1,5.06,4.32c2.4,2.28,4.88,4.64,7.77,6h0a37.94,37.94,0,0,0,9.58,2.54c1.19.21,2.32.4,3.45.64,1.78.37,3.5.88,5.31,1.41a56.54,56.54,0,0,0,7.28,1.81,62,62,0,0,0,7.87.57c2,.07,4.08.13,6.08.34,1.33.14,2.69.35,4,.55a47.51,47.51,0,0,0,7.25.74,19.82,19.82,0,0,0,2.88-.2,31.9,31.9,0,0,0,9.36-3.44c1.14-.56,2.22-1.09,3.31-1.56,1.74-.76,3.58-1.38,5.36-2a58.35,58.35,0,0,0,7-2.68,62.75,62.75,0,0,0,6.83-4.07c1.67-1.09,3.39-2.21,5.12-3.17,1.16-.64,2.39-1.24,3.57-1.83,1.49-.74,3-1.49,4.44-2.33V340.3a54.42,54.42,0,0,1-5.48,3c-1.2.6-2.45,1.21-3.65,1.88-1.81,1-3.57,2.15-5.27,3.26a60.89,60.89,0,0,1-6.58,3.92,56.68,56.68,0,0,1-6.68,2.57c-1.82.62-3.71,1.25-5.54,2-1.14.5-2.3,1.07-3.42,1.62a29.79,29.79,0,0,1-8.66,3.22c-3,.45-6.14,0-9.44-.54-1.34-.2-2.73-.42-4.11-.56-2.1-.22-4.21-.28-6.26-.35a60.17,60.17,0,0,1-7.57-.54,57.12,57.12,0,0,1-7-1.74c-1.78-.53-3.62-1.07-5.49-1.47-1.17-.24-2.37-.45-3.54-.65a35.65,35.65,0,0,1-9-2.36c-2.54-1.17-4.87-3.39-7.13-5.54a42.52,42.52,0,0,0-5.38-4.58,32.51,32.51,0,0,0-6.16-2.95c-2.76-1.09-5.37-2.12-7.37-4.06s-3.27-4.76-4.61-7.73a37.67,37.67,0,0,0-3.32-6.29,33,33,0,0,0-4.74-5.07c-2.26-2.12-4.4-4.11-5.58-6.7s-1.29-5.55-1.43-8.73a36.1,36.1,0,0,0-.78-7.12,34.57,34.57,0,0,0-2.55-6.49,26.34,26.34,0,0,1-2.78-8.07v7.62l.67,1.44A33.2,33.2,0,0,1,320.37,295.36Z"/><path class="cls-9" d="M319,267.11c.23-1.57.37-3.15.5-4.68a37.61,37.61,0,0,1,1.23-7.87,41.31,41.31,0,0,1,3-6.74,53.9,53.9,0,0,0,2.44-5.08c.11-.27.21-.54.31-.82l-2.86.86c-.58,1.32-1.25,2.61-1.95,4a41.94,41.94,0,0,0-3.18,7.13,34.46,34.46,0,0,0-1.2,6.93v16.14a53.32,53.32,0,0,1,1-5.9C318.53,269.75,318.8,268.42,319,267.11Z"/><path class="cls-9" d="M464.27,206.82c.85.54,1.7,1.09,2.54,1.65v-2.79l-1.3-.83c-1.08-.68-2.2-1.39-3.24-2.11-.56-.39-1.12-.82-1.68-1.25l-2.72.83c1,.79,2,1.59,3.07,2.33S463.17,206.13,464.27,206.82Z"/><path class="cls-10" d="M447.1,213c.95.7,1.94,1.42,3,2.08.79.49,1.59,1,2.41,1.45a29.36,29.36,0,0,1,5.84,4.08c1.63,1.59,2.67,3.93,3.77,6.42a29.68,29.68,0,0,0,3,5.66,15,15,0,0,0,1.72,1.93v-3.85a31.13,31.13,0,0,1-2.44-4.76c-1.15-2.58-2.33-5.26-4.3-7.19a31.64,31.64,0,0,0-6.33-4.45c-.79-.46-1.57-.92-2.33-1.4-1-.61-1.88-1.28-2.84-2a31.63,31.63,0,0,0-5.57-3.5c-.34-.15-.68-.29-1-.42l-4.23,1.27a28,28,0,0,1,4.23,1.43A29.73,29.73,0,0,1,447.1,213Z"/><path class="cls-10" d="M338.73,246.89a42.93,42.93,0,0,1-2,4.07,36.24,36.24,0,0,0-2.49,5.43,32.8,32.8,0,0,0-1.28,6.68c-.14,1.15-.29,2.34-.5,3.49-.16.91-.37,1.82-.57,2.74a28.08,28.08,0,0,0-1,7.81c.16,2.9,1.52,5.51,2.83,8a24.27,24.27,0,0,1,2.22,5.15,25.3,25.3,0,0,1,.48,5.77c0,2.84.05,5.76,1.25,8.31s3.42,4.42,5.55,6.18a23,23,0,0,1,4,3.85,26.38,26.38,0,0,1,2.64,5.12c1.15,2.65,2.34,5.39,4.42,7.29s4.69,2.7,7.22,3.47a21.87,21.87,0,0,1,5,2,29.19,29.19,0,0,1,4.44,3.68c2.09,2,4.24,4,6.78,5a29.52,29.52,0,0,0,8.37,1.72c.78.08,1.55.16,2.31.26,1.63.21,3.2.54,4.86.9s3.43.73,5.29,1,3.9.32,5.85.4,3.68.15,5.5.35c1,.11,2,.26,3,.42a39.61,39.61,0,0,0,5.95.61,15.56,15.56,0,0,0,2.73-.23,24.27,24.27,0,0,0,7.82-3.32c.77-.44,1.52-.87,2.28-1.27,1.51-.78,3-1.42,4.67-2.09s3.27-1.36,4.91-2.21,3.42-2,5.07-3,3.1-2,4.69-2.8c.86-.46,1.74-.89,2.61-1.31a21,21,0,0,0,11.89-10.92c.41-.71.82-1.41,1.24-2.1v-4.42c-.65.89-1.32,1.81-1.93,2.78-.51.8-1,1.64-1.48,2.49a18.57,18.57,0,0,1-10.81,9.92c-.9.44-1.8.88-2.69,1.35-1.67.89-3.29,1.91-4.86,2.89s-3.25,2.06-4.87,2.89-3.17,1.47-4.73,2.12-3.26,1.35-4.86,2.19c-.79.41-1.58.85-2.37,1.31a22.38,22.38,0,0,1-7,3,24.62,24.62,0,0,1-7.86-.39c-1-.16-2-.32-3.06-.44-1.91-.21-3.83-.28-5.68-.36s-3.86-.15-5.63-.38-3.45-.59-5.08-.94-3.34-.72-5.07-.94q-1.17-.15-2.37-.27a27.87,27.87,0,0,1-7.69-1.54c-2.1-.87-4.09-2.73-6-4.53a31.21,31.21,0,0,0-4.85-4,24.48,24.48,0,0,0-5.62-2.23c-2.37-.72-4.6-1.4-6.26-2.92s-2.72-3.92-3.81-6.45a28.35,28.35,0,0,0-2.93-5.6,25,25,0,0,0-4.42-4.3c-2-1.66-3.9-3.22-4.88-5.31s-1-4.59-1-7.27a27.54,27.54,0,0,0-.55-6.35A26.64,26.64,0,0,0,336,284c-1.24-2.4-2.42-4.66-2.55-7a26.66,26.66,0,0,1,.93-7.11c.22-1,.43-1.9.6-2.84.22-1.22.37-2.45.52-3.64a30.69,30.69,0,0,1,1.17-6.19,34.9,34.9,0,0,1,2.33-5.06,41.86,41.86,0,0,0,2.08-4.32,44.2,44.2,0,0,0,1.43-4.64,33.16,33.16,0,0,1,1.68-5.13,17.44,17.44,0,0,1,.91-1.71l-3.32,1a39.22,39.22,0,0,0-1.68,5.19A44.53,44.53,0,0,1,338.73,246.89Z"/><path class="cls-11" d="M359.73,236.73c-.24.45-.47.91-.71,1.35-.38.71-.79,1.4-1.23,2.12a25.5,25.5,0,0,0-2.27,4.35,30.33,30.33,0,0,0-1.08,3.8,27.82,27.82,0,0,1-1,3.55,29,29,0,0,1-1.6,3.28,33.29,33.29,0,0,0-1.79,3.7,28.13,28.13,0,0,0-1.25,5c-.15.81-.3,1.63-.49,2.44-.13.54-.27,1.09-.41,1.63a21,21,0,0,0-1,6.31c.12,2.49,1.4,4.65,2.64,6.75a17,17,0,0,1,2,4.19,17.5,17.5,0,0,1,.23,4.82c-.09,2.42-.19,4.92.88,7.08s3.09,3.61,5,5a16,16,0,0,1,3.53,3,18.2,18.2,0,0,1,2.17,4.28c.93,2.28,1.9,4.65,3.75,6.2s4.15,2,6.37,2.39a15,15,0,0,1,4.32,1.22,20.05,20.05,0,0,1,3.76,3c1.79,1.66,3.63,3.36,5.85,4.11a21.24,21.24,0,0,0,7.24.77h1.15c1.77,0,3.52.17,5.36.34l2.29.21c1,.08,2.08.13,3.16.18,1.82.09,3.71.18,5.54.41.64.08,1.28.18,1.93.28a30.7,30.7,0,0,0,4.69.49,11.6,11.6,0,0,0,2.56-.27,17.58,17.58,0,0,0,6.28-3.29c.44-.31.86-.62,1.29-.91a51.09,51.09,0,0,1,4.57-2.67c.74-.41,1.49-.81,2.24-1.24s1.77-1,2.68-1.59c1.58-.94,3.21-1.93,4.86-2.75l1.64-.79a20.45,20.45,0,0,0,6.26-3.93,20.05,20.05,0,0,0,3.34-5.24c.26-.5.5-1,.76-1.49.38-.71.8-1.39,1.24-2.11a26.63,26.63,0,0,0,2.27-4.35,29.11,29.11,0,0,0,1.07-3.8,29.21,29.21,0,0,1,1-3.56,28.14,28.14,0,0,1,1.6-3.28,33.25,33.25,0,0,0,1.78-3.7,28.06,28.06,0,0,0,1.26-5c.15-.81.3-1.63.49-2.44.12-.55.27-1.1.41-1.65s.25-.93.36-1.41v-7.67a24.65,24.65,0,0,0-2-4,16.71,16.71,0,0,1-2-4.2,17.42,17.42,0,0,1-.23-4.81c.09-2.42.18-4.92-.88-7.09s-3.09-3.61-5-4.95a16.26,16.26,0,0,1-3.53-3,19.67,19.67,0,0,1-2.25-4.35c-.93-2.22-1.9-4.52-3.63-6.1a23.93,23.93,0,0,0-5.35-3.38l-1.36-.7c-.71-.38-1.39-.79-2.11-1.23a26.26,26.26,0,0,0-4.35-2.28,32.61,32.61,0,0,0-3.8-1.07,29.21,29.21,0,0,1-3.56-1,28,28,0,0,1-3.28-1.59,31.67,31.67,0,0,0-3.7-1.79L419,214l-5.14,1.55.38.07a26.67,26.67,0,0,1,4.54,1.12,29.39,29.39,0,0,1,3.39,1.65,31.46,31.46,0,0,0,3.6,1.74,32.63,32.63,0,0,0,3.88,1.1,27.45,27.45,0,0,1,3.48,1,23.19,23.19,0,0,1,3.9,2.06c.72.44,1.47.89,2.25,1.31l1.4.72a21.43,21.43,0,0,1,4.76,3c1.3,1.19,2.11,3.11,3,5.16a21.5,21.5,0,0,0,2.61,5,18.12,18.12,0,0,0,4.11,3.5c1.73,1.21,3.37,2.35,4.15,3.94s.69,3.63.61,5.81a19.93,19.93,0,0,0,.31,5.57,19.46,19.46,0,0,0,2.31,4.91c1.13,1.89,2.18,3.68,2.27,5.51a18.29,18.29,0,0,1-.88,5.5c-.15.57-.3,1.14-.43,1.71-.2.85-.36,1.71-.52,2.57A24.91,24.91,0,0,1,461.8,283a30.12,30.12,0,0,1-1.64,3.39,30.48,30.48,0,0,0-1.74,3.59,31.48,31.48,0,0,0-1.1,3.89,29.22,29.22,0,0,1-1,3.48,23.94,23.94,0,0,1-2.06,3.9c-.44.72-.89,1.47-1.31,2.25-.27.5-.53,1-.79,1.54a17.9,17.9,0,0,1-2.88,4.59,18.53,18.53,0,0,1-5.48,3.37c-.56.26-1.13.53-1.69.81-1.75.88-3.42,1.88-5,2.86-.89.54-1.76,1.06-2.62,1.55s-1.48.82-2.2,1.21c-1.59.86-3.23,1.75-4.8,2.81l-1.34.95a15.36,15.36,0,0,1-5.31,2.86,17.49,17.49,0,0,1-6.27-.25c-.66-.11-1.33-.21-2-.3-1.93-.24-3.87-.33-5.74-.42-1.06-.06-2.09-.11-3.08-.18l-2.24-.2c-1.88-.18-3.66-.35-5.54-.35H394.7a19.33,19.33,0,0,1-6.36-.64c-1.67-.56-3.31-2.07-4.89-3.53a22.2,22.2,0,0,0-4.32-3.4,17.39,17.39,0,0,0-5.09-1.49c-2-.36-3.83-.7-5.14-1.8s-2.14-3.09-3-5.17a20.82,20.82,0,0,0-2.54-4.92,18.12,18.12,0,0,0-4.11-3.5c-1.74-1.21-3.38-2.35-4.16-3.94s-.69-3.63-.6-5.81a20,20,0,0,0-.31-5.57,19.1,19.1,0,0,0-2.32-4.9c-1.12-1.9-2.18-3.69-2.26-5.52a18.34,18.34,0,0,1,.88-5.5c.15-.57.29-1.14.43-1.7.2-.86.36-1.71.51-2.57a26.67,26.67,0,0,1,1.12-4.54,30.26,30.26,0,0,1,1.65-3.39,32.29,32.29,0,0,0,1.74-3.6A31.48,31.48,0,0,0,357,249a29,29,0,0,1,1-3.47,23.62,23.62,0,0,1,2.06-3.91c.44-.72.89-1.46,1.31-2.24l.72-1.4a21.63,21.63,0,0,1,3-4.77c1.19-1.3,3.12-2.11,5.16-3a21.86,21.86,0,0,0,5-2.6c.21-.17.4-.36.6-.54l-11.94,3.6a8.5,8.5,0,0,0-.75.72A23.1,23.1,0,0,0,359.73,236.73Z"/><path class="cls-12" d="M373,242.86a14.77,14.77,0,0,0-2.24,4.61l-.08.22c-.15.45-.32.89-.49,1.34a22.38,22.38,0,0,0-1,3.18c-.15.63-.25,1.28-.36,1.94a15.8,15.8,0,0,1-.61,2.78,15.58,15.58,0,0,1-1.26,2.52c-.34.6-.69,1.21-1,1.86a25.91,25.91,0,0,0-1.28,3.41c-.14.44-.28.88-.43,1.31l-.17.49a13.16,13.16,0,0,0-1.05,4.92c.07,2.12,1.35,3.94,2.48,5.54a11,11,0,0,1,1.79,3.18,11.41,11.41,0,0,1,0,3.78c-.22,2-.44,4.13.51,5.95s2.89,2.88,4.58,3.78a10.6,10.6,0,0,1,3,2,12,12,0,0,1,1.65,3.39c.73,1.94,1.48,3.95,3.14,5.17s3.76,1.26,5.61,1.3a10.16,10.16,0,0,1,3.52.46,12.43,12.43,0,0,1,3,2.27c1.51,1.38,3.08,2.8,5,3.23h0a8.1,8.1,0,0,0,1.82.19,18.39,18.39,0,0,0,4.38-.7,21.59,21.59,0,0,1,5.06-.75,36.37,36.37,0,0,1,5.95.44l.87.13a12.7,12.7,0,0,0,5.94.05,11.32,11.32,0,0,0,4.67-3.48l.41-.44a23.65,23.65,0,0,1,4-3.43,35.93,35.93,0,0,1,5.24-2.84l.65-.29a13.43,13.43,0,0,0,5.17-3.24,13.06,13.06,0,0,0,2.18-4.43l.15-.44c.16-.44.32-.88.49-1.32a24.35,24.35,0,0,0,1-3.19c.14-.63.25-1.28.35-1.94a17.83,17.83,0,0,1,.61-2.78,15.67,15.67,0,0,1,1.27-2.52c.34-.6.69-1.21,1-1.86a24.49,24.49,0,0,0,1.27-3.41c.14-.43.29-.87.44-1.31l.17-.48a13.46,13.46,0,0,0,1.05-4.93c-.08-2.12-1.35-3.94-2.48-5.54a10.8,10.8,0,0,1-1.79-3.18,11.41,11.41,0,0,1,0-3.78c.21-2,.43-4.13-.52-6s-2.89-2.88-4.58-3.78a10.89,10.89,0,0,1-3-2,12.53,12.53,0,0,1-1.71-3.44c-.73-1.88-1.48-3.83-3-5.08a14.54,14.54,0,0,0-4.63-2.24l-.21-.07-1.32-.49a22.94,22.94,0,0,0-3.19-1c-.63-.15-1.28-.25-1.94-.36a15.92,15.92,0,0,1-2.79-.61,15.5,15.5,0,0,1-2.51-1.26c-.6-.34-1.21-.69-1.86-1a25.91,25.91,0,0,0-3.41-1.28l-1.31-.43-.48-.17a13.88,13.88,0,0,0-4.93-1.05c-2.12.07-3.94,1.35-5.54,2.48A11,11,0,0,1,397,230a11.47,11.47,0,0,1-3.79,0c-2-.21-4.12-.43-5.94.52s-2.88,2.88-3.78,4.57a10.81,10.81,0,0,1-2,3,12.53,12.53,0,0,1-3.44,1.71C376.16,240.55,374.21,241.3,373,242.86Zm6.1-.4a14.35,14.35,0,0,0,4.26-2.2,12.72,12.72,0,0,0,2.68-3.83c.78-1.45,1.51-2.83,2.59-3.39a4.26,4.26,0,0,1,2-.38,22.23,22.23,0,0,1,2.34.17,13.75,13.75,0,0,0,4.79-.06,13.08,13.08,0,0,0,4.1-2.21c1.4-1,2.73-1.92,4-2a10.93,10.93,0,0,1,3.9.9l.49.17,1.38.45a23.68,23.68,0,0,1,3,1.13c.56.28,1.11.59,1.69.92a19.69,19.69,0,0,0,3,1.48,18.4,18.4,0,0,0,3.28.73c.6.1,1.19.19,1.76.32a19.67,19.67,0,0,1,2.81.93c.47.17.93.35,1.41.51l.21.08a12.22,12.22,0,0,1,3.78,1.77c1,.77,1.55,2.29,2.17,3.89a14.35,14.35,0,0,0,2.2,4.26,12.8,12.8,0,0,0,3.82,2.68c1.46.78,2.84,1.51,3.4,2.59s.39,2.65.21,4.34a13.52,13.52,0,0,0,.06,4.79,13,13,0,0,0,2.21,4.1c1,1.4,1.92,2.73,2,4a10.91,10.91,0,0,1-.89,3.9l-.17.49q-.24.69-.45,1.38a24.06,24.06,0,0,1-1.13,3c-.28.56-.59,1.11-.92,1.69a19.69,19.69,0,0,0-1.48,3,18.4,18.4,0,0,0-.73,3.28c-.1.6-.19,1.19-.32,1.76a21,21,0,0,1-.93,2.81l-.52,1.41-.15.45a10.78,10.78,0,0,1-1.66,3.51,11.53,11.53,0,0,1-4.14,2.48l-.67.29a38,38,0,0,0-5.67,3.08,26.61,26.61,0,0,0-4.46,3.83l-.42.46a8.94,8.94,0,0,1-3.46,2.71,10.76,10.76,0,0,1-4.62-.14l-.9-.14a39,39,0,0,0-6.43-.47,24.64,24.64,0,0,0-5.75.84,11,11,0,0,1-4.85.49h0c-1.21-.27-2.49-1.44-3.73-2.57a14.56,14.56,0,0,0-3.79-2.78,12.09,12.09,0,0,0-4.57-.68c-1.57,0-3.05-.06-4-.75s-1.56-2.26-2.17-3.89a13.84,13.84,0,0,0-2.15-4.23,12.72,12.72,0,0,0-3.83-2.68c-1.45-.78-2.83-1.51-3.39-2.59s-.39-2.65-.21-4.34a13.52,13.52,0,0,0-.06-4.79,12.8,12.8,0,0,0-2.22-4.1c-1-1.4-1.91-2.73-2-4a11.08,11.08,0,0,1,.89-3.89l.18-.5c.16-.46.3-.92.45-1.38a22.61,22.61,0,0,1,1.13-3c.27-.56.59-1.11.92-1.69a19.69,19.69,0,0,0,1.48-3,18.4,18.4,0,0,0,.73-3.28c.1-.6.19-1.19.32-1.76a21,21,0,0,1,.92-2.81c.18-.47.36-.93.52-1.41l.08-.22a12.16,12.16,0,0,1,1.77-3.77C375.94,243.67,377.46,243.08,379.06,242.46Z"/><path class="cls-13" d="M382.84,275.1a6.87,6.87,0,0,1-.26,2.65c-.34,1.6-.73,3.41.16,4.94s2.67,2.12,4.23,2.62a3.71,3.71,0,0,1,3.47,3.47c.5,1.56,1.08,3.34,2.62,4.23s3.34.5,4.94.17a6.74,6.74,0,0,1,2.66-.27,6.93,6.93,0,0,1,2.06,1.5c1.23,1.12,2.63,2.38,4.46,2.38s3.22-1.26,4.46-2.38a3.65,3.65,0,0,1,4.72-1.23c1.6.33,3.4.72,4.93-.17s2.12-2.67,2.63-4.23a3.69,3.69,0,0,1,3.46-3.47c1.57-.5,3.34-1.07,4.24-2.62s.5-3.34.16-4.94a6.87,6.87,0,0,1-.26-2.65A6.66,6.66,0,0,1,433,273c1.11-1.23,2.38-2.63,2.38-4.46s-1.27-3.22-2.38-4.46a6.64,6.64,0,0,1-1.5-2.06,6.93,6.93,0,0,1,.26-2.66c.34-1.59.72-3.4-.16-4.93s-2.67-2.12-4.24-2.63a3.67,3.67,0,0,1-3.46-3.46c-.51-1.57-1.08-3.34-2.63-4.24s-3.34-.5-4.93-.16a6.93,6.93,0,0,1-2.66.26,6.64,6.64,0,0,1-2.06-1.5c-1.24-1.11-2.63-2.38-4.46-2.38s-3.23,1.27-4.46,2.38a6.76,6.76,0,0,1-2.06,1.5A6.92,6.92,0,0,1,398,244c-1.6-.34-3.41-.72-4.93.16s-2.13,2.67-2.63,4.24a3.69,3.69,0,0,1-3.46,3.46c-1.57.51-3.35,1.08-4.24,2.63s-.5,3.34-.16,4.93a3.69,3.69,0,0,1-1.24,4.73c-1.12,1.23-2.38,2.63-2.38,4.45s1.26,3.23,2.38,4.46A6.83,6.83,0,0,1,382.84,275.1Zm.72-9a6.38,6.38,0,0,0,1.95-7.36c-.23-1.07-.48-2.28-.17-2.81s1.51-.93,2.56-1.27a6.4,6.4,0,0,0,5.39-5.4c.34-1,.73-2.24,1.28-2.56s1.74,0,2.81.18a8.84,8.84,0,0,0,4.05.22,8.41,8.41,0,0,0,3.3-2.17c.83-.75,1.78-1.61,2.45-1.61s1.61.86,2.45,1.61a8.41,8.41,0,0,0,3.3,2.17,8.71,8.71,0,0,0,4.05-.22c1.07-.23,2.28-.49,2.81-.18s.94,1.51,1.28,2.56a6.4,6.4,0,0,0,5.39,5.4c1.05.34,2.24.72,2.56,1.27s.05,1.74-.17,2.81a8.75,8.75,0,0,0-.23,4.06,8.55,8.55,0,0,0,2.17,3.3c.75.83,1.61,1.77,1.61,2.44s-.86,1.62-1.61,2.45a8.41,8.41,0,0,0-2.17,3.3,8.71,8.71,0,0,0,.23,4.05c.22,1.07.48,2.28.17,2.82s-1.51.93-2.56,1.27a6.42,6.42,0,0,0-5.4,5.4c-.33,1.05-.72,2.24-1.27,2.56s-1.74.05-2.81-.18a8.71,8.71,0,0,0-4.05-.22,8.41,8.41,0,0,0-3.3,2.17c-.84.75-1.78,1.6-2.45,1.6s-1.62-.85-2.45-1.6a8.41,8.41,0,0,0-3.3-2.17,4.88,4.88,0,0,0-1.32-.17,13.41,13.41,0,0,0-2.73.39c-1.07.23-2.28.48-2.81.18s-.94-1.51-1.28-2.57a6.43,6.43,0,0,0-5.39-5.39c-1.06-.34-2.25-.72-2.57-1.28s-.05-1.74.18-2.81a8.71,8.71,0,0,0,.23-4.05,8.54,8.54,0,0,0-2.18-3.3c-.75-.83-1.6-1.78-1.6-2.45S382.81,267,383.56,266.13Z"/><g id="Fill"><polygon class="cls-14" points="136.04 353.27 136.04 418.73 224.59 445.3 251.87 437.11 251.87 371.64 163.33 345.09 136.04 353.27"/><path class="cls-14" d="M381.47,246.93l-12.62,3.78v9.54c0,4.52,3,9.31,6.93,10.52L443,291c2.38.72,5.62-.46,5.62-1.15V267Z"/></g><g id="Outline"><path class="cls-15" d="M253.28,371.13a1.85,1.85,0,0,0-.19-.37l-.05-.05a1.2,1.2,0,0,0-.28-.27l0,0a1.76,1.76,0,0,0-.39-.19l0,0-14-4.19v-1.38a1.5,1.5,0,0,0-3,0v.48l-71.57-21.45a1.4,1.4,0,0,0-.86,0l-27.29,8.18-.09,0-.11.05-.2.11-.06,0,0,0a1.84,1.84,0,0,0-.2.19l0,0a1,1,0,0,0-.17.27.2.2,0,0,0,0,.08,1.43,1.43,0,0,0-.08.22s0,.07,0,.11a1.52,1.52,0,0,0,0,.21v65.52a1.49,1.49,0,0,0,1.06,1.43l88.55,26.57a1.25,1.25,0,0,0,.43.07h0a1.23,1.23,0,0,0,.42-.07l27.28-8.18a1.49,1.49,0,0,0,1.07-1.43V371.64a1.25,1.25,0,0,0-.07-.43A.24.24,0,0,0,253.28,371.13Zm-19.15,38.24V388.5l11.8-3.54v20.87Zm12.8-24.71,3.44-1V404.5l-3.44,1Zm-83.6-38,83.32,25-5.91,1.77-83.32-25ZM194.52,391l28.57,8.57v3.75l-28.57-8.57Zm28.57,7.52-28.57-8.57v-3.76l28.57,8.58Zm-28.57-2.73,28.57,8.58v3.75l-28.57-8.57Zm28.57-2.07-28.57-8.57v-2.71L223.09,391Zm-28.57,6.87,28.57,8.58v2.71l-28.57-8.57Zm30-22.27-83.28-25L155.68,349l83.32,25Zm-87,39.34V355.29L223.09,381v6.87l-29.64-8.89a1.49,1.49,0,0,0-1.32.23,1.5,1.5,0,0,0-.61,1.2v24a1.51,1.51,0,0,0,1.07,1.44l30.5,9.15v28.32Zm88.54,25.67V380.94l24.28-7.29v6.85L232.2,386a1.48,1.48,0,0,0-1.07,1.43v24a1.5,1.5,0,0,0,1.5,1.5,1.59,1.59,0,0,0,.43-.06l17.31-5.19V436Z"/><path class="cls-15" d="M161.36,371.12c-10.33,1-17.74,12.09-16.5,24.67a25.63,25.63,0,0,0,7,15.49,17.51,17.51,0,0,0,12.48,5.56c.51,0,1,0,1.55-.07,10.34-1,17.74-12.09,16.51-24.67S171.71,370.12,161.36,371.12Zm17.82,27.58-14.77-4.55-.07-.11,11.73-11.68a23.76,23.76,0,0,1,3.3,10A24.93,24.93,0,0,1,179.18,398.7Zm-3.67-17.2-11.4,11.35V374.12C168.58,374.55,172.67,377.31,175.51,381.5Zm-13.85-7.39c.41,0,.83-.06,1.24-.06h.21v18.06l-9.25-14.39A13.46,13.46,0,0,1,161.66,374.11Zm-8.53,4.33,9.79,15.25-14.86-4.58A20.17,20.17,0,0,1,153.13,378.44Zm-5.21,11.67,14.46,4.46-11.15,11.1a23.58,23.58,0,0,1-3.38-10.17A24.81,24.81,0,0,1,147.92,390.11Zm3.87,16.42,11.32-11.27v18.5a14.82,14.82,0,0,1-9.15-4.59A18.48,18.48,0,0,1,151.79,406.53Zm13.77,7.25a11.78,11.78,0,0,1-1.45.05v-18.3l9.33,14.54A13.41,13.41,0,0,1,165.56,413.78Zm8.62-4.42-8.94-13.91L179,399.69A20.12,20.12,0,0,1,174.18,409.36Z"/><circle class="cls-15" cx="243.93" cy="430.42" r="2.5"/><path class="cls-15" d="M450.11,267A1.48,1.48,0,0,0,449,265.6l-11.28-3.38v-1.39a1.5,1.5,0,1,0-3,0v.49L381.92,245.5h-.08a.85.85,0,0,0-.22,0h-.3l-.15,0-.13,0-12.62,3.79a1.49,1.49,0,0,0-1.07,1.43v9.54c0,5.32,3.51,10.57,8,12l67.2,20.17a7.29,7.29,0,0,0,2.12.3,8.36,8.36,0,0,0,4.52-1.25,2.06,2.06,0,0,0,.89-1.32,1.55,1.55,0,0,0,0-.31ZM436,270.35l-63.66-19.11,9.14-2.75,63.75,19.09Zm.5.89L447,268.1l.15,0v21a6.56,6.56,0,0,1-2.24.49,9.3,9.3,0,0,1-8.38-9.26Zm-66.14-11v-8.42l.24-.07,64.9,19.48v9.17a10.21,10.21,0,0,0,3.59,7.8l-3.43-1a.45.45,0,0,0-.22-.16,9.45,9.45,0,0,1-6.48-7.65s0,0,0-.07,0-.07,0-.1l-.06-.07a.27.27,0,0,0-.07-.08l-.07,0-.09-.05L376,263.18h-.21a.6.6,0,0,0-.19.06l0,0a.81.81,0,0,0-.1.09.31.31,0,0,0-.05.1l0,.06h0s0,.07,0,.1a.33.33,0,0,0,0,.1h0a10.4,10.4,0,0,0,3.32,6.36l-2.47-.74C373,268.36,370.35,264.2,370.35,260.25Zm12.37,11a9.33,9.33,0,0,1-4.67-3.45l51.21,15.37a10.6,10.6,0,0,0,2.22,2.72ZM428,279.84a10.34,10.34,0,0,0,.63,2.14l-51.38-15.42a9.24,9.24,0,0,1-.76-2.18Z"/><path class="cls-15" d="M377.92,258.35a1.77,1.77,0,1,0-1.77,1.77A1.77,1.77,0,0,0,377.92,258.35Z"/><path class="cls-15" d="M238.33,321.06a1.5,1.5,0,0,0-3,0v4.84a1.5,1.5,0,0,0,3,0Z"/><path class="cls-15" d="M236.83,348.61a1.5,1.5,0,0,0-1.5,1.5V355a1.5,1.5,0,0,0,3,0v-4.84A1.5,1.5,0,0,0,236.83,348.61Z"/><path class="cls-15" d="M238.33,335.58a1.5,1.5,0,0,0-3,0v4.84a1.5,1.5,0,0,0,3,0Z"/><path class="cls-15" d="M238.33,306.53a1.5,1.5,0,0,0-3,0v4.84a1.5,1.5,0,0,0,3,0Z"/><path class="cls-15" d="M238.33,292a1.5,1.5,0,0,0-3,0v4.84a1.5,1.5,0,0,0,3,0Z"/><path class="cls-15" d="M238.33,248.43a1.5,1.5,0,0,0-3,0v4.84a1.5,1.5,0,0,0,3,0Z"/><path class="cls-15" d="M238.33,277.48a1.5,1.5,0,0,0-3,0v4.84a1.5,1.5,0,0,0,3,0Z"/><path class="cls-15" d="M238.33,263a1.5,1.5,0,0,0-3,0v4.84a1.5,1.5,0,0,0,3,0Z"/><path class="cls-15" d="M234,237l1.32.4v1.38a1.5,1.5,0,0,0,3,0v-2.5a1.5,1.5,0,0,0-1.06-1.44l-2.4-.72a1.52,1.52,0,0,0-1.87,1A1.5,1.5,0,0,0,234,237Z"/><path class="cls-15" d="M149,211.48l4.73,1.41a1.25,1.25,0,0,0,.43.07,1.5,1.5,0,0,0,.43-2.94l-4.73-1.42a1.5,1.5,0,0,0-.86,2.88Z"/><path class="cls-15" d="M177.34,220l4.72,1.42a1.59,1.59,0,0,0,.43.06,1.51,1.51,0,0,0,1.44-1.07,1.49,1.49,0,0,0-1-1.86l-4.72-1.42a1.5,1.5,0,1,0-.86,2.87Z"/><path class="cls-15" d="M219.84,232.72l4.72,1.42a1.65,1.65,0,0,0,.43.06,1.5,1.5,0,0,0,.43-2.94l-4.72-1.41a1.5,1.5,0,1,0-.86,2.87Z"/><path class="cls-15" d="M163.17,215.72l4.72,1.42a1.65,1.65,0,0,0,.43.06,1.5,1.5,0,0,0,.43-2.93L164,212.85a1.5,1.5,0,1,0-.86,2.87Z"/><path class="cls-15" d="M205.67,228.47l4.73,1.42a1.54,1.54,0,0,0,.43.06,1.5,1.5,0,0,0,.43-2.94l-4.73-1.41a1.5,1.5,0,0,0-.86,2.87Z"/><path class="cls-15" d="M139.56,208.64a1.29,1.29,0,0,0,.43.07,1.5,1.5,0,0,0,.43-2.94l-4.72-1.42a1.5,1.5,0,0,0-.87,2.88Z"/><path class="cls-15" d="M191.51,224.22l4.72,1.42a1.59,1.59,0,0,0,.43.06,1.5,1.5,0,0,0,.43-2.93l-4.72-1.42a1.5,1.5,0,1,0-.86,2.87Z"/><path class="cls-15" d="M126.25,201.52l-1.32-.4v-1.38a1.5,1.5,0,0,0-3,0v2.5a1.5,1.5,0,0,0,1.06,1.44l2.4.72a1.59,1.59,0,0,0,.43.06,1.5,1.5,0,0,0,.43-2.94Z"/><path class="cls-15" d="M123.43,190.22a1.5,1.5,0,0,0,1.5-1.5v-5.51a1.5,1.5,0,1,0-3,0v5.51A1.5,1.5,0,0,0,123.43,190.22Z"/><path class="cls-15" d="M123.43,173.68a1.5,1.5,0,0,0,1.5-1.5v-5.51a1.5,1.5,0,0,0-3,0v5.51A1.5,1.5,0,0,0,123.43,173.68Z"/><path class="cls-15" d="M123.43,157.15a1.5,1.5,0,0,0,1.5-1.5v-1.39l1.32-.4a1.5,1.5,0,1,0-.87-2.87l-2.39.72a1.51,1.51,0,0,0-1.06,1.44v2.5A1.5,1.5,0,0,0,123.43,157.15Z"/><path class="cls-15" d="M253.3,112.24l-4.74,1.44a1.5,1.5,0,0,0,.43,2.94,1.35,1.35,0,0,0,.44-.07l4.74-1.43a1.5,1.5,0,0,0-.87-2.88Z"/><path class="cls-15" d="M405,133.84l4.74,1.42a1.59,1.59,0,0,0,.43.06,1.5,1.5,0,0,0,.43-2.94L405.85,131a1.5,1.5,0,0,0-1.87,1A1.52,1.52,0,0,0,405,133.84Z"/><path class="cls-15" d="M419.21,138.1l4.75,1.42a1.25,1.25,0,0,0,.43.07,1.5,1.5,0,0,0,.43-2.94l-4.75-1.42a1.5,1.5,0,0,0-.86,2.87Z"/><path class="cls-15" d="M220.57,125.23a1.29,1.29,0,0,0,.43-.07l4.74-1.43a1.5,1.5,0,0,0,1-1.87,1.48,1.48,0,0,0-1.87-1l-4.74,1.43a1.5,1.5,0,0,0,.44,2.94Z"/><path class="cls-15" d="M234.78,120.92a1.72,1.72,0,0,0,.44-.06l4.73-1.44a1.5,1.5,0,0,0-.87-2.87L234.35,118a1.5,1.5,0,0,0,.43,2.93Z"/><path class="cls-15" d="M390.77,129.57l4.74,1.42a1.55,1.55,0,0,0,.43.07,1.5,1.5,0,0,0,.43-2.94l-4.74-1.42a1.5,1.5,0,1,0-.86,2.87Z"/><path class="cls-15" d="M376.54,125.3l4.74,1.43a1.65,1.65,0,0,0,.43.06,1.5,1.5,0,0,0,.43-2.94l-4.74-1.42a1.5,1.5,0,1,0-.86,2.87Z"/><path class="cls-15" d="M311,102.53l-4.74-1.43a1.5,1.5,0,1,0-.86,2.88l4.74,1.42a1.59,1.59,0,0,0,.43.06,1.51,1.51,0,0,0,1.44-1.07A1.49,1.49,0,0,0,311,102.53Z"/><path class="cls-15" d="M325.25,106.79l-4.75-1.42a1.5,1.5,0,0,0-.86,2.87l4.74,1.42a1.35,1.35,0,0,0,.44.07,1.5,1.5,0,0,0,.43-2.94Z"/><path class="cls-15" d="M353.69,115.32,349,113.9a1.5,1.5,0,0,0-.86,2.87l4.74,1.43a1.65,1.65,0,0,0,.43.06,1.5,1.5,0,0,0,.43-2.94Z"/><path class="cls-15" d="M339.47,111.06l-4.74-1.43a1.52,1.52,0,0,0-1.87,1,1.5,1.5,0,0,0,1,1.87l4.74,1.42a1.59,1.59,0,0,0,.43.06,1.5,1.5,0,0,0,.43-2.93Z"/><path class="cls-15" d="M267.51,107.94l-4.74,1.44a1.5,1.5,0,0,0,.44,2.93,1.59,1.59,0,0,0,.43-.06l4.74-1.44a1.5,1.5,0,1,0-.87-2.87Z"/><path class="cls-15" d="M281.72,103.64,277,105.07a1.5,1.5,0,0,0,.44,2.94,1.29,1.29,0,0,0,.43-.07l4.74-1.43a1.5,1.5,0,0,0,1-1.87A1.49,1.49,0,0,0,281.72,103.64Z"/><path class="cls-15" d="M295.93,99.33l-4.73,1.44a1.5,1.5,0,0,0-1,1.87,1.52,1.52,0,0,0,1.44,1.06,1.72,1.72,0,0,0,.44-.06l4.73-1.44a1.5,1.5,0,1,0-.87-2.87Z"/><path class="cls-15" d="M163.72,142.45a1.29,1.29,0,0,0,.43-.07l4.74-1.43a1.5,1.5,0,0,0,1-1.87,1.49,1.49,0,0,0-1.87-1l-4.74,1.43a1.5,1.5,0,0,0,.44,2.94Z"/><path class="cls-15" d="M206.36,129.53a1.59,1.59,0,0,0,.43-.06l4.74-1.44a1.5,1.5,0,1,0-.87-2.87l-4.74,1.44a1.5,1.5,0,0,0,.44,2.93Z"/><path class="cls-15" d="M368.92,121.45a1.49,1.49,0,0,0-1-1.86l-4.74-1.42a1.5,1.5,0,1,0-.86,2.87l4.74,1.42a1.59,1.59,0,0,0,.43.06A1.48,1.48,0,0,0,368.92,121.45Z"/><path class="cls-15" d="M192.14,133.84a1.35,1.35,0,0,0,.44-.07l4.74-1.43a1.5,1.5,0,0,0-.87-2.87l-4.74,1.43a1.5,1.5,0,0,0,.43,2.94Z"/><path class="cls-15" d="M177.93,138.14a1.72,1.72,0,0,0,.44-.06l4.73-1.44a1.5,1.5,0,1,0-.87-2.87l-4.73,1.44a1.5,1.5,0,0,0,.43,2.93Z"/><path class="cls-15" d="M135.29,151.06a1.35,1.35,0,0,0,.44-.07l4.74-1.43a1.5,1.5,0,1,0-.87-2.87l-4.74,1.43a1.5,1.5,0,0,0,.43,2.94Z"/><path class="cls-15" d="M149.51,146.75a1.59,1.59,0,0,0,.43-.06l4.74-1.44a1.5,1.5,0,1,0-.87-2.87l-4.74,1.44a1.5,1.5,0,0,0,.44,2.93Z"/><path class="cls-15" d="M433.44,142.37l1.32.39v1.39a1.5,1.5,0,0,0,3,0v-2.5a1.5,1.5,0,0,0-1.07-1.44l-2.39-.72a1.52,1.52,0,0,0-1.87,1A1.5,1.5,0,0,0,433.44,142.37Z"/><path class="cls-15" d="M436.26,244.11a1.5,1.5,0,0,0-1.5,1.5v5.07a1.5,1.5,0,1,0,3,0v-5.07A1.5,1.5,0,0,0,436.26,244.11Z"/><path class="cls-15" d="M437.76,215.17a1.5,1.5,0,1,0-3,0v5.07a1.5,1.5,0,0,0,3,0Z"/><path class="cls-15" d="M437.76,230.39a1.5,1.5,0,0,0-3,0v5.07a1.5,1.5,0,1,0,3,0Z"/><path class="cls-15" d="M437.76,154.29a1.5,1.5,0,1,0-3,0v5.08a1.5,1.5,0,0,0,3,0Z"/><path class="cls-15" d="M437.76,200a1.5,1.5,0,0,0-3,0V205a1.5,1.5,0,0,0,3,0Z"/><path class="cls-15" d="M437.76,169.51a1.5,1.5,0,0,0-3,0v5.08a1.5,1.5,0,1,0,3,0Z"/><path class="cls-15" d="M437.76,184.73a1.5,1.5,0,0,0-3,0v5.08a1.5,1.5,0,0,0,3,0Z"/></g></g></svg>