<svg xmlns="http://www.w3.org/2000/svg" viewBox="0 0 600 599.61"><defs><style>.cls-1{fill:#001957;}.cls-2{fill:#004ecc;}.cls-3{fill:#5280cc;}.cls-4{fill:#497bcc;}.cls-5{fill:#4176cc;}.cls-6{fill:#3971cc;}.cls-7{fill:#316ccc;}.cls-8{fill:#2967cc;}.cls-9{fill:#2162cc;}.cls-10{fill:#195dcc;}.cls-11{fill:#1058cc;}.cls-12{fill:#0853cc;}</style></defs><title>icons - Split System - Light</title><g id="Splt_System" data-name="Splt System"><g id="Building_Light_copy_3" data-name="Building Light copy 3"><path class="cls-1" d="M314.94,473.57a1.45,1.45,0,0,0,.89.3,1.35,1.35,0,0,0,.44-.07L484.59,423a1.5,1.5,0,0,0,1.06-1.44V192.83a1.49,1.49,0,0,0-.6-1.2,1.48,1.48,0,0,0-1.33-.23l-15.65,4.71a1.66,1.66,0,0,0-.38.11L315.4,242.09a1.51,1.51,0,0,0-1.07,1.44V472.37A1.5,1.5,0,0,0,314.94,473.57Zm2.39-9.46,151.42-45.76.06,0a.69.69,0,0,0,.15-.07l.13-.06.12-.08.11-.1a.47.47,0,0,0,.1-.1l.09-.11v0l11.12,3.26-163.31,49.3Zm165.32-43.66-.26.08-12.58-3.69V198.72l12.84-3.87ZM466.81,199.62V415.81L317.33,461V244.64Z"/><path class="cls-1" d="M521.81,476.48l.09-.11.08-.12.06-.12a.84.84,0,0,0,.06-.14.57.57,0,0,0,0-.14.31.31,0,0,0,0-.13,1,1,0,0,0,0-.17s0,0,0-.07v-12.4a1.23,1.23,0,0,0,0-.19s0-.07,0-.11a1.15,1.15,0,0,0-.06-.17.76.76,0,0,0,0-.11c0-.05,0-.1-.08-.14a.36.36,0,0,0-.07-.1.69.69,0,0,0-.11-.13l-.08-.09-.13-.1-.1-.07-.14-.08-.14-.06-.07,0-12-3.6v-9.22h0V439.7c0-.05,0-.11,0-.16s0-.09,0-.14a1.21,1.21,0,0,0-.05-.14.69.69,0,0,0-.05-.13l-.06-.12-.08-.13-.09-.11-.1-.11-.11-.09-.12-.09-.11-.06-.16-.07,0,0-6.64-2.28V168.32l7.25-7.44a1.52,1.52,0,0,0,.42-1V144.44a4.32,4.32,0,0,0-1-8.35l-.13-.06L300.42,73.74a.86.86,0,0,0-.17,0l-.1,0h-.3a1.4,1.4,0,0,0-.28.06h0L92.22,136h-.08a4.33,4.33,0,0,0-1.32,8.39v15.39a1.48,1.48,0,0,0,.43,1l7.24,7.44v267.8L91.76,439a1.48,1.48,0,0,0-.92,1.38v22.1a1.51,1.51,0,0,0,1.07,1.44l207.65,62.33h0a1.74,1.74,0,0,0,.39,0h0a1.6,1.6,0,0,0,.39,0h0l135.15-40.55,27.76,8.41a1.67,1.67,0,0,0,.44.06h0a1.59,1.59,0,0,0,.43-.06l56.93-17.18.06,0,.16-.07.12-.06.12-.08.11-.09ZM301.49,522.79V502.73l133.53-40v20a1,1,0,0,0-.21.08ZM91,140.38a1.33,1.33,0,0,1,1.22-1.32l206.29,61.86v3.6L93.81,143.14a1.49,1.49,0,0,0-1.49-1.42A1.34,1.34,0,0,1,91,140.38ZM463.77,479.8l-11.32-3.4,54-16.29v0l.07.08a.74.74,0,0,0,.13.12l.09.08.14.1.1.05.17.07.06,0,10,3Zm42.37-31.89-10.92-3.27,10.92-3.28Zm-12.66-2.75,12.43,3.72L450.7,465.54,437.35,462Zm-42.27,21.27,54.93-16.57v9.29l-54.93,16.58ZM301.49,501.69v-4.5L498.78,438l.08.09.1.11.11.09a.94.94,0,0,0,.12.09.67.67,0,0,0,.12.06l.15.08h0l5.86,2Zm-200-64.64V168.68l197,59V496.15Zm197-231.49v14.52L93.82,158.71V144.19ZM300,84.78l189.13,56.74L300,198.24,111,141.57Zm1.5,135.3V205.56l204.67-61.37v14.52Zm197,217-197,59.1V227.7l197-59Zm.44-270.4h0v0h0a1.42,1.42,0,0,0-.31.48v0a1.63,1.63,0,0,0-.09.45l-197,59v-3.44l201.08-60.3Zm7.24-23.51L301.49,204.52v-3.6l206.29-61.86a1.33,1.33,0,0,1-.12,2.66A1.49,1.49,0,0,0,506.17,143.14ZM490.86,141,300.49,83.89v-7l202,60.61ZM299.49,76.89v7L109.28,141.05l-11.66-3.5Zm-1,146.33v3.44l-197-59a1,1,0,0,0-.09-.44.09.09,0,0,0,0,0,1.48,1.48,0,0,0-.31-.47h0l0,0h0l-3.63-3.73ZM100.57,438.5h0l.24-.13.11-.1.11-.09.1-.12,0-.05,197.29,59.19v4.5l-203.18-61ZM436,482.69v-20l14.19,3.78v9.95a.45.45,0,0,0,.1.28l0,0a.53.53,0,0,0,.23.16h0l12.7,3.81v10.25Zm28.25,8.25V480.69L519,464.19l.23.07v10.11ZM93.84,441.36h0l204.62,61.38v20.06L93.84,461.35Z"/></g><path class="cls-2" d="M236.83,368.63a1.5,1.5,0,0,1-1.5-1.5v-2.5a1.5,1.5,0,0,1,3,0v2.5A1.5,1.5,0,0,1,236.83,368.63Z"/><path class="cls-2" d="M236.83,356.45a1.5,1.5,0,0,1-1.5-1.5v-4.84a1.5,1.5,0,0,1,3,0V355A1.5,1.5,0,0,1,236.83,356.45Zm0-14.53a1.5,1.5,0,0,1-1.5-1.5v-4.84a1.5,1.5,0,0,1,3,0v4.84A1.5,1.5,0,0,1,236.83,341.92Zm0-14.52a1.5,1.5,0,0,1-1.5-1.5v-4.84a1.5,1.5,0,0,1,3,0v4.84A1.5,1.5,0,0,1,236.83,327.4Zm0-14.53a1.5,1.5,0,0,1-1.5-1.5v-4.84a1.5,1.5,0,0,1,3,0v4.84A1.5,1.5,0,0,1,236.83,312.87Zm0-14.52a1.5,1.5,0,0,1-1.5-1.5V292a1.5,1.5,0,0,1,3,0v4.84A1.5,1.5,0,0,1,236.83,298.35Zm0-14.53a1.5,1.5,0,0,1-1.5-1.5v-4.84a1.5,1.5,0,0,1,3,0v4.84A1.5,1.5,0,0,1,236.83,283.82Zm0-14.52a1.5,1.5,0,0,1-1.5-1.5V263a1.5,1.5,0,0,1,3,0v4.84A1.5,1.5,0,0,1,236.83,269.3Zm0-14.53a1.5,1.5,0,0,1-1.5-1.5v-4.84a1.5,1.5,0,0,1,3,0v4.84A1.5,1.5,0,0,1,236.83,254.77Z"/><path class="cls-2" d="M236.83,240.25a1.5,1.5,0,0,1-1.5-1.5v-1.38L234,237a1.5,1.5,0,0,1-1-1.87,1.52,1.52,0,0,1,1.87-1l2.4.72a1.5,1.5,0,0,1,1.06,1.44v2.5A1.5,1.5,0,0,1,236.83,240.25Z"/><path class="cls-2" d="M225,234.2a1.65,1.65,0,0,1-.43-.06l-4.72-1.42a1.5,1.5,0,1,1,.86-2.87l4.72,1.41a1.5,1.5,0,0,1-.43,2.94ZM210.83,230a1.54,1.54,0,0,1-.43-.06l-4.73-1.42a1.5,1.5,0,0,1,.86-2.87l4.73,1.41a1.5,1.5,0,0,1-.43,2.94Zm-14.17-4.25a1.59,1.59,0,0,1-.43-.06l-4.72-1.42a1.5,1.5,0,1,1,.86-2.87l4.72,1.42a1.5,1.5,0,0,1-.43,2.93Zm-14.17-4.25a1.59,1.59,0,0,1-.43-.06L177.34,220a1.5,1.5,0,1,1,.86-2.87l4.72,1.42a1.49,1.49,0,0,1,1,1.86A1.51,1.51,0,0,1,182.49,221.45Zm-14.17-4.25a1.65,1.65,0,0,1-.43-.06l-4.72-1.42a1.5,1.5,0,1,1,.86-2.87l4.72,1.42a1.5,1.5,0,0,1-.43,2.93ZM154.16,213a1.25,1.25,0,0,1-.43-.07L149,211.48a1.5,1.5,0,0,1,.86-2.88l4.73,1.42a1.5,1.5,0,0,1-.43,2.94ZM140,208.71a1.29,1.29,0,0,1-.43-.07l-4.73-1.41a1.5,1.5,0,0,1,.87-2.88l4.72,1.42a1.5,1.5,0,0,1-.43,2.94Z"/><path class="cls-2" d="M125.82,204.46a1.59,1.59,0,0,1-.43-.06l-2.4-.72a1.5,1.5,0,0,1-1.06-1.44v-2.5a1.5,1.5,0,0,1,3,0v1.38l1.32.4a1.5,1.5,0,0,1-.43,2.94Z"/><path class="cls-2" d="M123.43,190.22a1.5,1.5,0,0,1-1.5-1.5v-5.51a1.5,1.5,0,1,1,3,0v5.51A1.5,1.5,0,0,1,123.43,190.22Zm0-16.54a1.5,1.5,0,0,1-1.5-1.5v-5.51a1.5,1.5,0,0,1,3,0v5.51A1.5,1.5,0,0,1,123.43,173.68Z"/><path class="cls-2" d="M123.43,157.15a1.5,1.5,0,0,1-1.5-1.5v-2.5a1.51,1.51,0,0,1,1.06-1.44l2.39-.72a1.5,1.5,0,1,1,.87,2.87l-1.32.4v1.39A1.5,1.5,0,0,1,123.43,157.15Z"/><path class="cls-2" d="M135.29,151.06a1.5,1.5,0,0,1-.43-2.94l4.74-1.43a1.5,1.5,0,1,1,.87,2.87L135.73,151A1.35,1.35,0,0,1,135.29,151.06Zm14.22-4.31a1.5,1.5,0,0,1-.44-2.93l4.74-1.44a1.5,1.5,0,1,1,.87,2.87l-4.74,1.44A1.59,1.59,0,0,1,149.51,146.75Zm14.21-4.3a1.5,1.5,0,0,1-.44-2.94l4.74-1.43a1.49,1.49,0,0,1,1.87,1,1.5,1.5,0,0,1-1,1.87l-4.74,1.43A1.29,1.29,0,0,1,163.72,142.45Zm260.67-2.86a1.25,1.25,0,0,1-.43-.07l-4.75-1.42a1.5,1.5,0,0,1,.86-2.87l4.75,1.42a1.5,1.5,0,0,1-.43,2.94Zm-246.46-1.45a1.5,1.5,0,0,1-.43-2.93l4.73-1.44a1.5,1.5,0,1,1,.87,2.87l-4.73,1.44A1.72,1.72,0,0,1,177.93,138.14Zm232.23-2.82a1.59,1.59,0,0,1-.43-.06L405,133.84a1.52,1.52,0,0,1-1-1.87,1.5,1.5,0,0,1,1.87-1l4.74,1.42a1.5,1.5,0,0,1-.43,2.94Zm-218-1.48a1.5,1.5,0,0,1-.43-2.94l4.74-1.43a1.5,1.5,0,0,1,.87,2.87l-4.74,1.43A1.35,1.35,0,0,1,192.14,133.84Zm203.8-2.78a1.55,1.55,0,0,1-.43-.07l-4.74-1.42a1.5,1.5,0,1,1,.86-2.87l4.74,1.42a1.5,1.5,0,0,1-.43,2.94Zm-189.58-1.53a1.5,1.5,0,0,1-.44-2.93l4.74-1.44a1.5,1.5,0,1,1,.87,2.87l-4.74,1.44A1.59,1.59,0,0,1,206.36,129.53Zm175.35-2.74a1.65,1.65,0,0,1-.43-.06l-4.74-1.43a1.5,1.5,0,1,1,.86-2.87l4.74,1.42a1.5,1.5,0,0,1-.43,2.94Zm-161.14-1.56a1.5,1.5,0,0,1-.44-2.94l4.74-1.43a1.48,1.48,0,0,1,1.87,1,1.5,1.5,0,0,1-1,1.87L221,125.16A1.29,1.29,0,0,1,220.57,125.23Zm146.92-2.71a1.59,1.59,0,0,1-.43-.06L362.32,121a1.5,1.5,0,1,1,.86-2.87l4.74,1.42a1.5,1.5,0,0,1-.43,2.93Zm-132.71-1.6a1.5,1.5,0,0,1-.43-2.93l4.73-1.44a1.5,1.5,0,0,1,.87,2.87l-4.73,1.44A1.72,1.72,0,0,1,234.78,120.92Zm118.48-2.66a1.65,1.65,0,0,1-.43-.06l-4.74-1.43a1.5,1.5,0,0,1,.86-2.87l4.74,1.42a1.5,1.5,0,0,1-.43,2.94ZM249,116.62a1.5,1.5,0,0,1-.43-2.94l4.74-1.44a1.5,1.5,0,0,1,.87,2.88l-4.74,1.43A1.35,1.35,0,0,1,249,116.62ZM339,114a1.59,1.59,0,0,1-.43-.06l-4.74-1.42a1.5,1.5,0,0,1-1-1.87,1.52,1.52,0,0,1,1.87-1l4.74,1.43A1.5,1.5,0,0,1,339,114Zm-75.83-1.68a1.5,1.5,0,0,1-.44-2.93l4.74-1.44a1.5,1.5,0,1,1,.87,2.87l-4.74,1.44A1.59,1.59,0,0,1,263.21,112.31Zm61.61-2.58a1.35,1.35,0,0,1-.44-.07l-4.74-1.42a1.5,1.5,0,0,1,.86-2.87l4.75,1.42a1.5,1.5,0,0,1-.43,2.94ZM277.42,108a1.5,1.5,0,0,1-.44-2.94l4.74-1.43a1.49,1.49,0,0,1,1.87,1,1.5,1.5,0,0,1-1,1.87l-4.74,1.43A1.29,1.29,0,0,1,277.42,108Zm33.17-2.55a1.59,1.59,0,0,1-.43-.06L305.42,104a1.5,1.5,0,1,1,.86-2.88l4.74,1.43a1.49,1.49,0,0,1,1,1.86A1.51,1.51,0,0,1,310.59,105.46Zm-19-1.76a1.52,1.52,0,0,1-1.44-1.06,1.5,1.5,0,0,1,1-1.87l4.73-1.44a1.5,1.5,0,1,1,.87,2.87l-4.73,1.44A1.72,1.72,0,0,1,291.63,103.7Z"/><path class="cls-2" d="M436.26,145.65a1.5,1.5,0,0,1-1.5-1.5v-1.39l-1.32-.39a1.5,1.5,0,0,1-1-1.87,1.52,1.52,0,0,1,1.87-1l2.39.72a1.5,1.5,0,0,1,1.07,1.44v2.5A1.5,1.5,0,0,1,436.26,145.65Z"/><path class="cls-2" d="M436.26,252.18a1.5,1.5,0,0,1-1.5-1.5v-5.07a1.5,1.5,0,0,1,3,0v5.07A1.5,1.5,0,0,1,436.26,252.18Zm0-15.22a1.5,1.5,0,0,1-1.5-1.5v-5.07a1.5,1.5,0,0,1,3,0v5.07A1.5,1.5,0,0,1,436.26,237Zm0-15.22a1.5,1.5,0,0,1-1.5-1.5v-5.07a1.5,1.5,0,1,1,3,0v5.07A1.5,1.5,0,0,1,436.26,221.74Zm0-15.21a1.5,1.5,0,0,1-1.5-1.5V200a1.5,1.5,0,0,1,3,0V205A1.5,1.5,0,0,1,436.26,206.53Zm0-15.22a1.5,1.5,0,0,1-1.5-1.5v-5.08a1.5,1.5,0,0,1,3,0v5.08A1.5,1.5,0,0,1,436.26,191.31Zm0-15.22a1.5,1.5,0,0,1-1.5-1.5v-5.08a1.5,1.5,0,0,1,3,0v5.08A1.5,1.5,0,0,1,436.26,176.09Zm0-15.22a1.5,1.5,0,0,1-1.5-1.5v-5.08a1.5,1.5,0,1,1,3,0v5.08A1.5,1.5,0,0,1,436.26,160.87Z"/><path class="cls-2" d="M436.26,264.83a1.5,1.5,0,0,1-1.5-1.5v-2.5a1.5,1.5,0,1,1,3,0v2.5A1.5,1.5,0,0,1,436.26,264.83Z"/><path class="cls-2" d="M376.52,264.38a9.24,9.24,0,0,0,.76,2.18L428.66,282a10.34,10.34,0,0,1-.63-2.14Z"/><path class="cls-2" d="M382.72,271.29l48.76,14.64a10.6,10.6,0,0,1-2.22-2.72l-51.21-15.37A9.33,9.33,0,0,0,382.72,271.29Z"/><polygon class="cls-2" points="445.22 267.58 381.47 248.49 372.33 251.24 435.99 270.35 445.22 267.58"/><path class="cls-2" d="M435.43,287a.45.45,0,0,1,.22.16l3.43,1a10.21,10.21,0,0,1-3.59-7.8v-9.17l-64.9-19.48-.24.07v8.42c0,3.95,2.69,8.11,5.87,9.09l2.47.74a10.4,10.4,0,0,1-3.32-6.36h0a.33.33,0,0,1,0-.1s0-.07,0-.1h0l0-.06a.31.31,0,0,1,.05-.1.81.81,0,0,1,.1-.09l0,0a.6.6,0,0,1,.19-.06H376L428.6,279l.09.05.07,0a.27.27,0,0,1,.07.08l.06.07s0,.07,0,.1,0,.05,0,.07A9.45,9.45,0,0,0,435.43,287Zm-59.28-26.9a1.77,1.77,0,1,1,1.77-1.77A1.77,1.77,0,0,1,376.15,260.12Z"/><path class="cls-2" d="M440.24,287.88a9.3,9.3,0,0,0,4.63,1.79,6.56,6.56,0,0,0,2.24-.49v-21l-.15,0-10.47,3.14v9.17A9.25,9.25,0,0,0,440.24,287.88Z"/><polygon class="cls-2" points="223.09 394.72 194.52 386.14 194.52 389.9 223.09 398.47 223.09 394.72"/><polygon class="cls-2" points="223.09 390.96 194.52 382.39 194.52 385.1 223.09 393.67 223.09 390.96"/><path class="cls-2" d="M153.13,378.44a20.17,20.17,0,0,0-5.07,10.67l14.86,4.58Z"/><path class="cls-2" d="M147.92,390.11a24.81,24.81,0,0,0-.07,5.39,23.58,23.58,0,0,0,3.38,10.17l11.15-11.1Z"/><path class="cls-2" d="M250.37,373.65l-24.28,7.29v62.34L250.37,436V407.63l-17.31,5.19a1.59,1.59,0,0,1-.43.06,1.5,1.5,0,0,1-1.5-1.5v-24A1.48,1.48,0,0,1,232.2,386l18.17-5.45Zm-6.44,54.27a2.5,2.5,0,1,1-2.5,2.5A2.5,2.5,0,0,1,243.93,427.92Z"/><polygon class="cls-2" points="223.09 399.52 194.52 390.94 194.52 394.7 223.09 403.27 223.09 399.52"/><polygon class="cls-2" points="194.52 403.26 223.09 411.83 223.09 409.12 194.52 400.55 194.52 403.26"/><polygon class="cls-2" points="245.93 405.83 245.93 384.96 234.13 388.5 234.13 409.37 245.93 405.83"/><polygon class="cls-2" points="250.37 404.5 250.37 383.63 246.93 384.66 246.93 405.53 250.37 404.5"/><polygon class="cls-2" points="223.09 404.32 194.52 395.75 194.52 399.5 223.09 408.07 223.09 404.32"/><path class="cls-2" d="M161.66,374.11a13.46,13.46,0,0,0-7.8,3.62l9.25,14.39V374.06h-.21C162.49,374.05,162.07,374.07,161.66,374.11Z"/><path class="cls-2" d="M154,409.17a14.82,14.82,0,0,0,9.15,4.59v-18.5l-11.32,11.27A18.48,18.48,0,0,0,154,409.17Z"/><path class="cls-2" d="M223.09,381l-85.54-25.67v62.32l85.54,25.67V415l-30.5-9.15a1.51,1.51,0,0,1-1.07-1.44v-24a1.5,1.5,0,0,1,.61-1.2,1.49,1.49,0,0,1,1.32-.23l29.64,8.89Zm-57.24,35.81c-.52.05-1,.07-1.55.07a17.51,17.51,0,0,1-12.48-5.56,25.63,25.63,0,0,1-7-15.49c-1.24-12.58,6.17-23.65,16.5-24.67s19.76,8.4,21,21S176.19,415.75,165.85,416.77Z"/><polygon class="cls-2" points="239 373.93 155.68 348.95 141.26 353.28 224.55 378.27 239 373.93"/><polygon class="cls-2" points="246.65 371.64 163.33 346.66 157.42 348.43 240.74 373.41 246.65 371.64"/><path class="cls-2" d="M174.18,409.36a20.12,20.12,0,0,0,4.81-9.67l-13.75-4.24Z"/><path class="cls-2" d="M164.11,413.83a11.78,11.78,0,0,0,1.45-.05,13.41,13.41,0,0,0,7.88-3.71l-9.33-14.54Z"/><path class="cls-2" d="M164.11,374.12v18.73l11.4-11.35C172.67,377.31,168.58,374.55,164.11,374.12Z"/><path class="cls-2" d="M176.07,382.36,164.34,394l.07.11,14.77,4.55a24.93,24.93,0,0,0,.19-6.31A23.76,23.76,0,0,0,176.07,382.36Z"/><path class="cls-3" d="M328.4,450c-3.71-1.16-7.5-2.35-11.12-3.86v1.44c3.51,1.43,7.15,2.57,10.72,3.69,3.28,1,6.66,2.08,9.86,3.34l.35.14,2-.6c-.63-.27-1.25-.53-1.88-.78C335.11,452.06,331.7,451,328.4,450Z"/><path class="cls-4" d="M345.59,437.22c-2.91-1.1-6-2-8.92-2.91-5.38-1.62-11-3.29-15.81-6.13a36,36,0,0,1-3.58-2.39v1.84c.92.66,1.85,1.28,2.82,1.85,5,2.92,10.67,4.62,16.14,6.27,2.93.88,6,1.79,8.82,2.87s6,2.55,8.93,3.92c3.29,1.55,6.65,3.12,10.15,4.37l2.49-.75a95.86,95.86,0,0,1-12-5C351.69,439.8,348.66,438.38,345.59,437.22Z"/><path class="cls-5" d="M398.85,431.1c-3.14-.27-6.33-.31-9.42-.34-5.12-.06-10-.12-14.65-1.14a70.86,70.86,0,0,1-13.67-5.05c-2.69-1.21-5.47-2.46-8.28-3.47-2.58-.92-5.27-1.7-7.88-2.44-4.91-1.41-10-2.87-14.42-5.39s-8.09-6.16-11.74-9.75L317.28,402v2.33l.34.33c3.73,3.67,7.58,7.46,12.08,10s9.79,4.1,14.79,5.54c2.58.74,5.25,1.5,7.78,2.41,2.74,1,5.5,2.22,8.16,3.42a72.46,72.46,0,0,0,14,5.16c4.84,1.06,10,1.12,15,1.17,3.05,0,6.21.08,9.28.34,2.7.23,5.48.67,8.17,1.1l.4.06L411,432.8l-3.86-.59C404.41,431.78,401.6,431.34,398.85,431.1Z"/><path class="cls-6" d="M450.59,407.17c-2.64.6-5.37,1.21-8,2-2.19.68-4.41,1.54-6.56,2.37-4.34,1.67-8.83,3.4-13.52,3.89s-9.46-.26-14.11-1c-2.37-.37-4.83-.76-7.24-1-2.86-.26-5.77-.3-8.59-.34a67.59,67.59,0,0,1-12.91-1,65.16,65.16,0,0,1-12-4.21c-2.45-1-5-2.12-7.54-3-2.24-.75-4.57-1.38-6.83-2-4.43-1.19-9-2.43-13-4.64-3.86-2.12-7.27-5.45-10.57-8.68a82.25,82.25,0,0,0-6.89-6.23,53.78,53.78,0,0,0-5.44-3.59V382a45.84,45.84,0,0,1,4.32,2.9,79.71,79.71,0,0,1,6.73,6.1c3.38,3.31,6.89,6.73,11,9s8.91,3.58,13.45,4.8c2.23.6,4.53,1.22,6.72,2,2.49.83,5,1.89,7.4,2.92A67.07,67.07,0,0,0,379.26,414a69.73,69.73,0,0,0,13.26,1c2.78,0,5.65.08,8.44.33,2.36.21,4.78.59,7.13,1a72.86,72.86,0,0,0,11.26,1.17,30.63,30.63,0,0,0,3.32-.17c4.94-.51,9.54-2.29,14-4,2.22-.86,4.31-1.66,6.45-2.33,2.58-.79,5.27-1.4,7.88-2a68,68,0,0,0,12.53-3.69c1.16-.51,2.3-1.1,3.41-1.72v-2.11a39.86,39.86,0,0,1-4.15,2.15A66.32,66.32,0,0,1,450.59,407.17Z"/><path class="cls-7" d="M457.13,386.5a61,61,0,0,1-10.33,3.26c-2.37.6-4.83,1.21-7.2,2-1.86.63-3.74,1.39-5.55,2.14-3.81,1.56-7.74,3.17-11.88,3.65s-8.4-.19-12.55-.84c-2-.32-4.14-.64-6.21-.84-2.59-.24-5.22-.29-7.77-.33a64.62,64.62,0,0,1-11.16-.85,61.27,61.27,0,0,1-10.39-3.38c-2.21-.87-4.5-1.77-6.81-2.48-1.89-.57-3.85-1.06-5.76-1.53-4-1-8.06-2-11.67-3.89-3.42-1.8-6.47-4.75-9.42-7.62a67,67,0,0,0-6.4-5.69,54.56,54.56,0,0,0-7.21-4.29c-3.54-1.86-6.88-3.63-9.53-6.4v2.75a44.55,44.55,0,0,0,8.6,5.42,54.32,54.32,0,0,1,6.95,4.12,64.69,64.69,0,0,1,6.2,5.53c3,3,6.2,6,9.87,7.95a53,53,0,0,0,12.14,4.07c1.87.46,3.81.94,5.65,1.5,2.24.68,4.48,1.56,6.66,2.42a62.63,62.63,0,0,0,10.73,3.48,66.78,66.78,0,0,0,11.51.89c2.51,0,5.11.09,7.62.33,2,.18,4.09.51,6.09.82a65.53,65.53,0,0,0,9.92,1,28.18,28.18,0,0,0,3.17-.17c4.41-.51,8.48-2.18,12.41-3.79,1.86-.77,3.63-1.49,5.43-2.1,2.3-.78,4.71-1.38,7-2A62.89,62.89,0,0,0,458,388.33a61,61,0,0,0,9-5.32v-2.42l-.11.08A65.37,65.37,0,0,1,457.13,386.5Z"/><path class="cls-8" d="M459.64,364.53a63.7,63.7,0,0,1-8.15,4.89,57.68,57.68,0,0,1-8.53,2.93c-2.09.6-4.25,1.22-6.35,2-1.5.57-3,1.24-4.47,1.89-3.29,1.46-6.69,3-10.29,3.43s-7.17-.1-11-.69c-1.69-.26-3.44-.53-5.17-.7-2.33-.23-4.7-.28-7-.34a61.24,61.24,0,0,1-9.39-.69,58.94,58.94,0,0,1-8.72-2.56c-2-.7-4-1.42-6.11-2-1.54-.41-3.13-.75-4.67-1.09a43.5,43.5,0,0,1-10.32-3.13c-3-1.48-5.67-4.07-8.28-6.57a54.56,54.56,0,0,0-5.89-5.15,43.43,43.43,0,0,0-6.69-3.63c-3.16-1.48-6.15-2.88-8.47-5.24s-3.91-5.76-5.42-9a49.67,49.67,0,0,0-3.7-7,35.61,35.61,0,0,0-3.75-4.48v3.21a24.46,24.46,0,0,1,2,2.49,46.54,46.54,0,0,1,3.52,6.65c1.59,3.43,3.24,7,5.84,9.63s5.91,4.19,9.1,5.69a40.93,40.93,0,0,1,6.36,3.43,51.12,51.12,0,0,1,5.64,4.94c2.72,2.62,5.54,5.32,8.81,6.95a45.18,45.18,0,0,0,10.84,3.31c1.51.33,3.08.67,4.56,1.06,2,.53,3.92,1.21,5.95,1.92a60.2,60.2,0,0,0,9.05,2.65,64.06,64.06,0,0,0,9.73.73c2.24.05,4.57.11,6.82.33,1.67.16,3.38.43,5,.68a55.71,55.71,0,0,0,8.57.89,23.7,23.7,0,0,0,3-.19c3.92-.51,7.46-2.08,10.89-3.6,1.5-.67,2.91-1.3,4.36-1.84,2-.76,4.13-1.37,6.18-1.95a58.63,58.63,0,0,0,8.84-3.06,63.3,63.3,0,0,0,8.45-5.05c1.84-1.24,3.75-2.51,5.68-3.61l.4-.22V360c-.49.26-1,.52-1.47.8C463.46,362,461.52,363.27,459.64,364.53Z"/><path class="cls-9" d="M462.27,202.74c-.57-.4-1.13-.83-1.69-1.26l-2.73.82c1,.8,2,1.61,3.09,2.35s2.23,1.48,3.33,2.17c.89.57,1.78,1.14,2.66,1.73v-2.8l-1.42-.9C464.43,204.17,463.31,203.46,462.27,202.74Z"/><path class="cls-9" d="M319,267.11c.23-1.57.37-3.15.5-4.68a37.61,37.61,0,0,1,1.23-7.87,41.31,41.31,0,0,1,3-6.74,53.9,53.9,0,0,0,2.44-5.08c.11-.27.21-.54.31-.82l-2.86.86c-.58,1.32-1.25,2.61-1.95,4a41.94,41.94,0,0,0-3.18,7.13,34.46,34.46,0,0,0-1.2,6.93v16.14a53.32,53.32,0,0,1,1-5.9C318.53,269.75,318.8,268.42,319,267.11Z"/><path class="cls-9" d="M457.68,345.16c-1.81,1-3.57,2.15-5.27,3.26a60.89,60.89,0,0,1-6.58,3.92,56.68,56.68,0,0,1-6.68,2.57c-1.82.62-3.71,1.25-5.54,2-1.14.5-2.3,1.07-3.42,1.62a29.79,29.79,0,0,1-8.66,3.22c-3,.45-6.14,0-9.44-.54-1.34-.2-2.73-.42-4.11-.56-2.1-.22-4.21-.28-6.26-.35a60.17,60.17,0,0,1-7.57-.54,57.12,57.12,0,0,1-7-1.74c-1.78-.53-3.62-1.07-5.49-1.47-1.17-.24-2.37-.45-3.54-.65a35.65,35.65,0,0,1-9-2.36c-2.54-1.17-4.87-3.39-7.13-5.54a42.52,42.52,0,0,0-5.38-4.58,32.51,32.51,0,0,0-6.16-2.95c-2.76-1.09-5.37-2.12-7.37-4.06s-3.27-4.76-4.61-7.73a37.67,37.67,0,0,0-3.32-6.29,33,33,0,0,0-4.74-5.07c-2.26-2.12-4.4-4.11-5.58-6.7s-1.29-5.55-1.43-8.73a36.1,36.1,0,0,0-.78-7.12,34.57,34.57,0,0,0-2.55-6.49,26.34,26.34,0,0,1-2.78-8.07v7.62l.67,1.44a33.2,33.2,0,0,1,2.4,6.05,35.3,35.3,0,0,1,.71,6.67c.14,3.27.29,6.64,1.63,9.59s3.79,5.27,6.12,7.45a31.84,31.84,0,0,1,4.43,4.7,36.4,36.4,0,0,1,3.09,5.91c1.37,3,2.78,6.18,5.12,8.44s5.28,3.43,8.13,4.56a30.6,30.6,0,0,1,5.73,2.73,39.61,39.61,0,0,1,5.06,4.32c2.4,2.28,4.88,4.64,7.77,6h0a37.94,37.94,0,0,0,9.58,2.54c1.19.21,2.32.4,3.45.64,1.78.37,3.5.88,5.31,1.41a56.54,56.54,0,0,0,7.28,1.81,62,62,0,0,0,7.87.57c2,.07,4.08.13,6.08.34,1.33.14,2.69.35,4,.55a47.51,47.51,0,0,0,7.25.74,19.82,19.82,0,0,0,2.88-.2,31.9,31.9,0,0,0,9.36-3.44c1.14-.56,2.22-1.09,3.31-1.56,1.74-.76,3.58-1.38,5.36-2a58.35,58.35,0,0,0,7-2.68,62.75,62.75,0,0,0,6.83-4.07c1.67-1.09,3.39-2.21,5.12-3.17,1.16-.64,2.39-1.24,3.57-1.83,1.53-.76,3.08-1.53,4.56-2.4v-2.75a51.08,51.08,0,0,1-5.6,3.06C460.13,343.88,458.88,344.49,457.68,345.16Z"/><path class="cls-10" d="M460.07,218.86a31.64,31.64,0,0,0-6.33-4.45c-.79-.46-1.57-.92-2.33-1.4-1-.61-1.88-1.28-2.84-2a31.63,31.63,0,0,0-5.57-3.5c-.34-.15-.7-.29-1.06-.43l-4.23,1.28a28,28,0,0,1,4.26,1.43A29.73,29.73,0,0,1,447.1,213c.95.7,1.94,1.42,3,2.08.79.49,1.59,1,2.41,1.45a29.36,29.36,0,0,1,5.84,4.08c1.63,1.59,2.67,3.93,3.77,6.42a29.68,29.68,0,0,0,3,5.66,16.23,16.23,0,0,0,1.84,2.05V231a29.28,29.28,0,0,1-2.56-4.94C463.22,223.47,462,220.79,460.07,218.86Z"/><path class="cls-10" d="M463.4,318.21a18.57,18.57,0,0,1-10.81,9.92c-.9.44-1.8.88-2.69,1.35-1.67.89-3.29,1.91-4.86,2.89s-3.25,2.06-4.87,2.89-3.17,1.47-4.73,2.12-3.26,1.35-4.86,2.19c-.79.41-1.58.85-2.37,1.31a22.38,22.38,0,0,1-7,3,24.62,24.62,0,0,1-7.86-.39c-1-.16-2-.32-3.06-.44-1.91-.21-3.83-.28-5.68-.36s-3.86-.15-5.63-.38-3.45-.59-5.08-.94-3.34-.72-5.07-.94q-1.17-.15-2.37-.27a27.87,27.87,0,0,1-7.69-1.54c-2.1-.87-4.09-2.73-6-4.53a31.21,31.21,0,0,0-4.85-4,24.48,24.48,0,0,0-5.62-2.23c-2.37-.72-4.6-1.4-6.26-2.92s-2.72-3.92-3.81-6.45a28.35,28.35,0,0,0-2.93-5.6,25,25,0,0,0-4.42-4.3c-2-1.66-3.9-3.22-4.88-5.31s-1-4.59-1-7.27a27.54,27.54,0,0,0-.55-6.35A26.64,26.64,0,0,0,336,284c-1.24-2.4-2.42-4.66-2.55-7a26.66,26.66,0,0,1,.93-7.11c.22-1,.43-1.9.6-2.84.22-1.22.37-2.45.52-3.64a30.69,30.69,0,0,1,1.17-6.19,34.9,34.9,0,0,1,2.33-5.06,41.86,41.86,0,0,0,2.08-4.32,44.2,44.2,0,0,0,1.43-4.64,33.16,33.16,0,0,1,1.68-5.13,17.61,17.61,0,0,1,.91-1.72l-3.32,1a38.75,38.75,0,0,0-1.68,5.19,44.53,44.53,0,0,1-1.35,4.38,42.93,42.93,0,0,1-2,4.07,36.24,36.24,0,0,0-2.49,5.43,32.8,32.8,0,0,0-1.28,6.68c-.14,1.15-.29,2.34-.5,3.49-.16.91-.37,1.82-.57,2.74a28.08,28.08,0,0,0-1,7.81c.16,2.9,1.52,5.51,2.83,8a24.27,24.27,0,0,1,2.22,5.15,25.3,25.3,0,0,1,.48,5.77c0,2.84.05,5.76,1.25,8.31s3.42,4.42,5.55,6.18a23,23,0,0,1,4,3.85,26.38,26.38,0,0,1,2.64,5.12c1.15,2.65,2.34,5.39,4.42,7.29s4.69,2.7,7.22,3.47a21.87,21.87,0,0,1,5,2,29.19,29.19,0,0,1,4.44,3.68c2.09,2,4.24,4,6.78,5a29.52,29.52,0,0,0,8.37,1.72c.78.08,1.55.16,2.31.26,1.63.21,3.2.54,4.86.9s3.43.73,5.29,1,3.9.32,5.85.4,3.68.15,5.5.35c1,.11,2,.26,3,.42a39.61,39.61,0,0,0,5.95.61,15.56,15.56,0,0,0,2.73-.23,24.27,24.27,0,0,0,7.82-3.32c.77-.44,1.52-.87,2.28-1.27,1.51-.78,3-1.42,4.67-2.09s3.27-1.36,4.91-2.21,3.42-2,5.07-3,3.1-2,4.69-2.8c.86-.46,1.74-.89,2.61-1.31a21,21,0,0,0,11.89-10.92c.45-.78.89-1.55,1.36-2.3v-4.39c-.69,1-1.4,1.92-2.05,3C464.37,316.52,463.89,317.36,463.4,318.21Z"/><path class="cls-11" d="M462.76,257.59a17.42,17.42,0,0,1-.23-4.81c.09-2.42.18-4.92-.88-7.09s-3.09-3.61-5-4.95a16.26,16.26,0,0,1-3.53-3,19.67,19.67,0,0,1-2.25-4.35c-.93-2.22-1.9-4.52-3.63-6.1a23.93,23.93,0,0,0-5.35-3.38l-1.36-.7c-.71-.38-1.39-.79-2.11-1.23a26.26,26.26,0,0,0-4.35-2.28,32.61,32.61,0,0,0-3.8-1.07,29.21,29.21,0,0,1-3.56-1,28,28,0,0,1-3.28-1.59,31.67,31.67,0,0,0-3.7-1.79l-.76-.25-5.13,1.55.4.07a26.67,26.67,0,0,1,4.54,1.12,29.39,29.39,0,0,1,3.39,1.65,31.46,31.46,0,0,0,3.6,1.74,32.63,32.63,0,0,0,3.88,1.1,27.45,27.45,0,0,1,3.48,1,23.19,23.19,0,0,1,3.9,2.06c.72.44,1.47.89,2.25,1.31l1.4.72a21.43,21.43,0,0,1,4.76,3c1.3,1.19,2.11,3.11,3,5.16a21.5,21.5,0,0,0,2.61,5,18.12,18.12,0,0,0,4.11,3.5c1.73,1.21,3.37,2.35,4.15,3.94s.69,3.63.61,5.81a19.93,19.93,0,0,0,.31,5.57,19.46,19.46,0,0,0,2.31,4.91c1.13,1.89,2.18,3.68,2.27,5.51a18.29,18.29,0,0,1-.88,5.5c-.15.57-.3,1.14-.43,1.71-.2.85-.36,1.71-.52,2.57A24.91,24.91,0,0,1,461.8,283a30.12,30.12,0,0,1-1.64,3.39,30.48,30.48,0,0,0-1.74,3.59,31.48,31.48,0,0,0-1.1,3.89,29.22,29.22,0,0,1-1,3.48,23.94,23.94,0,0,1-2.06,3.9c-.44.72-.89,1.47-1.31,2.25-.27.5-.53,1-.79,1.54a17.9,17.9,0,0,1-2.88,4.59,18.53,18.53,0,0,1-5.48,3.37c-.56.26-1.13.53-1.69.81-1.75.88-3.42,1.88-5,2.86-.89.54-1.76,1.06-2.62,1.55s-1.48.82-2.2,1.21c-1.59.86-3.23,1.75-4.8,2.81l-1.34.95a15.36,15.36,0,0,1-5.31,2.86,17.49,17.49,0,0,1-6.27-.25c-.66-.11-1.33-.21-2-.3-1.93-.24-3.87-.33-5.74-.42-1.06-.06-2.09-.11-3.08-.18l-2.24-.2c-1.88-.18-3.66-.35-5.54-.35H394.7a19.33,19.33,0,0,1-6.36-.64c-1.67-.56-3.31-2.07-4.89-3.53a22.2,22.2,0,0,0-4.32-3.4,17.39,17.39,0,0,0-5.09-1.49c-2-.36-3.83-.7-5.14-1.8s-2.14-3.09-3-5.17a20.82,20.82,0,0,0-2.54-4.92,18.12,18.12,0,0,0-4.11-3.5c-1.74-1.21-3.38-2.35-4.16-3.94s-.69-3.63-.6-5.81a20,20,0,0,0-.31-5.57,19.1,19.1,0,0,0-2.32-4.9c-1.12-1.9-2.18-3.69-2.26-5.52a18.34,18.34,0,0,1,.88-5.5c.15-.57.29-1.14.43-1.7.2-.86.36-1.71.51-2.57a26.67,26.67,0,0,1,1.12-4.54,30.26,30.26,0,0,1,1.65-3.39,32.29,32.29,0,0,0,1.74-3.6A31.48,31.48,0,0,0,357,249a29,29,0,0,1,1-3.47,23.62,23.62,0,0,1,2.06-3.91c.44-.72.89-1.46,1.31-2.24l.72-1.4a21.63,21.63,0,0,1,3-4.77c1.19-1.3,3.12-2.11,5.16-3a21.86,21.86,0,0,0,5-2.6c.22-.17.41-.37.61-.55l-11.94,3.6a10.44,10.44,0,0,0-.76.73,23.1,23.1,0,0,0-3.37,5.35c-.24.45-.47.91-.71,1.35-.38.71-.79,1.4-1.23,2.12a25.5,25.5,0,0,0-2.27,4.35,30.33,30.33,0,0,0-1.08,3.8,27.82,27.82,0,0,1-1,3.55,29,29,0,0,1-1.6,3.28,33.29,33.29,0,0,0-1.79,3.7,28.13,28.13,0,0,0-1.25,5c-.15.81-.3,1.63-.49,2.44-.13.54-.27,1.09-.41,1.63a21,21,0,0,0-1,6.31c.12,2.49,1.4,4.65,2.64,6.75a17,17,0,0,1,2,4.19,17.5,17.5,0,0,1,.23,4.82c-.09,2.42-.19,4.92.88,7.08s3.09,3.61,5,5a16,16,0,0,1,3.53,3,18.2,18.2,0,0,1,2.17,4.28c.93,2.28,1.9,4.65,3.75,6.2s4.15,2,6.37,2.39a15,15,0,0,1,4.32,1.22,20.05,20.05,0,0,1,3.76,3c1.79,1.66,3.63,3.36,5.85,4.11a21.24,21.24,0,0,0,7.24.77h1.15c1.77,0,3.52.17,5.36.34l2.29.21c1,.08,2.08.13,3.16.18,1.82.09,3.71.18,5.54.41.64.08,1.28.18,1.93.28a30.7,30.7,0,0,0,4.69.49,11.6,11.6,0,0,0,2.56-.27,17.58,17.58,0,0,0,6.28-3.29c.44-.31.86-.62,1.29-.91a51.09,51.09,0,0,1,4.57-2.67c.74-.41,1.49-.81,2.24-1.24s1.77-1,2.68-1.59c1.58-.94,3.21-1.93,4.86-2.75l1.64-.79a20.45,20.45,0,0,0,6.26-3.93,20.05,20.05,0,0,0,3.34-5.24c.26-.5.5-1,.76-1.49.38-.71.8-1.39,1.24-2.11a26.63,26.63,0,0,0,2.27-4.35,29.11,29.11,0,0,0,1.07-3.8,29.21,29.21,0,0,1,1-3.56,28.14,28.14,0,0,1,1.6-3.28,33.25,33.25,0,0,0,1.78-3.7,28.06,28.06,0,0,0,1.26-5c.15-.81.3-1.63.49-2.44.12-.55.27-1.1.41-1.65s.33-1.27.48-1.92V266.1a22.81,22.81,0,0,0-2.15-4.31A16.71,16.71,0,0,1,462.76,257.59Z"/><path class="cls-12" d="M373,242.86a14.77,14.77,0,0,0-2.24,4.61l-.08.22c-.12.35-.25.69-.38,1l3.38-1a10.44,10.44,0,0,1,1.53-3.08c.77-1,2.29-1.55,3.89-2.17a14.35,14.35,0,0,0,4.26-2.2,12.72,12.72,0,0,0,2.68-3.83c.78-1.45,1.51-2.83,2.59-3.39a4.26,4.26,0,0,1,2-.38,22.23,22.23,0,0,1,2.34.17,13.75,13.75,0,0,0,4.79-.06,13.08,13.08,0,0,0,4.1-2.21c1.4-1,2.73-1.92,4-2a10.93,10.93,0,0,1,3.9.9l.49.17,1.38.45a23.68,23.68,0,0,1,3,1.13c.56.28,1.11.59,1.69.92a19.69,19.69,0,0,0,3,1.48,18.4,18.4,0,0,0,3.28.73c.6.1,1.19.19,1.76.32a19.67,19.67,0,0,1,2.81.93c.47.17.93.35,1.41.51l.21.08a12.22,12.22,0,0,1,3.78,1.77c1,.77,1.55,2.29,2.17,3.89a14.35,14.35,0,0,0,2.2,4.26,12.8,12.8,0,0,0,3.82,2.68c1.46.78,2.84,1.51,3.4,2.59s.39,2.65.21,4.34a13.52,13.52,0,0,0,.06,4.79,13,13,0,0,0,2.21,4.1l.21.3,2.22.67a1.48,1.48,0,0,1,1.07,1.43v7.14c0-.07.05-.15.08-.22l.17-.48a13.46,13.46,0,0,0,1.05-4.93c-.08-2.12-1.35-3.94-2.48-5.54a10.8,10.8,0,0,1-1.79-3.18,11.41,11.41,0,0,1,0-3.78c.21-2,.43-4.13-.52-6s-2.89-2.88-4.58-3.78a10.89,10.89,0,0,1-3-2,12.53,12.53,0,0,1-1.71-3.44c-.73-1.88-1.48-3.83-3-5.08a14.54,14.54,0,0,0-4.63-2.24l-.21-.07-1.32-.49a22.94,22.94,0,0,0-3.19-1c-.63-.15-1.28-.25-1.94-.36a15.92,15.92,0,0,1-2.79-.61,15.5,15.5,0,0,1-2.51-1.26c-.6-.34-1.21-.69-1.86-1a25.91,25.91,0,0,0-3.41-1.28l-1.31-.43-.48-.17a13.88,13.88,0,0,0-4.93-1.05c-2.12.07-3.94,1.35-5.54,2.48A11,11,0,0,1,397,230a11.47,11.47,0,0,1-3.79,0c-2-.21-4.12-.43-5.94.52s-2.88,2.88-3.78,4.57a10.81,10.81,0,0,1-2,3,12.53,12.53,0,0,1-3.44,1.71C376.16,240.55,374.21,241.3,373,242.86Z"/><path class="cls-12" d="M440.86,291.87a10.42,10.42,0,0,1-1.64,3.45,11.53,11.53,0,0,1-4.14,2.48l-.67.29a38,38,0,0,0-5.67,3.08,26.61,26.61,0,0,0-4.46,3.83l-.42.46a8.94,8.94,0,0,1-3.46,2.71,10.76,10.76,0,0,1-4.62-.14l-.9-.14a39,39,0,0,0-6.43-.47,24.64,24.64,0,0,0-5.75.84,11,11,0,0,1-4.85.49h0c-1.21-.27-2.49-1.44-3.73-2.57a14.56,14.56,0,0,0-3.79-2.78,12.09,12.09,0,0,0-4.57-.68c-1.57,0-3.05-.06-4-.75s-1.56-2.26-2.17-3.89a13.84,13.84,0,0,0-2.15-4.23,12.72,12.72,0,0,0-3.83-2.68c-1.45-.78-2.83-1.51-3.39-2.59s-.39-2.65-.21-4.34a13.52,13.52,0,0,0-.06-4.79,12.8,12.8,0,0,0-2.22-4.1c-1-1.4-1.91-2.73-2-4a11.08,11.08,0,0,1,.89-3.89l.18-.5c.16-.46.3-.92.45-1.38s.38-1.16.58-1.71a13,13,0,0,1-.53-3.62v-1.61l-.46.81c-.34.6-.69,1.21-1,1.86a25.91,25.91,0,0,0-1.28,3.41c-.14.44-.28.88-.43,1.31l-.17.49a13.16,13.16,0,0,0-1.05,4.92c.07,2.12,1.35,3.94,2.48,5.54a11,11,0,0,1,1.79,3.18,11.41,11.41,0,0,1,0,3.78c-.22,2-.44,4.13.51,5.95s2.89,2.88,4.58,3.78a10.6,10.6,0,0,1,3,2,12,12,0,0,1,1.65,3.39c.73,1.94,1.48,3.95,3.14,5.17s3.76,1.26,5.61,1.3a10.16,10.16,0,0,1,3.52.46,12.43,12.43,0,0,1,3,2.27c1.51,1.38,3.08,2.8,5,3.23h0a8.1,8.1,0,0,0,1.82.19,18.39,18.39,0,0,0,4.38-.7,21.59,21.59,0,0,1,5.06-.75,36.37,36.37,0,0,1,5.95.44l.87.13a12.7,12.7,0,0,0,5.94.05,11.32,11.32,0,0,0,4.67-3.48l.41-.44a23.65,23.65,0,0,1,4-3.43,35.93,35.93,0,0,1,5.24-2.84l.65-.29a13.43,13.43,0,0,0,5.17-3.24,13.06,13.06,0,0,0,2.18-4.43l0-.11a6.58,6.58,0,0,1-1.05-.23Z"/><path class="cls-2" d="M421.06,287.86c-.33,1.05-.72,2.24-1.27,2.56s-1.74.05-2.81-.18a8.71,8.71,0,0,0-4.05-.22,8.41,8.41,0,0,0-3.3,2.17c-.84.75-1.78,1.6-2.45,1.6s-1.62-.85-2.45-1.6a8.41,8.41,0,0,0-3.3-2.17,4.88,4.88,0,0,0-1.32-.17,13.41,13.41,0,0,0-2.73.39c-1.07.23-2.28.48-2.81.18s-.94-1.51-1.28-2.57a6.43,6.43,0,0,0-5.39-5.39c-1.06-.34-2.25-.72-2.57-1.28s-.05-1.74.18-2.81a12.21,12.21,0,0,0,.38-3l-3.46-1a2.77,2.77,0,0,1,.41.77,6.87,6.87,0,0,1-.26,2.65c-.34,1.6-.73,3.41.16,4.94s2.67,2.12,4.23,2.62a3.71,3.71,0,0,1,3.47,3.47c.5,1.56,1.08,3.34,2.62,4.23s3.34.5,4.94.17a6.74,6.74,0,0,1,2.66-.27,6.93,6.93,0,0,1,2.06,1.5c1.23,1.12,2.63,2.38,4.46,2.38s3.22-1.26,4.46-2.38a3.65,3.65,0,0,1,4.72-1.23c1.6.33,3.4.72,4.93-.17s2.12-2.67,2.63-4.23a12.21,12.21,0,0,1,.68-1.79l-2.91-.87C421.45,286.68,421.25,287.27,421.06,287.86Z"/><path class="cls-2" d="M394.57,246.73c.53-.31,1.74,0,2.81.18a8.84,8.84,0,0,0,4.05.22,8.41,8.41,0,0,0,3.3-2.17c.83-.75,1.78-1.61,2.45-1.61s1.61.86,2.45,1.61a8.41,8.41,0,0,0,3.3,2.17,8.71,8.71,0,0,0,4.05-.22c1.07-.23,2.28-.49,2.81-.18s.94,1.51,1.28,2.56a6.4,6.4,0,0,0,5.39,5.4c1.05.34,2.24.72,2.56,1.27s.05,1.74-.17,2.81c-.06.24-.11.49-.15.73l2.89.87c.06-.32.12-.65.19-1,.34-1.59.72-3.4-.16-4.93s-2.67-2.12-4.24-2.63a3.67,3.67,0,0,1-3.46-3.46c-.51-1.57-1.08-3.34-2.63-4.24s-3.34-.5-4.93-.16a6.93,6.93,0,0,1-2.66.26,6.64,6.64,0,0,1-2.06-1.5c-1.24-1.11-2.63-2.38-4.46-2.38s-3.23,1.27-4.46,2.38a6.76,6.76,0,0,1-2.06,1.5A6.92,6.92,0,0,1,398,244c-1.6-.34-3.41-.72-4.93.16s-2.05,2.46-2.54,3.94l2.88.87A4.4,4.4,0,0,1,394.57,246.73Z"/></g></svg>