<svg xmlns="http://www.w3.org/2000/svg" viewBox="0 0 600 599.61"><defs><style>.cls-1{fill:#001957;}.cls-2{fill:#004ecc;}.cls-3{fill:none;}.cls-4{fill:#0b55cc;}.cls-5{fill:#165bcc;}.cls-6{fill:#2162cc;}.cls-7{fill:#2c69cc;}.cls-8{fill:#366fcc;}.cls-9{fill:#4176cc;}.cls-10{fill:#4c7dcc;}.cls-11{fill:#5783cc;}.cls-12{fill:#628acc;}</style></defs><title>icons - Through Wall - Light</title><g id="Through_Wall" data-name="Through Wall"><g id="Building_Light_copy_6" data-name="Building Light copy 6"><path class="cls-1" d="M315.55,473.9a1.48,1.48,0,0,0,.9.3,1.29,1.29,0,0,0,.43-.07l168.32-50.8a1.5,1.5,0,0,0,1.07-1.43V193.17a1.5,1.5,0,0,0-1.94-1.44l-15.64,4.71a1.27,1.27,0,0,0-.39.12L316,242.42a1.51,1.51,0,0,0-1.06,1.44V472.7A1.49,1.49,0,0,0,315.55,473.9Zm2.4-90.73L447.7,422.1,318,461.31Zm0,81.27,151.41-45.75.07,0,.15-.06.12-.07.12-.08.12-.09.09-.1.1-.12h0l11.12,3.26L318,470.68Zm165.32-43.66-.26.08-12.58-3.69V199.05l12.84-3.87ZM467.43,200V416.14l-18,5.44L318,382.13V245Z"/><path class="cls-1" d="M522.42,476.81l.09-.1a.57.57,0,0,0,.08-.13.75.75,0,0,0,.07-.12l.06-.14,0-.13,0-.14a.86.86,0,0,0,0-.16s0-.05,0-.08V463.47a.43.43,0,0,1,0-.05,1.36,1.36,0,0,0,0-.2.36.36,0,0,0,0-.1,1.21,1.21,0,0,0,0-.18l-.05-.1a1.09,1.09,0,0,0-.08-.15l-.06-.1-.11-.13-.08-.08-.13-.11-.11-.07-.14-.08-.13-.05-.08,0-12-3.6v-9.22h0v-9.13a.43.43,0,0,1,0-.05.77.77,0,0,0,0-.15.59.59,0,0,0,0-.14c0-.05,0-.09,0-.14l-.05-.14-.07-.12-.08-.13a.87.87,0,0,0-.09-.11l-.09-.1-.11-.09a.38.38,0,0,0-.13-.09.41.41,0,0,0-.11-.07l-.15-.07-.05,0-6.63-2.28V168.65l7.24-7.44a1.5,1.5,0,0,0,.43-1v-15.4a4.32,4.32,0,0,0-1-8.35l-.12,0L301,74.07l-.16,0-.13,0h-.3l-.08,0-.2,0L92.84,136.38h-.09a4.33,4.33,0,0,0-1.31,8.39v15.4a1.49,1.49,0,0,0,.42,1l7.25,7.44V436.46l-6.74,2.86a1.5,1.5,0,0,0-.91,1.38v22.1a1.49,1.49,0,0,0,1.06,1.44l207.65,62.33h.05a1.59,1.59,0,0,0,.38.06h0a1.59,1.59,0,0,0,.38-.06H301L436.18,486l27.76,8.41a1.64,1.64,0,0,0,.88,0l56.92-17.18.07,0,.16-.06.11-.07a.57.57,0,0,0,.13-.08l.11-.09ZM302.11,523.12V503.07L435.63,463v20l-.2.08ZM91.59,140.71a1.33,1.33,0,0,1,1.23-1.32l206.29,61.86v3.6L94.43,143.47a1.5,1.5,0,0,0-1.49-1.42A1.34,1.34,0,0,1,91.59,140.71ZM464.38,480.13l-11.32-3.4,54-16.29,0,0a.27.27,0,0,0,.07.08l.12.13.09.07.15.1.1.06.17.07.06,0,10,3Zm42.38-31.89L495.83,445l10.93-3.28Zm-12.67-2.75,12.43,3.73-55.2,16.66L438,462.32Zm-42.26,21.28,54.93-16.58v9.3l-54.93,16.57ZM302.11,502v-4.5L499.4,438.33a.39.39,0,0,0,.08.1.47.47,0,0,0,.1.1.52.52,0,0,0,.11.1.5.5,0,0,0,.12.08.41.41,0,0,0,.11.07l.16.07,0,0,5.86,2Zm-200-64.64V169l197,59V496.48Zm197-231.48v14.52L94.44,159V144.52Zm1.5-120.79,189.13,56.74L300.61,198.57l-189-56.67Zm1.5,135.31V205.9l204.67-61.38V159Zm197,217-197,59.1V228l197-59ZM499.53,167h0a1.5,1.5,0,0,0-.3.48s0,0,0,0a1.64,1.64,0,0,0-.09.44l-197,59v-3.45l201.07-60.3Zm7.25-23.53L302.11,204.85v-3.6l206.28-61.86a1.33,1.33,0,0,1-.11,2.66A1.51,1.51,0,0,0,506.78,143.47Zm-15.3-2.14L301.11,84.22v-7l202,60.61ZM300.11,77.23v7L109.89,141.38l-11.65-3.5Zm-1,146.32V227l-197-59a1.64,1.64,0,0,0-.09-.44.08.08,0,0,1,0,0,1.52,1.52,0,0,0-.31-.48h0L98,163.25ZM101.19,438.83l.07,0,.19-.1a1.27,1.27,0,0,0,.13-.11l.09-.08.1-.12,0-.05,197.3,59.19V502L95.92,441.07ZM436.63,483V463l14.2,3.78v10a.52.52,0,0,0,.09.28l0,0a.46.46,0,0,0,.23.16h0L463.88,481v10.25Zm28.25,8.26V481l54.7-16.51.23.07V474.7ZM94.46,441.69h0l204.63,61.39v20.05L94.46,461.69Z"/></g><path class="cls-2" d="M231.23,359.65l4.86,1.47a1.59,1.59,0,0,0,.43.06,1.5,1.5,0,0,0,.43-2.93l-4.86-1.47a1.51,1.51,0,0,0-1.87,1A1.49,1.49,0,0,0,231.23,359.65Z"/><path class="cls-2" d="M207.89,352.63l4.86,1.46a1.59,1.59,0,0,0,.43.06,1.5,1.5,0,0,0,.43-2.93l-4.86-1.47a1.5,1.5,0,1,0-.86,2.88Z"/><path class="cls-2" d="M196.22,349.11l4.86,1.47a1.59,1.59,0,0,0,.43.06,1.5,1.5,0,0,0,.43-2.94l-4.86-1.46a1.5,1.5,0,1,0-.86,2.87Z"/><path class="cls-2" d="M184.55,345.6l4.86,1.46a1.65,1.65,0,0,0,.43.06,1.5,1.5,0,0,0,.44-2.93l-4.87-1.47a1.5,1.5,0,1,0-.86,2.88Z"/><path class="cls-2" d="M239,428.16v-3.73l-14.32,4.3-.15,0a.49.49,0,0,1-.47-.36.5.5,0,0,1,.33-.62l14.47-4.34H239v-3.17l-14.32,4.3-.15,0a.49.49,0,0,1-.47-.36.5.5,0,0,1,.33-.62l14.47-4.34H239v-3.17l-14.32,4.29a.39.39,0,0,1-.15,0,.5.5,0,0,1-.14-1l14.47-4.34a.36.36,0,0,1,.14,0v-3.17l-14.32,4.3-.15,0a.49.49,0,0,1-.47-.36.5.5,0,0,1,.33-.62l14.47-4.34H239V407.7L224.66,412l-.15,0a.49.49,0,0,1-.47-.36.5.5,0,0,1,.33-.62l14.47-4.34H239v-3.17l-14.32,4.29a.39.39,0,0,1-.15,0,.49.49,0,0,1-.47-.35.51.51,0,0,1,.33-.63l14.47-4.33a.36.36,0,0,1,.14,0v-3.17l-14.32,4.3-.15,0a.49.49,0,0,1-.47-.36.38.38,0,0,1,0-.21s0,0,0-.05V384.6s0,0,0,0a.3.3,0,0,1,0-.1.32.32,0,0,1,0-.09.35.35,0,0,1,.05-.08l.06-.07.07-.05.1-.05h0l14.47-4.34a.34.34,0,0,1,.14,0V373h0v-1L212.47,380v59.27L239,431.32v0h0v-3.14Z"/><path class="cls-2" d="M163.09,348.77l-26.15,7.83,75,22.5,26.15-7.83-27.06-8.12-43.41-13h0l-4.54-1.36h0Zm-8.78,10.65a2.28,2.28,0,1,1,2.28-2.28A2.28,2.28,0,0,1,154.31,359.42Z"/><path class="cls-2" d="M225,402.48l13.83-4.15H239V380.78L225,385Z"/><path class="cls-2" d="M189.54,424.64a.5.5,0,0,1-.34-.62.5.5,0,0,1,.63-.34l21.64,6.5v-3.57L189.54,420a.5.5,0,0,1-.34-.62.5.5,0,0,1,.63-.34l21.64,6.49V422l-21.93-6.58a.49.49,0,0,1-.34-.62.51.51,0,0,1,.63-.33L211.47,421v-3.56l-21.93-6.58a.5.5,0,0,1-.34-.62.5.5,0,0,1,.63-.34l21.64,6.49v-3.43l-21.93-6.58a.5.5,0,1,1,.29-1l21.64,6.49v-3.56l-21.93-6.58a.5.5,0,0,1-.34-.62.5.5,0,0,1,.63-.34l21.64,6.49v-3.56l-21.93-6.58a.49.49,0,0,1-.34-.62.51.51,0,0,1,.63-.33l21.64,6.49v-3.56l-21.93-6.58a.5.5,0,0,1-.34-.62.51.51,0,0,1,.63-.34l21.64,6.49v-3.56l-21.93-6.57a.5.5,0,1,1,.29-1l21.64,6.49v-3.56l-21.93-6.58a.5.5,0,1,1,.29-.95l21.64,6.49V380l-75.4-22.62v8.9a.34.34,0,0,1,.14,0l47.66,14.29a.5.5,0,0,1,.34.62.49.49,0,0,1-.48.36l-.14,0L136.07,367.3v3.59h.14l47.66,14.29a.5.5,0,0,1,.34.63.5.5,0,0,1-.48.35.34.34,0,0,1-.14,0L136.07,371.9v3.59a.34.34,0,0,1,.14,0l47.66,14.29a.5.5,0,0,1,.34.62.49.49,0,0,1-.48.36l-.14,0-47.52-14.25v3.59a.33.33,0,0,1,.14,0l47.66,14.29a.5.5,0,0,1,.34.63.5.5,0,0,1-.48.35.34.34,0,0,1-.14,0l-47.52-14.25v3.59h.14L183.87,399a.5.5,0,0,1-.14,1,.35.35,0,0,1-.14,0l-47.52-14.25v3.59a.34.34,0,0,1,.14,0l47.66,14.29a.5.5,0,0,1,.34.62.49.49,0,0,1-.48.36l-.14,0-47.52-14.25v3.46h.14l47.66,14.3a.5.5,0,0,1-.14,1,.35.35,0,0,1-.14,0l-47.52-14.25v3.59a.34.34,0,0,1,.14,0l47.66,14.29a.5.5,0,0,1,.34.62.49.49,0,0,1-.48.36l-.14,0L136.07,399.4V403h.14l47.66,14.3a.49.49,0,0,1,.34.62.5.5,0,0,1-.48.35.34.34,0,0,1-.14,0L136.07,404v3.59a.34.34,0,0,1,.14,0l47.66,14.29a.5.5,0,0,1,.34.62.49.49,0,0,1-.48.36l-.14,0-47.52-14.25v8.05l51.79,15.53,23.61,7.08v-8Z"/><path class="cls-2" d="M173.31,348.62a1.35,1.35,0,0,0,.44-.07l4.86-1.46a1.5,1.5,0,0,0,1-1.87,1.49,1.49,0,0,0-1.87-1l-4.86,1.46a1.5,1.5,0,0,0,.43,2.94Z"/><path class="cls-2" d="M219.56,356.14l4.86,1.46a1.29,1.29,0,0,0,.43.07,1.5,1.5,0,0,0,.43-2.94l-4.86-1.46a1.5,1.5,0,1,0-.86,2.87Z"/><path class="cls-2" d="M257.39,385.34a1.51,1.51,0,0,0-1.5,1.5v4.84a1.5,1.5,0,0,0,3,0v-4.84A1.5,1.5,0,0,0,257.39,385.34Z"/><path class="cls-2" d="M257.39,397a1.5,1.5,0,0,0-1.5,1.5v4.84a1.5,1.5,0,1,0,3,0v-4.84A1.5,1.5,0,0,0,257.39,397Z"/><path class="cls-2" d="M258.89,365.9l0-.21s0-.08,0-.11a1,1,0,0,0-.08-.21.25.25,0,0,0,0-.09,1.24,1.24,0,0,0-.17-.27l-.05,0a1.07,1.07,0,0,0-.19-.18l0,0-.07,0a1.18,1.18,0,0,0-.19-.11l-.11-.05-.09,0-2.4-.72a2.16,2.16,0,1,0,0,4.32l.46-.14v.48a1.5,1.5,0,0,0,3,0V365.9Z"/><path class="cls-2" d="M257.39,373.74a1.5,1.5,0,0,0-1.5,1.5v4.83a1.5,1.5,0,1,0,3,0v-4.83A1.5,1.5,0,0,0,257.39,373.74Z"/><path class="cls-2" d="M257.39,408.56a1.5,1.5,0,0,0-1.5,1.5v4.83a1.5,1.5,0,0,0,3,0v-4.83A1.5,1.5,0,0,0,257.39,408.56Z"/><path class="cls-2" d="M248.19,364.7a1.5,1.5,0,0,0,.43-2.94l-4.86-1.46a1.5,1.5,0,1,0-.86,2.87l4.86,1.46A1.29,1.29,0,0,0,248.19,364.7Z"/><path class="cls-2" d="M257.39,420.16a1.5,1.5,0,0,0-1.5,1.5v1.39l-1.32.4a1.5,1.5,0,0,0,.43,2.93,1.59,1.59,0,0,0,.43-.06l2.4-.72a1.5,1.5,0,0,0,1.06-1.44v-2.5A1.5,1.5,0,0,0,257.39,420.16Z"/><path class="cls-2" d="M249,425.13l-4,1.19a1.5,1.5,0,0,0,.43,2.94,1.39,1.39,0,0,0,.44-.07l4-1.19a1.5,1.5,0,0,0-.87-2.87Z"/><path class="cls-2" d="M247.76,367.29l-3.59,1.09a1.5,1.5,0,0,0,.44,2.93,1.59,1.59,0,0,0,.43-.06l3.59-1.09a1.5,1.5,0,1,0-.87-2.87Z"/><g id="Wave-3" data-name="Wave"><path class="cls-3" d="M447,413.87c.15-1.83.3-3.65.49-5.47A134.68,134.68,0,0,1,450,393.29c.42-1.91.89-3.82,1.36-5.73,1.53-6.26,3.11-12.73,3.11-19.22s-1.58-13-3.11-19.22c-.47-1.91-.94-3.82-1.36-5.73a135.05,135.05,0,0,1-2.48-15.11c-.19-1.82-.34-3.65-.49-5.48-.14-1.56-.27-3.13-.42-4.69a189.12,189.12,0,0,0-4.19-24.91c-.46-1.92-.86-3.49-1.27-4.93a83,83,0,0,0-7.8-18.48c-1.57-2.75-3.34-5.47-5.05-8.1-2-3-4-6.12-5.72-9.28-.83-1.51-1.62-3.06-2.33-4.6-1.55-3.36-2.87-6.91-4.15-10.35a112.52,112.52,0,0,0-5.59-13.23,53.78,53.78,0,0,0-3.72-6l-19.9,6c1.87,1.83,3.74,3.72,5.44,5.73a46.73,46.73,0,0,1,5.47,7.94,84,84,0,0,1,5,12.33c1.14,3.28,2.32,6.68,3.78,9.83.63,1.36,1.36,2.76,2.16,4.15,1.48,2.57,3.21,5.12,4.88,7.58,1.86,2.72,3.77,5.54,5.39,8.45a73.57,73.57,0,0,1,6.81,17.7c.35,1.34.68,2.69,1,4l.5,2.06a167.5,167.5,0,0,1,4.25,21.74c.23,2.21.37,4.46.51,6.64.06,1,.12,1.91.19,2.86a103.38,103.38,0,0,0,1.86,13.9c.48,2.27,1.09,4.59,1.67,6.83,1.4,5.4,2.85,11,2.85,16.66s-1.45,11.27-2.85,16.67c-.58,2.24-1.19,4.56-1.67,6.82a103.61,103.61,0,0,0-1.86,13.9c-.07.95-.13,1.9-.19,2.85-.14,2.18-.28,4.44-.51,6.66-.28,2.61-.68,5.2-1.15,7.76l15.72-4.75c.16-1.33.34-2.67.47-4C446.73,417,446.86,415.44,447,413.87Z"/><path class="cls-3" d="M413.62,412.68l0-1.19A80.69,80.69,0,0,1,415,398.35c.5-2.49,1.21-5,1.89-7.45,1.28-4.54,2.6-9.23,2.6-13.89s-1.32-9.36-2.6-13.89c-.68-2.44-1.39-5-1.89-7.46a80.8,80.8,0,0,1-1.32-13.14l0-1.15c-.08-2.5-.16-5.08-.44-7.56a97.25,97.25,0,0,0-3.26-14.8c-.57-2-1.15-4.16-1.67-6.25-.26-1.05-.5-2.11-.74-3.17l-.27-1.15c-1.19-5.08-2.7-10.94-5.51-16.14a75.9,75.9,0,0,0-5.36-8.16c-1.5-2.09-3.05-4.25-4.38-6.46a39.91,39.91,0,0,1-2.14-4,77.76,77.76,0,0,1-3.48-9.54,62.23,62.23,0,0,0-4.25-11,35.77,35.77,0,0,0-5-6.91c-1.74-1.92-3.69-3.75-5.57-5.52-1.28-1.2-2.6-2.44-3.84-3.7-1.75-1.77-3.39-3.64-5-5.51l-18.5,5.57a85,85,0,0,1,5.57,7,78.55,78.55,0,0,0,6.08,7.56c1.4,1.46,3,2.88,4.5,4.25s3,2.66,4.35,4.08a31.07,31.07,0,0,1,5.08,6.61,48.35,48.35,0,0,1,3.83,10.48,55.67,55.67,0,0,0,3,8.7,27.91,27.91,0,0,0,1.92,3.42c1.15,1.81,2.52,3.59,3.84,5.32a56.18,56.18,0,0,1,5.47,8.08c2.36,4.52,3.37,9.55,4.35,14.41l.22,1.11c.3,1.48.56,2.71.86,3.93.6,2.39,1.4,4.81,2.18,7.14a47.57,47.57,0,0,1,3.45,20.42,62.26,62.26,0,0,0,.69,11.81,69.13,69.13,0,0,0,2,7.39c1.26,4,2.56,8.24,2.56,12.55s-1.3,8.49-2.56,12.54a69.94,69.94,0,0,0-2,7.4,62,62,0,0,0-.69,11.77,64.5,64.5,0,0,1-.28,8.23,63.76,63.76,0,0,1-3.17,12.24c-.53,1.59-1.07,3.22-1.55,4.85l16.5-5a86.75,86.75,0,0,0,2.82-13.16C413.46,417.74,413.54,415.17,413.62,412.68Z"/><path class="cls-3" d="M430.39,412.8c.06-.95.12-1.91.19-2.86a103.45,103.45,0,0,1,1.89-14.12c.49-2.3,1.1-4.64,1.69-6.9,1.37-5.3,2.8-10.77,2.8-16.25s-1.43-10.95-2.8-16.24c-.59-2.26-1.2-4.6-1.69-6.9a103.61,103.61,0,0,1-1.89-14.13c-.07-.95-.13-1.91-.19-2.87-.14-2.16-.28-4.4-.51-6.57a164.57,164.57,0,0,0-4.21-21.53l-.5-2.06c-.32-1.34-.64-2.68-1-4a72.33,72.33,0,0,0-6.65-17.31c-1.59-2.85-3.48-5.63-5.31-8.32-1.7-2.49-3.44-5.06-5-7.69-.83-1.43-1.58-2.87-2.24-4.28-1.49-3.22-2.68-6.66-3.83-10a83.42,83.42,0,0,0-4.9-12.08A44.27,44.27,0,0,0,391,231c-1.85-2.18-3.92-4.25-6-6.25l-20.35,6.13c1.4,1.63,2.84,3.25,4.35,4.78,1.22,1.23,2.53,2.46,3.8,3.65,1.91,1.8,3.88,3.65,5.67,5.63a37.12,37.12,0,0,1,5.27,7.27,63.13,63.13,0,0,1,4.4,11.36,75.92,75.92,0,0,0,3.39,9.31,38.31,38.31,0,0,0,2,3.79c1.3,2.15,2.83,4.28,4.31,6.34a79.12,79.12,0,0,1,5.48,8.36c2.93,5.41,4.47,11.41,5.69,16.61l.27,1.16c.24,1.05.48,2.1.74,3.14.5,2.07,1.09,4.17,1.65,6.2a99.07,99.07,0,0,1,3.32,15.08c.29,2.57.37,5.19.45,7.72l0,1.14a78.64,78.64,0,0,0,1.28,12.84c.48,2.42,1.18,4.91,1.86,7.32,1.31,4.65,2.67,9.47,2.67,14.4s-1.36,9.74-2.67,14.4c-.68,2.4-1.38,4.89-1.86,7.31a78.64,78.64,0,0,0-1.28,12.84l0,1.18c-.08,2.52-.16,5.13-.45,7.69a83.74,83.74,0,0,1-2.56,12.31l16.1-4.87c.53-2.8,1-5.62,1.28-8.47C430.11,417.22,430.25,415,430.39,412.8Z"/><path class="cls-3" d="M396.48,421a61.11,61.11,0,0,0,.27-7.9,63.72,63.72,0,0,1,.73-12.24,65.58,65.58,0,0,1,2-7.63c1.21-3.9,2.46-7.93,2.46-11.92s-1.25-8-2.46-11.92a67.64,67.64,0,0,1-2-7.63,63.33,63.33,0,0,1-.73-12.18,45.9,45.9,0,0,0-3.34-19.77c-.79-2.37-1.61-4.83-2.22-7.29-.32-1.27-.59-2.53-.89-4l-.22-1.1c-1-4.94-1.93-9.6-4.15-13.86a54.56,54.56,0,0,0-5.28-7.77c-1.34-1.76-2.74-3.58-3.94-5.46a31.08,31.08,0,0,1-2-3.66,57.55,57.55,0,0,1-3.08-9,47.42,47.42,0,0,0-3.64-10,29.1,29.1,0,0,0-4.75-6.16c-1.35-1.38-2.83-2.71-4.25-4s-3.16-2.84-4.62-4.37a78.89,78.89,0,0,1-6.25-7.76,75,75,0,0,0-6.11-7.58l-21.4,6.45c1.36,1.07,2.81,2.07,4.34,3.1a41.8,41.8,0,0,1,7.11,5.56,48.26,48.26,0,0,1,5.64,7.72,48,48,0,0,0,5,7,52.71,52.71,0,0,0,4.86,4.46c1.12.94,2.27,1.91,3.35,2.92a25.13,25.13,0,0,1,4.91,5.95,36.86,36.86,0,0,1,3.28,9.66,40.83,40.83,0,0,0,2.51,8,21.67,21.67,0,0,0,1.79,3.05c1,1.51,2.27,3,3.46,4.45a41.09,41.09,0,0,1,5.39,7.65c1.82,3.67,2.43,7.75,3,11.7.13.91.27,1.83.42,2.74.24,1.45.46,2.55.72,3.55a57.4,57.4,0,0,0,2.5,7.06,43.19,43.19,0,0,1,3.22,10.4,39.54,39.54,0,0,1,.06,7.62l0,.61a33.06,33.06,0,0,0,2.22,17.25c1.22,3.54,2.49,7.19,2.49,11s-1.27,7.45-2.49,11a33.12,33.12,0,0,0-2.22,17.26l0,.6a39.65,39.65,0,0,1-.06,7.63,43.19,43.19,0,0,1-3.22,10.4,55.79,55.79,0,0,0-2.5,7.06c-.26,1-.48,2.1-.72,3.54l-.12.76,15.93-4.81c.57-2.11,1.26-4.2,1.93-6.24A61.53,61.53,0,0,0,396.48,421Z"/><path class="cls-3" d="M374.12,439a57.67,57.67,0,0,1,2.6-7.35,41.34,41.34,0,0,0,3.07-9.83,38.29,38.29,0,0,0,0-7.19l0-.6a46.55,46.55,0,0,1,.18-10.61,47.44,47.44,0,0,1,2.16-7.55c1.16-3.35,2.36-6.82,2.36-10.22s-1.2-6.86-2.36-10.21a48,48,0,0,1-2.16-7.55,46.55,46.55,0,0,1-.18-10.61l0-.61a38.19,38.19,0,0,0,0-7.18,41.34,41.34,0,0,0-3.07-9.83,59.26,59.26,0,0,1-2.6-7.35c-.28-1.07-.51-2.23-.76-3.75-.15-.92-.29-1.85-.43-2.77-.59-3.95-1.14-7.68-2.8-11a39.18,39.18,0,0,0-5.1-7.2c-1.23-1.48-2.49-3-3.59-4.61a24.45,24.45,0,0,1-2-3.37,43,43,0,0,1-2.67-8.49,34.79,34.79,0,0,0-3-9.05,22.81,22.81,0,0,0-4.47-5.39c-1-1-2.17-1.93-3.26-2.85a56.11,56.11,0,0,1-5.08-4.66,51.76,51.76,0,0,1-5.28-7.34,44.91,44.91,0,0,0-5.34-7.36,40.3,40.3,0,0,0-6.74-5.24,54.25,54.25,0,0,1-5.67-4.2v22.2a18.59,18.59,0,0,1,2.75,2.34,32.34,32.34,0,0,1,4.81,7.48,31.55,31.55,0,0,0,4,6.5,34.62,34.62,0,0,0,5,4.36c.86.67,1.73,1.34,2.57,2a20.08,20.08,0,0,1,4.74,5.31c1.56,2.68,2.17,5.83,2.76,8.88a29.75,29.75,0,0,0,2,7.32,16.85,16.85,0,0,0,1.64,2.66c.94,1.26,2,2.44,3.14,3.7a30.15,30.15,0,0,1,5.27,7.12c1.46,3.12,1.73,6.6,2,9.95.09,1.13.18,2.3.31,3.42a23,23,0,0,0,.57,3.16,35.65,35.65,0,0,0,2.75,6.54,30.74,30.74,0,0,1,3.35,9,27,27,0,0,1-.15,7.05l-.15,1.19a31.76,31.76,0,0,0-.31,8.4,32.14,32.14,0,0,0,2.1,6.74c1.21,3.09,2.46,6.28,2.46,9.63s-1.25,6.53-2.46,9.62a32.14,32.14,0,0,0-2.1,6.74,31.68,31.68,0,0,0,.31,8.39l.14,1.2a26.57,26.57,0,0,1,.16,7.05,30.53,30.53,0,0,1-3.35,9,34.58,34.58,0,0,0-2.75,6.54,23.09,23.09,0,0,0-.57,3.15c-.13,1.13-.23,2.3-.32,3.43-.1,1.33-.21,2.68-.39,4l14.83-4.48c.09-.63.18-1.26.29-1.89C373.6,441.27,373.84,440.08,374.12,439Z"/><path class="cls-3" d="M339.41,443.89c0-1.27,0-2.58.07-3.86a16.51,16.51,0,0,1,.51-3.27,25.52,25.52,0,0,1,3.24-6.53c1.43-2.3,2.78-4.47,3.16-6.8a16,16,0,0,0-.36-5.53c-.09-.48-.19-1-.29-1.44a18.21,18.21,0,0,1,1.58-14.83c1.13-2.53,2.21-4.92,2.21-7.29s-1.08-4.76-2.21-7.29a18.22,18.22,0,0,1-1.58-14.83c.1-.48.2-1,.29-1.45a16.27,16.27,0,0,0,.37-5.53c-.39-2.33-1.74-4.49-3.17-6.79a25.52,25.52,0,0,1-3.24-6.53,16.74,16.74,0,0,1-.51-3.28c-.09-1.28-.08-2.58-.07-3.85,0-2.76,0-5.36-.9-7.54s-2.66-3.83-4.53-5.68a42.49,42.49,0,0,1-3-3.25,15.2,15.2,0,0,1-1.84-2.79,24.18,24.18,0,0,1-1.81-7.4c-.37-2.66-.71-5.17-1.88-7.12a13.86,13.86,0,0,0-3.86-3.85c-.62-.45-1.26-.89-1.9-1.33s-1.16-.8-1.73-1.22V339a30.87,30.87,0,0,0,2.6,2.44c2,1.72,4,3.5,5,5.94s.63,5.1.33,7.69a10.54,10.54,0,0,0,3,10.75c1.63,2.06,3.31,4.19,3.79,6.78s-.32,5.1-1.1,7.59a15.83,15.83,0,0,0-1.08,5.77,15.57,15.57,0,0,0,2.08,5.36c1.23,2.33,2.49,4.73,2.49,7.37s-1.26,5.05-2.49,7.37a15.54,15.54,0,0,0-2.08,5.37,15.87,15.87,0,0,0,1.08,5.77c.78,2.48,1.57,5.05,1.1,7.59s-2.16,4.71-3.79,6.77a10.57,10.57,0,0,0-3,10.76c.3,2.59.61,5.26-.33,7.68s-3,4.23-5,5.95a32.54,32.54,0,0,0-2.6,2.43v3l17-5.14a16.33,16.33,0,0,0,3.6-4.74C339.45,449.25,339.43,446.65,339.41,443.89Z"/><path class="cls-3" d="M356.42,441.38a24.78,24.78,0,0,1,.63-3.49,37.67,37.67,0,0,1,2.93-7,28,28,0,0,0,3.11-8.22,24.65,24.65,0,0,0-.16-6.38l-.15-1.18a33.73,33.73,0,0,1-.3-9.09,34.51,34.51,0,0,1,2.25-7.29c1.18-3,2.29-5.83,2.29-8.69s-1.11-5.7-2.29-8.7a34.51,34.51,0,0,1-2.25-7.29,33.73,33.73,0,0,1,.3-9.09l.15-1.18a24.58,24.58,0,0,0,.16-6.37c-.41-2.83-1.72-5.45-3.11-8.22a37.76,37.76,0,0,1-2.93-7,24.94,24.94,0,0,1-.63-3.5c-.15-1.17-.24-2.37-.33-3.52-.26-3.28-.51-6.38-1.77-9.08a27.88,27.88,0,0,0-4.84-6.49c-1.13-1.24-2.29-2.53-3.3-3.89a19.18,19.18,0,0,1-1.89-3.07,32.35,32.35,0,0,1-2.25-7.94c-.57-3-1.12-5.78-2.46-8.09a17.48,17.48,0,0,0-4.17-4.63c-.81-.68-1.66-1.33-2.5-2a37.36,37.36,0,0,1-5.34-4.7,34.23,34.23,0,0,1-4.36-7,29.6,29.6,0,0,0-4.4-6.9c-.28-.29-.59-.55-.89-.82v30.57a37,37,0,0,0,3.31,2.46c.66.46,1.32.91,2,1.38a16.81,16.81,0,0,1,4.61,4.67c1.45,2.43,1.85,5.35,2.24,8.17a21.86,21.86,0,0,0,1.56,6.55,12.32,12.32,0,0,0,1.49,2.26c.84,1,1.82,2,2.85,3,2,2,4,4,5.12,6.54,1.18,2.72,1.15,5.75,1.13,8.68,0,1.21,0,2.46.06,3.63a13.52,13.52,0,0,0,.42,2.74,22.84,22.84,0,0,0,2.92,5.79c1.51,2.43,3.07,4.94,3.55,7.82a18.38,18.38,0,0,1-.38,6.5l-.3,1.49a22.16,22.16,0,0,0-.73,7,22.74,22.74,0,0,0,2.12,6.13c1.21,2.68,2.46,5.46,2.46,8.43s-1.25,5.74-2.46,8.43a22.68,22.68,0,0,0-2.12,6.12,22.25,22.25,0,0,0,.73,7l.3,1.47a18.93,18.93,0,0,1,.38,6.51c-.48,2.88-2,5.39-3.55,7.82a22.84,22.84,0,0,0-2.92,5.79,13.3,13.3,0,0,0-.42,2.72c-.08,1.19-.07,2.44-.06,3.66,0,2.92,0,5.95-1.13,8.67a12.66,12.66,0,0,1-1.22,2.15L355.52,450c.29-1.6.43-3.29.57-5C356.18,443.76,356.27,442.56,356.42,441.38Z"/><path class="cls-3" d="M322.69,448.9c.67-1.73.42-3.93.15-6.26a13.31,13.31,0,0,1,3.66-13c1.47-1.85,2.86-3.6,3.2-5.46s-.32-3.92-1-6.15a18.12,18.12,0,0,1-1.21-6.94,17.86,17.86,0,0,1,2.42-6.48c1.1-2.1,2.14-4.08,2.14-6s-1-3.88-2.14-6a13.33,13.33,0,0,1-1.21-13.42c.69-2.24,1.35-4.35,1-6.16s-1.73-3.61-3.2-5.46a13.3,13.3,0,0,1-3.66-13c.27-2.33.52-4.53-.15-6.25s-2.36-3.22-4.14-4.77l-.63-.55V454.21l.63-.55C320.33,452.11,322,450.65,322.69,448.9Z"/><path class="cls-3" d="M463.39,311.51l-.11-1.24c-.86-9.23-1.79-18.22-3.82-26.85-.45-1.91-.91-3.63-1.41-5.25a92.78,92.78,0,0,0-8.93-19.64c-1.45-2.46-3-4.93-4.49-7.31-2.33-3.71-4.73-7.54-6.79-11.43-.83-1.57-1.65-3.23-2.43-4.93-1.58-3.45-3-7.05-4.39-10.54-1.57-3.95-3.19-8-5-11.87l-17.77,5.35a54.13,54.13,0,0,1,3.54,5.75A111.06,111.06,0,0,1,417.42,237c1.27,3.41,2.58,6.93,4.11,10.24.7,1.52,1.47,3,2.29,4.51,1.71,3.12,3.72,6.2,5.66,9.19,1.72,2.65,3.5,5.39,5.1,8.17a84.92,84.92,0,0,1,7.93,18.8c.41,1.47.82,3.05,1.28,5A190.24,190.24,0,0,1,448,318c.15,1.57.28,3.14.42,4.71.15,1.82.3,3.64.49,5.45a132.19,132.19,0,0,0,2.45,14.95c.42,1.89.89,3.79,1.35,5.69,1.55,6.35,3.16,12.9,3.16,19.57s-1.61,13.22-3.16,19.56c-.46,1.9-.93,3.8-1.35,5.7a132.19,132.19,0,0,0-2.45,14.95c-.19,1.8-.34,3.62-.49,5.44-.14,1.58-.27,3.16-.43,4.73-.11,1.13-.26,2.27-.39,3.4l15.69-4.74.08-.86c.29-3.17.59-6.45,1-9.66.61-4.61,1.54-9.54,3-15.93V337.08c-1.48-6.39-2.41-11.32-3-15.93C464,318,463.68,314.68,463.39,311.51Z"/><path class="cls-3" d="M453.13,227.16c-2.59-5.07-4.84-10.45-7-15.66-.63-1.51-1.26-3-1.91-4.54l-17,5.13c1.83,3.86,3.44,7.87,5,11.78,1.37,3.47,2.79,7.06,4.36,10.48.77,1.68,1.58,3.32,2.4,4.86,2,3.85,4.43,7.67,6.75,11.36,1.5,2.39,3.05,4.87,4.5,7.34a94,94,0,0,1,9.05,19.9c.5,1.65,1,3.39,1.43,5.33,2,8.71,3,17.75,3.84,27l.12,1.25c.29,3.15.59,6.41,1,9.59s1,6.52,1.81,10.39V251.59c-1.88-3.31-3.87-6.56-5.83-9.76C458.69,237.07,455.67,232.15,453.13,227.16Z"/><path class="cls-3" d="M447.05,211.12c2.16,5.18,4.39,10.55,7,15.59s5.53,9.85,8.43,14.6c1.67,2.72,3.35,5.48,5,8.28V200l-22.25,6.7C445.81,208.15,446.43,209.64,447.05,211.12Z"/><path class="cls-3" d="M464.61,416.63l0,.37,2.86-.86V396.63c-.81,3.87-1.39,7.21-1.81,10.39S464.9,413.47,464.61,416.63Z"/><path class="cls-2" d="M320.52,455.93c2-1.72,4-3.5,5-5.95s.63-5.09.33-7.68a10.57,10.57,0,0,1,3-10.76c1.63-2.06,3.31-4.18,3.79-6.77s-.32-5.11-1.1-7.59a15.87,15.87,0,0,1-1.08-5.77,15.54,15.54,0,0,1,2.08-5.37c1.23-2.32,2.49-4.73,2.49-7.37s-1.26-5-2.49-7.37a15.57,15.57,0,0,1-2.08-5.36,15.83,15.83,0,0,1,1.08-5.77c.78-2.49,1.57-5.05,1.1-7.59s-2.16-4.72-3.79-6.78a10.54,10.54,0,0,1-3-10.75c.3-2.59.61-5.27-.33-7.69s-3-4.22-5-5.94a30.87,30.87,0,0,1-2.6-2.44v4.15l.63.55c1.78,1.55,3.46,3,4.14,4.77s.42,3.92.15,6.25a13.3,13.3,0,0,0,3.66,13c1.47,1.85,2.86,3.61,3.2,5.46s-.32,3.92-1,6.16a13.33,13.33,0,0,0,1.21,13.42c1.1,2.09,2.14,4.07,2.14,6s-1,3.88-2.14,6a17.86,17.86,0,0,0-2.42,6.48,18.12,18.12,0,0,0,1.21,6.94c.69,2.23,1.35,4.34,1,6.15s-1.73,3.61-3.2,5.46a13.31,13.31,0,0,0-3.66,13c.27,2.33.52,4.53-.15,6.26s-2.36,3.21-4.14,4.76l-.63.55v4.15A32.54,32.54,0,0,1,320.52,455.93Z"/><path class="cls-4" d="M342.19,443.87c0-1.22,0-2.47.06-3.66a13.3,13.3,0,0,1,.42-2.72,22.84,22.84,0,0,1,2.92-5.79c1.51-2.43,3.07-4.94,3.55-7.82a18.93,18.93,0,0,0-.38-6.51l-.3-1.47a22.25,22.25,0,0,1-.73-7,22.68,22.68,0,0,1,2.12-6.12c1.21-2.69,2.46-5.46,2.46-8.43s-1.25-5.75-2.46-8.43a22.74,22.74,0,0,1-2.12-6.13,22.16,22.16,0,0,1,.73-7l.3-1.49a18.38,18.38,0,0,0,.38-6.5c-.48-2.88-2-5.39-3.55-7.82a22.84,22.84,0,0,1-2.92-5.79,13.52,13.52,0,0,1-.42-2.74c-.08-1.17-.07-2.42-.06-3.63,0-2.93.05-6-1.13-8.68-1.1-2.55-3.15-4.58-5.12-6.54-1-1-2-2-2.85-3a12.32,12.32,0,0,1-1.49-2.26,21.86,21.86,0,0,1-1.56-6.55c-.39-2.82-.79-5.74-2.24-8.17a16.81,16.81,0,0,0-4.61-4.67c-.64-.47-1.3-.92-2-1.38a37,37,0,0,1-3.31-2.46v3.53c.57.42,1.16.83,1.73,1.22s1.28.88,1.9,1.33a13.86,13.86,0,0,1,3.86,3.85c1.17,1.95,1.51,4.46,1.88,7.12a24.18,24.18,0,0,0,1.81,7.4,15.2,15.2,0,0,0,1.84,2.79,42.49,42.49,0,0,0,3,3.25c1.87,1.85,3.64,3.61,4.53,5.68s.92,4.78.9,7.54c0,1.27,0,2.57.07,3.85a16.74,16.74,0,0,0,.51,3.28,25.52,25.52,0,0,0,3.24,6.53c1.43,2.3,2.78,4.46,3.17,6.79a16.27,16.27,0,0,1-.37,5.53c-.09.49-.19,1-.29,1.45a18.22,18.22,0,0,0,1.58,14.83c1.13,2.53,2.21,4.92,2.21,7.29s-1.08,4.76-2.21,7.29a18.21,18.21,0,0,0-1.58,14.83c.1.48.2,1,.29,1.44a16,16,0,0,1,.36,5.53c-.38,2.33-1.73,4.5-3.16,6.8a25.52,25.52,0,0,0-3.24,6.53,16.51,16.51,0,0,0-.51,3.27c-.09,1.28-.08,2.59-.07,3.86,0,2.76,0,5.36-.9,7.55a16.33,16.33,0,0,1-3.6,4.74l4.93-1.49a12.66,12.66,0,0,0,1.22-2.15C342.23,449.82,342.21,446.79,342.19,443.87Z"/><path class="cls-5" d="M359,441.69a23.09,23.09,0,0,1,.57-3.15,34.58,34.58,0,0,1,2.75-6.54,30.53,30.53,0,0,0,3.35-9,26.57,26.57,0,0,0-.16-7.05l-.14-1.2a31.68,31.68,0,0,1-.31-8.39,32.14,32.14,0,0,1,2.1-6.74c1.21-3.09,2.46-6.28,2.46-9.62s-1.25-6.54-2.46-9.63a32.14,32.14,0,0,1-2.1-6.74,31.76,31.76,0,0,1,.31-8.4l.15-1.19a27,27,0,0,0,.15-7.05,30.74,30.74,0,0,0-3.35-9,35.65,35.65,0,0,1-2.75-6.54,23,23,0,0,1-.57-3.16c-.13-1.12-.22-2.29-.31-3.42-.27-3.35-.54-6.83-2-9.95a30.15,30.15,0,0,0-5.27-7.12c-1.13-1.26-2.2-2.44-3.14-3.7a16.85,16.85,0,0,1-1.64-2.66,29.75,29.75,0,0,1-2-7.32c-.59-3.05-1.2-6.2-2.76-8.88a20.08,20.08,0,0,0-4.74-5.31c-.84-.7-1.71-1.37-2.57-2a34.62,34.62,0,0,1-5-4.36,31.55,31.55,0,0,1-4-6.5,32.34,32.34,0,0,0-4.81-7.48,18.59,18.59,0,0,0-2.75-2.34v3.28c.3.27.61.53.89.82a29.6,29.6,0,0,1,4.4,6.9,34.23,34.23,0,0,0,4.36,7,37.36,37.36,0,0,0,5.34,4.7c.84.65,1.69,1.3,2.5,2a17.48,17.48,0,0,1,4.17,4.63c1.34,2.31,1.89,5.12,2.46,8.09a32.35,32.35,0,0,0,2.25,7.94,19.18,19.18,0,0,0,1.89,3.07c1,1.36,2.17,2.65,3.3,3.89a27.88,27.88,0,0,1,4.84,6.49c1.26,2.7,1.51,5.8,1.77,9.08.09,1.15.18,2.35.33,3.52a24.94,24.94,0,0,0,.63,3.5,37.76,37.76,0,0,0,2.93,7c1.39,2.77,2.7,5.39,3.11,8.22a24.58,24.58,0,0,1-.16,6.37l-.15,1.18a33.73,33.73,0,0,0-.3,9.09,34.51,34.51,0,0,0,2.25,7.29c1.18,3,2.29,5.83,2.29,8.7s-1.11,5.69-2.29,8.69a34.51,34.51,0,0,0-2.25,7.29,33.73,33.73,0,0,0,.3,9.09l.15,1.18a24.65,24.65,0,0,1,.16,6.38,28,28,0,0,1-3.11,8.22,37.67,37.67,0,0,0-2.93,7,24.78,24.78,0,0,0-.63,3.49c-.15,1.18-.24,2.38-.33,3.54-.14,1.74-.28,3.43-.57,5l2.72-.82c.18-1.33.29-2.68.39-4C358.72,444,358.82,442.82,359,441.69Z"/><path class="cls-6" d="M376.38,439.6a55.79,55.79,0,0,1,2.5-7.06,43.19,43.19,0,0,0,3.22-10.4,39.65,39.65,0,0,0,.06-7.63l0-.6a33.12,33.12,0,0,1,2.22-17.26c1.22-3.53,2.49-7.19,2.49-11s-1.27-7.44-2.49-11a33.06,33.06,0,0,1-2.22-17.25l0-.61a39.54,39.54,0,0,0-.06-7.62,43.19,43.19,0,0,0-3.22-10.4,57.4,57.4,0,0,1-2.5-7.06c-.26-1-.48-2.1-.72-3.55-.15-.91-.29-1.83-.42-2.74-.59-3.95-1.2-8-3-11.7a41.09,41.09,0,0,0-5.39-7.65c-1.19-1.45-2.43-2.94-3.46-4.45a21.67,21.67,0,0,1-1.79-3.05,40.83,40.83,0,0,1-2.51-8,36.86,36.86,0,0,0-3.28-9.66,25.13,25.13,0,0,0-4.91-5.95c-1.08-1-2.23-2-3.35-2.92a52.71,52.71,0,0,1-4.86-4.46,48,48,0,0,1-5-7,48.26,48.26,0,0,0-5.64-7.72,41.8,41.8,0,0,0-7.11-5.56c-1.53-1-3-2-4.34-3.1l-2.64.79v0a54.25,54.25,0,0,0,5.67,4.2,40.3,40.3,0,0,1,6.74,5.24,44.91,44.91,0,0,1,5.34,7.36,51.76,51.76,0,0,0,5.28,7.34,56.11,56.11,0,0,0,5.08,4.66c1.09.92,2.22,1.87,3.26,2.85a22.81,22.81,0,0,1,4.47,5.39,34.79,34.79,0,0,1,3,9.05,43,43,0,0,0,2.67,8.49,24.45,24.45,0,0,0,2,3.37c1.1,1.6,2.36,3.13,3.59,4.61a39.18,39.18,0,0,1,5.1,7.2c1.66,3.34,2.21,7.07,2.8,11,.14.92.28,1.85.43,2.77.25,1.52.48,2.68.76,3.75a59.26,59.26,0,0,0,2.6,7.35,41.34,41.34,0,0,1,3.07,9.83,38.19,38.19,0,0,1,0,7.18l0,.61a46.55,46.55,0,0,0,.18,10.61,48,48,0,0,0,2.16,7.55c1.16,3.35,2.36,6.81,2.36,10.21s-1.2,6.87-2.36,10.22a47.44,47.44,0,0,0-2.16,7.55,46.55,46.55,0,0,0-.18,10.61l0,.6a38.29,38.29,0,0,1,0,7.19,41.34,41.34,0,0,1-3.07,9.83,57.67,57.67,0,0,0-2.6,7.35c-.28,1.06-.52,2.25-.76,3.74-.11.63-.2,1.26-.29,1.89l2.47-.75.12-.76C375.9,441.7,376.12,440.61,376.38,439.6Z"/><path class="cls-7" d="M398.58,421.28a64.5,64.5,0,0,0,.28-8.23,62,62,0,0,1,.69-11.77,69.94,69.94,0,0,1,2-7.4c1.26-4.05,2.56-8.23,2.56-12.54s-1.3-8.5-2.56-12.55a69.13,69.13,0,0,1-2-7.39,62.26,62.26,0,0,1-.69-11.81,47.57,47.57,0,0,0-3.45-20.42c-.78-2.33-1.58-4.75-2.18-7.14-.3-1.22-.56-2.45-.86-3.93l-.22-1.11c-1-4.86-2-9.89-4.35-14.41a56.18,56.18,0,0,0-5.47-8.08c-1.32-1.73-2.69-3.51-3.84-5.32a27.91,27.91,0,0,1-1.92-3.42,55.67,55.67,0,0,1-3-8.7,48.35,48.35,0,0,0-3.83-10.48A31.07,31.07,0,0,0,364.7,260c-1.39-1.42-2.9-2.77-4.35-4.08s-3.1-2.79-4.5-4.25a78.55,78.55,0,0,1-6.08-7.56,85,85,0,0,0-5.57-7l-2.24.67a75,75,0,0,1,6.11,7.58,78.89,78.89,0,0,0,6.25,7.76c1.46,1.53,3.06,3,4.62,4.37s2.9,2.61,4.25,4a29.1,29.1,0,0,1,4.75,6.16,47.42,47.42,0,0,1,3.64,10,57.55,57.55,0,0,0,3.08,9,31.08,31.08,0,0,0,2,3.66c1.2,1.88,2.6,3.7,3.94,5.46a54.56,54.56,0,0,1,5.28,7.77c2.22,4.26,3.15,8.92,4.15,13.86l.22,1.1c.3,1.51.57,2.77.89,4,.61,2.46,1.43,4.92,2.22,7.29a45.9,45.9,0,0,1,3.34,19.77,63.33,63.33,0,0,0,.73,12.18,67.64,67.64,0,0,0,2,7.63c1.21,3.9,2.46,7.93,2.46,11.92s-1.25,8-2.46,11.92a65.58,65.58,0,0,0-2,7.63,63.72,63.72,0,0,0-.73,12.24,45.68,45.68,0,0,1-3.35,19.72c-.67,2-1.36,4.13-1.93,6.24l2.39-.72c.48-1.63,1-3.26,1.55-4.85A63.76,63.76,0,0,0,398.58,421.28Z"/><path class="cls-8" d="M415.51,412.74l0-1.18a78.64,78.64,0,0,1,1.28-12.84c.48-2.42,1.18-4.91,1.86-7.31,1.31-4.66,2.67-9.48,2.67-14.4s-1.36-9.75-2.67-14.4c-.68-2.41-1.38-4.9-1.86-7.32a78.64,78.64,0,0,1-1.28-12.84l0-1.14c-.08-2.53-.16-5.15-.45-7.72a99.07,99.07,0,0,0-3.32-15.08c-.56-2-1.15-4.13-1.65-6.2-.26-1-.5-2.09-.74-3.14l-.27-1.16c-1.22-5.2-2.76-11.2-5.69-16.61a79.12,79.12,0,0,0-5.48-8.36c-1.48-2.06-3-4.19-4.31-6.34a38.31,38.31,0,0,1-2-3.79,75.92,75.92,0,0,1-3.39-9.31,63.13,63.13,0,0,0-4.4-11.36A37.12,37.12,0,0,0,378.5,245c-1.79-2-3.76-3.83-5.67-5.63-1.27-1.19-2.58-2.42-3.8-3.65-1.51-1.53-2.95-3.15-4.35-4.78l-2,.6c1.6,1.87,3.24,3.74,5,5.51,1.24,1.26,2.56,2.5,3.84,3.7,1.88,1.77,3.83,3.6,5.57,5.52a35.77,35.77,0,0,1,5,6.91,62.23,62.23,0,0,1,4.25,11,77.76,77.76,0,0,0,3.48,9.54,39.91,39.91,0,0,0,2.14,4c1.33,2.21,2.88,4.37,4.38,6.46a75.9,75.9,0,0,1,5.36,8.16c2.81,5.2,4.32,11.06,5.51,16.14l.27,1.15c.24,1.06.48,2.12.74,3.17.52,2.09,1.1,4.21,1.67,6.25a97.25,97.25,0,0,1,3.26,14.8c.28,2.48.36,5.06.44,7.56l0,1.15A80.8,80.8,0,0,0,415,355.66c.5,2.5,1.21,5,1.89,7.46,1.28,4.53,2.6,9.22,2.6,13.89s-1.32,9.35-2.6,13.89c-.68,2.44-1.39,5-1.89,7.45a80.69,80.69,0,0,0-1.32,13.14l0,1.19c-.08,2.49-.16,5.06-.44,7.54a86.75,86.75,0,0,1-2.82,13.16l2.14-.64a83.74,83.74,0,0,0,2.56-12.31C415.35,417.87,415.43,415.26,415.51,412.74Z"/><path class="cls-9" d="M432.05,412.91c.06-1,.12-1.9.19-2.85a103.61,103.61,0,0,1,1.86-13.9c.48-2.26,1.09-4.58,1.67-6.82,1.4-5.4,2.85-11,2.85-16.67s-1.45-11.26-2.85-16.66c-.58-2.24-1.19-4.56-1.67-6.83a103.38,103.38,0,0,1-1.86-13.9c-.07-.95-.13-1.9-.19-2.86-.14-2.18-.28-4.43-.51-6.64A167.5,167.5,0,0,0,427.29,304l-.5-2.06c-.32-1.35-.65-2.7-1-4a73.57,73.57,0,0,0-6.81-17.7c-1.62-2.91-3.53-5.73-5.39-8.45-1.67-2.46-3.4-5-4.88-7.58-.8-1.39-1.53-2.79-2.16-4.15-1.46-3.15-2.64-6.55-3.78-9.83a84,84,0,0,0-5-12.33A46.73,46.73,0,0,0,392.3,230c-1.7-2-3.57-3.9-5.44-5.73l-1.83.55c2.07,2,4.14,4.07,6,6.25a44.27,44.27,0,0,1,5.28,7.66,83.42,83.42,0,0,1,4.9,12.08c1.15,3.33,2.34,6.77,3.83,10,.66,1.41,1.41,2.85,2.24,4.28,1.51,2.63,3.25,5.2,5,7.69,1.83,2.69,3.72,5.47,5.31,8.32a72.33,72.33,0,0,1,6.65,17.31c.35,1.33.67,2.67,1,4l.5,2.06A164.57,164.57,0,0,1,429.88,326c.23,2.17.37,4.41.51,6.57.06,1,.12,1.92.19,2.87a103.61,103.61,0,0,0,1.89,14.13c.49,2.3,1.1,4.64,1.69,6.9,1.37,5.29,2.8,10.77,2.8,16.24s-1.43,10.95-2.8,16.25c-.59,2.26-1.2,4.6-1.69,6.9a103.45,103.45,0,0,0-1.89,14.12c-.07.95-.13,1.91-.19,2.86-.14,2.17-.28,4.42-.51,6.6-.3,2.85-.75,5.67-1.28,8.47l1.79-.54c.47-2.56.87-5.15,1.15-7.76C431.77,417.35,431.91,415.09,432.05,412.91Z"/><path class="cls-10" d="M448.44,414c.15-1.82.3-3.64.49-5.44a132.19,132.19,0,0,1,2.45-14.95c.42-1.9.89-3.8,1.35-5.7,1.55-6.34,3.16-12.9,3.16-19.56s-1.61-13.22-3.16-19.57c-.46-1.9-.93-3.8-1.35-5.69a132.19,132.19,0,0,1-2.45-14.95c-.19-1.81-.34-3.63-.49-5.45-.14-1.57-.27-3.14-.42-4.71a190.24,190.24,0,0,0-4.23-25.11c-.46-1.94-.87-3.52-1.28-5a84.92,84.92,0,0,0-7.93-18.8c-1.6-2.78-3.38-5.52-5.1-8.17-1.94-3-4-6.07-5.66-9.19-.82-1.48-1.59-3-2.29-4.51-1.53-3.31-2.84-6.83-4.11-10.24a111.06,111.06,0,0,0-5.67-13.41,54.13,54.13,0,0,0-3.54-5.75l-1.45.44a53.78,53.78,0,0,1,3.72,6,112.52,112.52,0,0,1,5.59,13.23c1.28,3.44,2.6,7,4.15,10.35.71,1.54,1.5,3.09,2.33,4.6,1.74,3.16,3.76,6.27,5.72,9.28,1.71,2.63,3.48,5.35,5.05,8.1a83,83,0,0,1,7.8,18.48c.41,1.44.81,3,1.27,4.93a189.12,189.12,0,0,1,4.19,24.91c.15,1.56.28,3.13.42,4.69.15,1.83.3,3.66.49,5.48A135.05,135.05,0,0,0,450,343.39c.42,1.91.89,3.82,1.36,5.73,1.53,6.26,3.11,12.73,3.11,19.22s-1.58,13-3.11,19.22c-.47,1.91-.94,3.82-1.36,5.73a134.68,134.68,0,0,0-2.48,15.11c-.19,1.82-.34,3.64-.49,5.47-.14,1.57-.27,3.14-.42,4.71-.13,1.33-.31,2.67-.47,4l1.51-.46c.13-1.13.28-2.27.39-3.4C448.17,417.15,448.3,415.57,448.44,414Z"/><path class="cls-11" d="M464.61,311.4l-.12-1.25c-.86-9.26-1.8-18.3-3.84-27-.46-1.94-.93-3.68-1.43-5.33a94,94,0,0,0-9.05-19.9c-1.45-2.47-3-5-4.5-7.34-2.32-3.69-4.72-7.51-6.75-11.36-.82-1.54-1.63-3.18-2.4-4.86-1.57-3.42-3-7-4.36-10.48-1.55-3.91-3.16-7.92-5-11.78l-1.19.36c1.85,3.87,3.47,7.92,5,11.87,1.38,3.49,2.81,7.09,4.39,10.54.78,1.7,1.6,3.36,2.43,4.93,2.06,3.89,4.46,7.72,6.79,11.43,1.5,2.38,3,4.85,4.49,7.31a92.78,92.78,0,0,1,8.93,19.64c.5,1.62,1,3.34,1.41,5.25,2,8.63,3,17.62,3.82,26.85l.11,1.24c.29,3.17.6,6.44,1,9.64.61,4.61,1.54,9.54,3,15.93v-5.7c-.81-3.87-1.39-7.21-1.81-10.39S464.9,314.55,464.61,311.4Z"/><path class="cls-11" d="M463.39,416.52l-.08.86,1.26-.38,0-.37c.29-3.16.59-6.42,1-9.61s1-6.52,1.81-10.39v-5.7c-1.48,6.39-2.41,11.32-3,15.93C464,410.07,463.68,413.35,463.39,416.52Z"/><path class="cls-12" d="M454,226.71c-2.58-5-4.81-10.41-7-15.59-.62-1.48-1.24-3-1.87-4.45l-1,.29c.65,1.52,1.28,3,1.91,4.54,2.17,5.21,4.42,10.59,7,15.66s5.56,9.91,8.47,14.67c2,3.2,3.95,6.45,5.83,9.76v-2c-1.63-2.8-3.31-5.56-5-8.28C459.55,236.56,456.55,231.66,454,226.71Z"/></g></g></svg>