<svg id="Wall_Mount" data-name="Wall Mount" xmlns="http://www.w3.org/2000/svg" viewBox="0 0 600 600"><defs><style>.cls-1{fill:#a1c5fc;}.cls-2{fill:#004ecc;}.cls-3{fill:#00ffd5;}.cls-4{fill:none;}.cls-5{fill:#4a90ff;}.cls-6{fill:#4289f9;}.cls-7{fill:#3a81f4;}.cls-8{fill:#317aee;}.cls-9{fill:#2973e8;}.cls-10{fill:#216be3;}.cls-11{fill:#1964dd;}.cls-12{fill:#105dd7;}.cls-13{fill:#0855d2;}</style></defs><title>icons - Wall Mount - Dark</title><g id="Wave"><path class="cls-1" d="M314.94,473.77a1.45,1.45,0,0,0,.89.3,1.35,1.35,0,0,0,.44-.07l168.32-50.8a1.5,1.5,0,0,0,1.06-1.44V193a1.49,1.49,0,0,0-1.93-1.43l-15.64,4.71a1.42,1.42,0,0,0-.4.12L315.4,242.29a1.51,1.51,0,0,0-1.07,1.44V472.57A1.5,1.5,0,0,0,314.94,473.77ZM317.33,383,447.08,422,317.33,461.18Zm0,81.27,151.42-45.76.06,0a.69.69,0,0,0,.15-.07l.13-.06.12-.08a.52.52,0,0,0,.11-.1l.1-.1.09-.11h0l11.12,3.26L317.33,470.55Zm165.32-43.66-.26.08L469.81,417V198.92l12.84-3.87ZM466.81,199.82V416l-18,5.43L317.33,382V244.84Z"/><path class="cls-1" d="M521.81,476.68l.09-.11.08-.12.06-.12a.84.84,0,0,0,.06-.14.57.57,0,0,0,0-.14.31.31,0,0,0,0-.13,1,1,0,0,0,0-.16s0-.05,0-.08v-12.4a1.37,1.37,0,0,0,0-.19s0-.07,0-.11a1,1,0,0,0-.06-.16.36.36,0,0,0,0-.11l-.08-.15a.36.36,0,0,0-.07-.1.69.69,0,0,0-.11-.13l-.08-.09-.13-.1-.1-.07-.14-.08-.14-.05-.07,0-12-3.6v-9.23h0V439.9s0-.11,0-.16,0-.09,0-.13a737211594454.49,737211594454.49,0,0,1-.1-.28l-.06-.12-.08-.13-.09-.11-.1-.11-.11-.09-.12-.09-.11-.06-.16-.07,0,0-6.64-2.28V168.52l7.25-7.44a1.52,1.52,0,0,0,.42-1.05V144.64a4.32,4.32,0,0,0-1-8.35l-.13,0L300.44,74h-.08a.93.93,0,0,0-.22,0h-.29a.75.75,0,0,0-.26,0h0L92.23,136.24h-.1a4.33,4.33,0,0,0-1.31,8.39V160a1.48,1.48,0,0,0,.43,1.05l7.24,7.44v267.8l-6.73,2.87a1.49,1.49,0,0,0-.92,1.38v22.1a1.51,1.51,0,0,0,1.07,1.44l207.65,62.33h0a1.74,1.74,0,0,0,.39,0h0a1.6,1.6,0,0,0,.39,0h0l135.14-40.55,27.77,8.41a1.67,1.67,0,0,0,.44.06h0a1.59,1.59,0,0,0,.43-.06l56.93-17.18.06,0,.16-.06.12-.07.12-.08.11-.09ZM301.49,523V502.93l133.53-40v20l-.21.08ZM91,140.58a1.33,1.33,0,0,1,1.22-1.32l206.29,61.86v3.6L93.81,143.34a1.49,1.49,0,0,0-1.49-1.42A1.34,1.34,0,0,1,91,140.58ZM463.77,480l-11.32-3.4,54-16.29v0l.07.08.13.13.09.07a.71.71,0,0,0,.14.1l.1.05.17.07.06,0,10,3Zm42.37-31.89-10.92-3.27,10.92-3.28Zm-12.66-2.75,12.43,3.72L450.7,465.74l-13.35-3.55Zm-42.27,21.27,54.93-16.57v9.29l-54.93,16.58ZM301.49,501.89v-4.5L498.78,438.2l.08.1.1.1.11.09a.94.94,0,0,0,.12.09l.12.07.15.07,0,0,5.86,2Zm-200-64.64V168.88l197,59V496.35Zm197-231.49v14.53L93.82,158.91V144.39ZM300,85l189.13,56.74L300,198.44,111,141.77Zm1.5,135.31V205.76l204.67-61.37v14.52Zm197,217-197,59.1V227.91l197-59Zm.43-270.38h0a1.52,1.52,0,0,0-.31.48s0,0,0,0a1.49,1.49,0,0,0-.09.44l-197,59v-3.44l201.07-60.3Zm7.25-23.53L301.49,204.72v-3.6l206.29-61.86a1.33,1.33,0,0,1-.12,2.66A1.49,1.49,0,0,0,506.17,143.34Zm-15.31-2.14L300.49,84.09v-7l202,60.61ZM299.49,77.09v7L109.28,141.25l-11.65-3.5Zm-1,146.33v3.44l-197-59a1.08,1.08,0,0,0-.09-.44s0,0,0,0a1.37,1.37,0,0,0-.31-.48h0l-3.65-3.75ZM100.57,438.7h0l.24-.13.11-.1.11-.09.1-.12,0-.05,197.29,59.19v4.5L95.31,440.94ZM436,482.89v-20l14.19,3.78v10a.45.45,0,0,0,.1.28l0,0a.46.46,0,0,0,.23.16h0l12.7,3.81v10.25Zm28.25,8.26V480.89L519,464.39l.23.07v10.11ZM93.84,441.56h0l204.62,61.38V523L93.84,461.56Z"/><polygon class="cls-2" points="136.44 243.63 168.16 234.13 264.52 263 264.52 425.18 232.8 434.68 136.44 405.81 136.44 342.25 130.92 340.6 130.92 315.6 136.44 305.6 136.44 243.63"/><path class="cls-3" d="M222.47,380.66l-75.42-22.92a.49.49,0,0,0-.62.33.5.5,0,0,0,.33.62l75.42,22.93.15,0a.49.49,0,0,0,.47-.35A.51.51,0,0,0,222.47,380.66Z"/><path class="cls-3" d="M222.47,385.43,147.05,362.5a.5.5,0,0,0-.29,1l75.42,22.92.15,0a.49.49,0,0,0,.47-.36A.5.5,0,0,0,222.47,385.43Z"/><path class="cls-3" d="M222.47,390.19l-75.42-22.92a.5.5,0,0,0-.62.33.51.51,0,0,0,.33.63l75.42,22.92a.39.39,0,0,0,.15,0,.49.49,0,0,0,.47-.35A.51.51,0,0,0,222.47,390.19Z"/><path class="cls-3" d="M222.47,395,147.05,372a.5.5,0,1,0-.29.95l75.42,22.93.15,0a.49.49,0,0,0,.47-.35A.51.51,0,0,0,222.47,395Z"/><path class="cls-3" d="M222.47,399.73,147.05,376.8a.5.5,0,0,0-.29,1l75.42,22.93.15,0a.49.49,0,0,0,.47-.36A.5.5,0,0,0,222.47,399.73Z"/><path class="cls-3" d="M222.47,404.5l-75.42-22.93a.5.5,0,0,0-.62.33.51.51,0,0,0,.33.63l75.42,22.92a.39.39,0,0,0,.15,0,.48.48,0,0,0,.47-.35A.5.5,0,0,0,222.47,404.5Z"/><path class="cls-3" d="M222.47,409.26l-75.42-22.92a.5.5,0,1,0-.29,1l75.42,22.93.15,0a.49.49,0,0,0,.47-.35A.51.51,0,0,0,222.47,409.26Z"/><path class="cls-3" d="M222.47,414,147.05,391.1a.5.5,0,0,0-.29,1L222.18,415l.15,0a.49.49,0,0,0,.47-.36A.5.5,0,0,0,222.47,414Z"/><path class="cls-3" d="M222.47,418.8l-75.42-22.93a.5.5,0,0,0-.62.33.51.51,0,0,0,.33.63l75.42,22.92a.39.39,0,0,0,.15,0,.5.5,0,0,0,.14-1Z"/><path class="cls-3" d="M265.8,426l.06-.12a.84.84,0,0,0,.06-.14s0-.09.05-.14a.59.59,0,0,0,0-.13,1,1,0,0,0,0-.17s0-.05,0-.07V263s0,0,0-.06v-.09a.29.29,0,0,0,0-.09.69.69,0,0,0,0-.13s0,0,0-.06h0l0-.07a.84.84,0,0,0-.06-.14h0l-.06-.11-.08-.12,0-.06-.06-.06-.09-.09-.06-.06-.06,0-.12-.08-.13-.07-.12,0-.09,0h0L168.61,232.7h-.09l-.22,0H168a.65.65,0,0,0-.19,0h-.11L136,242.2h0l-.07,0-.14.06-.13.06-.12.09,0,0-.06.06-.1.1s0,0-.05.05a.21.21,0,0,0,0,.06.83.83,0,0,0-.08.12.6.6,0,0,0-.06.11v0l-.06.13,0,.08h0a.15.15,0,0,0,0,.07l0,.13s0,.06,0,.09a.22.22,0,0,0,0,.08v61.64l-5.33,9.66,0,.07-.06.15a.65.65,0,0,0,0,.13.4.4,0,0,0,0,.15.77.77,0,0,0,0,.15s0,.05,0,.08v25a1.5,1.5,0,0,0,1.07,1.43l4.45,1.34v62.52c0,.05,0,.1,0,.16l0,.13c0,.05,0,.1,0,.15l.06.13.07.13a.44.44,0,0,0,.08.11l.09.12.1.1.11.09.12.08.13.07.15.06.07,0,96.36,28.87h0a1.58,1.58,0,0,0,.38.05h0a1.58,1.58,0,0,0,.38-.05h0l31.72-9.5.07,0,.15-.07.12-.06.12-.08.12-.1.09-.1a.52.52,0,0,0,.1-.11ZM137.94,344.26l88.91,26.64h0a1.76,1.76,0,0,0,.39.06h0a1.59,1.59,0,0,0,.39-.06h0l3.59-1.07v62.84l-93.36-28ZM168.16,235.7,259.29,263l-26.49,7.94-91.14-27.31ZM263,358.44l-20.78,6.23V275.83L263,269.61ZM137.94,250.37l93.36,28V328.5l-93.36-28ZM231.3,277.3l-93.36-28v-3.68l93.36,28Zm-93.36,24.27,93.36,28v4l-93.36-28Zm-.28,4.91,93.42,28-5,9.1-93.42-28Zm96.63,61.28a.78.78,0,0,0,0-.16.4.4,0,0,0,0-.15.13.13,0,0,0,0-.06.15.15,0,0,0,0-.07.34.34,0,0,0-.06-.15.67.67,0,0,0-.06-.12l-.09-.13-.09-.11-.11-.11-.1-.08-.13-.09-.11-.06-.15-.06-.12,0-.16,0-.14,0h-.15l-.15,0-.16,0h0l-3.59,1.07v-22.6l5.33-9.66,0-.06.06-.15a.74.74,0,0,0,0-.14.35.35,0,0,0,0-.14.88.88,0,0,0,0-.16s0-.05,0-.07V273.62L263,265v3.54L241.6,275a.5.5,0,0,0-.36.48v89.88a.52.52,0,0,0,.2.4.54.54,0,0,0,.3.1l.14,0L263,359.49v64.57l-28.72,8.61V367.82S234.29,367.78,234.29,367.76ZM132.42,316.57l93.36,28v22.91l-88.91-26.64-4.45-1.33Z"/><circle class="cls-3" cx="253.34" cy="281.76" r="2.5"/><path class="cls-3" d="M241.74,419.77a.32.32,0,0,0,.14,0l13.84-4.14a.5.5,0,0,0-.29-1L241.6,418.8a.49.49,0,0,0-.34.62A.51.51,0,0,0,241.74,419.77Z"/><path class="cls-3" d="M241.74,414.37a.32.32,0,0,0,.14,0l13.84-4.14a.51.51,0,0,0,.33-.63.5.5,0,0,0-.62-.33l-13.83,4.14a.5.5,0,0,0-.34.63A.51.51,0,0,0,241.74,414.37Z"/><path class="cls-3" d="M241.74,409l.14,0,13.84-4.15a.49.49,0,0,0,.33-.62.5.5,0,0,0-.62-.33L241.6,408a.5.5,0,0,0-.34.62A.51.51,0,0,0,241.74,409Z"/><path class="cls-3" d="M241.74,403.57l.14,0,13.84-4.15a.5.5,0,0,0-.29-.95l-13.83,4.14a.5.5,0,0,0-.34.62A.51.51,0,0,0,241.74,403.57Z"/><path class="cls-3" d="M241.74,398.17a.32.32,0,0,0,.14,0L255.72,394a.5.5,0,0,0-.29-1l-13.83,4.15a.5.5,0,0,0-.34.62A.51.51,0,0,0,241.74,398.17Z"/><path class="cls-3" d="M241.74,392.76a.32.32,0,0,0,.14,0l13.84-4.14a.5.5,0,0,0-.29-1l-13.83,4.15a.49.49,0,0,0-.34.62A.51.51,0,0,0,241.74,392.76Z"/><path class="cls-3" d="M241.74,387.36l.14,0,13.84-4.14a.51.51,0,0,0,.33-.63.5.5,0,0,0-.62-.33l-13.83,4.14a.5.5,0,0,0-.34.63A.51.51,0,0,0,241.74,387.36Z"/><path class="cls-3" d="M241.74,382l.14,0,13.84-4.15a.49.49,0,0,0,.33-.62.5.5,0,0,0-.62-.33L241.6,381a.5.5,0,0,0-.34.62A.51.51,0,0,0,241.74,382Z"/><path class="cls-4" d="M322.65,451.24a34.37,34.37,0,0,1,4.37-7,36.3,36.3,0,0,1,5.34-4.71c.84-.65,1.68-1.3,2.49-2a17.88,17.88,0,0,0,4.18-4.63c1.34-2.31,1.88-5.12,2.45-8.09a32.35,32.35,0,0,1,2.25-7.94,19.67,19.67,0,0,1,1.91-3.09c1-1.35,2.16-2.63,3.28-3.87a27.94,27.94,0,0,0,4.85-6.49c1.26-2.7,1.5-5.8,1.76-9.08.1-1.16.19-2.36.33-3.54a26.81,26.81,0,0,1,.64-3.49,38,38,0,0,1,2.93-7,28.17,28.17,0,0,0,3.11-8.22,24.21,24.21,0,0,0-.17-6.38l-.14-1.18a33.73,33.73,0,0,1-.3-9.09,34.12,34.12,0,0,1,2.25-7.29c1.17-3,2.28-5.83,2.28-8.69s-1.11-5.7-2.28-8.69a34,34,0,0,1-2.25-7.3,33.67,33.67,0,0,1,.3-9.08l.15-1.19a24.58,24.58,0,0,0,.16-6.37,28.17,28.17,0,0,0-3.11-8.22,38,38,0,0,1-2.93-7,26.85,26.85,0,0,1-.64-3.51c-.14-1.17-.23-2.37-.32-3.52-.26-3.28-.51-6.37-1.77-9.07a27.7,27.7,0,0,0-4.85-6.5c-1.12-1.24-2.28-2.53-3.29-3.88a18.3,18.3,0,0,1-1.89-3.08,31.92,31.92,0,0,1-2.25-7.94c-.58-3-1.12-5.78-2.46-8.09a17.7,17.7,0,0,0-4.18-4.63c-.54-.45-1.12-.89-1.68-1.33l-15.8,4.75v1.42a38.78,38.78,0,0,0,3.3,2.46c.66.46,1.32.91,2,1.38a16.54,16.54,0,0,1,4.61,4.67c1.46,2.43,1.86,5.35,2.25,8.16a21.85,21.85,0,0,0,1.56,6.56,11.82,11.82,0,0,0,1.49,2.26,37.74,37.74,0,0,0,2.85,3c2,2,4,4,5.12,6.55,1.17,2.72,1.15,5.75,1.12,8.67,0,1.21,0,2.47.06,3.64a14.26,14.26,0,0,0,.42,2.74,23.22,23.22,0,0,0,2.93,5.79c1.51,2.43,3.07,4.94,3.54,7.81a18.43,18.43,0,0,1-.38,6.51c-.09.49-.19,1-.3,1.48a22.23,22.23,0,0,0-.72,7A22.74,22.74,0,0,0,349.3,331c1.2,2.68,2.45,5.46,2.45,8.43s-1.25,5.74-2.45,8.43A15.64,15.64,0,0,0,347.9,361q.17.74.3,1.47a18.45,18.45,0,0,1,.38,6.51c-.47,2.88-2,5.39-3.54,7.82a23.22,23.22,0,0,0-2.93,5.79,14,14,0,0,0-.42,2.72c-.08,1.19-.07,2.44-.06,3.65,0,2.93.05,6-1.12,8.68-1.11,2.55-3.15,4.58-5.13,6.55a39.17,39.17,0,0,0-2.83,3,11.49,11.49,0,0,0-1.51,2.28,22,22,0,0,0-1.56,6.55c-.38,2.81-.78,5.73-2.24,8.16a16.68,16.68,0,0,1-4.61,4.67c-.64.47-1.3.92-2,1.37-1.19.83-2.33,1.63-3.33,2.49V459a12.51,12.51,0,0,0,.92-.85A29.55,29.55,0,0,0,322.65,451.24Z"/><path class="cls-4" d="M441.83,414.62A185.33,185.33,0,0,0,446,389.71c.16-1.57.29-3.14.42-4.7.16-1.83.31-3.66.5-5.48a133.16,133.16,0,0,1,2.48-15.11c.42-1.91.89-3.82,1.35-5.73,1.54-6.26,3.12-12.73,3.12-19.22s-1.58-13-3.11-19.22c-.47-1.91-.94-3.82-1.36-5.73a132.79,132.79,0,0,1-2.48-15.11c-.19-1.82-.34-3.65-.5-5.47-.13-1.57-.26-3.14-.42-4.7a186.9,186.9,0,0,0-4.18-24.91c-.46-1.93-.87-3.49-1.28-4.93a83,83,0,0,0-7.79-18.48c-1.57-2.75-3.35-5.47-5.06-8.11-1.95-3-4-6.11-5.71-9.27-.83-1.51-1.62-3.06-2.33-4.6s-1.27-2.9-1.86-4.37l-14.89,4.48c.93,2.64,1.91,5.3,3.07,7.8.64,1.37,1.37,2.77,2.17,4.16,1.48,2.57,3.21,5.12,4.88,7.58,1.85,2.72,3.77,5.53,5.39,8.44a73.9,73.9,0,0,1,6.81,17.7c.35,1.37.69,2.75,1,4.12l.48,2A165.83,165.83,0,0,1,431,292.58c.24,2.22.38,4.48.52,6.66.06.95.12,1.9.19,2.84a103.38,103.38,0,0,0,1.86,13.9c.48,2.26,1.08,4.58,1.67,6.82,1.4,5.4,2.85,11,2.85,16.67s-1.45,11.26-2.85,16.66c-.59,2.25-1.19,4.56-1.67,6.83a103.38,103.38,0,0,0-1.86,13.9c-.07.94-.13,1.9-.19,2.85-.14,2.18-.28,4.44-.52,6.66a164.82,164.82,0,0,1-4.25,21.76l-.49,2c-.32,1.35-.65,2.7-1,4.05a76.61,76.61,0,0,1-6,16.18l19.77-6q.86-2.42,1.55-4.87C441,418.1,441.37,416.54,441.83,414.62Z"/><path class="cls-4" d="M424.62,409.76l.49-2a166.25,166.25,0,0,0,4.22-21.53c.23-2.19.37-4.43.5-6.6.07-1,.13-1.91.19-2.86a105.11,105.11,0,0,1,1.9-14.13c.49-2.3,1.1-4.64,1.68-6.9,1.38-5.29,2.81-10.77,2.81-16.24s-1.43-11-2.81-16.25c-.58-2.26-1.19-4.59-1.68-6.89A105.11,105.11,0,0,1,430,302.2l-.18-2.85c-.14-2.17-.28-4.41-.51-6.6a166.09,166.09,0,0,0-4.21-21.52l-.48-2c-.33-1.36-.66-2.73-1-4.09a72.84,72.84,0,0,0-6.65-17.3c-1.59-2.85-3.48-5.63-5.31-8.32-1.7-2.49-3.45-5.07-5-7.69-.82-1.43-1.57-2.87-2.23-4.28-1.2-2.6-2.21-5.33-3.15-8l-14.41,4.33c.24.74.47,1.48.7,2.21a77.41,77.41,0,0,0,3.38,9.3,40.69,40.69,0,0,0,2.05,3.79c1.3,2.15,2.83,4.28,4.3,6.34a78.32,78.32,0,0,1,5.49,8.37c2.92,5.4,4.47,11.4,5.69,16.61l.26,1.14c.24,1.05.49,2.11.74,3.15.51,2.07,1.09,4.17,1.65,6.2a96.6,96.6,0,0,1,3.32,15.09c.29,2.55.38,5.17.46,7.69l0,1.16a78.64,78.64,0,0,0,1.28,12.84c.48,2.43,1.18,4.91,1.86,7.32,1.31,4.66,2.67,9.47,2.67,14.4s-1.36,9.74-2.67,14.4c-.68,2.4-1.38,4.89-1.86,7.32A78.53,78.53,0,0,0,415,374l0,1.19c-.08,2.52-.17,5.13-.46,7.68A96.6,96.6,0,0,1,411.18,398c-.56,2-1.14,4.13-1.65,6.19-.26,1.05-.5,2.11-.75,3.17l-.25,1.12c-1.23,5.21-2.78,11.22-5.7,16.63a80.16,80.16,0,0,1-5.48,8.36c-1.06,1.47-2.13,3-3.14,4.49L417,431.06a72.41,72.41,0,0,0,6.64-17.28Q424.14,411.77,424.62,409.76Z"/><path class="cls-4" d="M374.1,434.16a31,31,0,0,1,2.07-3.69c1.2-1.87,2.58-3.68,3.93-5.43a55.64,55.64,0,0,0,5.27-7.77c2.21-4.25,3.15-8.92,4.15-13.86l.23-1.13c.26-1.29.54-2.67.88-4,.62-2.46,1.43-4.91,2.22-7.28a61.82,61.82,0,0,0,3.08-11.83,61,61,0,0,0,.26-7.89,63.75,63.75,0,0,1,.74-12.25,67.59,67.59,0,0,1,2-7.63c1.21-3.9,2.46-7.93,2.46-11.92s-1.25-8-2.46-11.92a67.59,67.59,0,0,1-2-7.63,63.37,63.37,0,0,1-.74-12.18,59.74,59.74,0,0,0-.26-7.95A61.63,61.63,0,0,0,392.85,288c-.79-2.37-1.6-4.82-2.22-7.28-.32-1.27-.58-2.53-.88-4l-.23-1.11c-1-4.94-1.93-9.6-4.14-13.85a55.71,55.71,0,0,0-5.28-7.77c-1.35-1.76-2.74-3.58-3.94-5.46a29.7,29.7,0,0,1-2.05-3.66,57.55,57.55,0,0,1-3.08-9c-.62-2.17-1.24-4.4-2-6.5l-14.44,4.34c.24.37.47.74.69,1.12a36.91,36.91,0,0,1,3.28,9.65,41.14,41.14,0,0,0,2.51,8,21.89,21.89,0,0,0,1.78,3c1,1.52,2.27,3,3.46,4.45a41.14,41.14,0,0,1,5.4,7.65c1.82,3.67,2.43,7.76,3,11.71q.19,1.37.42,2.73c.24,1.45.46,2.55.72,3.56a55.66,55.66,0,0,0,2.5,7.05,43.33,43.33,0,0,1,3.22,10.4,39.65,39.65,0,0,1,.06,7.63l0,.61a45.14,45.14,0,0,0,.16,10.07,46.29,46.29,0,0,0,2.06,7.18c1.23,3.53,2.49,7.19,2.49,11s-1.26,7.44-2.49,11a46.18,46.18,0,0,0-2.06,7.17,45.24,45.24,0,0,0-.16,10.08l0,.61a39.66,39.66,0,0,1-.06,7.63,43.19,43.19,0,0,1-3.22,10.4,55.75,55.75,0,0,0-2.51,7.05c-.26,1-.48,2.1-.71,3.54-.15.92-.29,1.84-.43,2.75-.59,3.95-1.2,8-3,11.71a41.09,41.09,0,0,1-5.39,7.65c-1.19,1.44-2.42,2.93-3.45,4.43a22.52,22.52,0,0,0-1.8,3.07,41.5,41.5,0,0,0-2.5,8,37.66,37.66,0,0,1-3.28,9.65,24.76,24.76,0,0,1-4.92,5.95c-.56.54-1.15,1.05-1.74,1.56l21.89-6.61c.19-.65.37-1.3.55-1.94A57.44,57.44,0,0,1,374.1,434.16Z"/><path class="cls-4" d="M464.05,392.11l-.11,1.23a215.27,215.27,0,0,1-3.31,24.53l6.18-1.86V372.39c-.77,3.74-1.33,7-1.74,10.1S464.34,389,464.05,392.11Z"/><path class="cls-4" d="M401.17,424.19c2.81-5.21,4.32-11.07,5.52-16.16l.25-1.11c.25-1.07.5-2.14.76-3.2.51-2.09,1.1-4.2,1.66-6.25a96,96,0,0,0,3.27-14.79c.28-2.48.36-5.05.44-7.54l0-1.18a82,82,0,0,1,1.31-13.15c.5-2.49,1.21-5,1.9-7.45,1.28-4.54,2.6-9.23,2.6-13.89s-1.32-9.35-2.6-13.89c-.69-2.44-1.4-5-1.9-7.46A81.77,81.77,0,0,1,413.11,305l0-1.17c-.08-2.49-.16-5.06-.44-7.54a96,96,0,0,0-3.27-14.79c-.56-2.05-1.15-4.16-1.66-6.25-.26-1.06-.5-2.12-.75-3.19l-.26-1.14c-1.19-5.08-2.7-10.94-5.51-16.13a79.18,79.18,0,0,0-5.36-8.17c-1.5-2.09-3.05-4.24-4.39-6.46a44.52,44.52,0,0,1-2.14-4,79.24,79.24,0,0,1-3.47-9.53c-.23-.74-.47-1.49-.71-2.23L371,228.65c.8,2.14,1.43,4.36,2,6.54a55.67,55.67,0,0,0,3,8.7,28.38,28.38,0,0,0,1.91,3.42c1.16,1.81,2.53,3.59,3.85,5.32a56.74,56.74,0,0,1,5.47,8.08c2.35,4.51,3.36,9.54,4.34,14.4l.23,1.12c.29,1.47.55,2.7.86,3.93.6,2.39,1.4,4.8,2.18,7.14A63.66,63.66,0,0,1,398,299.53a63.78,63.78,0,0,1,.28,8.16,61.61,61.61,0,0,0,.69,11.84,69.13,69.13,0,0,0,2,7.39c1.26,4.05,2.56,8.24,2.56,12.55S402.25,348,401,352a67,67,0,0,0-2,7.4,61.14,61.14,0,0,0-.7,11.76,47.28,47.28,0,0,1-3.45,20.48c-.77,2.33-1.57,4.75-2.17,7.13-.31,1.23-.57,2.46-.86,3.92l-.23,1.13c-1,4.87-2,9.89-4.35,14.41a55.92,55.92,0,0,1-5.47,8.08c-1.31,1.72-2.68,3.5-3.83,5.3a29.62,29.62,0,0,0-1.93,3.44,57,57,0,0,0-3,8.69l-.18.64,18.57-5.61c1.34-2.2,2.88-4.35,4.37-6.43A76.9,76.9,0,0,0,401.17,424.19Z"/><path class="cls-4" d="M348.73,448.47a22.36,22.36,0,0,0,4.47-5.4,34.67,34.67,0,0,0,3.05-9.05,43,43,0,0,1,2.66-8.48,24.41,24.41,0,0,1,2-3.39c1.09-1.59,2.35-3.12,3.57-4.6a38.78,38.78,0,0,0,5.1-7.19c1.66-3.35,2.22-7.08,2.81-11,.13-.93.27-1.86.43-2.79.24-1.5.48-2.66.75-3.74a59.88,59.88,0,0,1,2.61-7.35,41.63,41.63,0,0,0,3.06-9.83,37.35,37.35,0,0,0,0-7.18l0-.61a46.55,46.55,0,0,1,.18-10.61,47.62,47.62,0,0,1,2.16-7.54c1.16-3.36,2.36-6.82,2.36-10.22s-1.2-6.87-2.36-10.22a47.44,47.44,0,0,1-2.16-7.55,46.37,46.37,0,0,1-.18-10.59l0-.62a37.34,37.34,0,0,0,0-7.18,41.63,41.63,0,0,0-3.06-9.83,57.67,57.67,0,0,1-2.6-7.35c-.28-1.08-.52-2.24-.76-3.76-.16-.92-.29-1.84-.43-2.77-.59-3.94-1.15-7.67-2.8-11a39.72,39.72,0,0,0-5.11-7.2c-1.22-1.48-2.49-3-3.58-4.62a25,25,0,0,1-2-3.36,43.38,43.38,0,0,1-2.67-8.49,35,35,0,0,0-3-9,17.94,17.94,0,0,0-1-1.56l-16.05,4.83.34.27a20,20,0,0,1,4.75,5.31c1.56,2.68,2.17,5.84,2.76,8.89a29.79,29.79,0,0,0,2,7.31,16.14,16.14,0,0,0,1.64,2.66c.94,1.26,2,2.45,3.14,3.7a30.27,30.27,0,0,1,5.27,7.13c1.45,3.12,1.73,6.59,2,9.95.09,1.13.18,2.29.32,3.42a23.09,23.09,0,0,0,.57,3.15,34.39,34.39,0,0,0,2.75,6.55,30.23,30.23,0,0,1,3.34,9,26.59,26.59,0,0,1-.15,7l-.14,1.19a31.77,31.77,0,0,0-.32,8.4,32.56,32.56,0,0,0,2.11,6.74c1.21,3.08,2.46,6.27,2.46,9.62s-1.25,6.54-2.46,9.62a22.84,22.84,0,0,0-1.8,15.14l.15,1.19a26.58,26.58,0,0,1,.15,7.05,30.14,30.14,0,0,1-3.35,9A34.91,34.91,0,0,0,359,388a22.92,22.92,0,0,0-.57,3.14c-.14,1.13-.23,2.3-.32,3.44-.27,3.36-.54,6.83-2,10a30,30,0,0,1-5.27,7.12c-1.12,1.25-2.19,2.43-3.12,3.68A16.9,16.9,0,0,0,346,418a30.19,30.19,0,0,0-2,7.32c-.59,3-1.19,6.2-2.75,8.88a20.11,20.11,0,0,1-4.75,5.31c-.83.69-1.7,1.36-2.57,2a34.59,34.59,0,0,0-5,4.37,32.19,32.19,0,0,0-4,6.49,31.81,31.81,0,0,1-4.81,7.48c-.2.22-.41.42-.63.63L343,453.41c.81-.72,1.63-1.42,2.44-2.1C346.57,450.39,347.69,449.44,348.73,448.47Z"/><path class="cls-4" d="M453.46,206.5c2.53,5,5.54,9.86,8.44,14.6,1.65,2.69,3.31,5.41,4.91,8.18V199.82l-14.48,4.36C452.71,205,453.07,205.74,453.46,206.5Z"/><path class="cls-4" d="M321,426.65a14.17,14.17,0,0,0,3.87-3.85c1.16-1.95,1.51-4.46,1.87-7.12a24.49,24.49,0,0,1,1.82-7.4,14.72,14.72,0,0,1,1.85-2.81,40.06,40.06,0,0,1,3-3.22c1.87-1.86,3.63-3.62,4.53-5.68s.92-4.79.89-7.55c0-1.27,0-2.58.07-3.86a16.51,16.51,0,0,1,.51-3.27,25.55,25.55,0,0,1,3.25-6.53c1.43-2.3,2.78-4.47,3.16-6.8a16,16,0,0,0-.36-5.53l-.3-1.44a18.32,18.32,0,0,1,1.58-14.83c1.14-2.53,2.22-4.92,2.22-7.29s-1.08-4.76-2.22-7.29a18.33,18.33,0,0,1-1.58-14.83l.3-1.45a16,16,0,0,0,.36-5.53c-.38-2.33-1.73-4.49-3.16-6.79a25.2,25.2,0,0,1-3.24-6.53,16,16,0,0,1-.52-3.28c-.08-1.28-.07-2.59-.06-3.85,0-2.76,0-5.36-.9-7.55s-2.66-3.82-4.53-5.68a40.56,40.56,0,0,1-3-3.24,14.24,14.24,0,0,1-1.84-2.79,24.49,24.49,0,0,1-1.82-7.4c-.36-2.66-.71-5.17-1.87-7.12a13.76,13.76,0,0,0-3.87-3.85c-.62-.45-1.25-.89-1.89-1.33s-1.16-.8-1.73-1.22v30a31.2,31.2,0,0,0,2.61,2.45c2,1.71,4,3.49,5,5.94s.62,5.09.32,7.68a15.92,15.92,0,0,0,0,5.85,15.61,15.61,0,0,0,3,4.91c1.63,2.06,3.32,4.18,3.8,6.77s-.33,5.11-1.1,7.59a10.56,10.56,0,0,0,1,11.14c1.23,2.32,2.49,4.73,2.49,7.37s-1.26,5-2.49,7.37A10.54,10.54,0,0,0,331,358c.77,2.49,1.57,5,1.1,7.59s-2.17,4.72-3.8,6.78a15.61,15.61,0,0,0-3,4.91,15.87,15.87,0,0,0,0,5.84c.3,2.59.62,5.27-.32,7.69s-3,4.22-5,5.94a31.45,31.45,0,0,0-2.62,2.46v30c.58-.43,1.17-.84,1.76-1.24S320.37,427.1,321,426.65Z"/><path class="cls-4" d="M322.14,389.69c.67-1.72.41-3.92.14-6.25a18.21,18.21,0,0,1,.09-7,18,18,0,0,1,3.58-5.94c1.47-1.85,2.85-3.61,3.2-5.46s-.32-3.92-1-6.16a18.27,18.27,0,0,1-1.22-6.93,17.93,17.93,0,0,1,2.43-6.49c1.1-2.09,2.14-4.07,2.14-6s-1-3.88-2.14-6a17.88,17.88,0,0,1-2.43-6.48,18.32,18.32,0,0,1,1.22-6.94c.69-2.23,1.35-4.34,1-6.15s-1.73-3.61-3.2-5.46a13.35,13.35,0,0,1-3.67-13c.27-2.33.53-4.53-.14-6.26s-2.36-3.21-4.14-4.76l-.64-.56,0,111.11.66-.57C319.78,392.91,321.46,391.45,322.14,389.69Z"/><path class="cls-4" d="M452.57,207c-.41-.82-.81-1.66-1.21-2.49l-15.67,4.72c.09.2.18.42.28.62.77,1.68,1.58,3.32,2.39,4.87,2,3.85,4.44,7.66,6.75,11.35,1.5,2.4,3.06,4.87,4.51,7.35a94,94,0,0,1,9.05,19.89c.5,1.66,1,3.4,1.42,5.33,2.05,8.72,3,17.75,3.85,27l.11,1.21c.29,3.17.6,6.44,1,9.63s1,6.35,1.74,10.1V231.28c-1.86-3.28-3.82-6.49-5.76-9.66C458.13,216.87,455.12,212,452.57,207Z"/><path class="cls-4" d="M462.84,286.93l-.12-1.2c-.85-9.22-1.79-18.21-3.82-26.85-.44-1.9-.9-3.62-1.4-5.25A92.36,92.36,0,0,0,448.56,234c-1.44-2.46-3-4.92-4.48-7.31-2.33-3.71-4.74-7.54-6.8-11.43-.82-1.57-1.64-3.22-2.42-4.93l-.35-.78-15.31,4.61c.56,1.41,1.15,2.82,1.78,4.18.7,1.52,1.47,3,2.28,4.51C425,226,427,229,428.92,232c1.73,2.65,3.51,5.39,5.1,8.17A84.26,84.26,0,0,1,442,259c.42,1.46.83,3.05,1.29,5a188.58,188.58,0,0,1,4.22,25.11c.16,1.57.29,3.14.42,4.72.16,1.81.31,3.63.5,5.44a132.56,132.56,0,0,0,2.45,14.95c.42,1.9.88,3.79,1.35,5.7,1.55,6.34,3.16,12.89,3.16,19.56s-1.61,13.22-3.16,19.56c-.47,1.91-.93,3.81-1.35,5.7a130.33,130.33,0,0,0-2.45,14.95c-.19,1.81-.34,3.63-.5,5.45-.13,1.57-.26,3.15-.42,4.72A188.58,188.58,0,0,1,443.24,415c-.47,1.94-.87,3.52-1.29,5s-.8,2.65-1.24,4l18.58-5.61a208,208,0,0,0,3.43-25.06l.12-1.22c.29-3.18.59-6.46,1-9.67.6-4.55,1.52-9.41,2.95-15.67V312.27c-1.43-6.25-2.35-11.11-2.95-15.66C463.43,293.4,463.13,290.11,462.84,286.93Z"/><path class="cls-5" d="M320,396.72c2-1.72,4-3.5,5-5.94s.62-5.1.32-7.69a15.87,15.87,0,0,1,0-5.84,15.61,15.61,0,0,1,3-4.91c1.63-2.06,3.32-4.19,3.8-6.78s-.33-5.1-1.1-7.59a10.54,10.54,0,0,1,1-11.13c1.23-2.33,2.49-4.73,2.49-7.37s-1.26-5.05-2.49-7.37A10.56,10.56,0,0,1,331,321c.77-2.48,1.57-5,1.1-7.59s-2.17-4.71-3.8-6.77a15.61,15.61,0,0,1-3-4.91,15.92,15.92,0,0,1,0-5.85c.3-2.59.62-5.26-.32-7.68s-3-4.23-5-5.94a31.2,31.2,0,0,1-2.61-2.45v4.15l.64.56c1.78,1.55,3.46,3,4.14,4.76s.41,3.93.14,6.26a13.35,13.35,0,0,0,3.67,13c1.47,1.85,2.85,3.6,3.2,5.46s-.32,3.92-1,6.15a18.32,18.32,0,0,0-1.22,6.94,17.88,17.88,0,0,0,2.43,6.48c1.1,2.1,2.14,4.08,2.14,6s-1,3.88-2.14,6a17.93,17.93,0,0,0-2.43,6.49,18.27,18.27,0,0,0,1.22,6.93c.69,2.24,1.35,4.34,1,6.16s-1.73,3.61-3.2,5.46a18,18,0,0,0-3.58,5.94,18.21,18.21,0,0,0-.09,7c.27,2.33.53,4.53-.14,6.25s-2.36,3.22-4.14,4.77l-.66.57v4.15A31.45,31.45,0,0,1,320,396.72Z"/><path class="cls-6" d="M322.63,428.89a16.68,16.68,0,0,0,4.61-4.67c1.46-2.43,1.86-5.35,2.24-8.16a22,22,0,0,1,1.56-6.55,11.49,11.49,0,0,1,1.51-2.28,39.17,39.17,0,0,1,2.83-3c2-2,4-4,5.13-6.55,1.17-2.72,1.15-5.75,1.12-8.68,0-1.21,0-2.46.06-3.65a14,14,0,0,1,.42-2.72,23.22,23.22,0,0,1,2.93-5.79c1.51-2.43,3.07-4.94,3.54-7.82a18.45,18.45,0,0,0-.38-6.51q-.13-.74-.3-1.47a15.64,15.64,0,0,1,1.4-13.13c1.2-2.69,2.45-5.46,2.45-8.43s-1.25-5.75-2.45-8.43a22.74,22.74,0,0,1-2.12-6.13,22.23,22.23,0,0,1,.72-7c.11-.49.21-1,.3-1.48a18.43,18.43,0,0,0,.38-6.51c-.47-2.87-2-5.38-3.54-7.81a23.22,23.22,0,0,1-2.93-5.79,14.26,14.26,0,0,1-.42-2.74c-.08-1.17-.07-2.43-.06-3.64,0-2.92.05-5.95-1.12-8.67-1.11-2.55-3.15-4.58-5.12-6.55a37.74,37.74,0,0,1-2.85-3,11.82,11.82,0,0,1-1.49-2.26,21.85,21.85,0,0,1-1.56-6.56c-.39-2.81-.79-5.73-2.25-8.16a16.54,16.54,0,0,0-4.61-4.67c-.64-.47-1.3-.92-2-1.38a38.78,38.78,0,0,1-3.3-2.46v3.53c.57.42,1.15.82,1.73,1.22s1.27.88,1.89,1.33a13.76,13.76,0,0,1,3.87,3.85c1.16,1.95,1.51,4.46,1.87,7.12a24.49,24.49,0,0,0,1.82,7.4,14.24,14.24,0,0,0,1.84,2.79,40.56,40.56,0,0,0,3,3.24c1.87,1.86,3.64,3.62,4.53,5.68s.92,4.79.9,7.55c0,1.26,0,2.57.06,3.85a16,16,0,0,0,.52,3.28,25.2,25.2,0,0,0,3.24,6.53c1.43,2.3,2.78,4.46,3.16,6.79a16,16,0,0,1-.36,5.53l-.3,1.45a18.33,18.33,0,0,0,1.58,14.83c1.14,2.53,2.22,4.92,2.22,7.29s-1.08,4.76-2.22,7.29a18.32,18.32,0,0,0-1.58,14.83l.3,1.44a16,16,0,0,1,.36,5.53c-.38,2.33-1.73,4.5-3.16,6.8a25.55,25.55,0,0,0-3.25,6.53,16.51,16.51,0,0,0-.51,3.27c-.09,1.28-.08,2.59-.07,3.86,0,2.76,0,5.36-.89,7.55s-2.66,3.82-4.53,5.68a40.06,40.06,0,0,0-3,3.22,14.72,14.72,0,0,0-1.85,2.81,24.49,24.49,0,0,0-1.82,7.4c-.36,2.66-.71,5.17-1.87,7.12a14.17,14.17,0,0,1-3.87,3.85c-.62.45-1.25.89-1.89,1.33s-1.18.81-1.76,1.24v3.53c1-.86,2.14-1.66,3.33-2.49C321.33,429.81,322,429.36,322.63,428.89Z"/><path class="cls-7" d="M324.92,452.42a32.19,32.19,0,0,1,4-6.49,34.59,34.59,0,0,1,5-4.37c.87-.67,1.74-1.34,2.57-2a20.11,20.11,0,0,0,4.75-5.31c1.56-2.68,2.16-5.84,2.75-8.88a30.19,30.19,0,0,1,2-7.32,16.9,16.9,0,0,1,1.66-2.68c.93-1.25,2-2.43,3.12-3.68a30,30,0,0,0,5.27-7.12c1.46-3.12,1.73-6.59,2-10,.09-1.14.18-2.31.32-3.44A22.92,22.92,0,0,1,359,388a34.91,34.91,0,0,1,2.74-6.54,30.14,30.14,0,0,0,3.35-9,26.58,26.58,0,0,0-.15-7.05l-.15-1.19a22.84,22.84,0,0,1,1.8-15.14c1.21-3.08,2.46-6.27,2.46-9.62s-1.25-6.54-2.46-9.62a32.56,32.56,0,0,1-2.11-6.74,31.77,31.77,0,0,1,.32-8.4l.14-1.19a26.59,26.59,0,0,0,.15-7,30.23,30.23,0,0,0-3.34-9,34.39,34.39,0,0,1-2.75-6.55,23.09,23.09,0,0,1-.57-3.15c-.14-1.13-.23-2.29-.32-3.42-.26-3.36-.54-6.83-2-9.95a30.27,30.27,0,0,0-5.27-7.13c-1.13-1.25-2.2-2.44-3.14-3.7a16.14,16.14,0,0,1-1.64-2.66,29.79,29.79,0,0,1-2-7.31c-.59-3.05-1.2-6.21-2.76-8.89a20,20,0,0,0-4.75-5.31l-.34-.27-3,.9c.56.44,1.14.88,1.68,1.33A17.7,17.7,0,0,1,339,246c1.34,2.31,1.88,5.12,2.46,8.09a31.92,31.92,0,0,0,2.25,7.94,18.3,18.3,0,0,0,1.89,3.08c1,1.35,2.17,2.64,3.29,3.88a27.7,27.7,0,0,1,4.85,6.5c1.26,2.7,1.51,5.79,1.77,9.07.09,1.15.18,2.35.32,3.52a26.85,26.85,0,0,0,.64,3.51,38,38,0,0,0,2.93,7,28.17,28.17,0,0,1,3.11,8.22,24.58,24.58,0,0,1-.16,6.37l-.15,1.19a33.67,33.67,0,0,0-.3,9.08,34,34,0,0,0,2.25,7.3c1.17,3,2.28,5.82,2.28,8.69s-1.11,5.69-2.28,8.69a34.12,34.12,0,0,0-2.25,7.29,33.73,33.73,0,0,0,.3,9.09l.14,1.18a24.21,24.21,0,0,1,.17,6.38,28.17,28.17,0,0,1-3.11,8.22,38,38,0,0,0-2.93,7,26.81,26.81,0,0,0-.64,3.49c-.14,1.18-.23,2.38-.33,3.54-.26,3.28-.5,6.38-1.76,9.08a27.94,27.94,0,0,1-4.85,6.49c-1.12,1.24-2.28,2.52-3.28,3.87a19.67,19.67,0,0,0-1.91,3.09,32.35,32.35,0,0,0-2.25,7.94c-.57,3-1.11,5.78-2.45,8.09a17.88,17.88,0,0,1-4.18,4.63c-.81.67-1.65,1.32-2.49,2a36.3,36.3,0,0,0-5.34,4.71,34.37,34.37,0,0,0-4.37,7,29.55,29.55,0,0,1-4.4,6.91,12.51,12.51,0,0,1-.92.85v2.18l2.15-.65c.22-.21.43-.41.63-.63A31.81,31.81,0,0,0,324.92,452.42Z"/><path class="cls-8" d="M355.24,444.22a37.66,37.66,0,0,0,3.28-9.65,41.5,41.5,0,0,1,2.5-8,22.52,22.52,0,0,1,1.8-3.07c1-1.5,2.26-3,3.45-4.43a41.09,41.09,0,0,0,5.39-7.65c1.82-3.67,2.43-7.76,3-11.71.14-.91.28-1.83.43-2.75.23-1.44.45-2.53.71-3.54a55.75,55.75,0,0,1,2.51-7.05,43.19,43.19,0,0,0,3.22-10.4,39.66,39.66,0,0,0,.06-7.63l0-.61a45.24,45.24,0,0,1,.16-10.08,46.18,46.18,0,0,1,2.06-7.17c1.23-3.54,2.49-7.19,2.49-11s-1.26-7.45-2.49-11a46.29,46.29,0,0,1-2.06-7.18,45.14,45.14,0,0,1-.16-10.07l0-.61a39.65,39.65,0,0,0-.06-7.63,43.33,43.33,0,0,0-3.22-10.4,55.66,55.66,0,0,1-2.5-7.05c-.26-1-.48-2.11-.72-3.56q-.23-1.37-.42-2.73c-.59-3.95-1.2-8-3-11.71a41.14,41.14,0,0,0-5.4-7.65c-1.19-1.44-2.42-2.93-3.46-4.45a21.89,21.89,0,0,1-1.78-3,41.14,41.14,0,0,1-2.51-8,36.91,36.91,0,0,0-3.28-9.65c-.22-.38-.45-.75-.69-1.12l-2.35.71a17.94,17.94,0,0,1,1,1.56,35,35,0,0,1,3,9,43.38,43.38,0,0,0,2.67,8.49,25,25,0,0,0,2,3.36c1.09,1.6,2.36,3.14,3.58,4.62a39.72,39.72,0,0,1,5.11,7.2c1.65,3.34,2.21,7.07,2.8,11,.14.93.27,1.85.43,2.77.24,1.52.48,2.68.76,3.76a57.67,57.67,0,0,0,2.6,7.35,41.63,41.63,0,0,1,3.06,9.83,37.34,37.34,0,0,1,0,7.18l0,.62a46.37,46.37,0,0,0,.18,10.59,47.44,47.44,0,0,0,2.16,7.55c1.16,3.35,2.36,6.82,2.36,10.22s-1.2,6.86-2.36,10.22a47.62,47.62,0,0,0-2.16,7.54,46.55,46.55,0,0,0-.18,10.61l0,.61a37.35,37.35,0,0,1,0,7.18,41.63,41.63,0,0,1-3.06,9.83,59.88,59.88,0,0,0-2.61,7.35c-.27,1.08-.51,2.24-.75,3.74-.16.93-.3,1.86-.43,2.79-.59,3.94-1.15,7.67-2.81,11a38.78,38.78,0,0,1-5.1,7.19c-1.22,1.48-2.48,3-3.57,4.6a24.41,24.41,0,0,0-2,3.39,43,43,0,0,0-2.66,8.48,34.67,34.67,0,0,1-3.05,9.05,22.36,22.36,0,0,1-4.47,5.4c-1,1-2.16,1.92-3.25,2.84-.81.68-1.63,1.38-2.44,2.1l5.54-1.68c.59-.51,1.18-1,1.74-1.56A24.76,24.76,0,0,0,355.24,444.22Z"/><path class="cls-9" d="M376,435.06a29.62,29.62,0,0,1,1.93-3.44c1.15-1.8,2.52-3.58,3.83-5.3a55.92,55.92,0,0,0,5.47-8.08c2.35-4.52,3.37-9.54,4.35-14.41l.23-1.13c.29-1.46.55-2.69.86-3.92.6-2.38,1.4-4.8,2.17-7.13a47.28,47.28,0,0,0,3.45-20.48,61.14,61.14,0,0,1,.7-11.76,67,67,0,0,1,2-7.4c1.26-4.05,2.56-8.24,2.56-12.54s-1.3-8.5-2.56-12.55a69.13,69.13,0,0,1-2-7.39,61.61,61.61,0,0,1-.69-11.84,63.78,63.78,0,0,0-.28-8.16,63.66,63.66,0,0,0-3.17-12.23c-.78-2.34-1.58-4.75-2.18-7.14-.31-1.23-.57-2.46-.86-3.93l-.23-1.12c-1-4.86-2-9.89-4.34-14.4a56.74,56.74,0,0,0-5.47-8.08c-1.32-1.73-2.69-3.51-3.85-5.32a28.38,28.38,0,0,1-1.91-3.42,55.67,55.67,0,0,1-3-8.7c-.61-2.18-1.24-4.4-2-6.54l-2,.61c.8,2.1,1.42,4.33,2,6.5a57.55,57.55,0,0,0,3.08,9,29.7,29.7,0,0,0,2.05,3.66c1.2,1.88,2.59,3.7,3.94,5.46a55.71,55.71,0,0,1,5.28,7.77c2.21,4.25,3.15,8.91,4.14,13.85l.23,1.11c.3,1.51.56,2.77.88,4,.62,2.46,1.43,4.91,2.22,7.28a61.63,61.63,0,0,1,3.08,11.83,59.74,59.74,0,0,1,.26,7.95,63.37,63.37,0,0,0,.74,12.18,67.59,67.59,0,0,0,2,7.63c1.21,3.9,2.46,7.93,2.46,11.92s-1.25,8-2.46,11.92a67.59,67.59,0,0,0-2,7.63,63.75,63.75,0,0,0-.74,12.25,61,61,0,0,1-.26,7.89A61.82,61.82,0,0,1,392.85,391c-.79,2.37-1.6,4.82-2.22,7.28-.34,1.34-.62,2.72-.88,4l-.23,1.13c-1,4.94-1.94,9.61-4.15,13.86A55.64,55.64,0,0,1,380.1,425c-1.35,1.75-2.73,3.56-3.93,5.43a31,31,0,0,0-2.07,3.69,57.44,57.44,0,0,0-3.08,9c-.18.64-.36,1.29-.55,1.94l2.4-.73.18-.64A57,57,0,0,1,376,435.06Z"/><path class="cls-10" d="M402.83,425.09c2.92-5.41,4.47-11.42,5.7-16.63l.25-1.12c.25-1.06.49-2.12.75-3.17.51-2.06,1.09-4.16,1.65-6.19a96.6,96.6,0,0,0,3.32-15.09c.29-2.55.38-5.16.46-7.68l0-1.19a78.53,78.53,0,0,1,1.28-12.83c.48-2.43,1.18-4.92,1.86-7.32,1.31-4.66,2.67-9.48,2.67-14.4s-1.36-9.74-2.67-14.4c-.68-2.41-1.38-4.89-1.86-7.32A78.64,78.64,0,0,1,415,304.91l0-1.16c-.08-2.52-.17-5.14-.46-7.69A96.6,96.6,0,0,0,411.18,281c-.56-2-1.14-4.13-1.65-6.2-.25-1-.5-2.1-.74-3.15l-.26-1.14c-1.22-5.21-2.77-11.21-5.69-16.61a78.32,78.32,0,0,0-5.49-8.37c-1.47-2.06-3-4.19-4.3-6.34a40.69,40.69,0,0,1-2.05-3.79,77.41,77.41,0,0,1-3.38-9.3c-.23-.73-.46-1.47-.7-2.21l-1.81.55c.24.74.48,1.49.71,2.23a79.24,79.24,0,0,0,3.47,9.53,44.52,44.52,0,0,0,2.14,4c1.34,2.22,2.89,4.37,4.39,6.46a79.18,79.18,0,0,1,5.36,8.17c2.81,5.19,4.32,11,5.51,16.13L407,272c.25,1.07.49,2.13.75,3.19.51,2.09,1.1,4.2,1.66,6.25a96,96,0,0,1,3.27,14.79c.28,2.48.36,5.05.44,7.54l0,1.17a81.77,81.77,0,0,0,1.31,13.14c.5,2.5,1.21,5,1.9,7.46,1.28,4.54,2.6,9.22,2.6,13.89s-1.32,9.35-2.6,13.89c-.69,2.44-1.4,5-1.9,7.45A82,82,0,0,0,413.11,374l0,1.18c-.08,2.49-.16,5.06-.44,7.54a96,96,0,0,1-3.27,14.79c-.56,2-1.15,4.16-1.66,6.25-.26,1.06-.51,2.13-.76,3.2l-.25,1.11c-1.2,5.09-2.71,11-5.52,16.16a76.9,76.9,0,0,1-5.36,8.16c-1.49,2.08-3,4.23-4.37,6.43l2.77-.84c1-1.52,2.08-3,3.14-4.49A80.16,80.16,0,0,0,402.83,425.09Z"/><path class="cls-11" d="M426.24,410.15l.49-2A164.82,164.82,0,0,0,431,386.37c.24-2.22.38-4.48.52-6.66.06-.95.12-1.91.19-2.85a103.38,103.38,0,0,1,1.86-13.9c.48-2.27,1.08-4.58,1.67-6.83,1.4-5.4,2.85-11,2.85-16.66s-1.45-11.27-2.85-16.67c-.59-2.24-1.19-4.56-1.67-6.82a103.38,103.38,0,0,1-1.86-13.9c-.07-.94-.13-1.89-.19-2.84-.14-2.18-.28-4.44-.52-6.66a165.83,165.83,0,0,0-4.24-21.74l-.48-2c-.33-1.37-.67-2.75-1-4.12a73.9,73.9,0,0,0-6.81-17.7c-1.62-2.91-3.54-5.72-5.39-8.44-1.67-2.46-3.4-5-4.88-7.58-.8-1.39-1.53-2.79-2.17-4.16-1.16-2.5-2.14-5.16-3.07-7.8l-1.59.48c.94,2.7,1.95,5.43,3.15,8,.66,1.41,1.41,2.85,2.23,4.28,1.51,2.62,3.26,5.2,5,7.69,1.83,2.69,3.72,5.47,5.31,8.32a72.84,72.84,0,0,1,6.65,17.3c.35,1.36.68,2.73,1,4.09l.48,2a166.09,166.09,0,0,1,4.21,21.52c.23,2.19.37,4.43.51,6.6l.18,2.85a105.11,105.11,0,0,0,1.9,14.13c.49,2.3,1.1,4.63,1.68,6.89,1.38,5.3,2.81,10.78,2.81,16.25s-1.43,10.95-2.81,16.24c-.58,2.26-1.19,4.6-1.68,6.9a105.11,105.11,0,0,0-1.9,14.13c-.06.95-.12,1.91-.19,2.86-.13,2.17-.27,4.41-.5,6.6a166.25,166.25,0,0,1-4.22,21.53l-.49,2q-.48,2-1,4A72.41,72.41,0,0,1,417,431.06l2.25-.68a76.61,76.61,0,0,0,6-16.18C425.59,412.85,425.92,411.5,426.24,410.15Z"/><path class="cls-12" d="M443.24,415a188.58,188.58,0,0,0,4.22-25.11c.16-1.57.29-3.15.42-4.72.16-1.82.31-3.64.5-5.45a130.33,130.33,0,0,1,2.45-14.95c.42-1.89.88-3.79,1.35-5.7,1.55-6.34,3.16-12.9,3.16-19.56s-1.61-13.22-3.16-19.56c-.47-1.91-.93-3.8-1.35-5.7a132.56,132.56,0,0,1-2.45-14.95c-.19-1.81-.34-3.63-.5-5.44-.13-1.58-.26-3.15-.42-4.72A188.58,188.58,0,0,0,443.24,264c-.46-1.94-.87-3.53-1.29-5A84.26,84.26,0,0,0,434,240.2c-1.59-2.78-3.37-5.52-5.1-8.17-1.94-3-3.94-6.07-5.66-9.19-.81-1.48-1.58-3-2.28-4.51-.63-1.36-1.22-2.77-1.78-4.18l-1.39.42c.59,1.47,1.2,2.94,1.86,4.37s1.5,3.09,2.33,4.6c1.74,3.16,3.76,6.27,5.71,9.27,1.71,2.64,3.49,5.36,5.06,8.11a83,83,0,0,1,7.79,18.48c.41,1.44.82,3,1.28,4.93A186.9,186.9,0,0,1,446,289.24c.16,1.56.29,3.13.42,4.7.16,1.82.31,3.65.5,5.47a132.79,132.79,0,0,0,2.48,15.11c.42,1.91.89,3.82,1.36,5.73,1.53,6.26,3.11,12.73,3.11,19.22s-1.58,13-3.12,19.22c-.46,1.91-.93,3.82-1.35,5.73a133.16,133.16,0,0,0-2.48,15.11c-.19,1.82-.34,3.65-.5,5.48-.13,1.56-.26,3.13-.42,4.7a185.33,185.33,0,0,1-4.19,24.91c-.46,1.92-.86,3.48-1.27,4.92q-.69,2.46-1.55,4.87l1.7-.52c.44-1.31.86-2.63,1.24-4S442.77,416.9,443.24,415Z"/><path class="cls-13" d="M462.84,392l-.12,1.22a208,208,0,0,1-3.43,25.06l1.34-.41a215.27,215.27,0,0,0,3.31-24.53l.11-1.23c.29-3.16.6-6.44,1-9.62s1-6.36,1.74-10.1v-5.73c-1.43,6.26-2.35,11.12-2.95,15.67C463.43,385.54,463.13,388.82,462.84,392Z"/><path class="cls-13" d="M464.05,286.82l-.11-1.21c-.86-9.26-1.8-18.29-3.85-27-.45-1.93-.92-3.67-1.42-5.33a94,94,0,0,0-9.05-19.89c-1.45-2.48-3-4.95-4.51-7.35-2.31-3.69-4.71-7.5-6.75-11.35-.81-1.55-1.62-3.19-2.39-4.87-.1-.2-.19-.42-.28-.62l-1.18.35.35.78c.78,1.71,1.6,3.36,2.42,4.93,2.06,3.89,4.47,7.72,6.8,11.43,1.49,2.39,3,4.85,4.48,7.31a92.36,92.36,0,0,1,8.94,19.64c.5,1.63,1,3.35,1.4,5.25,2,8.64,3,17.63,3.82,26.85l.12,1.2c.29,3.18.59,6.47,1,9.68.6,4.55,1.52,9.41,2.95,15.66v-5.72c-.77-3.75-1.33-7-1.74-10.1S464.34,290,464.05,286.82Z"/><path class="cls-2" d="M453.46,206.5c-.39-.76-.75-1.54-1.13-2.32l-1,.29c.4.83.8,1.67,1.21,2.49,2.55,5,5.56,9.91,8.48,14.66,1.94,3.17,3.9,6.38,5.76,9.66v-2c-1.6-2.77-3.26-5.49-4.91-8.18C459,216.36,456,211.46,453.46,206.5Z"/></g></svg>