<svg xmlns="http://www.w3.org/2000/svg" viewBox="0 0 600 599.61"><defs><style>.cls-1{fill:none;}.cls-2{fill:#4a90ff;}.cls-3{fill:#4289f9;}.cls-4{fill:#3a81f4;}.cls-5{fill:#317aee;}.cls-6{fill:#2973e8;}.cls-7{fill:#216be3;}.cls-8{fill:#1964dd;}.cls-9{fill:#105dd7;}.cls-10{fill:#0855d2;}.cls-11{fill:#004ecc;}.cls-12{fill:#a1c5fc;}.cls-13{fill:#00ffd5;}</style></defs><title>icons - Window - Dark</title><g id="Window"><path class="cls-1" d="M446.53,398.75c.16-1.58.29-3.16.42-4.74.15-1.82.31-3.63.49-5.44a137,137,0,0,1,2.48-15.11c.43-1.91.89-3.82,1.36-5.74,1.53-6.25,3.12-12.72,3.12-19.21s-1.59-13-3.12-19.22c-.47-1.91-.93-3.82-1.36-5.73a137.39,137.39,0,0,1-2.48-15.11c-.18-1.83-.34-3.66-.49-5.49q-.19-2.34-.42-4.68a185.33,185.33,0,0,0-4.19-24.91c-.46-1.92-.86-3.49-1.27-4.93A83,83,0,0,0,433.28,250c-1.58-2.75-3.35-5.47-5.06-8.11-2-3-4-6.11-5.72-9.27-.83-1.51-1.61-3.06-2.33-4.6-1.55-3.37-2.87-6.91-4.15-10.35-.22-.59-.44-1.18-.67-1.78L399,220.76c1.42,3.13,2.57,6.42,3.68,9.63s2.32,6.69,3.78,9.84c.64,1.37,1.36,2.77,2.16,4.15,1.48,2.57,3.22,5.12,4.89,7.58,1.85,2.72,3.76,5.54,5.39,8.45a73.74,73.74,0,0,1,6.8,17.7c.35,1.35.68,2.7,1,4.05l.49,2A165.84,165.84,0,0,1,431.49,306c.23,2.22.38,4.47.51,6.65.06.95.12,1.91.19,2.85a101.92,101.92,0,0,0,1.87,13.9c.48,2.27,1.08,4.58,1.66,6.82,1.4,5.4,2.86,11,2.86,16.67s-1.45,11.27-2.86,16.67c-.58,2.24-1.18,4.56-1.66,6.82a101.7,101.7,0,0,0-1.87,13.9c-.07.95-.13,1.9-.19,2.85-.14,2.19-.28,4.44-.51,6.66a166.12,166.12,0,0,1-4.26,21.78l-.48,2c-.33,1.35-.66,2.7-1,4.05-.13.52-.27,1-.42,1.53L442.26,424c0-.11.05-.2.08-.32A188.56,188.56,0,0,0,446.53,398.75Z"/><path class="cls-1" d="M346.15,444.52c1-1.34,2.16-2.63,3.27-3.87a27.66,27.66,0,0,0,4.85-6.49c1.26-2.7,1.51-5.79,1.77-9.07.09-1.16.19-2.36.33-3.54a24.78,24.78,0,0,1,.63-3.49,37.67,37.67,0,0,1,2.93-7c1.39-2.78,2.7-5.4,3.11-8.22a24.65,24.65,0,0,0-.16-6.38l-.15-1.18a25.19,25.19,0,0,1,2-16.38c1.17-3,2.28-5.83,2.28-8.69s-1.11-5.7-2.28-8.7a25.17,25.17,0,0,1-2-16.37l.15-1.19a24.65,24.65,0,0,0,.16-6.38c-.41-2.82-1.72-5.44-3.1-8.21a36.46,36.46,0,0,1-2.93-7,23.72,23.72,0,0,1-.64-3.5c-.14-1.17-.24-2.37-.33-3.53-.26-3.27-.5-6.37-1.77-9.07a27.6,27.6,0,0,0-4.84-6.49,49,49,0,0,1-3.29-3.89,18.58,18.58,0,0,1-1.9-3.07A32.35,32.35,0,0,1,342,284.8c-.57-3-1.11-5.78-2.45-8.09a17.72,17.72,0,0,0-4.18-4.63c-.81-.68-1.66-1.33-2.5-2a37.36,37.36,0,0,1-5.34-4.7,35.12,35.12,0,0,1-4.36-7,29.6,29.6,0,0,0-4.4-6.9,11.68,11.68,0,0,0-.89-.82v30.58a40.4,40.4,0,0,0,3.3,2.45c.66.46,1.32.91,2,1.38a16.68,16.68,0,0,1,4.61,4.67c1.45,2.43,1.85,5.35,2.24,8.16a21.85,21.85,0,0,0,1.56,6.56,12.86,12.86,0,0,0,1.49,2.26c.84,1,1.82,2,2.85,3,2,2,4,4,5.12,6.54,1.18,2.72,1.15,5.75,1.13,8.68,0,1.21,0,2.46.06,3.63a14.26,14.26,0,0,0,.42,2.74,22.84,22.84,0,0,0,2.92,5.79c1.51,2.43,3.08,4.94,3.55,7.82a18.39,18.39,0,0,1-.38,6.5l-.3,1.48a15.7,15.7,0,0,0,1.39,13.13c1.21,2.68,2.46,5.46,2.46,8.43s-1.25,5.74-2.46,8.43a15.67,15.67,0,0,0-1.39,13.12l.3,1.48a18.45,18.45,0,0,1,.38,6.51c-.47,2.88-2,5.39-3.55,7.82a22.84,22.84,0,0,0-2.92,5.79,14.28,14.28,0,0,0-.42,2.72c-.08,1.19-.07,2.44-.06,3.66,0,2.92.05,5.95-1.13,8.67-1.1,2.55-3.14,4.58-5.12,6.55a39.36,39.36,0,0,0-2.84,3,11.86,11.86,0,0,0-1.5,2.28,21.72,21.72,0,0,0-1.56,6.54,24.16,24.16,0,0,1-1.82,7.37l14.09-4.26a27.49,27.49,0,0,1,2-6.58A19,19,0,0,1,346.15,444.52Z"/><path class="cls-1" d="M407.45,424.64c.24-1.07.49-2.15.75-3.21.52-2.09,1.1-4.21,1.67-6.25a97.25,97.25,0,0,0,3.26-14.8c.28-2.48.36-5.05.44-7.53l0-1.19a80.91,80.91,0,0,1,1.32-13.14c.5-2.49,1.21-5,1.9-7.46,1.27-4.53,2.6-9.22,2.6-13.88s-1.33-9.36-2.6-13.89c-.69-2.44-1.4-5-1.9-7.46a81.82,81.82,0,0,1-1.32-13.14l0-1.17c-.08-2.49-.17-5.06-.45-7.55a97.39,97.39,0,0,0-3.26-14.79c-.57-2-1.15-4.16-1.67-6.25-.26-1.05-.5-2.12-.74-3.18l-.27-1.14c-1.19-5.08-2.69-10.94-5.51-16.14a77,77,0,0,0-5.36-8.17c-1.5-2.08-3-4.24-4.38-6.45a43.18,43.18,0,0,1-2.14-4,76.09,76.09,0,0,1-3.47-9.54,63.45,63.45,0,0,0-4.26-11,35,35,0,0,0-4.36-6.14l-20.4,6.14c1,.93,2,1.85,3,2.75,1.45,1.31,3,2.66,4.35,4.08a30.82,30.82,0,0,1,5.08,6.61,48.35,48.35,0,0,1,3.83,10.48,56.72,56.72,0,0,0,3,8.7,30,30,0,0,0,1.92,3.42c1.16,1.81,2.52,3.59,3.84,5.32a56.25,56.25,0,0,1,5.48,8.08c2.35,4.51,3.36,9.54,4.34,14.4l.22,1.12c.24,1.2.53,2.59.87,3.93.59,2.39,1.4,4.8,2.17,7.14a63.47,63.47,0,0,1,3.17,12.23,62.46,62.46,0,0,1,.28,8.19,61.42,61.42,0,0,0,.7,11.81,66.79,66.79,0,0,0,2,7.39c1.26,4.05,2.56,8.24,2.56,12.55s-1.3,8.49-2.55,12.54a64.87,64.87,0,0,0-2,7.4,61.15,61.15,0,0,0-.7,11.77,62.71,62.71,0,0,1-.28,8.23,63.57,63.57,0,0,1-3.17,12.24c-.78,2.33-1.58,4.75-2.18,7.13-.33,1.34-.62,2.73-.86,3.92l-.22,1.13c-1,4.86-2,9.89-4.35,14.41l-.12.21,16.86-5.09a94.23,94.23,0,0,0,2.7-9.67Z"/><path class="cls-1" d="M390,425.45l.22-1.13c.25-1.21.54-2.63.89-4,.61-2.46,1.43-4.92,2.22-7.29a62.27,62.27,0,0,0,3.08-11.82,63,63,0,0,0,.26-7.9,63.72,63.72,0,0,1,.73-12.24,69.82,69.82,0,0,1,2.05-7.63c1.21-3.9,2.46-7.93,2.46-11.92s-1.25-8-2.46-11.92a70.43,70.43,0,0,1-2.05-7.63,63.38,63.38,0,0,1-.73-12.18,61.65,61.65,0,0,0-.26-7.95A62.37,62.37,0,0,0,393.36,310c-.79-2.37-1.6-4.82-2.22-7.28-.35-1.39-.64-2.81-.89-4l-.22-1.11c-1-4.94-1.93-9.6-4.15-13.85a55.06,55.06,0,0,0-5.27-7.77c-1.35-1.76-2.74-3.58-3.95-5.46a31.72,31.72,0,0,1-2.05-3.66,57.55,57.55,0,0,1-3.08-9,47.42,47.42,0,0,0-3.64-10,28.53,28.53,0,0,0-4.75-6.16c-1.35-1.38-2.82-2.71-4.25-4s-2.62-2.38-3.87-3.64l-18.23,5.49.81,1.27a48.76,48.76,0,0,0,5,7,52.86,52.86,0,0,0,4.87,4.46c1.11.94,2.26,1.91,3.34,2.92a24.74,24.74,0,0,1,4.91,5.95,36.86,36.86,0,0,1,3.28,9.66,42.22,42.22,0,0,0,2.51,8,22.68,22.68,0,0,0,1.79,3.05c1,1.51,2.27,3,3.46,4.45a41.09,41.09,0,0,1,5.39,7.65c1.82,3.67,2.43,7.75,3,11.7.14.91.27,1.83.42,2.74.24,1.42.46,2.55.72,3.55a55.88,55.88,0,0,0,2.51,7.06,43.23,43.23,0,0,1,3.21,10.39,39.64,39.64,0,0,1,.07,7.63l0,.61a33.06,33.06,0,0,0,2.22,17.25c1.22,3.54,2.49,7.19,2.49,11s-1.27,7.45-2.49,11a33.08,33.08,0,0,0-2.22,17.26l0,.6a39.64,39.64,0,0,1-.07,7.63,42.75,42.75,0,0,1-3.22,10.4,57.4,57.4,0,0,0-2.5,7.06c-.26,1-.49,2.13-.72,3.54-.15.92-.29,1.83-.42,2.75-.59,3.95-1.2,8-3,11.71a40.75,40.75,0,0,1-5.4,7.64l-1.49,1.84,19.4-5.87q.65-1,1.2-2.07C388.09,435.05,389,430.39,390,425.45Z"/><path class="cls-1" d="M464.56,396.83l-.12,1.21c-.62,6.79-1.3,13.46-2.43,20l5.42-1.63V376.57c-.83,4-1.43,7.38-1.86,10.62S464.85,393.66,464.56,396.83Z"/><path class="cls-1" d="M370.08,436.73c1.65-3.34,2.21-7.07,2.8-11,.14-.93.28-1.86.43-2.79.24-1.48.48-2.67.76-3.74a59.26,59.26,0,0,1,2.6-7.35,41.27,41.27,0,0,0,3.07-9.84,37.34,37.34,0,0,0,.05-7.18l0-.6a35.34,35.34,0,0,1,2.34-18.16c1.16-3.35,2.36-6.82,2.36-10.22s-1.2-6.86-2.36-10.21a48,48,0,0,1-2.16-7.55,47.12,47.12,0,0,1-.18-10.61l0-.61a37.35,37.35,0,0,0-.05-7.18,41.34,41.34,0,0,0-3.07-9.83,59.26,59.26,0,0,1-2.6-7.35c-.27-1.07-.51-2.26-.76-3.76-.15-.91-.29-1.84-.43-2.77-.59-3.94-1.14-7.67-2.8-11a39.18,39.18,0,0,0-5.1-7.2c-1.22-1.48-2.49-3-3.58-4.61a24,24,0,0,1-2-3.37,42.31,42.31,0,0,1-2.67-8.49,34.8,34.8,0,0,0-3.05-9.05,22.61,22.61,0,0,0-4.47-5.39c-1-1-2.17-1.93-3.26-2.85a54.68,54.68,0,0,1-5.08-4.67,49.82,49.82,0,0,1-5.27-7.34l-1.16-1.82-16.6,5v2.24a18.1,18.1,0,0,1,2.75,2.34,31.87,31.87,0,0,1,4.81,7.49,32.19,32.19,0,0,0,4,6.49,35.07,35.07,0,0,0,5,4.36c.87.67,1.74,1.34,2.58,2a20.14,20.14,0,0,1,4.75,5.31c1.55,2.68,2.16,5.83,2.75,8.88a30.19,30.19,0,0,0,2,7.32,17,17,0,0,0,1.65,2.66c.93,1.26,2,2.44,3.13,3.7a30,30,0,0,1,5.27,7.12c1.46,3.12,1.73,6.59,2,9.95.09,1.13.18,2.3.32,3.42a20.53,20.53,0,0,0,.57,3.16,34.91,34.91,0,0,0,2.74,6.54,30.19,30.19,0,0,1,3.35,9,26.58,26.58,0,0,1-.15,7.05l-.15,1.21a22.81,22.81,0,0,0,1.8,15.12c1.2,3.09,2.45,6.28,2.45,9.63s-1.25,6.53-2.45,9.62a22.84,22.84,0,0,0-1.8,15.14l.15,1.19a26.58,26.58,0,0,1,.15,7.05c-.47,3.23-1.94,6.16-3.35,9a35.19,35.19,0,0,0-2.74,6.54,23.09,23.09,0,0,0-.57,3.15c-.14,1.13-.23,2.3-.32,3.43-.27,3.36-.55,6.83-2,9.95a30,30,0,0,1-5.27,7.13c-1.13,1.25-2.19,2.43-3.12,3.68a15.8,15.8,0,0,0-1.66,2.68,21.45,21.45,0,0,0-1.49,4.63l16.45-5c1.07-1.54,2.29-3,3.48-4.46A40.16,40.16,0,0,0,370.08,436.73Z"/><path class="cls-1" d="M425.13,423.13l.48-2a163.4,163.4,0,0,0,4.22-21.56c.23-2.19.37-4.43.51-6.6.06-1,.12-1.91.19-2.86a104.72,104.72,0,0,1,1.9-14.12c.48-2.31,1.09-4.64,1.68-6.9,1.38-5.3,2.8-10.78,2.8-16.25s-1.42-10.95-2.8-16.25c-.59-2.26-1.2-4.59-1.68-6.89a102.4,102.4,0,0,1-1.9-14.13c-.07-.95-.13-1.9-.19-2.86-.14-2.16-.28-4.4-.51-6.58a164.57,164.57,0,0,0-4.21-21.53l-.49-2.05c-.33-1.34-.65-2.68-1-4a71.91,71.91,0,0,0-6.65-17.31c-1.59-2.85-3.48-5.63-5.31-8.32-1.69-2.49-3.44-5.06-4.95-7.69-.82-1.42-1.57-2.86-2.23-4.28a106.43,106.43,0,0,1-3.84-10c-1.12-3.25-2.29-6.57-3.73-9.69l-17.73,5.33a35.57,35.57,0,0,1,4,5.83,64.66,64.66,0,0,1,4.4,11.36,75.88,75.88,0,0,0,3.38,9.31,41.64,41.64,0,0,0,2,3.79c1.3,2.15,2.83,4.28,4.31,6.33a82,82,0,0,1,5.49,8.37c2.92,5.41,4.46,11.41,5.68,16.61l.27,1.15c.24,1.05.48,2.1.74,3.15.51,2.07,1.09,4.17,1.65,6.2A99.07,99.07,0,0,1,415,313.76c.29,2.56.37,5.17.45,7.7l0,1.16a80.92,80.92,0,0,0,1.28,12.84c.49,2.42,1.19,4.91,1.87,7.32,1.31,4.65,2.66,9.47,2.66,14.4s-1.35,9.74-2.67,14.4c-.67,2.4-1.37,4.89-1.86,7.31a79.88,79.88,0,0,0-1.28,12.84l0,1.18c-.08,2.52-.16,5.13-.45,7.69a99.2,99.2,0,0,1-3.32,15.09c-.56,2-1.15,4.12-1.65,6.19q-.39,1.59-.75,3.18l-.26,1.1c-.63,2.71-1.36,5.63-2.32,8.57l16.73-5.06q.36-1.23.69-2.52C424.48,425.81,424.8,424.47,425.13,423.13Z"/><path class="cls-1" d="M322.65,429.07c.67-1.73.41-3.93.14-6.26a18.15,18.15,0,0,1,.09-7,18,18,0,0,1,3.58-5.95c1.46-1.85,2.85-3.6,3.19-5.46s-.31-3.92-1-6.15a18.31,18.31,0,0,1-1.21-6.94,17.91,17.91,0,0,1,2.42-6.49c1.1-2.09,2.15-4.07,2.15-6s-1.05-3.88-2.15-6a17.91,17.91,0,0,1-2.42-6.49,18.26,18.26,0,0,1,1.21-6.93c.7-2.24,1.35-4.35,1-6.16s-1.73-3.61-3.19-5.46a18,18,0,0,1-3.58-5.95,18.15,18.15,0,0,1-.09-7c.27-2.33.53-4.53-.14-6.25s-2.37-3.22-4.15-4.77l-.6-.52,0,111,.56-.49C320.28,432.28,322,430.82,322.65,429.07Z"/><path class="cls-1" d="M453.08,207.33c-.41-.81-.81-1.64-1.2-2.46l-17.33,5.21q.93,2.25,1.92,4.44c.77,1.67,1.58,3.3,2.4,4.86,2,3.85,4.43,7.67,6.75,11.36,1.5,2.39,3.05,4.87,4.5,7.34a93,93,0,0,1,9.05,19.9c.51,1.65,1,3.4,1.43,5.32,2,8.72,3,17.76,3.85,27l.11,1.25c.29,3.15.59,6.41,1,9.59s1,6.65,1.86,10.62V231.85c-1.89-3.35-3.9-6.62-5.88-9.85C458.64,217.24,455.63,212.32,453.08,207.33Z"/><path class="cls-1" d="M454,206.88c2.53,5,5.53,9.85,8.44,14.59,1.68,2.75,3.38,5.54,5,8.37V200.2l-14.58,4.38C453.22,205.35,453.58,206.12,454,206.88Z"/><path class="cls-1" d="M327.24,450.72a24.18,24.18,0,0,1,1.81-7.4,15.21,15.21,0,0,1,1.85-2.81c.93-1.13,2-2.2,3-3.23,1.87-1.85,3.64-3.61,4.53-5.67s.92-4.79.9-7.55c0-1.27,0-2.58.07-3.86a16.51,16.51,0,0,1,.51-3.27,25.23,25.23,0,0,1,3.25-6.53c1.42-2.3,2.78-4.47,3.16-6.8a16.3,16.3,0,0,0-.37-5.53c-.09-.48-.19-1-.29-1.45a24.22,24.22,0,0,1-.76-7.9,24.71,24.71,0,0,1,2.34-6.92c1.14-2.53,2.21-4.92,2.21-7.29s-1.07-4.76-2.21-7.29a25,25,0,0,1-2.34-6.93,24.52,24.52,0,0,1,.76-7.9c.1-.49.2-1,.29-1.45a16,16,0,0,0,.37-5.53c-.38-2.33-1.74-4.5-3.16-6.79a25.23,25.23,0,0,1-3.25-6.53,16.74,16.74,0,0,1-.51-3.28c-.09-1.28-.08-2.59-.07-3.85,0-2.76.05-5.36-.9-7.55s-2.65-3.82-4.52-5.67c-1-1-2.12-2.11-3.05-3.25a14.62,14.62,0,0,1-1.83-2.79,24.2,24.2,0,0,1-1.82-7.4c-.37-2.66-.71-5.17-1.88-7.12a13.86,13.86,0,0,0-3.86-3.85c-.62-.45-1.26-.89-1.89-1.33s-1.15-.8-1.72-1.21v34.39a31.83,31.83,0,0,0,2.57,2.41c2,1.72,4,3.5,5,5.94s.63,5.1.33,7.69a15.89,15.89,0,0,0,0,5.84,15.66,15.66,0,0,0,3.05,4.91c1.63,2.06,3.31,4.19,3.79,6.78s-.32,5.1-1.09,7.59a15.64,15.64,0,0,0-1.09,5.76,15.38,15.38,0,0,0,2.09,5.37c1.22,2.33,2.49,4.73,2.49,7.37s-1.27,5.05-2.49,7.37a15.38,15.38,0,0,0-2.09,5.37,15.69,15.69,0,0,0,1.09,5.77c.77,2.48,1.57,5,1.09,7.59s-2.16,4.71-3.79,6.77a15.66,15.66,0,0,0-3.05,4.91,15.94,15.94,0,0,0,0,5.85c.3,2.59.61,5.26-.33,7.68s-3,4.23-5,5.94a30.84,30.84,0,0,0-2.53,2.37v23.09l5.82-1.76a9.91,9.91,0,0,0,1.59-2C326.53,455.89,326.87,453.38,327.24,450.72Z"/><path class="cls-1" d="M464.36,301.32c-.42-3.2-.72-6.48-1-9.64l-.11-1.25c-.86-9.22-1.79-18.21-3.82-26.85-.45-1.9-.91-3.61-1.41-5.24a92.28,92.28,0,0,0-8.93-19.64c-1.44-2.46-3-4.92-4.49-7.31-2.32-3.71-4.73-7.54-6.79-11.44-.84-1.57-1.65-3.23-2.43-4.92-.69-1.51-1.35-3.05-2-4.59l-16.63,5c.21.56.43,1.13.63,1.69,1.27,3.41,2.59,6.93,4.12,10.24.69,1.52,1.46,3,2.28,4.51,1.71,3.12,3.72,6.2,5.66,9.19,1.72,2.65,3.5,5.39,5.1,8.17a84.73,84.73,0,0,1,7.93,18.8c.41,1.47.82,3,1.28,5A187,187,0,0,1,448,298.14c.15,1.56.28,3.13.42,4.7.15,1.82.3,3.64.49,5.46a134.48,134.48,0,0,0,2.45,14.95c.42,1.9.89,3.8,1.35,5.7,1.56,6.34,3.16,12.89,3.16,19.56s-1.6,13.22-3.16,19.56c-.46,1.9-.93,3.8-1.35,5.7a134.48,134.48,0,0,0-2.45,15c-.19,1.79-.34,3.6-.49,5.41-.13,1.59-.27,3.18-.42,4.76a188.93,188.93,0,0,1-4.12,24.61l16.86-5.09c1.18-6.66,1.87-13.51,2.52-20.48l.11-1.21c.29-3.18.6-6.47,1-9.69.62-4.66,1.56-9.63,3.06-16.1v-53.5C465.92,311,465,306,464.36,301.32Z"/><path class="cls-2" d="M320.47,436.09c2-1.71,4-3.49,5-5.94s.63-5.09.33-7.68a15.94,15.94,0,0,1,0-5.85,15.66,15.66,0,0,1,3.05-4.91c1.63-2.06,3.31-4.19,3.79-6.77s-.32-5.11-1.09-7.59a15.69,15.69,0,0,1-1.09-5.77,15.38,15.38,0,0,1,2.09-5.37c1.22-2.32,2.49-4.73,2.49-7.37s-1.27-5-2.49-7.37a15.38,15.38,0,0,1-2.09-5.37,15.64,15.64,0,0,1,1.09-5.76c.77-2.49,1.57-5,1.09-7.59s-2.16-4.72-3.79-6.78a15.66,15.66,0,0,1-3.05-4.91,15.89,15.89,0,0,1,0-5.84c.3-2.59.61-5.27-.33-7.69s-3-4.22-5-5.94a31.83,31.83,0,0,1-2.57-2.41v4.15l.6.52c1.78,1.55,3.47,3,4.15,4.77s.41,3.92.14,6.25a18.15,18.15,0,0,0,.09,7,18,18,0,0,0,3.58,5.95c1.46,1.85,2.85,3.61,3.19,5.46s-.31,3.92-1,6.16a18.26,18.26,0,0,0-1.21,6.93,17.91,17.91,0,0,0,2.42,6.49c1.1,2.09,2.15,4.07,2.15,6s-1.05,3.88-2.15,6a17.91,17.91,0,0,0-2.42,6.49,18.31,18.31,0,0,0,1.21,6.94c.7,2.23,1.35,4.34,1,6.15s-1.73,3.61-3.19,5.46a18,18,0,0,0-3.58,5.95,18.15,18.15,0,0,0-.09,7c.27,2.33.53,4.53-.14,6.26s-2.37,3.21-4.15,4.76l-.56.49v4.14A30.84,30.84,0,0,1,320.47,436.09Z"/><path class="cls-3" d="M331.55,444.55a11.86,11.86,0,0,1,1.5-2.28,39.36,39.36,0,0,1,2.84-3c2-2,4-4,5.12-6.55,1.18-2.72,1.15-5.75,1.13-8.67,0-1.22,0-2.47.06-3.66a14.28,14.28,0,0,1,.42-2.72,22.84,22.84,0,0,1,2.92-5.79c1.52-2.43,3.08-4.94,3.55-7.82a18.45,18.45,0,0,0-.38-6.51l-.3-1.48a15.67,15.67,0,0,1,1.39-13.12c1.21-2.69,2.46-5.46,2.46-8.43s-1.25-5.75-2.46-8.43A15.7,15.7,0,0,1,348.41,353l.3-1.48a18.39,18.39,0,0,0,.38-6.5c-.47-2.88-2-5.39-3.55-7.82a22.84,22.84,0,0,1-2.92-5.79,14.26,14.26,0,0,1-.42-2.74c-.08-1.17-.07-2.42-.06-3.63,0-2.93.05-6-1.13-8.68-1.1-2.55-3.14-4.58-5.12-6.54-1-1-2-2-2.85-3a12.86,12.86,0,0,1-1.49-2.26,21.85,21.85,0,0,1-1.56-6.56c-.39-2.81-.79-5.73-2.24-8.16a16.68,16.68,0,0,0-4.61-4.67c-.64-.47-1.3-.92-2-1.38a40.4,40.4,0,0,1-3.3-2.45v3.53c.57.41,1.14.82,1.72,1.21s1.27.88,1.89,1.33a13.86,13.86,0,0,1,3.86,3.85c1.17,1.95,1.51,4.46,1.88,7.12a24.2,24.2,0,0,0,1.82,7.4,14.62,14.62,0,0,0,1.83,2.79c.93,1.14,2,2.21,3.05,3.25,1.87,1.85,3.63,3.61,4.52,5.67s.92,4.79.9,7.55c0,1.26,0,2.57.07,3.85a16.74,16.74,0,0,0,.51,3.28,25.23,25.23,0,0,0,3.25,6.53c1.42,2.29,2.78,4.46,3.16,6.79a16,16,0,0,1-.37,5.53c-.09.48-.19,1-.29,1.45a24.52,24.52,0,0,0-.76,7.9,25,25,0,0,0,2.34,6.93c1.14,2.53,2.21,4.92,2.21,7.29s-1.07,4.76-2.21,7.29a24.71,24.71,0,0,0-2.34,6.92,24.22,24.22,0,0,0,.76,7.9c.1.48.2,1,.29,1.45a16.3,16.3,0,0,1,.37,5.53c-.38,2.33-1.74,4.5-3.16,6.8a25.23,25.23,0,0,0-3.25,6.53,16.51,16.51,0,0,0-.51,3.27c-.09,1.28-.08,2.59-.07,3.86,0,2.76,0,5.36-.9,7.55s-2.66,3.82-4.53,5.67c-1,1-2.1,2.1-3,3.23a15.21,15.21,0,0,0-1.85,2.81,24.18,24.18,0,0,0-1.81,7.4c-.37,2.66-.71,5.17-1.88,7.12a9.91,9.91,0,0,1-1.59,2l4.4-1.33a24.16,24.16,0,0,0,1.82-7.37A21.72,21.72,0,0,1,331.55,444.55Z"/><path class="cls-4" d="M348.2,446.05c.93-1.25,2-2.43,3.12-3.68a30,30,0,0,0,5.27-7.13c1.45-3.12,1.73-6.59,2-9.95.09-1.13.18-2.3.32-3.43a23.09,23.09,0,0,1,.57-3.15,35.19,35.19,0,0,1,2.74-6.54c1.41-2.83,2.88-5.76,3.35-9a26.58,26.58,0,0,0-.15-7.05l-.15-1.19a22.84,22.84,0,0,1,1.8-15.14c1.2-3.09,2.45-6.28,2.45-9.62s-1.25-6.54-2.45-9.63a22.81,22.81,0,0,1-1.8-15.12l.15-1.21a26.58,26.58,0,0,0,.15-7.05,30.19,30.19,0,0,0-3.35-9,34.91,34.91,0,0,1-2.74-6.54,20.53,20.53,0,0,1-.57-3.16c-.14-1.12-.23-2.29-.32-3.42-.27-3.36-.54-6.83-2-9.95a30,30,0,0,0-5.27-7.12c-1.13-1.26-2.2-2.44-3.13-3.7a17,17,0,0,1-1.65-2.66,30.19,30.19,0,0,1-2-7.32c-.59-3.05-1.2-6.2-2.75-8.88a20.14,20.14,0,0,0-4.75-5.31c-.84-.7-1.71-1.37-2.58-2a35.07,35.07,0,0,1-5-4.36,32.19,32.19,0,0,1-4-6.49,31.87,31.87,0,0,0-4.81-7.49,18.1,18.1,0,0,0-2.75-2.34v3.28a11.68,11.68,0,0,1,.89.82,29.6,29.6,0,0,1,4.4,6.9,35.12,35.12,0,0,0,4.36,7,37.36,37.36,0,0,0,5.34,4.7c.84.65,1.69,1.3,2.5,2a17.72,17.72,0,0,1,4.18,4.63c1.34,2.31,1.88,5.12,2.45,8.09a32.35,32.35,0,0,0,2.25,7.94,18.58,18.58,0,0,0,1.9,3.07,49,49,0,0,0,3.29,3.89,27.6,27.6,0,0,1,4.84,6.49c1.27,2.7,1.51,5.8,1.77,9.07.09,1.16.19,2.36.33,3.53a23.72,23.72,0,0,0,.64,3.5,36.46,36.46,0,0,0,2.93,7c1.38,2.77,2.69,5.39,3.1,8.21a24.65,24.65,0,0,1-.16,6.38l-.15,1.19a25.17,25.17,0,0,0,2,16.37c1.17,3,2.28,5.83,2.28,8.7s-1.11,5.69-2.28,8.69a25.19,25.19,0,0,0-2,16.38l.15,1.18a24.65,24.65,0,0,1,.16,6.38c-.41,2.82-1.72,5.44-3.11,8.22a37.67,37.67,0,0,0-2.93,7,24.78,24.78,0,0,0-.63,3.49c-.14,1.18-.24,2.38-.33,3.54-.26,3.28-.51,6.37-1.77,9.07a27.66,27.66,0,0,1-4.85,6.49c-1.11,1.24-2.27,2.53-3.27,3.87a19,19,0,0,0-1.91,3.1,27.49,27.49,0,0,0-2,6.58l2.79-.84a21.45,21.45,0,0,1,1.49-4.63A15.8,15.8,0,0,1,348.2,446.05Z"/><path class="cls-5" d="M372.17,437.77c1.82-3.67,2.43-7.76,3-11.71.13-.92.27-1.83.42-2.75.23-1.41.46-2.54.72-3.54a57.4,57.4,0,0,1,2.5-7.06,42.75,42.75,0,0,0,3.22-10.4,39.64,39.64,0,0,0,.07-7.63l0-.6a33.08,33.08,0,0,1,2.22-17.26c1.22-3.53,2.49-7.19,2.49-11s-1.27-7.44-2.49-11a33.06,33.06,0,0,1-2.22-17.25l0-.61a39.64,39.64,0,0,0-.07-7.63A43.23,43.23,0,0,0,378.84,319a55.88,55.88,0,0,1-2.51-7.06c-.26-1-.48-2.13-.72-3.55-.15-.91-.28-1.83-.42-2.74-.59-3.95-1.2-8-3-11.7a41.09,41.09,0,0,0-5.39-7.65c-1.19-1.45-2.42-2.94-3.46-4.45a22.68,22.68,0,0,1-1.79-3.05,42.22,42.22,0,0,1-2.51-8,36.86,36.86,0,0,0-3.28-9.66,24.74,24.74,0,0,0-4.91-5.95c-1.08-1-2.23-2-3.34-2.92a52.86,52.86,0,0,1-4.87-4.46,48.76,48.76,0,0,1-5-7l-.81-1.27-2.32.69,1.16,1.82a49.82,49.82,0,0,0,5.27,7.34A54.68,54.68,0,0,0,346,254c1.09.92,2.22,1.87,3.26,2.85a22.61,22.61,0,0,1,4.47,5.39,34.8,34.8,0,0,1,3.05,9.05,42.31,42.31,0,0,0,2.67,8.49,24,24,0,0,0,2,3.37c1.09,1.59,2.36,3.13,3.58,4.61a39.18,39.18,0,0,1,5.1,7.2c1.66,3.34,2.21,7.07,2.8,11,.14.93.28,1.86.43,2.77.25,1.5.49,2.69.76,3.76a59.26,59.26,0,0,0,2.6,7.35,41.34,41.34,0,0,1,3.07,9.83,37.35,37.35,0,0,1,.05,7.18l0,.61a47.12,47.12,0,0,0,.18,10.61,48,48,0,0,0,2.16,7.55c1.16,3.35,2.36,6.81,2.36,10.21s-1.2,6.87-2.36,10.22a35.34,35.34,0,0,0-2.34,18.16l0,.6a37.34,37.34,0,0,1-.05,7.18,41.27,41.27,0,0,1-3.07,9.84,59.26,59.26,0,0,0-2.6,7.35c-.28,1.07-.52,2.26-.76,3.74-.15.93-.29,1.86-.43,2.79-.59,3.94-1.15,7.67-2.8,11a40.16,40.16,0,0,1-5.1,7.2c-1.19,1.43-2.41,2.92-3.48,4.46l3.78-1.14,1.49-1.84A40.75,40.75,0,0,0,372.17,437.77Z"/><path class="cls-6" d="M392.1,425.87l.22-1.13c.24-1.19.53-2.58.86-3.92.6-2.38,1.4-4.8,2.18-7.13a63.57,63.57,0,0,0,3.17-12.24,62.71,62.71,0,0,0,.28-8.23,61.15,61.15,0,0,1,.7-11.77,64.87,64.87,0,0,1,2-7.4c1.25-4.05,2.55-8.24,2.55-12.54s-1.3-8.5-2.56-12.55a66.79,66.79,0,0,1-2-7.39,61.42,61.42,0,0,1-.7-11.81,62.46,62.46,0,0,0-.28-8.19,63.47,63.47,0,0,0-3.17-12.23c-.77-2.34-1.58-4.75-2.17-7.14-.34-1.34-.63-2.73-.87-3.93l-.22-1.12c-1-4.86-2-9.89-4.34-14.4a56.25,56.25,0,0,0-5.48-8.08c-1.32-1.73-2.68-3.51-3.84-5.32a30,30,0,0,1-1.92-3.42,56.72,56.72,0,0,1-3-8.7,48.35,48.35,0,0,0-3.83-10.48,30.82,30.82,0,0,0-5.08-6.61c-1.39-1.42-2.9-2.77-4.35-4.08-1-.9-2-1.82-3-2.75L355,234c1.25,1.26,2.57,2.47,3.87,3.64s2.9,2.61,4.25,4a28.53,28.53,0,0,1,4.75,6.16,47.42,47.42,0,0,1,3.64,10,57.55,57.55,0,0,0,3.08,9,31.72,31.72,0,0,0,2.05,3.66c1.21,1.88,2.6,3.7,3.95,5.46a55.06,55.06,0,0,1,5.27,7.77c2.22,4.25,3.15,8.91,4.15,13.85l.22,1.11c.25,1.23.54,2.65.89,4,.62,2.46,1.43,4.91,2.22,7.28a62.37,62.37,0,0,1,3.08,11.83,61.65,61.65,0,0,1,.26,7.95,63.38,63.38,0,0,0,.73,12.18,70.43,70.43,0,0,0,2.05,7.63c1.21,3.9,2.46,7.93,2.46,11.92s-1.25,8-2.46,11.92a69.82,69.82,0,0,0-2.05,7.63,63.72,63.72,0,0,0-.73,12.24,63,63,0,0,1-.26,7.9A62.27,62.27,0,0,1,393.36,413c-.79,2.37-1.61,4.83-2.22,7.29-.35,1.38-.64,2.8-.89,4l-.22,1.13c-1,4.94-1.94,9.6-4.15,13.86q-.56,1.05-1.2,2.07l2.95-.89.12-.21C390.1,435.76,391.11,430.73,392.1,425.87Z"/><path class="cls-7" d="M409.29,425.06q.36-1.59.75-3.18c.5-2.07,1.09-4.16,1.65-6.19A99.2,99.2,0,0,0,415,400.6c.29-2.56.37-5.17.45-7.69l0-1.18a79.88,79.88,0,0,1,1.28-12.84c.49-2.42,1.19-4.91,1.86-7.31,1.32-4.66,2.67-9.48,2.67-14.4s-1.35-9.75-2.66-14.4c-.68-2.41-1.38-4.9-1.87-7.32a80.92,80.92,0,0,1-1.28-12.84l0-1.16c-.08-2.53-.16-5.14-.45-7.7a99.07,99.07,0,0,0-3.32-15.08c-.56-2-1.14-4.13-1.65-6.2-.26-1.05-.5-2.1-.74-3.15l-.27-1.15c-1.22-5.2-2.76-11.2-5.68-16.61a82,82,0,0,0-5.49-8.37c-1.48-2.05-3-4.18-4.31-6.33a41.64,41.64,0,0,1-2-3.79,75.88,75.88,0,0,1-3.38-9.31,64.66,64.66,0,0,0-4.4-11.36,35.57,35.57,0,0,0-4-5.83l-2,.59a35,35,0,0,1,4.36,6.14,63.45,63.45,0,0,1,4.26,11,76.09,76.09,0,0,0,3.47,9.54,43.18,43.18,0,0,0,2.14,4c1.34,2.21,2.88,4.37,4.38,6.45a77,77,0,0,1,5.36,8.17c2.82,5.2,4.32,11.06,5.51,16.14l.27,1.14c.24,1.06.48,2.13.74,3.18.52,2.09,1.1,4.21,1.67,6.25A97.39,97.39,0,0,1,413.13,314c.28,2.49.37,5.06.45,7.55l0,1.17a81.82,81.82,0,0,0,1.32,13.14c.5,2.5,1.21,5,1.9,7.46,1.27,4.53,2.6,9.22,2.6,13.89s-1.33,9.35-2.6,13.88c-.69,2.44-1.4,5-1.9,7.46a80.91,80.91,0,0,0-1.32,13.14l0,1.19c-.08,2.48-.16,5-.44,7.53a97.25,97.25,0,0,1-3.26,14.8c-.57,2-1.15,4.16-1.67,6.25-.26,1.06-.51,2.14-.75,3.21l-.26,1.09a94.23,94.23,0,0,1-2.7,9.67l2.22-.67c1-2.94,1.69-5.86,2.32-8.57Z"/><path class="cls-8" d="M426.75,423.52l.48-2a166.12,166.12,0,0,0,4.26-21.78c.23-2.22.37-4.47.51-6.66.06-.95.12-1.9.19-2.85a101.7,101.7,0,0,1,1.87-13.9c.48-2.26,1.08-4.58,1.66-6.82,1.41-5.4,2.86-11,2.86-16.67s-1.46-11.27-2.86-16.67c-.58-2.24-1.18-4.55-1.66-6.82a101.92,101.92,0,0,1-1.87-13.9c-.07-.94-.13-1.9-.19-2.85-.13-2.18-.28-4.43-.51-6.65a165.84,165.84,0,0,0-4.25-21.74l-.49-2c-.33-1.35-.66-2.7-1-4.05a73.74,73.74,0,0,0-6.8-17.7c-1.63-2.91-3.54-5.73-5.39-8.45-1.67-2.46-3.41-5-4.89-7.58-.8-1.38-1.52-2.78-2.16-4.15-1.46-3.15-2.64-6.55-3.78-9.84s-2.26-6.5-3.68-9.63l-1.62.49c1.44,3.12,2.61,6.44,3.73,9.69a106.43,106.43,0,0,0,3.84,10c.66,1.42,1.41,2.86,2.23,4.28,1.51,2.63,3.26,5.2,4.95,7.69,1.83,2.69,3.72,5.47,5.31,8.32a71.91,71.91,0,0,1,6.65,17.31c.35,1.34.67,2.68,1,4l.49,2.05a164.57,164.57,0,0,1,4.21,21.53c.23,2.18.37,4.42.51,6.58.06,1,.12,1.91.19,2.86a102.4,102.4,0,0,0,1.9,14.13c.48,2.3,1.09,4.63,1.68,6.89,1.38,5.3,2.8,10.78,2.8,16.25s-1.42,11-2.8,16.25c-.59,2.26-1.2,4.59-1.68,6.9a104.72,104.72,0,0,0-1.9,14.12c-.07.95-.13,1.91-.19,2.86-.14,2.17-.28,4.41-.51,6.6a163.4,163.4,0,0,1-4.22,21.56l-.48,2c-.33,1.34-.65,2.68-1,4q-.33,1.29-.69,2.52l1.88-.57c.15-.51.29-1,.42-1.53C426.09,426.22,426.42,424.87,426.75,423.52Z"/><path class="cls-9" d="M448.39,394.13c.15-1.81.3-3.62.49-5.41a134.48,134.48,0,0,1,2.45-15c.42-1.9.89-3.8,1.35-5.7,1.56-6.34,3.16-12.9,3.16-19.56s-1.6-13.22-3.16-19.56c-.46-1.9-.93-3.8-1.35-5.7a134.48,134.48,0,0,1-2.45-14.95c-.19-1.82-.34-3.64-.49-5.46-.14-1.57-.27-3.14-.42-4.7A187,187,0,0,0,443.74,273c-.46-1.94-.87-3.52-1.28-5a84.73,84.73,0,0,0-7.93-18.8c-1.6-2.78-3.38-5.52-5.1-8.17-1.94-3-3.95-6.07-5.66-9.19-.82-1.48-1.59-3-2.28-4.51-1.53-3.31-2.85-6.83-4.12-10.24-.2-.56-.42-1.13-.63-1.69l-1.39.41c.23.6.45,1.19.67,1.78,1.28,3.44,2.6,7,4.15,10.35.72,1.54,1.5,3.09,2.33,4.6,1.74,3.16,3.76,6.27,5.72,9.27,1.71,2.64,3.48,5.36,5.06,8.11a83,83,0,0,1,7.79,18.48c.41,1.44.81,3,1.27,4.93a185.33,185.33,0,0,1,4.19,24.91q.23,2.34.42,4.68c.15,1.83.31,3.66.49,5.49a137.39,137.39,0,0,0,2.48,15.11c.43,1.91.89,3.82,1.36,5.73,1.53,6.26,3.12,12.73,3.12,19.22s-1.59,13-3.12,19.21c-.47,1.92-.93,3.83-1.36,5.74a137,137,0,0,0-2.48,15.11c-.18,1.81-.34,3.62-.49,5.44-.13,1.58-.26,3.16-.42,4.74a188.56,188.56,0,0,1-4.19,24.91c0,.12,0,.21-.08.32l1.59-.48A188.93,188.93,0,0,0,448,398.89C448.12,397.31,448.26,395.72,448.39,394.13Z"/><path class="cls-10" d="M464.56,291.57l-.11-1.25c-.86-9.26-1.8-18.3-3.85-27-.46-1.92-.92-3.67-1.43-5.32a93,93,0,0,0-9.05-19.9c-1.45-2.47-3-5-4.5-7.34-2.32-3.69-4.71-7.51-6.75-11.36-.82-1.56-1.63-3.19-2.4-4.86q-1-2.19-1.92-4.44l-1.18.36c.64,1.54,1.3,3.08,2,4.59.78,1.69,1.59,3.35,2.43,4.92,2.06,3.9,4.47,7.73,6.79,11.44,1.5,2.39,3.05,4.85,4.49,7.31A92.28,92.28,0,0,1,458,258.34c.5,1.63,1,3.34,1.41,5.24,2,8.64,3,17.63,3.82,26.85l.11,1.25c.3,3.16.6,6.44,1,9.64.62,4.66,1.56,9.63,3.06,16.11v-5.65c-.83-4-1.43-7.38-1.86-10.62S464.85,294.72,464.56,291.57Z"/><path class="cls-10" d="M464.36,387c-.42,3.22-.73,6.51-1,9.69l-.11,1.21c-.65,7-1.34,13.82-2.52,20.48l1.3-.4c1.13-6.51,1.81-13.18,2.43-20l.12-1.21c.29-3.17.59-6.45,1-9.64s1-6.66,1.86-10.62v-5.64C465.92,377.4,465,382.37,464.36,387Z"/><path class="cls-11" d="M454,206.88c-.39-.76-.75-1.53-1.12-2.3l-1,.29c.39.82.79,1.65,1.2,2.46,2.55,5,5.56,9.91,8.47,14.67,2,3.23,4,6.5,5.88,9.85v-2c-1.64-2.83-3.34-5.62-5-8.37C459.5,216.73,456.5,211.83,454,206.88Z"/><path class="cls-12" d="M315.55,474.14a1.48,1.48,0,0,0,.9.3,1.59,1.59,0,0,0,.43-.06L485.2,423.57a1.5,1.5,0,0,0,1.07-1.43V193.41a1.52,1.52,0,0,0-.61-1.21,1.5,1.5,0,0,0-1.33-.23l-15.64,4.71a1.27,1.27,0,0,0-.39.12L316,242.67A1.49,1.49,0,0,0,315,244.1V472.94A1.48,1.48,0,0,0,315.55,474.14Zm2.4-90.73L447.7,422.34,318,461.55Zm0,81.27,151.41-45.75.07,0,.15-.06.12-.07.12-.08.12-.09.09-.1.1-.12h0l11.12,3.26L318,470.92ZM483.27,421l-.26.08-12.58-3.69V199.29l12.84-3.87ZM467.43,200.2V416.38l-18,5.44L318,382.37V245.22Z"/><path class="cls-12" d="M522.42,477.06l.09-.11a.57.57,0,0,0,.08-.13.75.75,0,0,0,.07-.12l.06-.13c0-.05,0-.1,0-.14l0-.14a.86.86,0,0,0,0-.16s0-.05,0-.08V463.72s0,0,0-.06a1.36,1.36,0,0,0,0-.2.36.36,0,0,0,0-.1.84.84,0,0,0,0-.17l-.05-.11a1.09,1.09,0,0,0-.08-.15l-.06-.1-.11-.13-.08-.08-.13-.11-.11-.07-.14-.07a.75.75,0,0,0-.13-.06l-.08,0-12-3.6v-9.22h0v-9.13a.43.43,0,0,1,0-.05.77.77,0,0,0,0-.15.59.59,0,0,0,0-.14c0-.05,0-.09,0-.14l-.05-.14-.07-.12-.08-.13a.87.87,0,0,0-.09-.11l-.09-.1-.11-.09-.13-.09a.39.39,0,0,0-.11-.06l-.15-.08h-.05l-6.63-2.29V168.9l7.24-7.45a1.5,1.5,0,0,0,.43-1V145a4.32,4.32,0,0,0-1-8.35l-.12,0L301,74.31l-.11,0-.18,0h-.13a.86.86,0,0,0-.16,0l-.13,0-.16,0L92.84,136.62h-.1a4.32,4.32,0,0,0-1.3,8.38v15.4a1.49,1.49,0,0,0,.42,1l7.25,7.45V436.7l-6.74,2.86a1.51,1.51,0,0,0-.91,1.38v22.11a1.49,1.49,0,0,0,1.06,1.43l207.65,62.33h.05a1.59,1.59,0,0,0,.38.06h0a1.59,1.59,0,0,0,.38-.06H301l135.14-40.55,27.76,8.41a1.42,1.42,0,0,0,.88,0l56.92-17.18.07,0,.16-.06.11-.06.13-.09.11-.09Zm-220.31,46.3V503.31l133.52-40.05v20l-.19.08ZM91.59,141a1.34,1.34,0,0,1,1.23-1.32l206.29,61.86v3.6L94.43,143.71a1.5,1.5,0,0,0-1.49-1.42A1.34,1.34,0,0,1,91.59,141ZM464.38,480.37,453.06,477l54-16.29,0,0,.07.07.12.13.09.07.15.1.1.06.17.07.06,0,10,3Zm42.38-31.89-10.93-3.27,10.93-3.28Zm-12.67-2.75,12.43,3.73-55.2,16.66L438,462.56ZM451.83,467l54.93-16.58v9.3L451.83,476.3ZM302.11,502.26v-4.5L499.4,438.57a.39.39,0,0,0,.08.1l.1.11.11.09.12.09.11.06.16.07,0,0,5.86,2Zm-200-64.64V169.26l197,59V496.72Zm197-231.48v14.52L94.44,159.28V144.76Zm1.5-120.78L489.74,142.1,300.61,198.81l-189-56.67Zm1.5,135.3V206.14l204.67-61.38v14.52Zm197,217-197,59.1V228.28l197-59Zm.42-270.38v0a1.35,1.35,0,0,0-.3.47s0,0,0,0a1.64,1.64,0,0,0-.09.44l-197,59v-3.45l201.07-60.3Zm7.25-23.53L302.11,205.09v-3.6L508.4,139.63a1.33,1.33,0,0,1-.12,2.66A1.51,1.51,0,0,0,506.78,143.71Zm-15.3-2.14L301.11,84.46v-7l202,60.61ZM300.11,77.47v7L109.89,141.62l-11.65-3.49Zm-1,146.32v3.45l-197-59a1.64,1.64,0,0,0-.09-.44.06.06,0,0,1,0,0,1.38,1.38,0,0,0-.31-.47s0,0,0,0L98,163.49ZM101.19,439.07l.07,0,.19-.1.13-.1.09-.09a.58.58,0,0,0,.1-.12.1.1,0,0,0,0-.05l197.3,59.19v4.5L95.92,441.31Zm335.44,44.2v-20l14.2,3.78v10a.51.51,0,0,0,.09.27l0,0a.51.51,0,0,0,.23.15h0l12.69,3.82v10.25Zm28.25,8.25V481.27l54.7-16.51.23.07v10.11ZM94.46,441.93h0l204.63,61.39v20.05L94.46,461.93Z"/><path class="cls-12" d="M258.81,254.46v-.3a1.53,1.53,0,0,0-.07-.29h0v0a2.44,2.44,0,0,0-.1-.24l-.09-.14a.36.36,0,0,1-.07-.1l-.14-.13a.23.23,0,0,0-.07-.07l-.19-.13-.05,0a1.48,1.48,0,0,0-.29-.12l-103-30.76h-.05l-.25-.05h-.29a1.08,1.08,0,0,0-.19,0l-.1,0-5.25,1.63a1.49,1.49,0,0,0-.68.44l0,0-.13.18a.43.43,0,0,0,0,.07,1.52,1.52,0,0,0-.17.56v.29a1.53,1.53,0,0,0,.26.69l0,.06a1.33,1.33,0,0,0,.29.29l.07,0a1.29,1.29,0,0,0,.33.17l.05,0h0c3.25,1,4.64,3.14,4.64,7.25v11.2s0,.05,0,.07a.78.78,0,0,0,0,.16.68.68,0,0,0,0,.14l.05.14a.31.31,0,0,0,.06.13l.06.13.08.12.1.11.09.1.12.09.12.08.12.07a.47.47,0,0,0,.15.06l.07,0,2,.59V354.93a1.5,1.5,0,0,0,3,0V248l83.59,25V412.25l-11.28-3.38a.5.5,0,0,0-.29.95l15,4.5v5.91l-27.74-8.32a1.5,1.5,0,1,0-.86,2.87l28.67,8.6a1.52,1.52,0,0,0,.42.06h0a1.59,1.59,0,0,0,.43-.06l5.25-1.63a1.48,1.48,0,0,0,1.05-1.43v-8.08c0-.05,0-.1,0-.16l0-.13c0-.05,0-.1,0-.14l-.06-.14a.75.75,0,0,0-.07-.12l-.08-.12-.09-.11-.1-.11-.11-.09-.12-.08-.12-.07-.16-.06-.07,0-2.34-.7v-137l2.36-.73a1.5,1.5,0,0,0,.79-.6v0a.94.94,0,0,0,.12-.22l0-.06.06-.2s0-.06,0-.1,0-.12,0-.18v-11.3c0-2.69.94-3,3.71-3.85l.5-.16h0a1.48,1.48,0,0,0,.35-.19l.07,0a2.06,2.06,0,0,0,.29-.3l0-.06a1.41,1.41,0,0,0,.19-.39h0A1.5,1.5,0,0,0,258.81,254.46ZM156.27,244V233.87c0-.37,0-.7-.05-1.05l90.23,27a9.31,9.31,0,0,0-.14,1.59v9.51Zm91,26.95v-9.5c0-3.14,1.4-3.84,3.75-4.6a8,8,0,0,0-.5,3V269.9ZM153,225.55l1.36-.42,98.53,29.42a5.2,5.2,0,0,0-1,1l-.4.13c-2.13.66-3.93,1.23-4.7,3.21l-90.58-27.1A9.06,9.06,0,0,0,153,225.55Zm93.42,48.52a1.52,1.52,0,0,0,.42.06h0l.32-.05V411.24l-3.25,1V273.32Zm.43,139.35-1.7-.51,2.34-.72.09.11.1.1.11.09.13.09.12.06.15.06.07,0,.42.13Zm.5,6.8v-5.91l3-.94.21.07v5.77Z"/><path class="cls-12" d="M234.9,330v43.4a.5.5,0,0,0,1,0V277.61a.5.5,0,0,0-.36-.48L166,256.27h-.18l-.09,0-.1,0-.06.05-.09.07,0,.06-.05.1,0,0v.06a.24.24,0,0,0,0,.08v95.77a.5.5,0,0,0,.5.5.5.5,0,0,0,.5-.5v-43.1l33.78,10.13V363a.5.5,0,0,0,.5.5.5.5,0,0,0,.5-.5V319.85Zm0-1.05-33.77-10.12v-51L234.9,278Zm-68.55-20.55v-51l33.78,10.13v51Z"/><g id="Fill"><polygon class="cls-11" points="235.4 373.38 235.4 408.17 210.65 415.59 141.1 394.74 141.1 359.95 165.86 352.53 235.4 373.38"/></g><circle class="cls-13" cx="157.81" cy="360.2" r="2.09"/><path class="cls-13" d="M258.64,378.66a1.51,1.51,0,0,0,1.5,1.44h.07a1.51,1.51,0,0,0,1.43-1.57,11.15,11.15,0,0,0-1.69-5.45,1.5,1.5,0,1,0-2.54,1.59A8.23,8.23,0,0,1,258.64,378.66Z"/><path class="cls-13" d="M260.15,385.1a1.5,1.5,0,0,0-1.5,1.5v5a1.5,1.5,0,0,0,3,0v-5A1.5,1.5,0,0,0,260.15,385.1Z"/><path class="cls-13" d="M260.15,397.63a1.5,1.5,0,0,0-1.5,1.5v2l-.69.21a1.5,1.5,0,0,0,.43,2.94,1.29,1.29,0,0,0,.43-.07l1.76-.52a1.5,1.5,0,0,0,1.07-1.44v-3.16A1.5,1.5,0,0,0,260.15,397.63Z"/><path class="cls-13" d="M253.67,368.28l-.23-.06-.07,0-4.79-1.44A1.49,1.49,0,0,0,246.9,369a1.47,1.47,0,0,0-.07.86,1.5,1.5,0,0,0,1.8,1.13,8.19,8.19,0,0,1,4.17.15,1.67,1.67,0,0,0,.44.06,1.5,1.5,0,0,0,.43-2.93Z"/><path class="cls-13" d="M251.25,403.39l-4.79,1.44a1.5,1.5,0,0,0,.43,2.94,1.61,1.61,0,0,0,.43-.07l4.79-1.43a1.5,1.5,0,0,0-.86-2.88Z"/><path class="cls-13" d="M241.15,370.09l-3.7,1.11a2.9,2.9,0,0,0-1.19-.69L171,350.94a1.49,1.49,0,0,0-1.31-2.64l-4.18,1.25a3.41,3.41,0,0,0-.54.1l-24.75,7.42A3,3,0,0,0,138.1,360v34.78a3,3,0,0,0,2.14,2.88l69.55,20.85a2.91,2.91,0,0,0,1.72,0L236.26,411a1.17,1.17,0,0,0,.26-.1l4.1-1.23a1.5,1.5,0,0,0-.86-2.87l-1.36.41v-33.2L242,373a1.5,1.5,0,1,0-.87-2.87Zm-18.51,15.64,12.76-3.83v16h-.14l-12.62,3.78Zm-57.56-18.07v3.17l-23.84-7.14a.32.32,0,0,0-.14,0v-3.2Zm19.19,5.75v7.4l-18.19-5.46V368Zm25.88,7.76v3.18l-24.88-7.46v-3.18Zm-24.88-3.24,24.88,7.46v3.18l-24.88-7.46ZM210.15,397l-68.91-20.67h-.14v-3.21l69.05,20.71Zm0,1v3.17l-68.91-20.66h-.14v-3.21Zm0-8.44v3.18l-68.91-20.67h-.14V368.9Zm-45.07-14.56-23.84-7.15h-.14v-3.2l24,7.19Zm-24,6.51,69.05,20.71v3.17l-68.91-20.66a.32.32,0,0,0-.14,0Zm0,4.22,69.05,20.71v3.17L141.24,389a.32.32,0,0,0-.14,0Zm69.55-5.5L185,372.6a.47.47,0,0,0-.26-.08h0l-19-5.69a.35.35,0,0,0-.11,0L142,359.68l23.88-7.16,68.68,20.6ZM141.1,394.73V390l69.05,20.7v4.74Zm70.05,20.71V381.17l24.25-7.27v7h-.14l-13.26,4h0l-.09.05-.07.05a.19.19,0,0,0-.06.07l-.06.08a.29.29,0,0,0,0,.09.3.3,0,0,0,0,.1v16.92s0,0,0,0a.5.5,0,0,0,0,.21.51.51,0,0,0,.48.36.32.32,0,0,0,.14,0l13.12-3.93v9.27Z"/><path class="cls-13" d="M224.73,362.74l4.79,1.43a1.29,1.29,0,0,0,.43.07,1.5,1.5,0,0,0,.43-2.94l-4.79-1.44a1.5,1.5,0,0,0-.86,2.88Z"/><path class="cls-13" d="M213.24,359.29l4.79,1.44a1.59,1.59,0,0,0,.43.06,1.5,1.5,0,0,0,.43-2.94l-4.79-1.43a1.5,1.5,0,1,0-.86,2.87Z"/><path class="cls-13" d="M236.23,366.18l4.78,1.44a1.67,1.67,0,0,0,.44.06,1.5,1.5,0,0,0,.43-2.93l-4.79-1.44a1.51,1.51,0,0,0-1.87,1A1.49,1.49,0,0,0,236.23,366.18Z"/><path class="cls-13" d="M178.28,349.76a8.12,8.12,0,0,1,3.63.12l.59.17a1.25,1.25,0,0,0,.43.07,1.5,1.5,0,0,0,.43-2.94l-.59-.17-.15-.05a11.13,11.13,0,0,0-4.91-.14,1.49,1.49,0,0,0-1.19,1.75A1.51,1.51,0,0,0,178.28,349.76Z"/><path class="cls-13" d="M201.74,355.84l4.79,1.44a1.65,1.65,0,0,0,.43.06,1.51,1.51,0,0,0,1.44-1.07,1.49,1.49,0,0,0-1-1.86L202.6,353a1.5,1.5,0,0,0-.86,2.87Z"/><path class="cls-13" d="M190.25,352.4l4.79,1.43a1.29,1.29,0,0,0,.43.07,1.5,1.5,0,0,0,.43-2.94l-4.79-1.44a1.5,1.5,0,1,0-.86,2.88Z"/></g></svg>